<?xml version="1.0" encoding="utf-8" standalone="no"?>
<!DOCTYPE svg PUBLIC "-//W3C//DTD SVG 1.1//EN"
  "http://www.w3.org/Graphics/SVG/1.1/DTD/svg11.dtd">
<!-- Created with matplotlib (https://matplotlib.org/) -->
<svg height="327.958pt" version="1.1" viewBox="0 0 556.013266 327.958" width="556.013266pt" xmlns="http://www.w3.org/2000/svg" xmlns:xlink="http://www.w3.org/1999/xlink">
 <defs>
  <style type="text/css">
*{stroke-linecap:butt;stroke-linejoin:round;}
  </style>
 </defs>
 <g id="figure_1">
  <g id="patch_1">
   <path d="M 0 327.958 
L 556.013266 327.958 
L 556.013266 0 
L 0 0 
z
" style="fill:none;"/>
  </g>
  <g id="axes_1">
   <g id="patch_2">
    <path d="M 62.9 244.28 
L 498.316391 244.28 
L 498.316391 7.2 
L 62.9 7.2 
z
" style="fill:none;"/>
   </g>
   <g id="patch_3">
    <path clip-path="url(#pd40d96e799)" d="M 82.691654 54010.338223 
L 97.916004 54010.338223 
L 97.916004 141.975693 
L 82.691654 141.975693 
z
" style="fill:#1a5276;stroke:#000000;stroke-linejoin:miter;stroke-width:0.5;"/>
   </g>
   <g id="patch_4">
    <path clip-path="url(#pd40d96e799)" d="M 128.364702 54010.338223 
L 143.589052 54010.338223 
L 143.589052 133.76488 
L 128.364702 133.76488 
z
" style="fill:#1a5276;stroke:#000000;stroke-linejoin:miter;stroke-width:0.5;"/>
   </g>
   <g id="patch_5">
    <path clip-path="url(#pd40d96e799)" d="M 174.03775 54010.338223 
L 189.2621 54010.338223 
L 189.2621 127.680103 
L 174.03775 127.680103 
z
" style="fill:#1a5276;stroke:#000000;stroke-linejoin:miter;stroke-width:0.5;"/>
   </g>
   <g id="patch_6">
    <path clip-path="url(#pd40d96e799)" d="M 219.710798 54010.338223 
L 234.935148 54010.338223 
L 234.935148 109.457653 
L 219.710798 109.457653 
z
" style="fill:#1a5276;stroke:#000000;stroke-linejoin:miter;stroke-width:0.5;"/>
   </g>
   <g id="patch_7">
    <path clip-path="url(#pd40d96e799)" d="M 265.383846 54010.338223 
L 280.608196 54010.338223 
L 280.608196 96.583948 
L 265.383846 96.583948 
z
" style="fill:#1a5276;stroke:#000000;stroke-linejoin:miter;stroke-width:0.5;"/>
   </g>
   <g id="patch_8">
    <path clip-path="url(#pd40d96e799)" d="M 311.056894 54010.338223 
L 326.281244 54010.338223 
L 326.281244 110.568335 
L 311.056894 110.568335 
z
" style="fill:#1a5276;stroke:#000000;stroke-linejoin:miter;stroke-width:0.5;"/>
   </g>
   <g id="patch_9">
    <path clip-path="url(#pd40d96e799)" d="M 356.729942 54010.338223 
L 371.954292 54010.338223 
L 371.954292 22.1769 
L 356.729942 22.1769 
z
" style="fill:#1a5276;stroke:#000000;stroke-linejoin:miter;stroke-width:0.5;"/>
   </g>
   <g id="patch_10">
    <path clip-path="url(#pd40d96e799)" d="M 402.402991 54010.338223 
L 417.62734 54010.338223 
L 417.62734 88.231673 
L 402.402991 88.231673 
z
" style="fill:#1a5276;stroke:#000000;stroke-linejoin:miter;stroke-width:0.5;"/>
   </g>
   <g id="patch_11">
    <path clip-path="url(#pd40d96e799)" d="M 448.076039 54010.338223 
L 463.300388 54010.338223 
L 463.300388 111.652636 
L 448.076039 111.652636 
z
" style="fill:#1a5276;stroke:#000000;stroke-linejoin:miter;stroke-width:0.5;"/>
   </g>
   <g id="patch_12">
    <path clip-path="url(#pd40d96e799)" d="M 97.916004 54010.338223 
L 113.140353 54010.338223 
L 113.140353 218.288756 
L 97.916004 218.288756 
z
" style="fill:#7f8c8d;stroke:#000000;stroke-linejoin:miter;stroke-width:0.5;"/>
   </g>
   <g id="patch_13">
    <path clip-path="url(#pd40d96e799)" d="M 143.589052 54010.338223 
L 158.813401 54010.338223 
L 158.813401 199.047497 
L 143.589052 199.047497 
z
" style="fill:#7f8c8d;stroke:#000000;stroke-linejoin:miter;stroke-width:0.5;"/>
   </g>
   <g id="patch_14">
    <path clip-path="url(#pd40d96e799)" d="M 189.2621 54010.338223 
L 204.486449 54010.338223 
L 204.486449 168.032059 
L 189.2621 168.032059 
z
" style="fill:#7f8c8d;stroke:#000000;stroke-linejoin:miter;stroke-width:0.5;"/>
   </g>
   <g id="patch_15">
    <path clip-path="url(#pd40d96e799)" d="M 234.935148 54010.338223 
L 250.159497 54010.338223 
L 250.159497 194.714262 
L 234.935148 194.714262 
z
" style="fill:#7f8c8d;stroke:#000000;stroke-linejoin:miter;stroke-width:0.5;"/>
   </g>
   <g id="patch_16">
    <path clip-path="url(#pd40d96e799)" d="M 280.608196 54010.338223 
L 295.832545 54010.338223 
L 295.832545 169.316243 
L 280.608196 169.316243 
z
" style="fill:#7f8c8d;stroke:#000000;stroke-linejoin:miter;stroke-width:0.5;"/>
   </g>
   <g id="patch_17">
    <path clip-path="url(#pd40d96e799)" d="M 326.281244 54010.338223 
L 341.505593 54010.338223 
L 341.505593 223.798001 
L 326.281244 223.798001 
z
" style="fill:#7f8c8d;stroke:#000000;stroke-linejoin:miter;stroke-width:0.5;"/>
   </g>
   <g id="patch_18">
    <path clip-path="url(#pd40d96e799)" d="M 371.954292 54010.338223 
L 387.178641 54010.338223 
L 387.178641 104.305431 
L 371.954292 104.305431 
z
" style="fill:#7f8c8d;stroke:#000000;stroke-linejoin:miter;stroke-width:0.5;"/>
   </g>
   <g id="patch_19">
    <path clip-path="url(#pd40d96e799)" d="M 417.62734 54010.338223 
L 432.851689 54010.338223 
L 432.851689 104.258313 
L 417.62734 104.258313 
z
" style="fill:#7f8c8d;stroke:#000000;stroke-linejoin:miter;stroke-width:0.5;"/>
   </g>
   <g id="patch_20">
    <path clip-path="url(#pd40d96e799)" d="M 463.300388 54010.338223 
L 478.524737 54010.338223 
L 478.524737 142.773771 
L 463.300388 142.773771 
z
" style="fill:#7f8c8d;stroke:#000000;stroke-linejoin:miter;stroke-width:0.5;"/>
   </g>
   <g id="matplotlib.axis_1">
    <g id="xtick_1">
     <g id="line2d_1">
      <defs>
       <path d="M 0 0 
L 0 3.5 
" id="mf39f85c59f" style="stroke:#000000;stroke-width:0.8;"/>
      </defs>
      <g>
       <use style="stroke:#000000;stroke-width:0.8;" x="97.916004" xlink:href="#mf39f85c59f" y="244.28"/>
      </g>
     </g>
     <g id="text_1">
      <!-- 1 -->
      <defs>
       <path d="M 7.46875 55.171875 
L 6.59375 55.46875 
L 6.109375 59.46875 
L 6.59375 59.96875 
Q 11.46875 61.375 18.9375 64.5 
Q 26.421875 67.625 29.640625 69.28125 
L 30.90625 68.796875 
Q 30.125 47.40625 30.125 43.109375 
L 30.125 25 
Q 30.125 18.3125 30.265625 12.421875 
Q 30.421875 6.546875 30.703125 5.484375 
Q 31 4.4375 31.703125 3.84375 
Q 32.421875 3.265625 33.6875 3.09375 
Q 34.96875 2.9375 41.265625 2.59375 
L 41.609375 2.203125 
L 41.609375 0 
L 41.265625 -0.390625 
Q 30.5625 0 26.171875 0 
Q 22.859375 0 9.90625 -0.390625 
L 9.578125 0 
L 9.578125 2.203125 
L 9.96875 2.59375 
Q 17.28125 3.125 18.328125 3.359375 
Q 19.390625 3.609375 19.953125 4.21875 
Q 20.515625 4.828125 20.84375 6.53125 
Q 21.1875 8.25 21.40625 16.640625 
Q 21.625 25.046875 21.625 25.25 
L 21.625 44.484375 
Q 21.625 58.640625 21.546875 59.859375 
Q 21.484375 61.078125 20.703125 61.078125 
Q 20.515625 61.078125 20.171875 60.984375 
Q 19.828125 60.890625 18.015625 60.109375 
L 13.1875 57.953125 
Q 10.15625 56.640625 7.46875 55.171875 
z
" id="PalatinoLinotype-Roman-49"/>
      </defs>
      <g transform="translate(94.166004 263.626875)scale(0.15 -0.15)">
       <use xlink:href="#PalatinoLinotype-Roman-49"/>
      </g>
     </g>
    </g>
    <g id="xtick_2">
     <g id="line2d_2">
      <g>
       <use style="stroke:#000000;stroke-width:0.8;" x="143.589052" xlink:href="#mf39f85c59f" y="244.28"/>
      </g>
     </g>
     <g id="text_2">
      <!-- 2 -->
      <defs>
       <path d="M 2.25 -0.484375 
L 1.65625 0 
L 1.65625 2.25 
L 18.015625 19.578125 
Q 28.125 30.28125 31.09375 36.140625 
Q 34.078125 42 34.078125 47.078125 
Q 34.078125 53.03125 30.46875 56.984375 
Q 26.859375 60.9375 20.703125 60.9375 
Q 16.75 60.9375 13.8125 59.71875 
Q 10.890625 58.5 9.890625 56.984375 
Q 8.890625 55.46875 6.984375 48.484375 
L 6.546875 48.09375 
L 4.546875 48.09375 
L 4.046875 48.53125 
Q 5.171875 55.125 5.609375 61.578125 
Q 10.203125 66.0625 14.1875 67.3125 
Q 18.171875 68.5625 22.515625 68.5625 
Q 27.6875 68.5625 32.421875 66.609375 
Q 37.15625 64.65625 40.03125 60.28125 
Q 42.921875 55.90625 42.921875 50.140625 
Q 42.921875 45.84375 41.234375 41.515625 
Q 39.546875 37.203125 36.296875 33.171875 
Q 33.0625 29.15625 27.4375 23.53125 
L 12.203125 8.015625 
L 31.5 8.015625 
Q 40.375 8.015625 46.296875 8.640625 
L 46.625 8.25 
Q 46.34375 6.59375 46.34375 3.90625 
Q 46.34375 1.46875 46.625 0.046875 
L 46.296875 -0.484375 
Q 42.78125 -0.296875 35.5 -0.140625 
Q 28.21875 0 25.875 0 
Q 21.140625 0 13.125 -0.125 
Q 5.125 -0.25 2.25 -0.484375 
z
" id="PalatinoLinotype-Roman-50"/>
      </defs>
      <g transform="translate(139.839052 263.626875)scale(0.15 -0.15)">
       <use xlink:href="#PalatinoLinotype-Roman-50"/>
      </g>
     </g>
    </g>
    <g id="xtick_3">
     <g id="line2d_3">
      <g>
       <use style="stroke:#000000;stroke-width:0.8;" x="189.2621" xlink:href="#mf39f85c59f" y="244.28"/>
      </g>
     </g>
     <g id="text_3">
      <!-- 3 -->
      <defs>
       <path d="M 5.078125 1.125 
Q 4.203125 6.890625 1.8125 14.984375 
L 2.046875 15.71875 
L 3.859375 16.40625 
L 4.546875 16.0625 
Q 6.25 11.578125 8.203125 8.640625 
Q 10.15625 5.71875 13.8125 4.15625 
Q 17.484375 2.59375 21.734375 2.59375 
Q 27.09375 2.59375 30.25 4.828125 
Q 33.40625 7.078125 35.109375 10.9375 
Q 36.8125 14.796875 36.8125 19.625 
Q 36.8125 26.125 33.421875 29.828125 
Q 30.03125 33.546875 24.03125 33.546875 
Q 21.96875 33.546875 20.359375 33.15625 
Q 18.75 32.765625 15.375 31.390625 
L 14.84375 31.890625 
L 15.921875 37.203125 
Q 19.875 36.96875 21.1875 36.96875 
Q 26.90625 36.96875 30.25 41.015625 
Q 33.59375 45.0625 33.59375 50.59375 
Q 33.59375 55.421875 30.09375 58.6875 
Q 26.609375 61.96875 21.484375 61.96875 
Q 18.109375 61.96875 15.109375 60.59375 
Q 12.109375 59.234375 10.15625 57.28125 
Q 9.328125 55.609375 7.515625 50.734375 
L 7.03125 50.296875 
L 4.828125 50.296875 
L 4.4375 50.734375 
L 7.375 62.0625 
Q 13.484375 68.953125 23.921875 68.953125 
Q 31.890625 68.953125 36.796875 64.71875 
Q 41.703125 60.5 41.703125 54.109375 
Q 41.703125 49.21875 38.8125 45.140625 
Q 35.9375 41.0625 30.8125 37.453125 
Q 39.265625 36.421875 42.703125 32.390625 
Q 46.140625 28.375 46.140625 22.65625 
Q 46.140625 13.28125 37.640625 5.78125 
Q 29.15625 -1.703125 18.015625 -1.703125 
Q 14.703125 -1.703125 11.8125 -1.140625 
Q 8.9375 -0.59375 5.078125 1.125 
z
" id="PalatinoLinotype-Roman-51"/>
      </defs>
      <g transform="translate(185.5121 263.626875)scale(0.15 -0.15)">
       <use xlink:href="#PalatinoLinotype-Roman-51"/>
      </g>
     </g>
    </g>
    <g id="xtick_4">
     <g id="line2d_4">
      <g>
       <use style="stroke:#000000;stroke-width:0.8;" x="234.935148" xlink:href="#mf39f85c59f" y="244.28"/>
      </g>
     </g>
     <g id="text_4">
      <!-- 4 -->
      <defs>
       <path d="M 16.0625 -0.390625 
L 15.671875 0 
L 15.671875 2.09375 
L 16.0625 2.484375 
Q 23.296875 2.6875 24.640625 2.921875 
Q 25.984375 3.171875 26.609375 3.953125 
Q 27.25 4.734375 27.5625 7.765625 
Q 27.875 10.796875 27.875 14.203125 
L 27.875 17.828125 
L 17.1875 17.828125 
Q 7.859375 17.828125 1.421875 17.53125 
L 0.59375 20.171875 
Q 9.078125 36.078125 28.953125 66.265625 
L 35.84375 69.046875 
L 37.0625 68.453125 
Q 36.53125 60.15625 36.53125 47.90625 
L 36.375 34.125 
L 36.375 24.03125 
Q 43.109375 24.078125 46.78125 24.3125 
L 47.21875 23.828125 
Q 47.125 21.96875 47.125 21.140625 
Q 47.171875 19.53125 47.265625 17.96875 
L 46.78125 17.53125 
Q 42.046875 17.828125 38.875 17.828125 
L 36.375 17.828125 
L 36.375 14.546875 
Q 36.375 9.078125 36.671875 6.78125 
Q 36.96875 4.5 37.59375 3.828125 
Q 38.234375 3.171875 40.15625 2.859375 
Q 42.09375 2.546875 46.828125 2.484375 
L 47.265625 2.09375 
L 47.265625 0 
L 46.875 -0.390625 
Q 38.28125 0 32.46875 0 
Q 23 0 16.0625 -0.390625 
z
M 7.03125 24.03125 
L 27.875 24.03125 
L 28.328125 58.734375 
Q 23.640625 52.046875 16.5 40.375 
Q 9.375 28.71875 7.03125 24.03125 
z
" id="PalatinoLinotype-Roman-52"/>
      </defs>
      <g transform="translate(231.185148 263.626875)scale(0.15 -0.15)">
       <use xlink:href="#PalatinoLinotype-Roman-52"/>
      </g>
     </g>
    </g>
    <g id="xtick_5">
     <g id="line2d_5">
      <g>
       <use style="stroke:#000000;stroke-width:0.8;" x="280.608196" xlink:href="#mf39f85c59f" y="244.28"/>
      </g>
     </g>
     <g id="text_5">
      <!-- 5 -->
      <defs>
       <path d="M 6.390625 0.6875 
Q 5.21875 4.5 1.5625 13.28125 
L 1.65625 13.921875 
L 3.375 14.890625 
L 3.953125 14.75 
Q 8.015625 7.375 9.015625 6.375 
Q 10.015625 5.375 13.578125 4.03125 
Q 17.140625 2.6875 21.09375 2.6875 
Q 26.03125 2.6875 29.828125 4.828125 
Q 33.640625 6.984375 35.5 11.171875 
Q 37.359375 15.375 37.359375 20.703125 
Q 37.359375 25.921875 35.515625 29.703125 
Q 33.6875 33.5 29.921875 35.453125 
Q 26.171875 37.40625 21.828125 37.40625 
Q 19.09375 37.40625 16.875 36.671875 
Q 14.65625 35.9375 13.15625 34.78125 
Q 11.671875 33.640625 9.625 31.390625 
L 7.625 31.984375 
L 8.15625 42.484375 
Q 8.34375 45.453125 8.34375 48.484375 
L 8.34375 57.171875 
Q 8.34375 61.078125 8.109375 64.65625 
Q 7.953125 66.84375 7.953125 67.4375 
L 8.59375 67.921875 
Q 16.0625 67.328125 25.640625 67.328125 
Q 32.90625 67.328125 43.0625 67.921875 
L 43.265625 67.4375 
Q 42.921875 65.046875 42.921875 62.984375 
Q 42.921875 61.96875 43.0625 59.578125 
L 42.578125 59.28125 
Q 37.015625 59.671875 27.640625 59.671875 
Q 14.890625 59.671875 12.84375 59.578125 
Q 12.109375 53.8125 11.8125 39.265625 
Q 15.828125 42.1875 19.046875 43.234375 
Q 22.265625 44.28125 26.03125 44.28125 
Q 31.34375 44.28125 36.21875 41.84375 
Q 41.109375 39.40625 43.53125 34.765625 
Q 45.953125 30.125 45.953125 24.75 
Q 45.953125 14.84375 37.765625 6.515625 
Q 29.59375 -1.8125 16.84375 -1.8125 
Q 13.421875 -1.8125 11.203125 -1.21875 
Q 8.984375 -0.640625 6.390625 0.6875 
z
" id="PalatinoLinotype-Roman-53"/>
      </defs>
      <g transform="translate(276.858196 263.626875)scale(0.15 -0.15)">
       <use xlink:href="#PalatinoLinotype-Roman-53"/>
      </g>
     </g>
    </g>
    <g id="xtick_6">
     <g id="line2d_6">
      <g>
       <use style="stroke:#000000;stroke-width:0.8;" x="326.281244" xlink:href="#mf39f85c59f" y="244.28"/>
      </g>
     </g>
     <g id="text_6">
      <!-- 6 -->
      <defs>
       <path d="M 42.1875 67.53125 
L 42.1875 66.9375 
Q 36.859375 65.828125 30.046875 61.625 
Q 23.25 57.421875 18.609375 50.34375 
Q 13.96875 43.265625 13.234375 33.25 
Q 14.890625 34.421875 17.046875 36.078125 
Q 19.828125 38.1875 21.109375 38.96875 
Q 22.40625 39.75 24.578125 40.328125 
Q 26.765625 40.921875 29.59375 40.921875 
Q 34.625 40.921875 38.625 38.6875 
Q 42.625 36.46875 44.625 32.140625 
Q 46.625 27.828125 46.625 22.078125 
Q 46.625 13.921875 42.671875 8.421875 
Q 38.71875 2.9375 34.265625 0.5625 
Q 29.828125 -1.8125 24.078125 -1.8125 
Q 14.265625 -1.8125 8.84375 5.53125 
Q 3.421875 12.890625 3.421875 24.65625 
Q 3.421875 32.46875 5.6875 39.671875 
Q 7.953125 46.875 12.59375 52.703125 
Q 17.234375 58.546875 24.4375 63.078125 
Q 31.640625 67.625 38.625 69.234375 
z
M 12.3125 20.953125 
Q 12.3125 16.109375 13.703125 11.375 
Q 15.09375 6.640625 18.15625 4.046875 
Q 21.234375 1.46875 25.390625 1.46875 
Q 28.953125 1.46875 31.984375 3.46875 
Q 35.015625 5.46875 36.59375 9.734375 
Q 38.1875 14.015625 38.1875 18.75 
Q 38.1875 23.484375 36.625 27.21875 
Q 35.0625 30.953125 32.078125 33.03125 
Q 29.109375 35.109375 25.140625 35.109375 
Q 22.21875 35.109375 19.28125 33.6875 
Q 16.359375 32.28125 14.765625 30.46875 
Q 13.1875 28.65625 12.75 26.625 
Q 12.3125 24.609375 12.3125 20.953125 
z
" id="PalatinoLinotype-Roman-54"/>
      </defs>
      <g transform="translate(322.531244 263.626875)scale(0.15 -0.15)">
       <use xlink:href="#PalatinoLinotype-Roman-54"/>
      </g>
     </g>
    </g>
    <g id="xtick_7">
     <g id="line2d_7">
      <g>
       <use style="stroke:#000000;stroke-width:0.8;" x="371.954292" xlink:href="#mf39f85c59f" y="244.28"/>
      </g>
     </g>
     <g id="text_7">
      <!-- 7 -->
      <defs>
       <path d="M 6.59375 -0.390625 
L 5.5625 0.640625 
Q 7.328125 3.265625 12.84375 11.96875 
L 21.78125 26.21875 
L 30.171875 39.9375 
L 37.5 52.546875 
Q 39.84375 56.640625 41.21875 59.1875 
L 40.71875 59.671875 
L 25.59375 59.671875 
Q 19.875 59.671875 15.421875 59.46875 
Q 10.984375 59.28125 10.203125 58.90625 
Q 9.421875 58.546875 9.109375 58 
Q 8.796875 57.46875 8.40625 54.296875 
L 7.515625 47.40625 
L 7.078125 47.015625 
L 5.03125 47.015625 
L 4.59375 47.40625 
L 4.828125 60.796875 
Q 4.828125 63.09375 4.59375 67.875 
L 5.5625 68.359375 
Q 8.25 68.0625 16.46875 67.71875 
Q 24.703125 67.390625 27.484375 67.390625 
Q 37.40625 67.390625 49.125 68.0625 
L 49.515625 67.671875 
L 49.515625 65.140625 
L 42.484375 52.6875 
Q 36.078125 41.265625 27.875 25.609375 
Q 19.671875 9.96875 15.921875 0 
L 15.4375 -0.390625 
Q 12.640625 -0.140625 11.234375 -0.140625 
Q 8.984375 -0.140625 6.59375 -0.390625 
z
" id="PalatinoLinotype-Roman-55"/>
      </defs>
      <g transform="translate(368.204292 263.626875)scale(0.15 -0.15)">
       <use xlink:href="#PalatinoLinotype-Roman-55"/>
      </g>
     </g>
    </g>
    <g id="xtick_8">
     <g id="line2d_8">
      <g>
       <use style="stroke:#000000;stroke-width:0.8;" x="417.62734" xlink:href="#mf39f85c59f" y="244.28"/>
      </g>
     </g>
     <g id="text_8">
      <!-- 8 -->
      <defs>
       <path d="M 16.40625 34.625 
Q 10.984375 37.5 8.171875 41.234375 
Q 5.375 44.96875 5.375 50.296875 
Q 5.375 57.765625 10.890625 63.109375 
Q 16.40625 68.453125 25.921875 68.453125 
Q 30.765625 68.453125 34.890625 66.765625 
Q 39.015625 65.09375 41.25 61.75 
Q 43.5 58.40625 43.5 54.296875 
Q 43.5 50 40.859375 46.0625 
Q 38.234375 42.140625 31.546875 38.09375 
L 31.546875 37.640625 
Q 37.25 34.90625 40.015625 33 
Q 42.78125 31.109375 44.53125 27.859375 
Q 46.296875 24.609375 46.296875 20.359375 
Q 46.296875 14.546875 42.9375 9.203125 
Q 39.59375 3.859375 34.125 1.078125 
Q 28.65625 -1.703125 22.796875 -1.703125 
Q 14.265625 -1.703125 8.6875 3.078125 
Q 3.125 7.859375 3.125 15.828125 
Q 3.125 22.265625 6.953125 26.921875 
Q 10.796875 31.59375 16.40625 34.1875 
z
M 27.78125 39.3125 
Q 33.015625 42.578125 34.859375 45.875 
Q 36.71875 49.171875 36.71875 52.984375 
Q 36.71875 58.59375 33.5 61.859375 
Q 30.28125 65.140625 24.859375 65.140625 
Q 19.671875 65.140625 16.25 62.234375 
Q 12.84375 59.328125 12.84375 54.109375 
Q 12.84375 50.140625 15.0625 47.234375 
Q 17.28125 44.34375 27.78125 39.3125 
z
M 20.359375 32.859375 
Q 14.59375 29.4375 12.34375 25.5 
Q 10.109375 21.578125 10.109375 16.609375 
Q 10.109375 9.625 14.015625 5.640625 
Q 17.921875 1.65625 24.078125 1.65625 
Q 28.265625 1.65625 31.6875 3.609375 
Q 35.109375 5.5625 36.796875 8.953125 
Q 38.484375 12.359375 38.484375 16.359375 
Q 38.484375 22.125 34.453125 25.34375 
Q 30.421875 28.5625 20.359375 32.859375 
z
" id="PalatinoLinotype-Roman-56"/>
      </defs>
      <g transform="translate(413.87734 263.626875)scale(0.15 -0.15)">
       <use xlink:href="#PalatinoLinotype-Roman-56"/>
      </g>
     </g>
    </g>
    <g id="xtick_9">
     <g id="line2d_9">
      <g>
       <use style="stroke:#000000;stroke-width:0.8;" x="463.300388" xlink:href="#mf39f85c59f" y="244.28"/>
      </g>
     </g>
     <g id="text_9">
      <!-- 9 -->
      <defs>
       <path d="M 6.5 -0.390625 
L 6.5 0.53125 
Q 20.0625 3.65625 27.828125 12.46875 
Q 35.59375 21.296875 36.578125 34.03125 
Q 29.390625 25.484375 20.515625 25.484375 
Q 14.890625 25.484375 10.71875 28.171875 
Q 6.546875 30.859375 4.546875 35.15625 
Q 2.546875 39.453125 2.546875 45.21875 
Q 2.546875 55.8125 8.90625 62.203125 
Q 15.28125 68.609375 24.703125 68.609375 
Q 34.234375 68.609375 40.109375 61.71875 
Q 46 54.828125 46 41.890625 
Q 46 36.1875 44.921875 30.9375 
Q 43.84375 25.6875 40.859375 20.171875 
Q 37.890625 14.65625 32.984375 9.90625 
Q 28.078125 5.171875 21.890625 2.015625 
Q 15.71875 -1.125 9.71875 -1.953125 
z
M 10.984375 48.390625 
Q 10.984375 44.140625 12.46875 40.0625 
Q 13.96875 35.984375 17.046875 33.765625 
Q 20.125 31.546875 24.265625 31.546875 
Q 30.03125 31.546875 33.546875 35.421875 
Q 37.0625 39.3125 37.0625 47.015625 
Q 37.0625 55.03125 33.59375 60.125 
Q 30.125 65.234375 24.078125 65.234375 
Q 18.265625 65.234375 14.625 60.9375 
Q 10.984375 56.640625 10.984375 48.390625 
z
" id="PalatinoLinotype-Roman-57"/>
      </defs>
      <g transform="translate(459.550388 263.626875)scale(0.15 -0.15)">
       <use xlink:href="#PalatinoLinotype-Roman-57"/>
      </g>
     </g>
    </g>
    <g id="text_10">
     <!-- Trial No. -->
     <defs>
      <path d="M 64.703125 68.609375 
Q 64.109375 64.984375 64.0625 61.140625 
L 63.96875 52.984375 
L 63.484375 52.484375 
L 60.40625 52.484375 
L 59.859375 52.9375 
Q 59.625 59.1875 59.328125 60.25 
Q 58.734375 62.203125 56.203125 62.546875 
Q 55.21875 62.703125 47.015625 62.703125 
L 40.484375 62.703125 
Q 40.375 60.984375 40.375 49.125 
L 40.375 21.390625 
Q 40.375 9.765625 41.015625 6.25 
Q 41.265625 4.828125 42.671875 4.4375 
Q 43.40625 4.25 48.390625 3.953125 
L 48.875 3.46875 
L 48.875 0.203125 
L 48.390625 -0.296875 
Q 43.5625 0 33.34375 0 
Q 22.90625 0 18.3125 -0.296875 
L 17.875 0.140625 
L 17.875 3.46875 
L 18.359375 3.953125 
Q 23.34375 4.25 24.078125 4.4375 
Q 25.484375 4.828125 25.734375 6.25 
Q 26.375 9.765625 26.375 21.390625 
L 26.375 49.125 
Q 26.375 61.1875 26.21875 62.703125 
L 19.234375 62.703125 
Q 10.5 62.703125 9.03125 62.15625 
Q 8.25 61.859375 7.953125 61.421875 
Q 7.515625 60.640625 7.234375 58.296875 
Q 6.890625 55.71875 6.78125 52.984375 
L 6.296875 52.484375 
L 3.21875 52.484375 
L 2.6875 52.984375 
L 2.59375 61.328125 
Q 2.546875 64.84375 2 68.609375 
L 2.4375 69.09375 
Q 5.328125 68.609375 23.4375 68.609375 
L 43.21875 68.609375 
Q 59.90625 68.609375 64.203125 69.09375 
z
" id="PalatinoLinotype-Bold-84"/>
      <path d="M 38.8125 47.171875 
L 38.484375 38.484375 
Q 38.421875 36.328125 38.28125 33.59375 
L 36.234375 32.953125 
Q 33.9375 36.28125 29.890625 36.28125 
Q 26.21875 36.28125 23.828125 33.34375 
Q 22.359375 31.546875 22.359375 28.03125 
L 22.359375 16.609375 
Q 22.359375 13.03125 22.703125 6.6875 
Q 22.796875 4.890625 23.71875 4.34375 
Q 24.65625 3.8125 30.515625 3.609375 
L 31 3.171875 
L 31 0.203125 
L 30.515625 -0.296875 
Q 23.34375 0 16.265625 0 
Q 7.515625 0 2.9375 -0.34375 
L 2.4375 0.140625 
L 2.4375 3.125 
L 2.9375 3.609375 
Q 7.625 3.765625 8.734375 4.34375 
Q 9.71875 4.78125 9.8125 6.6875 
Q 10.15625 13.03125 10.15625 20.3125 
L 10.15625 27.296875 
Q 10.15625 37.0625 9.421875 38.53125 
Q 8.9375 39.5 7.328125 39.75 
Q 6.734375 39.84375 3.078125 39.984375 
L 2.59375 40.484375 
L 2.59375 43.21875 
L 3.078125 43.75 
Q 11.859375 44.578125 21.578125 47.796875 
L 22.65625 47.171875 
L 22.5625 37.59375 
Q 25.59375 41.109375 29.890625 45.796875 
Q 31.890625 47.75 35.359375 47.75 
Q 37.40625 47.75 38.8125 47.171875 
z
" id="PalatinoLinotype-Bold-114"/>
      <path d="M 23.78125 63.875 
Q 23.78125 60.75 21.578125 58.515625 
Q 19.390625 56.296875 16.3125 56.296875 
Q 13.1875 56.296875 10.984375 58.515625 
Q 8.796875 60.75 8.796875 63.875 
Q 8.796875 67.09375 11.015625 69.28125 
Q 13.234375 71.484375 16.3125 71.484375 
Q 19.34375 71.484375 21.5625 69.28125 
Q 23.78125 67.09375 23.78125 63.875 
z
M 30.515625 0.140625 
L 30.03125 -0.34375 
Q 25.390625 0 16.65625 0 
Q 7.90625 0 3.328125 -0.34375 
L 2.828125 0.140625 
L 2.828125 3.125 
L 3.328125 3.609375 
Q 8.015625 3.765625 9.125 4.34375 
Q 10.109375 4.78125 10.203125 6.6875 
Q 10.546875 13.03125 10.546875 20.3125 
L 10.546875 27.296875 
Q 10.546875 36.765625 9.8125 38.53125 
Q 9.421875 39.5 7.71875 39.75 
Q 7.125 39.84375 3.46875 39.984375 
L 2.984375 40.484375 
L 2.984375 43.21875 
L 3.46875 43.75 
Q 12.84375 44.578125 22.359375 47.796875 
L 23.390625 47.171875 
Q 22.75 38.28125 22.75 32.171875 
L 22.75 16.609375 
Q 22.75 13.03125 23.09375 6.6875 
Q 23.1875 4.78125 24.171875 4.34375 
Q 25.296875 3.765625 29.984375 3.609375 
L 30.515625 3.125 
z
M 16.65625 -3.8125 
z
" id="PalatinoLinotype-Bold-105"/>
      <path d="M 47.703125 0.296875 
L 47.171875 -0.25 
Q 43.0625 0 37.75 0 
Q 33.59375 0 29.78125 -0.25 
L 29.34375 0.296875 
L 29.78125 6.84375 
L 20.3125 -0.390625 
Q 19.1875 -1.21875 17.09375 -1.421875 
Q 16.265625 -1.515625 15.140625 -1.515625 
Q 9.71875 -1.515625 6.8125 1.75 
Q 3.90625 5.03125 3.90625 10.796875 
Q 3.90625 18.40625 8.734375 21.578125 
Q 13.96875 25.046875 29.78125 27.828125 
Q 29.78125 35.59375 25.6875 38.234375 
Q 23.1875 39.84375 19.734375 39.84375 
Q 15.921875 39.84375 13.71875 38.28125 
L 11.859375 33.734375 
L 11.234375 33.40625 
L 8.734375 33.984375 
L 8.40625 34.671875 
L 8.640625 40.4375 
Q 16.703125 46.390625 20.75 47.171875 
Q 22.46875 47.515625 25.203125 47.515625 
Q 34.8125 47.515625 38.921875 42.484375 
Q 41.890625 38.8125 41.890625 31.25 
Q 41.890625 29.390625 41.75 25.296875 
Q 41.5 18.453125 41.5 16.15625 
Q 41.5 8.796875 41.75 6.765625 
Q 42 4.734375 42.890625 4.1875 
Q 43.796875 3.65625 47.21875 3.5625 
L 47.703125 3.03125 
z
M 29.78125 11.671875 
L 29.78125 23.6875 
Q 21.734375 21.921875 18.921875 19.890625 
Q 16.109375 17.875 16.109375 13.71875 
Q 16.109375 7.078125 21.921875 7.078125 
Q 26.859375 7.078125 29.78125 11.671875 
z
M 25.875 49.703125 
z
M 25.875 -3.8125 
z
" id="PalatinoLinotype-Bold-97"/>
      <path d="M 30.515625 0.140625 
L 30.03125 -0.34375 
Q 25.390625 0 16.65625 0 
Q 7.90625 0 3.328125 -0.34375 
L 2.828125 0.140625 
L 2.828125 3.125 
L 3.328125 3.609375 
Q 8.015625 3.765625 9.125 4.34375 
Q 10.109375 4.78125 10.203125 6.6875 
Q 10.546875 13.03125 10.546875 28.90625 
L 10.546875 45.265625 
Q 10.546875 55.515625 10.203125 61.859375 
Q 10.109375 63.671875 9.125 64.234375 
Q 8.15625 64.796875 3.46875 64.9375 
L 2.984375 65.484375 
L 2.984375 68.171875 
L 3.46875 68.703125 
Q 12.890625 69.734375 22.359375 72.75 
L 23.390625 72.171875 
Q 23.390625 70.84375 23.25 67.328125 
Q 22.75 55.671875 22.75 41.5 
L 22.75 28.90625 
Q 22.75 13.03125 23.09375 6.6875 
Q 23.1875 4.78125 24.171875 4.34375 
Q 25.296875 3.765625 29.984375 3.609375 
L 30.515625 3.125 
z
" id="PalatinoLinotype-Bold-108"/>
      <path id="PalatinoLinotype-Bold-32"/>
      <path d="M 80.078125 65.140625 
L 79.546875 64.65625 
Q 74.5625 64.359375 73.828125 64.15625 
Q 72.40625 63.765625 72.171875 62.359375 
Q 71.53125 58.84375 71.53125 47.21875 
L 71.53125 27.390625 
Q 71.53125 5.46875 72.171875 -1.171875 
L 71.53125 -1.609375 
Q 66.015625 -0.6875 63.1875 -0.296875 
Q 50.09375 14.40625 18.5 53.328125 
L 18.5 21.390625 
Q 18.5 9.765625 19.140625 6.25 
Q 19.390625 4.828125 20.796875 4.4375 
Q 21.53125 4.25 26.515625 3.953125 
L 27 3.46875 
L 27 0.140625 
L 26.515625 -0.296875 
Q 20.90625 0 16.0625 0 
Q 10.453125 0 4.78125 -0.296875 
L 4.296875 0.140625 
L 4.296875 3.46875 
L 4.78125 3.953125 
Q 9.765625 4.25 10.5 4.4375 
Q 11.921875 4.828125 12.15625 6.25 
Q 12.796875 9.765625 12.796875 21.390625 
L 12.796875 47.21875 
Q 12.796875 58.84375 12.15625 62.359375 
Q 11.921875 63.765625 10.5 64.15625 
Q 9.765625 64.359375 4.78125 64.65625 
L 4.296875 65.140625 
L 4.296875 68.453125 
L 4.78125 68.890625 
Q 9.421875 68.609375 13.625 68.609375 
Q 20.21875 68.609375 24.5625 68.890625 
Q 42.140625 45.453125 65.875 18.65625 
L 65.875 47.21875 
Q 65.875 58.84375 65.234375 62.359375 
Q 64.984375 63.765625 63.578125 64.15625 
Q 62.84375 64.359375 57.859375 64.65625 
L 57.375 65.140625 
L 57.375 68.453125 
L 57.859375 68.890625 
Q 63.328125 68.609375 68.265625 68.609375 
Q 74.5625 68.609375 79.59375 68.890625 
L 80.078125 68.453125 
z
" id="PalatinoLinotype-Bold-78"/>
      <path d="M 51.609375 24.21875 
Q 51.609375 6.9375 39.984375 0.828125 
Q 34.328125 -2.15625 27.046875 -2.15625 
Q 15.828125 -2.15625 9.9375 4.34375 
Q 4.046875 10.84375 4.046875 22.953125 
Q 4.046875 39.703125 15.484375 45.265625 
Q 21.09375 48 28.515625 48 
Q 44.09375 48 49.171875 37.203125 
Q 51.609375 32.03125 51.609375 24.21875 
z
M 38.09375 20.21875 
Q 38.09375 32.375 35.421875 37.625 
Q 32.765625 42.875 27.296875 42.875 
Q 17.578125 42.875 17.578125 25.34375 
Q 17.578125 2.828125 28.46875 2.828125 
Q 35.25 2.828125 37.109375 10.296875 
Q 38.09375 14.203125 38.09375 20.21875 
z
M 28.328125 -3.8125 
z
M 28.328125 49.703125 
z
" id="PalatinoLinotype-Bold-111"/>
      <path d="M 12.5 13.96875 
Q 15.625 13.96875 17.875 11.734375 
Q 20.125 9.515625 20.125 6.203125 
Q 20.125 2.984375 17.875 0.734375 
Q 15.625 -1.515625 12.5 -1.515625 
Q 9.375 -1.515625 7.09375 0.75 
Q 4.828125 3.03125 4.828125 6.203125 
Q 4.828125 9.421875 7.078125 11.6875 
Q 9.328125 13.96875 12.5 13.96875 
z
" id="PalatinoLinotype-Bold-46"/>
     </defs>
     <g transform="translate(250.326946 282.758125)scale(0.15 -0.15)">
      <use xlink:href="#PalatinoLinotype-Bold-84"/>
      <use x="59.324219" xlink:href="#PalatinoLinotype-Bold-114"/>
      <use x="98.240234" xlink:href="#PalatinoLinotype-Bold-105"/>
      <use x="131.541016" xlink:href="#PalatinoLinotype-Bold-97"/>
      <use x="181.541016" xlink:href="#PalatinoLinotype-Bold-108"/>
      <use x="214.841797" xlink:href="#PalatinoLinotype-Bold-32"/>
      <use x="239.841797" xlink:href="#PalatinoLinotype-Bold-78"/>
      <use x="323.142578" xlink:href="#PalatinoLinotype-Bold-111"/>
      <use x="378.757812" xlink:href="#PalatinoLinotype-Bold-46"/>
     </g>
    </g>
   </g>
   <g id="matplotlib.axis_2">
    <g id="ytick_1">
     <g id="line2d_10">
      <defs>
       <path d="M 0 0 
L -3.5 0 
" id="m2ebc3cf531" style="stroke:#000000;stroke-width:0.8;"/>
      </defs>
      <g>
       <use style="stroke:#000000;stroke-width:0.8;" x="62.9" xlink:href="#m2ebc3cf531" y="190.677093"/>
      </g>
     </g>
     <g id="text_11">
      <!-- $\mathdefault{10^{-2}}$ -->
      <defs>
       <path d="M 3.03125 29.828125 
Q 3.03125 38.53125 3.90625 45.484375 
Q 4.78125 52.4375 7.78125 57.875 
Q 10.796875 63.328125 15.3125 66.03125 
Q 19.828125 68.75 25.59375 68.75 
Q 32.125 68.75 37.078125 65.375 
Q 42.046875 62.015625 44.21875 55.03125 
Q 46.390625 48.046875 46.390625 36.03125 
Q 46.390625 16.5 40.40625 7.265625 
Q 34.421875 -1.953125 23.828125 -1.953125 
Q 18.5 -1.953125 14.421875 0.34375 
Q 10.359375 2.640625 7.734375 6.984375 
Q 5.125 11.328125 4.078125 17.234375 
Q 3.03125 23.140625 3.03125 29.828125 
z
M 11.421875 32.671875 
Q 11.421875 23.390625 12.8125 15.765625 
Q 14.203125 8.15625 17.453125 4.8125 
Q 20.703125 1.46875 25.203125 1.46875 
Q 29.546875 1.46875 32.453125 4.4375 
Q 35.359375 7.421875 36.6875 14.640625 
Q 38.03125 21.875 38.03125 32.515625 
Q 38.03125 49.21875 34.859375 57.21875 
Q 31.6875 65.234375 24.359375 65.234375 
Q 17.96875 65.234375 14.6875 59.03125 
Q 11.421875 52.828125 11.421875 32.671875 
z
" id="PalatinoLinotype-Roman-48"/>
       <path d="M 48.53125 28.125 
L 1.46875 28.125 
L 1.46875 33.59375 
L 48.53125 33.59375 
z
" id="PalatinoLinotype-Roman-8722"/>
      </defs>
      <g transform="translate(27.7 196.100531)scale(0.15 -0.15)">
       <use transform="translate(0 0.259375)" xlink:href="#PalatinoLinotype-Roman-49"/>
       <use transform="translate(50 0.259375)" xlink:href="#PalatinoLinotype-Roman-48"/>
       <use transform="translate(100.818672 33.00625)scale(0.7)" xlink:href="#PalatinoLinotype-Roman-8722"/>
       <use transform="translate(135.818672 33.00625)scale(0.7)" xlink:href="#PalatinoLinotype-Roman-50"/>
      </g>
     </g>
    </g>
    <g id="ytick_2">
     <g id="line2d_11">
      <g>
       <use style="stroke:#000000;stroke-width:0.8;" x="62.9" xlink:href="#m2ebc3cf531" y="136.749577"/>
      </g>
     </g>
     <g id="text_12">
      <!-- $\mathdefault{10^{-1}}$ -->
      <g transform="translate(27.7 142.173014)scale(0.15 -0.15)">
       <use transform="translate(0 0.75625)" xlink:href="#PalatinoLinotype-Roman-49"/>
       <use transform="translate(50 0.75625)" xlink:href="#PalatinoLinotype-Roman-48"/>
       <use transform="translate(100.818672 33.503125)scale(0.7)" xlink:href="#PalatinoLinotype-Roman-8722"/>
       <use transform="translate(135.818672 33.503125)scale(0.7)" xlink:href="#PalatinoLinotype-Roman-49"/>
      </g>
     </g>
    </g>
    <g id="ytick_3">
     <g id="line2d_12">
      <g>
       <use style="stroke:#000000;stroke-width:0.8;" x="62.9" xlink:href="#m2ebc3cf531" y="82.822061"/>
      </g>
     </g>
     <g id="text_13">
      <!-- $\mathdefault{10^{0}}$ -->
      <g transform="translate(32.95 88.245498)scale(0.15 -0.15)">
       <use transform="translate(0 0.128125)" xlink:href="#PalatinoLinotype-Roman-49"/>
       <use transform="translate(50 0.128125)" xlink:href="#PalatinoLinotype-Roman-48"/>
       <use transform="translate(100.818672 32.875)scale(0.7)" xlink:href="#PalatinoLinotype-Roman-48"/>
      </g>
     </g>
    </g>
    <g id="ytick_4">
     <g id="line2d_13">
      <g>
       <use style="stroke:#000000;stroke-width:0.8;" x="62.9" xlink:href="#m2ebc3cf531" y="28.894545"/>
      </g>
     </g>
     <g id="text_14">
      <!-- $\mathdefault{10^{1}}$ -->
      <g transform="translate(32.95 34.317982)scale(0.15 -0.15)">
       <use transform="translate(0 0.75625)" xlink:href="#PalatinoLinotype-Roman-49"/>
       <use transform="translate(50 0.75625)" xlink:href="#PalatinoLinotype-Roman-48"/>
       <use transform="translate(100.818672 33.503125)scale(0.7)" xlink:href="#PalatinoLinotype-Roman-49"/>
      </g>
     </g>
    </g>
    <g id="ytick_5">
     <g id="line2d_14">
      <defs>
       <path d="M 0 0 
L -2 0 
" id="m59285bf768" style="stroke:#000000;stroke-width:0.4;"/>
      </defs>
      <g>
       <use style="stroke:#000000;stroke-width:0.4;" x="62.9" xlink:href="#m59285bf768" y="228.370809"/>
      </g>
     </g>
    </g>
    <g id="ytick_6">
     <g id="line2d_15">
      <g>
       <use style="stroke:#000000;stroke-width:0.4;" x="62.9" xlink:href="#m59285bf768" y="218.874645"/>
      </g>
     </g>
    </g>
    <g id="ytick_7">
     <g id="line2d_16">
      <g>
       <use style="stroke:#000000;stroke-width:0.4;" x="62.9" xlink:href="#m59285bf768" y="212.137009"/>
      </g>
     </g>
    </g>
    <g id="ytick_8">
     <g id="line2d_17">
      <g>
       <use style="stroke:#000000;stroke-width:0.4;" x="62.9" xlink:href="#m59285bf768" y="206.910893"/>
      </g>
     </g>
    </g>
    <g id="ytick_9">
     <g id="line2d_18">
      <g>
       <use style="stroke:#000000;stroke-width:0.4;" x="62.9" xlink:href="#m59285bf768" y="202.640845"/>
      </g>
     </g>
    </g>
    <g id="ytick_10">
     <g id="line2d_19">
      <g>
       <use style="stroke:#000000;stroke-width:0.4;" x="62.9" xlink:href="#m59285bf768" y="199.030571"/>
      </g>
     </g>
    </g>
    <g id="ytick_11">
     <g id="line2d_20">
      <g>
       <use style="stroke:#000000;stroke-width:0.4;" x="62.9" xlink:href="#m59285bf768" y="195.903209"/>
      </g>
     </g>
    </g>
    <g id="ytick_12">
     <g id="line2d_21">
      <g>
       <use style="stroke:#000000;stroke-width:0.4;" x="62.9" xlink:href="#m59285bf768" y="193.144681"/>
      </g>
     </g>
    </g>
    <g id="ytick_13">
     <g id="line2d_22">
      <g>
       <use style="stroke:#000000;stroke-width:0.4;" x="62.9" xlink:href="#m59285bf768" y="174.443293"/>
      </g>
     </g>
    </g>
    <g id="ytick_14">
     <g id="line2d_23">
      <g>
       <use style="stroke:#000000;stroke-width:0.4;" x="62.9" xlink:href="#m59285bf768" y="164.947129"/>
      </g>
     </g>
    </g>
    <g id="ytick_15">
     <g id="line2d_24">
      <g>
       <use style="stroke:#000000;stroke-width:0.4;" x="62.9" xlink:href="#m59285bf768" y="158.209493"/>
      </g>
     </g>
    </g>
    <g id="ytick_16">
     <g id="line2d_25">
      <g>
       <use style="stroke:#000000;stroke-width:0.4;" x="62.9" xlink:href="#m59285bf768" y="152.983377"/>
      </g>
     </g>
    </g>
    <g id="ytick_17">
     <g id="line2d_26">
      <g>
       <use style="stroke:#000000;stroke-width:0.4;" x="62.9" xlink:href="#m59285bf768" y="148.713329"/>
      </g>
     </g>
    </g>
    <g id="ytick_18">
     <g id="line2d_27">
      <g>
       <use style="stroke:#000000;stroke-width:0.4;" x="62.9" xlink:href="#m59285bf768" y="145.103055"/>
      </g>
     </g>
    </g>
    <g id="ytick_19">
     <g id="line2d_28">
      <g>
       <use style="stroke:#000000;stroke-width:0.4;" x="62.9" xlink:href="#m59285bf768" y="141.975693"/>
      </g>
     </g>
    </g>
    <g id="ytick_20">
     <g id="line2d_29">
      <g>
       <use style="stroke:#000000;stroke-width:0.4;" x="62.9" xlink:href="#m59285bf768" y="139.217165"/>
      </g>
     </g>
    </g>
    <g id="ytick_21">
     <g id="line2d_30">
      <g>
       <use style="stroke:#000000;stroke-width:0.4;" x="62.9" xlink:href="#m59285bf768" y="120.515777"/>
      </g>
     </g>
    </g>
    <g id="ytick_22">
     <g id="line2d_31">
      <g>
       <use style="stroke:#000000;stroke-width:0.4;" x="62.9" xlink:href="#m59285bf768" y="111.019613"/>
      </g>
     </g>
    </g>
    <g id="ytick_23">
     <g id="line2d_32">
      <g>
       <use style="stroke:#000000;stroke-width:0.4;" x="62.9" xlink:href="#m59285bf768" y="104.281977"/>
      </g>
     </g>
    </g>
    <g id="ytick_24">
     <g id="line2d_33">
      <g>
       <use style="stroke:#000000;stroke-width:0.4;" x="62.9" xlink:href="#m59285bf768" y="99.055861"/>
      </g>
     </g>
    </g>
    <g id="ytick_25">
     <g id="line2d_34">
      <g>
       <use style="stroke:#000000;stroke-width:0.4;" x="62.9" xlink:href="#m59285bf768" y="94.785813"/>
      </g>
     </g>
    </g>
    <g id="ytick_26">
     <g id="line2d_35">
      <g>
       <use style="stroke:#000000;stroke-width:0.4;" x="62.9" xlink:href="#m59285bf768" y="91.175539"/>
      </g>
     </g>
    </g>
    <g id="ytick_27">
     <g id="line2d_36">
      <g>
       <use style="stroke:#000000;stroke-width:0.4;" x="62.9" xlink:href="#m59285bf768" y="88.048177"/>
      </g>
     </g>
    </g>
    <g id="ytick_28">
     <g id="line2d_37">
      <g>
       <use style="stroke:#000000;stroke-width:0.4;" x="62.9" xlink:href="#m59285bf768" y="85.289649"/>
      </g>
     </g>
    </g>
    <g id="ytick_29">
     <g id="line2d_38">
      <g>
       <use style="stroke:#000000;stroke-width:0.4;" x="62.9" xlink:href="#m59285bf768" y="66.588261"/>
      </g>
     </g>
    </g>
    <g id="ytick_30">
     <g id="line2d_39">
      <g>
       <use style="stroke:#000000;stroke-width:0.4;" x="62.9" xlink:href="#m59285bf768" y="57.092097"/>
      </g>
     </g>
    </g>
    <g id="ytick_31">
     <g id="line2d_40">
      <g>
       <use style="stroke:#000000;stroke-width:0.4;" x="62.9" xlink:href="#m59285bf768" y="50.354461"/>
      </g>
     </g>
    </g>
    <g id="ytick_32">
     <g id="line2d_41">
      <g>
       <use style="stroke:#000000;stroke-width:0.4;" x="62.9" xlink:href="#m59285bf768" y="45.128344"/>
      </g>
     </g>
    </g>
    <g id="ytick_33">
     <g id="line2d_42">
      <g>
       <use style="stroke:#000000;stroke-width:0.4;" x="62.9" xlink:href="#m59285bf768" y="40.858297"/>
      </g>
     </g>
    </g>
    <g id="ytick_34">
     <g id="line2d_43">
      <g>
       <use style="stroke:#000000;stroke-width:0.4;" x="62.9" xlink:href="#m59285bf768" y="37.248022"/>
      </g>
     </g>
    </g>
    <g id="ytick_35">
     <g id="line2d_44">
      <g>
       <use style="stroke:#000000;stroke-width:0.4;" x="62.9" xlink:href="#m59285bf768" y="34.120661"/>
      </g>
     </g>
    </g>
    <g id="ytick_36">
     <g id="line2d_45">
      <g>
       <use style="stroke:#000000;stroke-width:0.4;" x="62.9" xlink:href="#m59285bf768" y="31.362132"/>
      </g>
     </g>
    </g>
    <g id="ytick_37">
     <g id="line2d_46">
      <g>
       <use style="stroke:#000000;stroke-width:0.4;" x="62.9" xlink:href="#m59285bf768" y="12.660745"/>
      </g>
     </g>
    </g>
    <g id="text_15">
     <!-- FNA (mg N L$^{-1}$) -->
     <defs>
      <path d="M 52.046875 68.5 
L 51.421875 62.9375 
Q 51.21875 61.078125 50.984375 58.0625 
L 50.6875 54.15625 
L 50.203125 53.609375 
L 47.359375 53.609375 
L 46.875 54.109375 
Q 46.78125 60.6875 46.09375 61.625 
Q 44.96875 63.140625 32.46875 63.140625 
Q 30.46875 63.140625 26.171875 62.84375 
Q 25.640625 57.859375 25.640625 44.96875 
L 25.640625 38.375 
L 31.15625 38.234375 
Q 33.640625 38.1875 40.375 38.421875 
Q 41.703125 38.484375 42.140625 39.15625 
Q 42.875 40.328125 43.015625 45.609375 
L 43.5 46.09375 
L 46.53125 46.09375 
L 47.015625 45.609375 
Q 46.828125 40.140625 46.828125 35.59375 
Q 46.828125 30.671875 47.015625 24.8125 
L 46.53125 24.359375 
L 43.265625 24.359375 
L 42.78125 24.859375 
Q 42.78125 29.984375 42.328125 30.859375 
Q 41.5 32.5625 37.3125 32.90625 
Q 34.421875 33.15625 31.640625 33.15625 
Q 28.265625 33.15625 25.640625 33.015625 
L 25.640625 21.390625 
Q 25.640625 9.8125 26.265625 6.25 
Q 26.515625 4.828125 27.9375 4.4375 
Q 28.265625 4.34375 34.90625 3.953125 
L 35.40625 3.46875 
L 35.40625 0.203125 
L 34.859375 -0.296875 
L 15.234375 0 
Q 11.03125 0.046875 3.609375 -0.296875 
L 3.125 0.140625 
L 3.125 3.46875 
L 3.609375 3.953125 
Q 8.59375 4.25 9.328125 4.4375 
Q 10.75 4.828125 10.984375 6.25 
Q 11.625 9.8125 11.625 21.390625 
L 11.625 47.21875 
Q 11.625 58.796875 10.984375 62.359375 
Q 10.75 63.765625 9.328125 64.15625 
Q 8.59375 64.359375 3.609375 64.65625 
L 3.125 65.140625 
L 3.125 68.453125 
L 3.609375 68.890625 
Q 8.296875 68.609375 18.65625 68.609375 
Q 25.34375 68.609375 51.5625 68.890625 
z
" id="PalatinoLinotype-Bold-70"/>
      <path d="M 75.390625 0.203125 
L 74.953125 -0.296875 
Q 64.109375 0 61.859375 0 
Q 52.875 0 45.171875 -0.296875 
L 44.734375 0.203125 
L 44.734375 3.265625 
L 45.21875 3.8125 
L 49.46875 4.046875 
Q 52.15625 4.203125 52.15625 5.953125 
Q 52.15625 6.984375 50.78125 10.546875 
L 46.828125 20.84375 
Q 40.09375 20.953125 33.0625 20.953125 
Q 29.25 20.953125 21.734375 20.84375 
L 19.578125 14.890625 
Q 17.140625 8.109375 17.140625 6.390625 
Q 17.140625 4.546875 19.4375 4.203125 
Q 20.703125 4 24.421875 3.8125 
L 24.90625 3.328125 
L 24.90625 0.203125 
L 24.421875 -0.296875 
Q 15.375 0 12.796875 0 
Q 10.796875 0 2.875 -0.296875 
L 2.390625 0.140625 
L 2.390625 3.328125 
L 2.9375 3.8125 
Q 7.953125 4.109375 9.09375 5.8125 
Q 10.25 7.515625 17.71875 26.171875 
L 30.46875 58.0625 
Q 31.890625 61.765625 34.765625 69.234375 
L 41.703125 69.234375 
L 67.578125 8.34375 
Q 69.09375 4.890625 70.3125 4.4375 
Q 71.921875 3.859375 74.953125 3.859375 
L 75.390625 3.328125 
z
M 44.4375 26.46875 
L 33.984375 52.046875 
L 23.96875 26.46875 
Q 27.984375 26.3125 34.375 26.3125 
Q 40.578125 26.3125 44.4375 26.46875 
z
M 38.234375 71.6875 
z
M 36.625 -3.8125 
z
" id="PalatinoLinotype-Bold-65"/>
      <path d="M 27.4375 -10.890625 
Q 22.265625 -7.859375 16.578125 -0.5 
Q 10.890625 6.84375 8.5625 13.984375 
Q 6.25 21.140625 6.25 30.46875 
Q 6.25 39.75 8.546875 46.96875 
Q 10.84375 54.203125 15.984375 61.234375 
Q 21.140625 68.265625 27.25 72.40625 
L 27.984375 72.40625 
L 29.890625 70.703125 
L 29.890625 69.96875 
Q 26.5625 65.921875 24.875 62.90625 
Q 23.1875 59.90625 22.015625 55.390625 
Q 20.84375 50.875 20.15625 44.203125 
Q 19.484375 37.546875 19.484375 29.734375 
Q 19.484375 14.890625 21.890625 6.484375 
Q 24.3125 -1.90625 29.890625 -8.203125 
L 29.890625 -8.890625 
L 28.171875 -10.796875 
z
" id="PalatinoLinotype-Bold-40"/>
      <path d="M 86.671875 0.25 
L 86.1875 -0.296875 
Q 83.34375 0 76.125 0 
Q 70.125 0 67.578125 -0.296875 
L 66.890625 0.640625 
Q 67.671875 12.796875 67.671875 18.359375 
L 67.671875 22.796875 
Q 67.671875 29.984375 67.234375 32.421875 
Q 66.703125 35.359375 64.796875 37.109375 
Q 62.890625 38.875 59.625 38.875 
Q 55.953125 38.875 53.515625 36.8125 
Q 51.078125 34.765625 51.078125 31.59375 
L 51.078125 17.046875 
L 51.265625 9.328125 
Q 51.375 6.203125 51.8125 5.21875 
Q 52.09375 4.59375 53.125 4.296875 
Q 54 4.046875 57.859375 3.65625 
L 58.40625 3.171875 
L 58.40625 0.25 
L 57.8125 -0.296875 
Q 51.90625 0 45.84375 0 
Q 38.328125 0 32.953125 -0.296875 
L 32.421875 0.25 
L 32.421875 3.125 
L 32.90625 3.71875 
Q 35.984375 4 37.15625 4.25 
Q 38.03125 4.4375 38.421875 5.71875 
Q 38.71875 6.640625 38.765625 11.140625 
L 38.875 26.90625 
Q 38.875 32.375 38.03125 34.71875 
Q 37.359375 36.578125 35.453125 37.796875 
Q 33.734375 38.921875 30.953125 38.921875 
Q 26.5625 38.921875 23.96875 35.984375 
Q 22.75 34.625 22.53125 33.78125 
Q 22.3125 32.953125 22.3125 30.125 
L 22.3125 19.53125 
Q 22.3125 16.40625 22.515625 11.421875 
Q 22.703125 6.296875 22.90625 5.46875 
Q 23.1875 4.4375 24.53125 4.078125 
Q 25.875 3.71875 28.609375 3.65625 
L 29.109375 3.171875 
L 29.109375 0.203125 
L 28.609375 -0.296875 
Q 24.46875 0 16.21875 0 
Q 7.46875 0 2.875 -0.34375 
L 2.390625 0.140625 
L 2.390625 3.125 
L 2.875 3.609375 
Q 7.5625 3.765625 8.6875 4.34375 
Q 9.671875 4.78125 9.765625 6.6875 
Q 10.109375 13.03125 10.109375 20.3125 
L 10.109375 27.296875 
Q 10.109375 37.0625 9.375 38.53125 
Q 8.890625 39.5 7.28125 39.75 
Q 6.6875 39.84375 3.03125 39.984375 
L 2.546875 40.484375 
L 2.546875 43.21875 
L 3.03125 43.75 
Q 11.8125 44.578125 21.53125 47.796875 
L 22.609375 47.171875 
L 22.515625 39.40625 
L 31.203125 46.4375 
Q 33.59375 47.515625 36.859375 47.515625 
Q 42.484375 47.515625 45.609375 45.671875 
Q 48.734375 43.84375 50.640625 39.265625 
L 59.515625 46.4375 
Q 61.921875 47.5625 65.328125 47.5625 
Q 74.75 47.5625 78.421875 40.71875 
Q 80.03125 37.703125 80.03125 31.453125 
Q 80.03125 28.859375 79.984375 27.59375 
L 79.9375 25.734375 
Q 79.828125 23.390625 79.828125 22.609375 
L 79.828125 16.265625 
Q 79.828125 8.890625 80.078125 6.859375 
Q 80.328125 4.828125 81.203125 4.296875 
Q 82.078125 3.765625 86.1875 3.65625 
L 86.671875 3.125 
z
" id="PalatinoLinotype-Bold-109"/>
      <path d="M 54.546875 -3.375 
Q 54.546875 -14.0625 46.5625 -20.40625 
Q 38.578125 -26.765625 25.6875 -26.765625 
Q 15.578125 -26.765625 9.6875 -22.96875 
Q 3.8125 -19.1875 3.8125 -12.796875 
Q 3.8125 -8.5 5.71875 -6.296875 
Q 5.90625 -6.0625 10.890625 -3.078125 
Q 13.28125 -1.65625 14.40625 -1.078125 
Q 7.671875 0.09375 7.671875 5.421875 
Q 7.671875 8.25 9.625 11.1875 
Q 9.765625 11.375 12.25 13.140625 
Q 13.421875 13.96875 16.40625 16.109375 
Q 5.859375 19.921875 5.859375 30.21875 
Q 5.859375 38.1875 11.8125 43.046875 
Q 17.78125 47.90625 27.6875 47.90625 
Q 37.25 47.90625 42.671875 43.65625 
Q 45.75 43.5 46.625 43.5625 
Q 49.03125 43.65625 53.859375 43.796875 
L 54.4375 43.265625 
L 53.90625 38.234375 
L 53.375 37.75 
L 46.140625 37.75 
Q 46.78125 35.40625 46.78125 32.953125 
Q 46.78125 21.34375 35.5 17.09375 
Q 30.421875 15.1875 25.484375 15.1875 
Q 23.828125 15.1875 21.1875 15.4375 
Q 18.109375 13.765625 18.109375 11.078125 
Q 18.109375 8.59375 21.6875 8.25 
Q 23.734375 8.0625 28.515625 8.0625 
Q 30.03125 8.0625 33.78125 8.203125 
Q 37.546875 8.34375 39.359375 8.34375 
Q 50.390625 8.34375 53.078125 3.46875 
Q 54.546875 0.828125 54.546875 -3.375 
z
M 34.46875 30.765625 
Q 34.46875 43.0625 26.21875 43.0625 
Q 18.109375 43.0625 18.109375 32.421875 
Q 18.109375 19.828125 26.5625 19.828125 
Q 34.46875 19.828125 34.46875 30.765625 
z
M 43.359375 -8.9375 
Q 43.359375 -3.609375 39.65625 -2.25 
Q 38.09375 -1.65625 33.40625 -1.609375 
L 24.125 -1.515625 
Q 22.5625 -1.515625 19.828125 -1.609375 
Q 13.140625 -5.765625 13.140625 -11.140625 
Q 13.140625 -16.0625 17.09375 -18.875 
Q 21.046875 -21.6875 27.6875 -21.6875 
Q 34.8125 -21.6875 39.078125 -18.234375 
Q 43.359375 -14.796875 43.359375 -8.9375 
z
" id="PalatinoLinotype-Bold-103"/>
      <path d="M 56.890625 16.3125 
Q 55.8125 9.1875 55.8125 0.203125 
L 55.328125 -0.296875 
L 19.828125 0 
Q 10.9375 0 7.28125 -0.296875 
L 6.78125 0.203125 
L 6.78125 1.5625 
L 7.03125 2.15625 
Q 10.640625 4.4375 10.9375 5.03125 
Q 11.375 5.90625 11.46875 11.53125 
L 11.625 22.46875 
L 11.625 47.21875 
Q 11.625 58.84375 10.984375 62.359375 
Q 10.75 63.765625 9.328125 64.15625 
Q 8.59375 64.359375 3.609375 64.65625 
L 3.125 65.140625 
L 3.125 68.453125 
L 3.609375 68.890625 
Q 8.640625 68.609375 18.359375 68.609375 
Q 28.421875 68.609375 33.640625 68.890625 
L 34.125 68.453125 
L 34.125 65.09375 
L 33.640625 64.65625 
Q 28.65625 64.359375 27.9375 64.15625 
Q 26.515625 63.765625 26.265625 62.359375 
Q 25.640625 58.84375 25.640625 47.21875 
L 25.640625 18.015625 
Q 25.640625 11.625 25.875 5.609375 
L 32.515625 5.609375 
Q 46.78125 5.609375 50 6.734375 
Q 50.53125 6.9375 50.78125 7.28125 
Q 51.265625 7.953125 51.703125 10.203125 
L 52.875 16.265625 
L 53.375 16.796875 
L 56.34375 16.796875 
z
" id="PalatinoLinotype-Bold-76"/>
      <path d="M 62.09375 22 
L 6.40625 22 
L 6.40625 28.59375 
L 62.09375 28.59375 
z
" id="STIXGeneral-Regular-8722"/>
      <path d="M 39.40625 0 
L 11.796875 0 
L 11.796875 1.5 
Q 17.296875 1.796875 19.296875 3.546875 
Q 21.296875 5.296875 21.296875 9.5 
L 21.296875 54.40625 
Q 21.296875 59.296875 18.296875 59.296875 
Q 16.90625 59.296875 13.796875 58.09375 
L 11.09375 57.09375 
L 11.09375 58.5 
L 29 67.59375 
L 29.90625 67.296875 
L 29.90625 7.59375 
Q 29.90625 4.296875 31.90625 2.890625 
Q 33.90625 1.5 39.40625 1.5 
z
" id="STIXGeneral-Regular-49"/>
      <path d="M 5.328125 72.40625 
L 6.109375 72.40625 
Q 13.625 67.328125 20.328125 56.703125 
Q 27.046875 46.09375 27.046875 30.46875 
Q 27.046875 23.1875 25.75 17.46875 
Q 24.46875 11.765625 21.09375 5.875 
Q 17.71875 0 13.453125 -4.4375 
Q 9.1875 -8.890625 5.90625 -10.890625 
L 5.171875 -10.796875 
L 3.421875 -8.890625 
L 3.421875 -8.203125 
Q 8.546875 -2.59375 11.203125 5.703125 
Q 13.875 14.015625 13.875 29.734375 
Q 13.875 37.5 13.1875 44.1875 
Q 12.5 50.875 11.328125 55.34375 
Q 10.15625 59.8125 8.5 62.78125 
Q 6.84375 65.765625 3.46875 69.96875 
L 3.421875 70.703125 
z
" id="PalatinoLinotype-Bold-41"/>
     </defs>
     <g transform="translate(19.65 180.94)rotate(-90)scale(0.15 -0.15)">
      <use transform="translate(0 0.409375)" xlink:href="#PalatinoLinotype-Bold-70"/>
      <use transform="translate(55.761719 0.409375)" xlink:href="#PalatinoLinotype-Bold-78"/>
      <use transform="translate(139.0625 0.409375)" xlink:href="#PalatinoLinotype-Bold-65"/>
      <use transform="translate(216.845703 0.409375)" xlink:href="#PalatinoLinotype-Bold-32"/>
      <use transform="translate(241.845703 0.409375)" xlink:href="#PalatinoLinotype-Bold-40"/>
      <use transform="translate(275.146484 0.409375)" xlink:href="#PalatinoLinotype-Bold-109"/>
      <use transform="translate(364.0625 0.409375)" xlink:href="#PalatinoLinotype-Bold-103"/>
      <use transform="translate(419.628906 0.409375)" xlink:href="#PalatinoLinotype-Bold-32"/>
      <use transform="translate(444.628906 0.409375)" xlink:href="#PalatinoLinotype-Bold-78"/>
      <use transform="translate(527.929688 0.409375)" xlink:href="#PalatinoLinotype-Bold-32"/>
      <use transform="translate(552.929688 0.409375)" xlink:href="#PalatinoLinotype-Bold-76"/>
      <use transform="translate(615.068672 35.684375)scale(0.7)" xlink:href="#STIXGeneral-Regular-8722"/>
      <use transform="translate(663.018661 35.684375)scale(0.7)" xlink:href="#STIXGeneral-Regular-49"/>
      <use transform="translate(702.428026 0.409375)" xlink:href="#PalatinoLinotype-Bold-41"/>
     </g>
    </g>
   </g>
   <g id="LineCollection_1">
    <path clip-path="url(#pd40d96e799)" d="M 90.303829 141.975693 
L 90.303829 141.975693 
" style="fill:none;stroke:#000000;stroke-width:1.4;"/>
    <path clip-path="url(#pd40d96e799)" d="M 135.976877 139.804679 
L 135.976877 128.967669 
" style="fill:none;stroke:#000000;stroke-width:1.4;"/>
    <path clip-path="url(#pd40d96e799)" d="M 181.649925 127.680103 
L 181.649925 127.680103 
" style="fill:none;stroke:#000000;stroke-width:1.4;"/>
    <path clip-path="url(#pd40d96e799)" d="M 227.322973 115.102392 
L 227.322973 104.912623 
" style="fill:none;stroke:#000000;stroke-width:1.4;"/>
    <path clip-path="url(#pd40d96e799)" d="M 272.996021 101.11104 
L 272.996021 92.791783 
" style="fill:none;stroke:#000000;stroke-width:1.4;"/>
    <path clip-path="url(#pd40d96e799)" d="M 318.669069 111.653431 
L 318.669069 109.531294 
" style="fill:none;stroke:#000000;stroke-width:1.4;"/>
    <path clip-path="url(#pd40d96e799)" d="M 364.342117 27.299135 
L 364.342117 17.976364 
" style="fill:none;stroke:#000000;stroke-width:1.4;"/>
    <path clip-path="url(#pd40d96e799)" d="M 410.015165 91.184912 
L 410.015165 85.609474 
" style="fill:none;stroke:#000000;stroke-width:1.4;"/>
   </g>
   <g id="LineCollection_2">
    <path clip-path="url(#pd40d96e799)" d="M 105.528178 227.46516 
L 105.528178 211.712653 
" style="fill:none;stroke:#000000;stroke-width:1.4;"/>
    <path clip-path="url(#pd40d96e799)" d="M 151.201226 216.654969 
L 151.201226 189.110781 
" style="fill:none;stroke:#000000;stroke-width:1.4;"/>
    <path clip-path="url(#pd40d96e799)" d="M 196.874274 228.211174 
L 196.874274 152.712558 
" style="fill:none;stroke:#000000;stroke-width:1.4;"/>
    <path clip-path="url(#pd40d96e799)" d="M 242.547322 212.836975 
L 242.547322 184.620862 
" style="fill:none;stroke:#000000;stroke-width:1.4;"/>
    <path clip-path="url(#pd40d96e799)" d="M 288.22037 189.828555 
L 288.22037 158.551575 
" style="fill:none;stroke:#000000;stroke-width:1.4;"/>
    <path clip-path="url(#pd40d96e799)" d="M 333.893418 233.503636 
L 333.893418 216.956328 
" style="fill:none;stroke:#000000;stroke-width:1.4;"/>
    <path clip-path="url(#pd40d96e799)" d="M 379.566466 121.615269 
L 379.566466 94.4613 
" style="fill:none;stroke:#000000;stroke-width:1.4;"/>
    <path clip-path="url(#pd40d96e799)" d="M 425.239515 135.125043 
L 425.239515 91.389772 
" style="fill:none;stroke:#000000;stroke-width:1.4;"/>
    <path clip-path="url(#pd40d96e799)" d="M 470.912563 147.688558 
L 470.912563 138.7136 
" style="fill:none;stroke:#000000;stroke-width:1.4;"/>
   </g>
   <g id="line2d_47">
    <defs>
     <path d="M 2 0 
L -2 -0 
" id="m4e982be982" style="stroke:#000000;stroke-width:0.5;"/>
    </defs>
    <g clip-path="url(#pd40d96e799)">
     <use style="stroke:#000000;stroke-width:0.5;" x="90.303829" xlink:href="#m4e982be982" y="141.975693"/>
     <use style="stroke:#000000;stroke-width:0.5;" x="135.976877" xlink:href="#m4e982be982" y="139.804679"/>
     <use style="stroke:#000000;stroke-width:0.5;" x="181.649925" xlink:href="#m4e982be982" y="127.680103"/>
     <use style="stroke:#000000;stroke-width:0.5;" x="227.322973" xlink:href="#m4e982be982" y="115.102392"/>
     <use style="stroke:#000000;stroke-width:0.5;" x="272.996021" xlink:href="#m4e982be982" y="101.11104"/>
     <use style="stroke:#000000;stroke-width:0.5;" x="318.669069" xlink:href="#m4e982be982" y="111.653431"/>
     <use style="stroke:#000000;stroke-width:0.5;" x="364.342117" xlink:href="#m4e982be982" y="27.299135"/>
     <use style="stroke:#000000;stroke-width:0.5;" x="410.015165" xlink:href="#m4e982be982" y="91.184912"/>
    </g>
   </g>
   <g id="line2d_48">
    <g clip-path="url(#pd40d96e799)">
     <use style="stroke:#000000;stroke-width:0.5;" x="90.303829" xlink:href="#m4e982be982" y="141.975693"/>
     <use style="stroke:#000000;stroke-width:0.5;" x="135.976877" xlink:href="#m4e982be982" y="128.967669"/>
     <use style="stroke:#000000;stroke-width:0.5;" x="181.649925" xlink:href="#m4e982be982" y="127.680103"/>
     <use style="stroke:#000000;stroke-width:0.5;" x="227.322973" xlink:href="#m4e982be982" y="104.912623"/>
     <use style="stroke:#000000;stroke-width:0.5;" x="272.996021" xlink:href="#m4e982be982" y="92.791783"/>
     <use style="stroke:#000000;stroke-width:0.5;" x="318.669069" xlink:href="#m4e982be982" y="109.531294"/>
     <use style="stroke:#000000;stroke-width:0.5;" x="364.342117" xlink:href="#m4e982be982" y="17.976364"/>
     <use style="stroke:#000000;stroke-width:0.5;" x="410.015165" xlink:href="#m4e982be982" y="85.609474"/>
    </g>
   </g>
   <g id="line2d_49">
    <g clip-path="url(#pd40d96e799)">
     <use style="stroke:#000000;stroke-width:0.5;" x="105.528178" xlink:href="#m4e982be982" y="227.46516"/>
     <use style="stroke:#000000;stroke-width:0.5;" x="151.201226" xlink:href="#m4e982be982" y="216.654969"/>
     <use style="stroke:#000000;stroke-width:0.5;" x="196.874274" xlink:href="#m4e982be982" y="228.211174"/>
     <use style="stroke:#000000;stroke-width:0.5;" x="242.547322" xlink:href="#m4e982be982" y="212.836975"/>
     <use style="stroke:#000000;stroke-width:0.5;" x="288.22037" xlink:href="#m4e982be982" y="189.828555"/>
     <use style="stroke:#000000;stroke-width:0.5;" x="333.893418" xlink:href="#m4e982be982" y="233.503636"/>
     <use style="stroke:#000000;stroke-width:0.5;" x="379.566466" xlink:href="#m4e982be982" y="121.615269"/>
     <use style="stroke:#000000;stroke-width:0.5;" x="425.239515" xlink:href="#m4e982be982" y="135.125043"/>
     <use style="stroke:#000000;stroke-width:0.5;" x="470.912563" xlink:href="#m4e982be982" y="147.688558"/>
    </g>
   </g>
   <g id="line2d_50">
    <g clip-path="url(#pd40d96e799)">
     <use style="stroke:#000000;stroke-width:0.5;" x="105.528178" xlink:href="#m4e982be982" y="211.712653"/>
     <use style="stroke:#000000;stroke-width:0.5;" x="151.201226" xlink:href="#m4e982be982" y="189.110781"/>
     <use style="stroke:#000000;stroke-width:0.5;" x="196.874274" xlink:href="#m4e982be982" y="152.712558"/>
     <use style="stroke:#000000;stroke-width:0.5;" x="242.547322" xlink:href="#m4e982be982" y="184.620862"/>
     <use style="stroke:#000000;stroke-width:0.5;" x="288.22037" xlink:href="#m4e982be982" y="158.551575"/>
     <use style="stroke:#000000;stroke-width:0.5;" x="333.893418" xlink:href="#m4e982be982" y="216.956328"/>
     <use style="stroke:#000000;stroke-width:0.5;" x="379.566466" xlink:href="#m4e982be982" y="94.4613"/>
     <use style="stroke:#000000;stroke-width:0.5;" x="425.239515" xlink:href="#m4e982be982" y="91.389772"/>
     <use style="stroke:#000000;stroke-width:0.5;" x="470.912563" xlink:href="#m4e982be982" y="138.7136"/>
    </g>
   </g>
   <g id="patch_21">
    <path d="M 62.9 244.28 
L 62.9 7.2 
" style="fill:none;stroke:#000000;stroke-linecap:square;stroke-linejoin:miter;stroke-width:0.8;"/>
   </g>
   <g id="patch_22">
    <path d="M 498.316391 244.28 
L 498.316391 7.2 
" style="fill:none;stroke:#000000;stroke-linecap:square;stroke-linejoin:miter;stroke-width:0.8;"/>
   </g>
   <g id="patch_23">
    <path d="M 62.9 244.28 
L 498.316391 244.28 
" style="fill:none;stroke:#000000;stroke-linecap:square;stroke-linejoin:miter;stroke-width:0.8;"/>
   </g>
   <g id="patch_24">
    <path d="M 62.9 7.2 
L 498.316391 7.2 
" style="fill:none;stroke:#000000;stroke-linecap:square;stroke-linejoin:miter;stroke-width:0.8;"/>
   </g>
   <g id="legend_1">
    <g id="patch_25">
     <path d="M 204.624917 322.758 
L 371.376324 322.758 
Q 373.976324 322.758 373.976324 320.158 
L 373.976324 301.901125 
Q 373.976324 299.301125 371.376324 299.301125 
L 204.624917 299.301125 
Q 202.024917 299.301125 202.024917 301.901125 
L 202.024917 320.158 
Q 202.024917 322.758 204.624917 322.758 
z
" style="fill:#4c4c4c;opacity:0.5;stroke:#4c4c4c;stroke-linejoin:miter;stroke-width:0.24;"/>
    </g>
    <g id="patch_26">
     <path d="M 202.624917 320.758 
L 369.376324 320.758 
Q 371.976324 320.758 371.976324 318.158 
L 371.976324 299.901125 
Q 371.976324 297.301125 369.376324 297.301125 
L 202.624917 297.301125 
Q 200.024917 297.301125 200.024917 299.901125 
L 200.024917 318.158 
Q 200.024917 320.758 202.624917 320.758 
z
" style="fill:#ffffff;stroke:#cccccc;stroke-linejoin:miter;stroke-width:0.24;"/>
    </g>
    <g id="patch_27">
     <path d="M 205.224917 311.90175 
L 231.224917 311.90175 
L 231.224917 302.80175 
L 205.224917 302.80175 
z
" style="fill:#1a5276;stroke:#000000;stroke-linejoin:miter;stroke-width:0.5;"/>
    </g>
    <g id="text_16">
     <!-- Inlet -->
     <defs>
      <path d="M 2.875 69 
L 8.984375 68.796875 
Q 14.984375 68.609375 16.84375 68.609375 
Q 18.5 68.609375 30.859375 69 
L 31.25 68.65625 
L 31.25 66.21875 
L 30.859375 65.875 
Q 27.484375 65.765625 25.65625 65.5625 
Q 23.828125 65.375 23 64.84375 
Q 22.171875 64.3125 21.890625 62.328125 
Q 21.625 60.359375 21.625 56.84375 
L 21.53125 45.609375 
L 21.53125 23 
L 21.578125 13.484375 
Q 21.625 7.953125 21.875 6.34375 
Q 22.125 4.734375 22.578125 4.1875 
Q 23.046875 3.65625 24.359375 3.296875 
Q 25.6875 2.9375 30.859375 2.734375 
L 31.25 2.4375 
L 31.25 0 
L 30.859375 -0.390625 
Q 30.609375 -0.390625 22.265625 -0.09375 
Q 18.796875 0 16.84375 0 
Q 15.328125 0 2.875 -0.390625 
L 2.484375 0 
L 2.484375 2.4375 
L 2.875 2.734375 
Q 7.421875 2.9375 8.9375 3.21875 
Q 10.453125 3.515625 10.953125 3.96875 
Q 11.46875 4.4375 11.78125 5.953125 
Q 12.109375 7.46875 12.15625 12.703125 
L 12.203125 23 
L 12.203125 45.609375 
L 12.109375 55.125 
Q 12.0625 60.6875 11.84375 62.296875 
Q 11.625 63.921875 11.15625 64.453125 
Q 10.6875 64.984375 9.375 65.328125 
Q 8.0625 65.671875 2.875 65.875 
L 2.484375 66.21875 
L 2.484375 68.65625 
z
M 17.53125 72.609375 
z
M 16.84375 -2.9375 
z
" id="PalatinoLinotype-Roman-73"/>
      <path d="M 16.703125 46.53125 
L 17.625 45.90625 
Q 17.328125 42.625 17.234375 37.3125 
Q 21.140625 40.53125 24.65625 43.84375 
Q 25.6875 44.78125 26.578125 45.21875 
Q 27.484375 45.65625 29.578125 46.140625 
Q 31.6875 46.625 33.890625 46.625 
Q 37.59375 46.625 41.078125 45.109375 
Q 44.578125 43.609375 46.359375 41.53125 
Q 48.140625 39.453125 48.828125 36.625 
Q 49.515625 33.796875 49.515625 29.640625 
L 49.515625 21.046875 
Q 49.515625 20.21875 49.75 8.890625 
Q 49.859375 4.25 50.78125 3.359375 
Q 51.703125 2.484375 56.84375 2.484375 
L 57.234375 2.09375 
L 57.234375 0 
L 56.84375 -0.390625 
Q 50.640625 0 48.4375 0 
Q 47.171875 0 41.3125 -0.390625 
L 40.71875 0.140625 
Q 41.359375 6.5 41.359375 16.703125 
L 41.359375 23.09375 
Q 41.359375 28.859375 41.09375 31.390625 
Q 40.828125 33.9375 39.453125 36.015625 
Q 38.09375 38.09375 35.796875 39.234375 
Q 33.5 40.375 30.328125 40.375 
Q 27.78125 40.375 25.96875 39.859375 
Q 24.171875 39.359375 21.921875 37.765625 
Q 19.671875 36.1875 18.59375 34.796875 
Q 17.53125 33.40625 17.3125 32.203125 
Q 17.09375 31 17.09375 27.09375 
L 17.09375 18.609375 
Q 17.09375 17.53125 17.28125 11.6875 
Q 17.484375 5.859375 17.703125 4.875 
Q 17.921875 3.90625 18.359375 3.46875 
Q 18.796875 3.03125 19.421875 2.90625 
Q 20.0625 2.78125 24.703125 2.484375 
L 25.140625 2.09375 
L 25.140625 0.046875 
L 24.75 -0.390625 
Q 18.65625 0 12.984375 0 
Q 7.375 0 1.265625 -0.390625 
L 0.828125 0.046875 
L 0.828125 2.09375 
L 1.265625 2.484375 
Q 6 2.78125 6.609375 2.921875 
Q 7.234375 3.078125 7.6875 3.53125 
Q 8.15625 4 8.328125 4.953125 
Q 8.5 5.90625 8.71875 11.25 
Q 8.9375 16.609375 8.9375 19.34375 
L 8.9375 28.953125 
Q 8.9375 30.90625 8.734375 34.265625 
Q 8.546875 37.640625 8.421875 38.421875 
Q 8.296875 39.203125 7.65625 39.5625 
Q 7.03125 39.9375 5.125 39.9375 
L 1.03125 39.984375 
L 0.59375 40.375 
L 0.59375 42.484375 
L 0.984375 42.875 
Q 10.296875 44 16.703125 46.53125 
z
" id="PalatinoLinotype-Roman-110"/>
      <path d="M 18.265625 72.3125 
L 19.1875 71.734375 
Q 18.65625 66.109375 18.65625 49.21875 
L 18.65625 18.609375 
Q 18.65625 17.53125 18.84375 11.6875 
Q 19.046875 5.859375 19.265625 4.875 
Q 19.484375 3.90625 19.921875 3.46875 
Q 20.359375 3.03125 20.984375 2.90625 
Q 21.625 2.78125 26.265625 2.484375 
L 26.703125 2.09375 
L 26.703125 0.046875 
L 26.3125 -0.390625 
Q 20.21875 0 14.546875 0 
Q 8.9375 0 2.828125 -0.390625 
L 2.390625 0.046875 
L 2.390625 2.09375 
L 2.828125 2.484375 
Q 7.5625 2.78125 8.171875 2.921875 
Q 8.796875 3.078125 9.25 3.53125 
Q 9.71875 4 9.890625 4.953125 
Q 10.0625 5.90625 10.28125 11.25 
Q 10.5 16.609375 10.5 19.34375 
L 10.5 44.625 
L 10.296875 54.984375 
Q 10.15625 60.40625 9.984375 62.5 
Q 9.8125 64.59375 9.515625 64.984375 
Q 9.234375 65.375 8.5 65.5625 
Q 7.765625 65.765625 2.59375 65.765625 
L 2.15625 66.21875 
L 2.15625 68.265625 
L 2.546875 68.703125 
Q 11.859375 69.78125 18.265625 72.3125 
z
" id="PalatinoLinotype-Roman-108"/>
      <path d="M 43.171875 7.171875 
L 41.609375 3.65625 
Q 36.53125 0.390625 32.546875 -0.578125 
Q 28.5625 -1.5625 25.4375 -1.5625 
Q 19.578125 -1.5625 14.328125 0.734375 
Q 9.078125 3.03125 5.78125 8.5 
Q 2.484375 13.96875 2.484375 21.6875 
Q 2.484375 26.8125 3.75 30.9375 
Q 5.03125 35.0625 6.421875 37.0625 
Q 7.8125 39.0625 11.125 41.5 
Q 14.453125 43.953125 18.15625 45.40625 
Q 21.875 46.875 26.171875 46.875 
Q 32.03125 46.875 36.5 44.109375 
Q 40.96875 41.359375 42.765625 37.0625 
Q 44.578125 32.765625 44.578125 27.9375 
Q 44.578125 26.421875 44.4375 25 
L 43.890625 24.46875 
Q 40.578125 23.734375 34.953125 23.484375 
Q 29.34375 23.25 27.546875 23.25 
L 11.859375 23.25 
Q 11.96875 13.140625 16.9375 8.34375 
Q 21.921875 3.5625 29.15625 3.5625 
Q 32.5625 3.5625 35.71875 4.734375 
Q 38.875 5.90625 42.390625 8.015625 
z
M 11.859375 27.15625 
Q 12.75 27 18.625 26.796875 
Q 24.515625 26.609375 27.34375 26.609375 
Q 34.125 26.609375 35.59375 26.859375 
Q 35.640625 28.03125 35.640625 28.65625 
Q 35.640625 36.234375 32.5625 39.921875 
Q 29.5 43.609375 24.171875 43.609375 
Q 18.359375 43.609375 15.109375 39.453125 
Q 11.859375 35.296875 11.859375 27.15625 
z
M 25.484375 49.609375 
z
M 24.90625 -2.9375 
z
" id="PalatinoLinotype-Roman-101"/>
      <path d="M 2.25 38.328125 
L 2.25 39.59375 
L 2.59375 40.09375 
Q 7.171875 41.796875 10.015625 43.265625 
Q 10.015625 56 9.71875 58.109375 
Q 14.75 59.859375 17.96875 61.859375 
L 19.140625 60.890625 
Q 18.65625 57.8125 17.96875 43.015625 
Q 20.40625 42.96875 23.25 42.96875 
Q 29 42.96875 31.5 43.265625 
L 31.84375 42.921875 
L 30.90625 38.8125 
L 30.515625 38.375 
Q 28.03125 38.421875 25 38.421875 
Q 22.265625 38.421875 17.96875 38.375 
L 17.671875 18.5 
Q 17.671875 11.625 17.984375 9.5 
Q 18.3125 7.375 19.75 6.171875 
Q 21.1875 4.984375 24.03125 4.984375 
Q 27.296875 4.984375 30.078125 6.6875 
L 31.25 4.9375 
Q 30.078125 4.109375 25.640625 0.046875 
Q 23.09375 -1.125 20.453125 -1.125 
Q 9.46875 -1.125 9.46875 9.515625 
Q 9.46875 13.421875 9.671875 16.15625 
Q 9.71875 17 9.71875 17.875 
L 9.71875 38.140625 
L 7.71875 38.140625 
Q 5.515625 38.140625 2.6875 37.9375 
z
" id="PalatinoLinotype-Roman-116"/>
     </defs>
     <g transform="translate(241.624917 311.90175)scale(0.13 -0.13)">
      <use xlink:href="#PalatinoLinotype-Roman-73"/>
      <use x="33.691406" xlink:href="#PalatinoLinotype-Roman-110"/>
      <use x="91.894531" xlink:href="#PalatinoLinotype-Roman-108"/>
      <use x="120.996094" xlink:href="#PalatinoLinotype-Roman-101"/>
      <use x="168.896484" xlink:href="#PalatinoLinotype-Roman-116"/>
     </g>
    </g>
    <g id="patch_28">
     <path d="M 293.82398 311.90175 
L 319.82398 311.90175 
L 319.82398 302.80175 
L 293.82398 302.80175 
z
" style="fill:#7f8c8d;stroke:#000000;stroke-linejoin:miter;stroke-width:0.5;"/>
    </g>
    <g id="text_17">
     <!-- Outlet -->
     <defs>
      <path d="M 2.34375 33.640625 
Q 2.34375 40.96875 4.4375 47.3125 
Q 6.546875 53.65625 11.59375 59.046875 
Q 16.65625 64.453125 23.78125 67.40625 
Q 30.90625 70.359375 39.890625 70.359375 
Q 56.546875 70.359375 66.40625 61.296875 
Q 76.265625 52.25 76.265625 36.578125 
Q 76.265625 25.53125 71.4375 16.734375 
Q 66.609375 7.953125 57.59375 3.0625 
Q 48.578125 -1.8125 37.359375 -1.8125 
Q 29.390625 -1.8125 22.703125 0.84375 
Q 16.015625 3.515625 11.296875 8.78125 
Q 6.59375 14.0625 4.46875 21 
Q 2.34375 27.9375 2.34375 33.640625 
z
M 12.5 36.859375 
Q 12.5 30.90625 14.421875 24.046875 
Q 16.359375 17.1875 20.1875 12.28125 
Q 24.03125 7.375 29.03125 4.984375 
Q 34.03125 2.59375 40.4375 2.59375 
Q 48 2.59375 53.90625 6.046875 
Q 59.8125 9.515625 62.890625 16.8125 
Q 65.96875 24.125 65.96875 33.203125 
Q 65.96875 43.0625 62.453125 51.015625 
Q 58.9375 58.984375 52.4375 62.59375 
Q 45.953125 66.21875 38.03125 66.21875 
Q 26.171875 66.21875 19.328125 58.796875 
Q 12.5 51.375 12.5 36.859375 
z
M 38.578125 72.609375 
z
M 38.8125 -2.9375 
z
" id="PalatinoLinotype-Roman-79"/>
      <path d="M 16.890625 46.53125 
L 17.828125 45.90625 
Q 17.28125 39.5 17.28125 29.640625 
L 17.28125 18.265625 
Q 17.28125 12.015625 18.234375 9.5625 
Q 19.1875 7.125 21.53125 5.828125 
Q 23.875 4.546875 27.09375 4.546875 
Q 30.671875 4.546875 33.59375 5.9375 
Q 36.53125 7.328125 38.5 9.859375 
Q 40.484375 12.40625 40.765625 13.28125 
Q 41.0625 14.15625 41.15625 18.21875 
L 41.3125 23.6875 
L 41.3125 28.953125 
Q 41.3125 30.90625 41.109375 34.265625 
Q 40.921875 37.640625 40.796875 38.421875 
Q 40.671875 39.203125 40.03125 39.5625 
Q 39.40625 39.9375 37.5 39.9375 
L 33.40625 39.984375 
L 32.953125 40.375 
L 32.953125 42.484375 
L 33.34375 42.875 
Q 42.671875 44 49.078125 46.53125 
L 50 45.90625 
Q 49.46875 39.5 49.46875 29.640625 
L 49.46875 21.046875 
Q 49.46875 20.3125 49.703125 9.078125 
Q 49.8125 4.9375 50.21875 4.03125 
Q 50.640625 3.125 51.359375 2.75 
Q 52.09375 2.390625 55.71875 2.390625 
L 57.078125 2.390625 
L 57.515625 2 
L 57.515625 0.046875 
L 57.125 -0.390625 
Q 50.25 0 47.90625 0 
Q 44.921875 0 41.015625 -0.34375 
L 40.578125 0.046875 
Q 40.875 5.03125 41.015625 8.5 
Q 37.9375 6.109375 33.984375 2.09375 
Q 32.46875 0.59375 29.640625 -0.4375 
Q 26.8125 -1.46875 23.1875 -1.46875 
Q 17.71875 -1.46875 14.671875 0.265625 
Q 11.625 2 10.34375 5.046875 
Q 9.078125 8.109375 9.078125 15.578125 
L 9.125 19.4375 
L 9.125 28.953125 
Q 9.125 30.90625 8.921875 34.265625 
Q 8.734375 37.640625 8.609375 38.421875 
Q 8.5 39.203125 7.859375 39.5625 
Q 7.234375 39.9375 5.328125 39.9375 
L 1.21875 39.984375 
L 0.78125 40.375 
L 0.78125 42.484375 
L 1.171875 42.875 
Q 10.5 44 16.890625 46.53125 
z
M 28.5625 49.609375 
z
M 29.046875 -2.9375 
z
" id="PalatinoLinotype-Roman-117"/>
     </defs>
     <g transform="translate(330.22398 311.90175)scale(0.13 -0.13)">
      <use xlink:href="#PalatinoLinotype-Roman-79"/>
      <use x="78.613281" xlink:href="#PalatinoLinotype-Roman-117"/>
      <use x="138.916016" xlink:href="#PalatinoLinotype-Roman-116"/>
      <use x="171.533203" xlink:href="#PalatinoLinotype-Roman-108"/>
      <use x="200.634766" xlink:href="#PalatinoLinotype-Roman-101"/>
      <use x="248.535156" xlink:href="#PalatinoLinotype-Roman-116"/>
     </g>
    </g>
   </g>
  </g>
  <g id="axes_2">
   <g id="matplotlib.axis_3">
    <g id="ytick_38">
     <g id="line2d_51">
      <defs>
       <path d="M 0 0 
L 3.5 0 
" id="mda907b83e8" style="stroke:#000000;stroke-width:0.8;"/>
      </defs>
      <g>
       <use style="stroke:#000000;stroke-width:0.8;" x="498.316391" xlink:href="#mda907b83e8" y="244.28"/>
      </g>
     </g>
     <g id="text_18">
      <!-- 0 -->
      <g transform="translate(507.416391 249.703437)scale(0.15 -0.15)">
       <use xlink:href="#PalatinoLinotype-Roman-48"/>
      </g>
     </g>
    </g>
    <g id="ytick_39">
     <g id="line2d_52">
      <g>
       <use style="stroke:#000000;stroke-width:0.8;" x="498.316391" xlink:href="#mda907b83e8" y="198.603171"/>
      </g>
     </g>
     <g id="text_19">
      <!-- 20 -->
      <g transform="translate(507.416391 204.026608)scale(0.15 -0.15)">
       <use xlink:href="#PalatinoLinotype-Roman-50"/>
       <use x="50" xlink:href="#PalatinoLinotype-Roman-48"/>
      </g>
     </g>
    </g>
    <g id="ytick_40">
     <g id="line2d_53">
      <g>
       <use style="stroke:#000000;stroke-width:0.8;" x="498.316391" xlink:href="#mda907b83e8" y="152.926341"/>
      </g>
     </g>
     <g id="text_20">
      <!-- 40 -->
      <g transform="translate(507.416391 158.349779)scale(0.15 -0.15)">
       <use xlink:href="#PalatinoLinotype-Roman-52"/>
       <use x="50" xlink:href="#PalatinoLinotype-Roman-48"/>
      </g>
     </g>
    </g>
    <g id="ytick_41">
     <g id="line2d_54">
      <g>
       <use style="stroke:#000000;stroke-width:0.8;" x="498.316391" xlink:href="#mda907b83e8" y="107.249512"/>
      </g>
     </g>
     <g id="text_21">
      <!-- 60 -->
      <g transform="translate(507.416391 112.672949)scale(0.15 -0.15)">
       <use xlink:href="#PalatinoLinotype-Roman-54"/>
       <use x="50" xlink:href="#PalatinoLinotype-Roman-48"/>
      </g>
     </g>
    </g>
    <g id="ytick_42">
     <g id="line2d_55">
      <g>
       <use style="stroke:#000000;stroke-width:0.8;" x="498.316391" xlink:href="#mda907b83e8" y="61.572682"/>
      </g>
     </g>
     <g id="text_22">
      <!-- 80 -->
      <g transform="translate(507.416391 66.99612)scale(0.15 -0.15)">
       <use xlink:href="#PalatinoLinotype-Roman-56"/>
       <use x="50" xlink:href="#PalatinoLinotype-Roman-48"/>
      </g>
     </g>
    </g>
    <g id="ytick_43">
     <g id="line2d_56">
      <g>
       <use style="stroke:#000000;stroke-width:0.8;" x="498.316391" xlink:href="#mda907b83e8" y="15.895853"/>
      </g>
     </g>
     <g id="text_23">
      <!-- 100 -->
      <g transform="translate(507.416391 21.31929)scale(0.15 -0.15)">
       <use xlink:href="#PalatinoLinotype-Roman-49"/>
       <use x="50" xlink:href="#PalatinoLinotype-Roman-48"/>
       <use x="100" xlink:href="#PalatinoLinotype-Roman-48"/>
      </g>
     </g>
    </g>
    <g id="text_24">
     <!-- FNA reduction (%) -->
     <defs>
      <path d="M 46.484375 27.390625 
Q 46.484375 26.5625 46.4375 24.90625 
L 45.90625 24.21875 
Q 39.453125 22.46875 28.8125 22.46875 
Q 26.90625 22.46875 23.046875 22.390625 
Q 19.1875 22.3125 17.234375 22.3125 
Q 17.53125 15.140625 21.6875 10.453125 
Q 26.03125 5.421875 33.015625 5.421875 
Q 37.703125 5.421875 44.140625 8.640625 
L 45.3125 7.234375 
L 43.171875 2.390625 
Q 36.03125 -2.15625 27.6875 -2.15625 
Q 16.703125 -2.15625 10.625 4.046875 
Q 4.546875 10.25 4.546875 21.734375 
Q 4.546875 35.359375 11.03125 40.375 
Q 20.015625 47.3125 28.078125 47.3125 
Q 36.8125 47.3125 41.609375 42.28125 
Q 46.484375 37.109375 46.484375 27.390625 
z
M 33.734375 28.65625 
Q 33.734375 41.84375 25.53125 41.84375 
Q 16.890625 41.84375 16.890625 28.765625 
L 16.890625 27.6875 
Q 19.734375 27.25 26.953125 27.25 
Q 30.71875 27.25 33.6875 27.6875 
Q 33.734375 28.375 33.734375 28.65625 
z
M 27.828125 -3.8125 
z
M 27.828125 49.703125 
z
" id="PalatinoLinotype-Bold-101"/>
      <path d="M 58.59375 0.140625 
L 58.109375 -0.34375 
Q 53.328125 0 49.46875 0 
Q 45.796875 0 39.546875 -0.34375 
L 39.109375 0 
Q 39.3125 2.390625 39.3125 8.015625 
Q 37.546875 6.546875 34.28125 3.515625 
Q 30.21875 -0.25 29 -0.984375 
Q 27.4375 -1.703125 23.921875 -1.703125 
Q 15.578125 -1.703125 10.453125 4.59375 
Q 5.328125 10.890625 5.328125 20.90625 
Q 5.328125 30.609375 9.28125 36.03125 
Q 10.296875 37.453125 15.328125 41.0625 
Q 21.1875 45.265625 23.875 46.390625 
Q 26.21875 47.359375 29.828125 47.359375 
Q 34.90625 47.359375 39.3125 45.21875 
L 39.3125 47.953125 
Q 39.3125 60.796875 38.671875 63.09375 
Q 38.328125 64.359375 36.671875 64.65625 
Q 35.890625 64.796875 32.171875 64.9375 
L 31.6875 65.484375 
L 31.6875 68.171875 
L 32.171875 68.703125 
Q 41.546875 69.671875 51.078125 72.75 
L 52.15625 72.171875 
Q 52.15625 71.96875 51.953125 67.328125 
Q 51.515625 56.84375 51.515625 35.796875 
L 51.515625 20.015625 
Q 51.515625 6.296875 52.15625 4.9375 
Q 52.546875 4.109375 53.21875 3.90625 
Q 54.296875 3.5625 58.109375 3.265625 
L 58.59375 2.78125 
z
M 39.3125 25.640625 
L 39.3125 34.8125 
Q 35.796875 39.015625 32.5625 40.1875 
Q 30.375 40.96875 27.875 40.96875 
Q 21.140625 40.96875 19.1875 34.03125 
Q 18.109375 30.171875 18.109375 25.4375 
Q 18.109375 15.328125 22.859375 10.453125 
Q 25.34375 7.859375 29.546875 7.859375 
Q 33.015625 7.859375 35.984375 10.0625 
Q 38.671875 12.015625 39.15625 14.265625 
Q 39.3125 14.9375 39.3125 25.640625 
z
" id="PalatinoLinotype-Bold-100"/>
      <path d="M 58.640625 0.25 
L 58.15625 -0.25 
Q 50.828125 0 48.921875 0 
Q 47.3125 0 44.140625 -0.125 
Q 40.96875 -0.25 39.40625 -0.25 
L 39.015625 0.140625 
Q 39.40625 4.15625 39.40625 7.765625 
Q 36.859375 5.859375 30.515625 -0.34375 
Q 27.34375 -1.5625 23.734375 -1.5625 
Q 17.140625 -1.5625 13.328125 2.015625 
Q 9.515625 5.609375 9.515625 12.359375 
Q 9.515625 13.1875 9.609375 15.875 
Q 9.71875 18.5625 9.71875 21.046875 
L 9.71875 27.296875 
Q 9.71875 36.96875 8.984375 38.53125 
Q 8.5 39.5 6.890625 39.75 
Q 6.296875 39.84375 2.59375 39.984375 
L 2.09375 40.484375 
L 2.09375 43.21875 
L 2.59375 43.75 
Q 11.921875 44.578125 21.484375 47.796875 
L 22.5625 47.171875 
Q 21.921875 39.0625 21.921875 32.171875 
L 21.921875 22.65625 
Q 21.921875 15.96875 22.359375 13.53125 
Q 22.859375 10.59375 24.6875 9.078125 
Q 26.515625 7.5625 29.59375 7.5625 
Q 33.40625 7.5625 36.28125 10.015625 
Q 39.015625 12.453125 39.15625 15.578125 
Q 39.265625 17.96875 39.265625 18.5625 
L 39.265625 27.296875 
Q 39.265625 36.859375 38.53125 38.53125 
Q 38.09375 39.5 36.46875 39.75 
Q 35.890625 39.84375 32.171875 39.984375 
L 31.640625 40.484375 
L 31.640625 43.21875 
L 32.171875 43.75 
Q 41.453125 44.578125 51.078125 47.796875 
L 52.09375 47.171875 
Q 51.46875 39.84375 51.46875 32.171875 
L 51.46875 16.84375 
Q 51.46875 6.546875 52.046875 5.171875 
Q 52.34375 4.5 53.03125 4.296875 
Q 54.203125 3.953125 58.109375 3.71875 
L 58.640625 3.21875 
z
M 30.328125 49.703125 
z
M 30.328125 -3.8125 
z
" id="PalatinoLinotype-Bold-117"/>
      <path d="M 42.046875 6.15625 
L 39.890625 1.3125 
Q 33.25 -2.15625 26.8125 -2.15625 
Q 15.921875 -2.15625 10.15625 4.09375 
Q 4.390625 10.359375 4.390625 21.234375 
Q 4.390625 31.296875 8.84375 36.53125 
Q 10.0625 37.984375 13.484375 40.375 
Q 20.515625 45.359375 22.875 46.328125 
Q 25.25 47.3125 30.125 47.3125 
Q 36.765625 47.3125 41.109375 45.3125 
L 41.609375 44.4375 
Q 41.546875 43.796875 40.921875 39.890625 
L 40.375 36.578125 
Q 40.234375 35.75 39.9375 30.03125 
L 39.453125 29.546875 
L 36.53125 29.546875 
L 36.03125 30.03125 
Q 35.75 34.375 35.359375 36.078125 
Q 33.203125 39.890625 27.09375 39.890625 
Q 16.75 39.890625 16.75 26.46875 
Q 16.75 16.703125 20.90625 11.078125 
Q 25.140625 5.28125 32.859375 5.28125 
Q 37.546875 5.28125 41.109375 7.28125 
z
" id="PalatinoLinotype-Bold-99"/>
      <path d="M 32.515625 6.390625 
Q 32.171875 6 30.421875 4.34375 
Q 27.546875 1.609375 25.484375 -0.640625 
Q 23.09375 -1.421875 20.65625 -1.421875 
Q 13.875 -1.421875 10.75 2.546875 
Q 9.421875 4.25 8.984375 6.5 
Q 8.5 9.1875 8.546875 13.53125 
L 8.6875 25.203125 
L 8.6875 37.40625 
L 7.375 37.40625 
L 4.78125 37.3125 
L 2.78125 37.3125 
L 2.25 37.75 
L 2.25 39.015625 
L 2.640625 39.75 
Q 3.515625 40.328125 5.375 41.5 
Q 7.5625 42.875 8.6875 43.796875 
L 8.6875 50.4375 
Q 8.6875 54.59375 8.296875 59.234375 
Q 11.96875 60.40625 14.234375 61.296875 
Q 16.5 62.203125 20.65625 64.265625 
L 21.921875 63.28125 
Q 21.34375 57.234375 21.09375 52.4375 
L 20.65625 44 
L 22.265625 44 
Q 27.59375 44 31.453125 44.34375 
L 31.984375 43.796875 
L 31.296875 38.09375 
L 30.8125 37.59375 
L 20.65625 37.59375 
L 20.65625 21.046875 
Q 20.65625 13.09375 20.84375 11.671875 
Q 21.09375 9.625 22.578125 8.34375 
Q 24.078125 7.078125 26.609375 7.078125 
Q 28.609375 7.078125 31.453125 8.15625 
z
" id="PalatinoLinotype-Bold-116"/>
      <path d="M 58.984375 0.203125 
L 58.5 -0.34375 
Q 53.125 0 49.421875 0 
Q 46 0 39.453125 -0.34375 
L 38.96875 0.140625 
Q 39.84375 11.03125 39.84375 16.9375 
L 39.84375 26.515625 
Q 39.84375 38.421875 31.25 38.421875 
Q 26.765625 38.421875 24.21875 35.359375 
Q 22.078125 32.765625 22.078125 30.125 
L 22.078125 21 
Q 22.078125 8.34375 22.703125 5.46875 
Q 23.09375 3.765625 28.375 3.65625 
L 28.859375 3.171875 
L 28.859375 0.203125 
L 28.375 -0.296875 
Q 24.21875 0 15.96875 0 
Q 7.234375 0 2.640625 -0.34375 
L 2.15625 0.140625 
L 2.15625 3.125 
L 2.640625 3.609375 
Q 7.328125 3.765625 8.453125 4.34375 
Q 9.421875 4.78125 9.515625 6.6875 
Q 9.859375 13.03125 9.859375 20.3125 
L 9.859375 27.296875 
Q 9.859375 37.0625 9.125 38.53125 
Q 8.640625 39.5 7.03125 39.75 
Q 6.453125 39.84375 2.78125 39.984375 
L 2.296875 40.484375 
L 2.296875 43.21875 
L 2.78125 43.75 
Q 11.578125 44.578125 21.296875 47.796875 
L 22.359375 47.171875 
L 22.265625 38.96875 
L 30.671875 46 
Q 33.890625 47.3125 37.75 47.3125 
Q 45.515625 47.3125 49.359375 42.625 
Q 52.484375 38.8125 52.484375 31.453125 
Q 52.484375 30.609375 52.28125 24.65625 
Q 52.09375 18.703125 52.09375 16.15625 
Q 52.09375 8.796875 52.34375 6.765625 
Q 52.59375 4.734375 53.46875 4.1875 
Q 54.34375 3.65625 58.546875 3.5625 
L 58.984375 3.078125 
z
" id="PalatinoLinotype-Bold-110"/>
      <path d="M 85.0625 16.453125 
Q 85.0625 8.546875 80.296875 3.5625 
Q 75.53125 -1.421875 67.671875 -1.421875 
Q 60.109375 -1.421875 55.34375 3.359375 
Q 50.59375 8.15625 50.59375 15.71875 
Q 50.59375 23.53125 55.390625 28.46875 
Q 60.203125 33.40625 67.96875 33.40625 
Q 74.8125 33.40625 79.78125 29.25 
Q 85.0625 24.859375 85.0625 16.453125 
z
M 64.15625 72.359375 
L 27.59375 -3.71875 
L 24.265625 -3.71875 
L 23.96875 -2.984375 
L 60.5 73.046875 
L 63.8125 73.046875 
z
M 38.421875 53.90625 
Q 38.421875 46 33.640625 40.984375 
Q 28.859375 35.984375 21 35.984375 
Q 10.6875 35.984375 5.953125 44.53125 
Q 3.90625 48.25 3.90625 53.125 
Q 3.90625 60.9375 8.71875 65.859375 
Q 13.53125 70.796875 21.296875 70.796875 
Q 28.90625 70.796875 33.65625 66.15625 
Q 38.421875 61.53125 38.421875 53.90625 
z
M 74.75 16.546875 
Q 74.75 30.03125 67.921875 30.03125 
Q 60.9375 30.03125 60.9375 15.71875 
Q 60.9375 1.90625 67.578125 1.90625 
Q 72.65625 1.90625 74.125 8.59375 
Q 74.75 11.46875 74.75 16.546875 
z
M 28.078125 53.953125 
Q 28.078125 67.484375 21.234375 67.484375 
Q 14.265625 67.484375 14.265625 53.171875 
Q 14.265625 39.359375 20.90625 39.359375 
Q 25.734375 39.359375 27.34375 45.515625 
Q 28.078125 48.34375 28.078125 53.953125 
z
" id="PalatinoLinotype-Bold-37"/>
     </defs>
     <g transform="translate(544.828891 190.323203)rotate(-90)scale(0.15 -0.15)">
      <use xlink:href="#PalatinoLinotype-Bold-70"/>
      <use x="55.761719" xlink:href="#PalatinoLinotype-Bold-78"/>
      <use x="139.0625" xlink:href="#PalatinoLinotype-Bold-65"/>
      <use x="216.845703" xlink:href="#PalatinoLinotype-Bold-32"/>
      <use x="241.845703" xlink:href="#PalatinoLinotype-Bold-114"/>
      <use x="280.761719" xlink:href="#PalatinoLinotype-Bold-101"/>
      <use x="330.761719" xlink:href="#PalatinoLinotype-Bold-100"/>
      <use x="391.845703" xlink:href="#PalatinoLinotype-Bold-117"/>
      <use x="452.929688" xlink:href="#PalatinoLinotype-Bold-99"/>
      <use x="497.314453" xlink:href="#PalatinoLinotype-Bold-116"/>
      <use x="530.615234" xlink:href="#PalatinoLinotype-Bold-105"/>
      <use x="563.916016" xlink:href="#PalatinoLinotype-Bold-111"/>
      <use x="619.53125" xlink:href="#PalatinoLinotype-Bold-110"/>
      <use x="680.615234" xlink:href="#PalatinoLinotype-Bold-32"/>
      <use x="705.615234" xlink:href="#PalatinoLinotype-Bold-40"/>
      <use x="738.916016" xlink:href="#PalatinoLinotype-Bold-37"/>
      <use x="827.832031" xlink:href="#PalatinoLinotype-Bold-41"/>
     </g>
    </g>
   </g>
   <g id="LineCollection_3">
    <path clip-path="url(#pd40d96e799)" d="M 97.916004 27.523852 
L 97.916004 21.830567 
" style="fill:none;stroke:#ff0000;stroke-width:1.4;"/>
    <path clip-path="url(#pd40d96e799)" d="M 143.589052 37.315182 
L 143.589052 22.503437 
" style="fill:none;stroke:#ff0000;stroke-width:1.4;"/>
    <path clip-path="url(#pd40d96e799)" d="M 189.2621 117.229345 
L 189.2621 19.929996 
" style="fill:none;stroke:#ff0000;stroke-width:1.4;"/>
    <path clip-path="url(#pd40d96e799)" d="M 234.935148 25.138985 
L 234.935148 18.666596 
" style="fill:none;stroke:#ff0000;stroke-width:1.4;"/>
    <path clip-path="url(#pd40d96e799)" d="M 280.608196 32.088125 
L 280.608196 20.155033 
" style="fill:none;stroke:#ff0000;stroke-width:1.4;"/>
    <path clip-path="url(#pd40d96e799)" d="M 326.281244 18.366398 
L 326.281244 17.1147 
" style="fill:none;stroke:#ff0000;stroke-width:1.4;"/>
    <path clip-path="url(#pd40d96e799)" d="M 371.954292 26.326181 
L 371.954292 19.167533 
" style="fill:none;stroke:#ff0000;stroke-width:1.4;"/>
    <path clip-path="url(#pd40d96e799)" d="M 417.62734 215.408708 
L 417.62734 46.725593 
" style="fill:none;stroke:#ff0000;stroke-width:1.4;"/>
    <path clip-path="url(#pd40d96e799)" d="M 463.300388 98.904961 
L 463.300388 72.480608 
" style="fill:none;stroke:#ff0000;stroke-width:1.4;"/>
   </g>
   <g id="line2d_57">
    <defs>
     <path d="M 2 0 
L -2 -0 
" id="m7ddcde2299" style="stroke:#ff0000;stroke-width:2;"/>
    </defs>
    <g clip-path="url(#pd40d96e799)">
     <use style="fill:#ff0000;stroke:#ff0000;stroke-width:2;" x="97.916004" xlink:href="#m7ddcde2299" y="27.523852"/>
     <use style="fill:#ff0000;stroke:#ff0000;stroke-width:2;" x="143.589052" xlink:href="#m7ddcde2299" y="37.315182"/>
     <use style="fill:#ff0000;stroke:#ff0000;stroke-width:2;" x="189.2621" xlink:href="#m7ddcde2299" y="117.229345"/>
     <use style="fill:#ff0000;stroke:#ff0000;stroke-width:2;" x="234.935148" xlink:href="#m7ddcde2299" y="25.138985"/>
     <use style="fill:#ff0000;stroke:#ff0000;stroke-width:2;" x="280.608196" xlink:href="#m7ddcde2299" y="32.088125"/>
     <use style="fill:#ff0000;stroke:#ff0000;stroke-width:2;" x="326.281244" xlink:href="#m7ddcde2299" y="18.366398"/>
     <use style="fill:#ff0000;stroke:#ff0000;stroke-width:2;" x="371.954292" xlink:href="#m7ddcde2299" y="26.326181"/>
     <use style="fill:#ff0000;stroke:#ff0000;stroke-width:2;" x="417.62734" xlink:href="#m7ddcde2299" y="215.408708"/>
     <use style="fill:#ff0000;stroke:#ff0000;stroke-width:2;" x="463.300388" xlink:href="#m7ddcde2299" y="98.904961"/>
    </g>
   </g>
   <g id="line2d_58">
    <g clip-path="url(#pd40d96e799)">
     <use style="fill:#ff0000;stroke:#ff0000;stroke-width:2;" x="97.916004" xlink:href="#m7ddcde2299" y="21.830567"/>
     <use style="fill:#ff0000;stroke:#ff0000;stroke-width:2;" x="143.589052" xlink:href="#m7ddcde2299" y="22.503437"/>
     <use style="fill:#ff0000;stroke:#ff0000;stroke-width:2;" x="189.2621" xlink:href="#m7ddcde2299" y="19.929996"/>
     <use style="fill:#ff0000;stroke:#ff0000;stroke-width:2;" x="234.935148" xlink:href="#m7ddcde2299" y="18.666596"/>
     <use style="fill:#ff0000;stroke:#ff0000;stroke-width:2;" x="280.608196" xlink:href="#m7ddcde2299" y="20.155033"/>
     <use style="fill:#ff0000;stroke:#ff0000;stroke-width:2;" x="326.281244" xlink:href="#m7ddcde2299" y="17.1147"/>
     <use style="fill:#ff0000;stroke:#ff0000;stroke-width:2;" x="371.954292" xlink:href="#m7ddcde2299" y="19.167533"/>
     <use style="fill:#ff0000;stroke:#ff0000;stroke-width:2;" x="417.62734" xlink:href="#m7ddcde2299" y="46.725593"/>
     <use style="fill:#ff0000;stroke:#ff0000;stroke-width:2;" x="463.300388" xlink:href="#m7ddcde2299" y="72.480608"/>
    </g>
   </g>
   <g id="line2d_59">
    <path clip-path="url(#pd40d96e799)" d="M 97.916004 24.677209 
L 143.589052 29.90931 
L 189.2621 68.579671 
L 234.935148 21.90279 
L 280.608196 26.121579 
L 326.281244 17.740549 
L 371.954292 22.746857 
L 417.62734 131.06715 
L 463.300388 85.692784 
" style="fill:none;stroke:#ff0000;stroke-dasharray:5.18,2.24;stroke-dashoffset:0;stroke-width:1.4;"/>
    <defs>
     <path d="M 0 2.8 
C 0.742569 2.8 1.454824 2.504974 1.979899 1.979899 
C 2.504974 1.454824 2.8 0.742569 2.8 0 
C 2.8 -0.742569 2.504974 -1.454824 1.979899 -1.979899 
C 1.454824 -2.504974 0.742569 -2.8 0 -2.8 
C -0.742569 -2.8 -1.454824 -2.504974 -1.979899 -1.979899 
C -2.504974 -1.454824 -2.8 -0.742569 -2.8 0 
C -2.8 0.742569 -2.504974 1.454824 -1.979899 1.979899 
C -1.454824 2.504974 -0.742569 2.8 0 2.8 
z
" id="m24006f4e0d"/>
    </defs>
    <g clip-path="url(#pd40d96e799)">
     <use style="fill:#ff0000;" x="97.916004" xlink:href="#m24006f4e0d" y="24.677209"/>
     <use style="fill:#ff0000;" x="143.589052" xlink:href="#m24006f4e0d" y="29.90931"/>
     <use style="fill:#ff0000;" x="189.2621" xlink:href="#m24006f4e0d" y="68.579671"/>
     <use style="fill:#ff0000;" x="234.935148" xlink:href="#m24006f4e0d" y="21.90279"/>
     <use style="fill:#ff0000;" x="280.608196" xlink:href="#m24006f4e0d" y="26.121579"/>
     <use style="fill:#ff0000;" x="326.281244" xlink:href="#m24006f4e0d" y="17.740549"/>
     <use style="fill:#ff0000;" x="371.954292" xlink:href="#m24006f4e0d" y="22.746857"/>
     <use style="fill:#ff0000;" x="417.62734" xlink:href="#m24006f4e0d" y="131.06715"/>
     <use style="fill:#ff0000;" x="463.300388" xlink:href="#m24006f4e0d" y="85.692784"/>
    </g>
   </g>
   <g id="patch_29">
    <path d="M 62.9 244.28 
L 62.9 7.2 
" style="fill:none;stroke:#000000;stroke-linecap:square;stroke-linejoin:miter;stroke-width:0.8;"/>
   </g>
   <g id="patch_30">
    <path d="M 498.316391 244.28 
L 498.316391 7.2 
" style="fill:none;stroke:#000000;stroke-linecap:square;stroke-linejoin:miter;stroke-width:0.8;"/>
   </g>
   <g id="patch_31">
    <path d="M 62.9 244.28 
L 498.316391 244.28 
" style="fill:none;stroke:#000000;stroke-linecap:square;stroke-linejoin:miter;stroke-width:0.8;"/>
   </g>
   <g id="patch_32">
    <path d="M 62.9 7.2 
L 498.316391 7.2 
" style="fill:none;stroke:#000000;stroke-linecap:square;stroke-linejoin:miter;stroke-width:0.8;"/>
   </g>
  </g>
 </g>
 <defs>
  <clipPath id="pd40d96e799">
   <rect height="237.08" width="435.416391" x="62.9" y="7.2"/>
  </clipPath>
 </defs>
</svg>
