<?xml version="1.0" encoding="utf-8" standalone="no"?>
<!DOCTYPE svg PUBLIC "-//W3C//DTD SVG 1.1//EN"
  "http://www.w3.org/Graphics/SVG/1.1/DTD/svg11.dtd">
<!-- Created with matplotlib (https://matplotlib.org/) -->
<svg height="356.824062pt" version="1.1" viewBox="0 0 531.113209 356.824062" width="531.113209pt" xmlns="http://www.w3.org/2000/svg" xmlns:xlink="http://www.w3.org/1999/xlink">
 <defs>
  <style type="text/css">
*{stroke-linecap:butt;stroke-linejoin:round;}
  </style>
 </defs>
 <g id="figure_1">
  <g id="patch_1">
   <path d="M 0 356.824062 
L 531.113209 356.824062 
L 531.113209 0 
L 0 0 
z
" style="fill:none;"/>
  </g>
  <g id="axes_1">
   <g id="patch_2">
    <path d="M 50.196875 289.823437 
L 496.596875 289.823437 
L 496.596875 12.623437 
L 50.196875 12.623437 
z
" style="fill:none;"/>
   </g>
   <g id="patch_3">
    <path clip-path="url(#p9582083e35)" d="M 54.573346 289.823437 
L 52.29235 287.051437 
L 53.052682 287.051437 
L 53.052682 262.103437 
L 56.094009 262.103437 
L 56.094009 287.051437 
L 56.854341 287.051437 
z
" style="fill:#1abc9c;opacity:0.9;stroke:#1abc9c;stroke-linejoin:miter;stroke-width:0.24;"/>
   </g>
   <g id="patch_4">
    <path clip-path="url(#p9582083e35)" d="M 109.317245 289.823437 
L 107.036249 287.051437 
L 107.796581 287.051437 
L 107.796581 262.103437 
L 110.837908 262.103437 
L 110.837908 287.051437 
L 111.59824 287.051437 
z
" style="fill:#1abc9c;opacity:0.9;stroke:#1abc9c;stroke-linejoin:miter;stroke-width:0.24;"/>
   </g>
   <g id="patch_5">
    <path clip-path="url(#p9582083e35)" d="M 200.557076 289.823437 
L 198.27608 287.051437 
L 199.036412 287.051437 
L 199.036412 262.103437 
L 202.07774 262.103437 
L 202.07774 287.051437 
L 202.838072 287.051437 
z
" style="fill:#1abc9c;opacity:0.9;stroke:#1abc9c;stroke-linejoin:miter;stroke-width:0.24;"/>
   </g>
   <g id="patch_6">
    <path clip-path="url(#p9582083e35)" d="M 237.053009 289.823437 
L 234.772013 287.051437 
L 235.532345 287.051437 
L 235.532345 262.103437 
L 238.573673 262.103437 
L 238.573673 287.051437 
L 239.334005 287.051437 
z
" style="fill:#1abc9c;opacity:0.9;stroke:#1abc9c;stroke-linejoin:miter;stroke-width:0.24;"/>
   </g>
   <g id="patch_7">
    <path clip-path="url(#p9582083e35)" d="M 255.300975 289.823437 
L 253.019979 287.051437 
L 253.780311 287.051437 
L 253.780311 262.103437 
L 256.821639 262.103437 
L 256.821639 287.051437 
L 257.581971 287.051437 
z
" style="fill:#1abc9c;opacity:0.9;stroke:#1abc9c;stroke-linejoin:miter;stroke-width:0.24;"/>
   </g>
   <g id="patch_8">
    <path clip-path="url(#p9582083e35)" d="M 273.548941 289.823437 
L 271.267946 287.051437 
L 272.028278 287.051437 
L 272.028278 262.103437 
L 275.069605 262.103437 
L 275.069605 287.051437 
L 275.829937 287.051437 
z
" style="fill:#1abc9c;opacity:0.9;stroke:#1abc9c;stroke-linejoin:miter;stroke-width:0.24;"/>
   </g>
   <g id="patch_9">
    <path clip-path="url(#p9582083e35)" d="M 291.796908 289.823437 
L 289.515912 287.051437 
L 290.276244 287.051437 
L 290.276244 262.103437 
L 293.317572 262.103437 
L 293.317572 287.051437 
L 294.077903 287.051437 
z
" style="fill:#1abc9c;opacity:0.9;stroke:#1abc9c;stroke-linejoin:miter;stroke-width:0.24;"/>
   </g>
   <g id="patch_10">
    <path clip-path="url(#p9582083e35)" d="M 300.920891 289.823437 
L 298.639895 287.051437 
L 299.400227 287.051437 
L 299.400227 262.103437 
L 302.441555 262.103437 
L 302.441555 287.051437 
L 303.201887 287.051437 
z
" style="fill:#1abc9c;opacity:0.9;stroke:#1abc9c;stroke-linejoin:miter;stroke-width:0.24;"/>
   </g>
   <g id="patch_11">
    <path clip-path="url(#p9582083e35)" d="M 310.044874 289.823437 
L 307.763878 287.051437 
L 308.52421 287.051437 
L 308.52421 262.103437 
L 311.565538 262.103437 
L 311.565538 287.051437 
L 312.32587 287.051437 
z
" style="fill:#1abc9c;opacity:0.9;stroke:#1abc9c;stroke-linejoin:miter;stroke-width:0.24;"/>
   </g>
   <g id="patch_12">
    <path clip-path="url(#p9582083e35)" d="M 319.168857 289.823437 
L 316.887861 287.051437 
L 317.648193 287.051437 
L 317.648193 262.103437 
L 320.689521 262.103437 
L 320.689521 287.051437 
L 321.449853 287.051437 
z
" style="fill:#1abc9c;opacity:0.9;stroke:#1abc9c;stroke-linejoin:miter;stroke-width:0.24;"/>
   </g>
   <g id="patch_13">
    <path clip-path="url(#p9582083e35)" d="M 328.29284 289.823437 
L 326.011845 287.051437 
L 326.772176 287.051437 
L 326.772176 262.103437 
L 329.813504 262.103437 
L 329.813504 287.051437 
L 330.573836 287.051437 
z
" style="fill:#1abc9c;opacity:0.9;stroke:#1abc9c;stroke-linejoin:miter;stroke-width:0.24;"/>
   </g>
   <g id="patch_14">
    <path clip-path="url(#p9582083e35)" d="M 337.416823 289.823437 
L 335.135828 287.051437 
L 335.89616 287.051437 
L 335.89616 262.103437 
L 338.937487 262.103437 
L 338.937487 287.051437 
L 339.697819 287.051437 
z
" style="fill:#1abc9c;opacity:0.9;stroke:#1abc9c;stroke-linejoin:miter;stroke-width:0.24;"/>
   </g>
   <g id="patch_15">
    <path clip-path="url(#p9582083e35)" d="M 355.66479 289.823437 
L 353.383794 287.051437 
L 354.144126 287.051437 
L 354.144126 262.103437 
L 357.185454 262.103437 
L 357.185454 287.051437 
L 357.945786 287.051437 
z
" style="fill:#1abc9c;opacity:0.9;stroke:#1abc9c;stroke-linejoin:miter;stroke-width:0.24;"/>
   </g>
   <g id="patch_16">
    <path clip-path="url(#p9582083e35)" d="M 383.036739 289.823437 
L 380.755743 287.051437 
L 381.516075 287.051437 
L 381.516075 262.103437 
L 384.557403 262.103437 
L 384.557403 287.051437 
L 385.317735 287.051437 
z
" style="fill:#1abc9c;opacity:0.9;stroke:#1abc9c;stroke-linejoin:miter;stroke-width:0.24;"/>
   </g>
   <g id="patch_17">
    <path clip-path="url(#p9582083e35)" d="M 419.532672 289.823437 
L 417.251676 287.051437 
L 418.012008 287.051437 
L 418.012008 262.103437 
L 421.053336 262.103437 
L 421.053336 287.051437 
L 421.813668 287.051437 
z
" style="fill:#1abc9c;opacity:0.9;stroke:#1abc9c;stroke-linejoin:miter;stroke-width:0.24;"/>
   </g>
   <g id="patch_18">
    <path clip-path="url(#p9582083e35)" d="M 446.904621 289.823437 
L 444.623626 287.051437 
L 445.383958 287.051437 
L 445.383958 262.103437 
L 448.425285 262.103437 
L 448.425285 287.051437 
L 449.185617 287.051437 
z
" style="fill:#1abc9c;opacity:0.9;stroke:#1abc9c;stroke-linejoin:miter;stroke-width:0.24;"/>
   </g>
   <g id="patch_19">
    <path clip-path="url(#p9582083e35)" d="M 465.152588 289.823437 
L 462.871592 287.051437 
L 463.631924 287.051437 
L 463.631924 262.103437 
L 466.673252 262.103437 
L 466.673252 287.051437 
L 467.433583 287.051437 
z
" style="fill:#1abc9c;opacity:0.9;stroke:#1abc9c;stroke-linejoin:miter;stroke-width:0.24;"/>
   </g>
   <g id="patch_20">
    <path clip-path="url(#p9582083e35)" d="M 492.524537 289.823437 
L 490.243541 287.051437 
L 491.003873 287.051437 
L 491.003873 262.103437 
L 494.045201 262.103437 
L 494.045201 287.051437 
L 494.805533 287.051437 
z
" style="fill:#1abc9c;opacity:0.9;stroke:#1abc9c;stroke-linejoin:miter;stroke-width:0.24;"/>
   </g>
   <g id="matplotlib.axis_1">
    <g id="xtick_1">
     <g id="line2d_1">
      <path clip-path="url(#p9582083e35)" d="M 54.573346 289.823437 
L 54.573346 12.623437 
" style="fill:none;stroke:#b0b0b0;stroke-linecap:square;stroke-opacity:0.5;stroke-width:0.8;"/>
     </g>
     <g id="line2d_2">
      <defs>
       <path d="M 0 0 
L 0 3.5 
" id="m48309f99e4" style="stroke:#000000;stroke-width:0.8;"/>
      </defs>
      <g>
       <use style="stroke:#000000;stroke-width:0.8;" x="54.573346" xlink:href="#m48309f99e4" y="289.823437"/>
      </g>
     </g>
     <g id="text_1">
      <!-- 0 -->
      <defs>
       <path d="M 3.03125 29.828125 
Q 3.03125 38.53125 3.90625 45.484375 
Q 4.78125 52.4375 7.78125 57.875 
Q 10.796875 63.328125 15.3125 66.03125 
Q 19.828125 68.75 25.59375 68.75 
Q 32.125 68.75 37.078125 65.375 
Q 42.046875 62.015625 44.21875 55.03125 
Q 46.390625 48.046875 46.390625 36.03125 
Q 46.390625 16.5 40.40625 7.265625 
Q 34.421875 -1.953125 23.828125 -1.953125 
Q 18.5 -1.953125 14.421875 0.34375 
Q 10.359375 2.640625 7.734375 6.984375 
Q 5.125 11.328125 4.078125 17.234375 
Q 3.03125 23.140625 3.03125 29.828125 
z
M 11.421875 32.671875 
Q 11.421875 23.390625 12.8125 15.765625 
Q 14.203125 8.15625 17.453125 4.8125 
Q 20.703125 1.46875 25.203125 1.46875 
Q 29.546875 1.46875 32.453125 4.4375 
Q 35.359375 7.421875 36.6875 14.640625 
Q 38.03125 21.875 38.03125 32.515625 
Q 38.03125 49.21875 34.859375 57.21875 
Q 31.6875 65.234375 24.359375 65.234375 
Q 17.96875 65.234375 14.6875 59.03125 
Q 11.421875 52.828125 11.421875 32.671875 
z
" id="PalatinoLinotype-Roman-48"/>
      </defs>
      <g transform="translate(50.823346 309.170312)scale(0.15 -0.15)">
       <use xlink:href="#PalatinoLinotype-Roman-48"/>
      </g>
      <!-- Midnight -->
      <defs>
       <path d="M 91.84375 68.84375 
L 92.28125 68.453125 
L 92.28125 66.0625 
L 91.890625 65.71875 
Q 86.53125 65.578125 85.234375 65.1875 
Q 83.9375 64.796875 83.390625 63.890625 
Q 82.859375 62.984375 82.78125 60.34375 
Q 82.71875 57.71875 82.515625 45.453125 
L 82.515625 22.953125 
Q 82.515625 18.0625 82.65625 11.90625 
Q 82.8125 5.765625 83.265625 4.765625 
Q 83.734375 3.765625 84.953125 3.296875 
Q 86.1875 2.828125 91.890625 2.6875 
L 92.28125 2.34375 
L 92.28125 -0.046875 
L 91.84375 -0.4375 
Q 83.890625 0 77.984375 0 
Q 73.96875 0 64.359375 -0.4375 
L 63.921875 -0.046875 
L 63.921875 2.296875 
L 64.3125 2.6875 
Q 69.671875 2.828125 70.96875 3.21875 
Q 72.265625 3.609375 72.796875 4.515625 
Q 73.34375 5.421875 73.4375 8.109375 
Q 73.53125 10.796875 73.6875 22.953125 
L 73.6875 58.796875 
L 56.84375 23.53125 
Q 50.484375 10.296875 45.75 -1.375 
L 43.84375 -1.375 
Q 41.109375 4.9375 39.359375 8.6875 
L 16.015625 57.171875 
L 16.015625 23.046875 
Q 16.015625 18.265625 16.140625 12.03125 
Q 16.265625 5.8125 16.75 4.828125 
Q 17.234375 3.859375 18.453125 3.359375 
Q 19.671875 2.875 25.390625 2.78125 
L 25.78125 2.390625 
L 25.78125 0.046875 
L 25.34375 -0.390625 
L 22.21875 -0.25 
Q 17.390625 0 13.921875 0 
Q 12.359375 0 2.25 -0.390625 
L 1.859375 0 
L 1.859375 2.34375 
L 2.25 2.78125 
Q 7.625 2.875 8.890625 3.265625 
Q 10.15625 3.65625 10.71875 4.578125 
Q 11.28125 5.515625 11.34375 8.046875 
Q 11.421875 10.59375 11.578125 23.046875 
L 11.578125 45.40625 
Q 11.578125 49.859375 11.453125 56.21875 
Q 11.328125 62.59375 10.859375 63.59375 
Q 10.40625 64.59375 9.171875 65.078125 
Q 7.953125 65.578125 2.25 65.671875 
L 1.859375 66.0625 
L 1.859375 68.40625 
L 2.296875 68.84375 
Q 5.671875 68.609375 11.375 68.609375 
Q 16.75 68.609375 20.75 68.84375 
Q 24.859375 59.375 28.609375 51.703125 
L 47.125 13.71875 
L 63.8125 48.53125 
Q 70.609375 62.640625 72.953125 68.84375 
Q 77.640625 68.609375 82.171875 68.609375 
Q 86.28125 68.609375 91.84375 68.84375 
z
" id="PalatinoLinotype-Roman-77"/>
       <path d="M 14.0625 68.359375 
Q 16.359375 68.359375 17.96875 66.75 
Q 19.578125 65.140625 19.578125 62.84375 
Q 19.578125 60.59375 17.96875 58.984375 
Q 16.359375 57.375 14.0625 57.375 
Q 11.8125 57.375 10.171875 58.953125 
Q 8.546875 60.546875 8.546875 62.84375 
Q 8.546875 65.140625 10.171875 66.75 
Q 11.8125 68.359375 14.0625 68.359375 
z
M 18.21875 46.53125 
L 19.140625 45.90625 
Q 18.609375 39.5 18.609375 29.640625 
L 18.609375 18.609375 
Q 18.609375 17.53125 18.796875 11.6875 
Q 19 5.859375 19.21875 4.875 
Q 19.4375 3.90625 19.875 3.46875 
Q 20.3125 3.03125 20.9375 2.90625 
Q 21.578125 2.78125 26.21875 2.484375 
L 26.65625 2.09375 
L 26.65625 0.046875 
L 26.265625 -0.390625 
Q 20.171875 0 14.5 0 
Q 8.890625 0 2.78125 -0.390625 
L 2.34375 0.046875 
L 2.34375 2.09375 
L 2.78125 2.484375 
Q 7.515625 2.78125 8.125 2.921875 
Q 8.734375 3.078125 9.203125 3.53125 
Q 9.671875 4 9.84375 4.953125 
Q 10.015625 5.90625 10.234375 11.25 
Q 10.453125 16.609375 10.453125 19.34375 
L 10.453125 28.953125 
Q 10.453125 30.90625 10.25 34.265625 
Q 10.0625 37.640625 9.9375 38.421875 
Q 9.8125 39.203125 9.171875 39.5625 
Q 8.546875 39.9375 6.640625 39.9375 
L 2.546875 39.984375 
L 2.09375 40.375 
L 2.09375 42.484375 
L 2.484375 42.875 
Q 11.8125 44 18.21875 46.53125 
z
M 14.40625 -2.9375 
z
" id="PalatinoLinotype-Roman-105"/>
       <path d="M 32.859375 66.21875 
L 32.859375 68.265625 
L 33.25 68.703125 
Q 42.578125 69.78125 48.96875 72.3125 
L 49.90625 71.734375 
Q 49.359375 66.109375 49.359375 49.21875 
L 49.359375 17.234375 
Q 49.359375 12.3125 49.53125 8.625 
Q 49.703125 4.9375 50.140625 4.25 
Q 50.59375 3.5625 51.59375 3.125 
Q 52.59375 2.6875 57.28125 2.296875 
L 57.71875 1.90625 
L 57.71875 0.046875 
L 57.28125 -0.390625 
Q 52 -0.046875 49.078125 -0.046875 
Q 46.4375 -0.046875 41.546875 -0.390625 
L 41.015625 0.140625 
Q 41.15625 4.9375 41.15625 6.84375 
Q 41.15625 7.078125 41.21875 8.6875 
Q 38.53125 6.734375 35.84375 4.34375 
Q 31.890625 0.828125 30.671875 -0.046875 
Q 28.421875 -1.171875 24.265625 -1.171875 
Q 17.53125 -1.171875 12.8125 2.140625 
Q 8.109375 5.46875 6.109375 10.609375 
Q 4.109375 15.765625 4.109375 21.1875 
Q 4.109375 26.703125 6.171875 31.8125 
Q 8.25 36.921875 12.078125 39.265625 
Q 15.921875 41.609375 20.4375 44.109375 
Q 24.953125 46.625 29.390625 46.625 
Q 35.59375 46.625 41.21875 43.5625 
L 41.015625 54.4375 
Q 40.921875 60.109375 40.71875 62.328125 
Q 40.53125 64.546875 40.234375 64.953125 
Q 39.9375 65.375 39.234375 65.5625 
Q 38.53125 65.765625 33.296875 65.765625 
z
M 41.21875 35.203125 
Q 38.1875 38.625 34.5 40.421875 
Q 30.8125 42.234375 27.09375 42.234375 
Q 23 42.234375 19.453125 40.015625 
Q 15.921875 37.796875 14.359375 33.421875 
Q 12.796875 29.046875 12.796875 23.921875 
Q 12.796875 15.375 17.109375 10.203125 
Q 21.4375 5.03125 27.984375 5.03125 
Q 31.546875 5.03125 34.296875 6.65625 
Q 37.0625 8.296875 38.84375 11.078125 
Q 40.625 13.875 40.921875 16.65625 
Q 41.21875 19.4375 41.21875 26.859375 
z
" id="PalatinoLinotype-Roman-100"/>
       <path d="M 16.703125 46.53125 
L 17.625 45.90625 
Q 17.328125 42.625 17.234375 37.3125 
Q 21.140625 40.53125 24.65625 43.84375 
Q 25.6875 44.78125 26.578125 45.21875 
Q 27.484375 45.65625 29.578125 46.140625 
Q 31.6875 46.625 33.890625 46.625 
Q 37.59375 46.625 41.078125 45.109375 
Q 44.578125 43.609375 46.359375 41.53125 
Q 48.140625 39.453125 48.828125 36.625 
Q 49.515625 33.796875 49.515625 29.640625 
L 49.515625 21.046875 
Q 49.515625 20.21875 49.75 8.890625 
Q 49.859375 4.25 50.78125 3.359375 
Q 51.703125 2.484375 56.84375 2.484375 
L 57.234375 2.09375 
L 57.234375 0 
L 56.84375 -0.390625 
Q 50.640625 0 48.4375 0 
Q 47.171875 0 41.3125 -0.390625 
L 40.71875 0.140625 
Q 41.359375 6.5 41.359375 16.703125 
L 41.359375 23.09375 
Q 41.359375 28.859375 41.09375 31.390625 
Q 40.828125 33.9375 39.453125 36.015625 
Q 38.09375 38.09375 35.796875 39.234375 
Q 33.5 40.375 30.328125 40.375 
Q 27.78125 40.375 25.96875 39.859375 
Q 24.171875 39.359375 21.921875 37.765625 
Q 19.671875 36.1875 18.59375 34.796875 
Q 17.53125 33.40625 17.3125 32.203125 
Q 17.09375 31 17.09375 27.09375 
L 17.09375 18.609375 
Q 17.09375 17.53125 17.28125 11.6875 
Q 17.484375 5.859375 17.703125 4.875 
Q 17.921875 3.90625 18.359375 3.46875 
Q 18.796875 3.03125 19.421875 2.90625 
Q 20.0625 2.78125 24.703125 2.484375 
L 25.140625 2.09375 
L 25.140625 0.046875 
L 24.75 -0.390625 
Q 18.65625 0 12.984375 0 
Q 7.375 0 1.265625 -0.390625 
L 0.828125 0.046875 
L 0.828125 2.09375 
L 1.265625 2.484375 
Q 6 2.78125 6.609375 2.921875 
Q 7.234375 3.078125 7.6875 3.53125 
Q 8.15625 4 8.328125 4.953125 
Q 8.5 5.90625 8.71875 11.25 
Q 8.9375 16.609375 8.9375 19.34375 
L 8.9375 28.953125 
Q 8.9375 30.90625 8.734375 34.265625 
Q 8.546875 37.640625 8.421875 38.421875 
Q 8.296875 39.203125 7.65625 39.5625 
Q 7.03125 39.9375 5.125 39.9375 
L 1.03125 39.984375 
L 0.59375 40.375 
L 0.59375 42.484375 
L 0.984375 42.875 
Q 10.296875 44 16.703125 46.53125 
z
" id="PalatinoLinotype-Roman-110"/>
       <path d="M 53.859375 43.171875 
L 54.25 42.28125 
Q 52.25 39.203125 51.765625 38.28125 
L 42.671875 38.28125 
Q 44.046875 35.59375 44.046875 32.671875 
Q 44.046875 29.203125 42.453125 25.921875 
Q 40.875 22.65625 38.03125 20.359375 
Q 35.203125 18.0625 31.609375 16.6875 
Q 28.03125 15.328125 23.4375 15.328125 
L 21.1875 15.328125 
Q 18.3125 13.03125 17.484375 11.90625 
Q 16.65625 10.796875 16.65625 9.625 
Q 16.65625 7.46875 18.625 6.59375 
Q 20.609375 5.71875 26.8125 5.71875 
L 37.75 5.859375 
Q 42.921875 5.859375 45.671875 4.640625 
Q 48.4375 3.421875 50.140625 0.265625 
Q 51.859375 -2.875 51.859375 -6.390625 
Q 51.859375 -11.765625 48.359375 -17.109375 
Q 44.875 -22.46875 38.28125 -25.25 
Q 31.6875 -28.03125 24.21875 -28.03125 
Q 19.96875 -28.03125 16.234375 -27.09375 
Q 12.5 -26.171875 9.6875 -24.28125 
Q 6.890625 -22.40625 5.171875 -19.375 
Q 3.46875 -16.359375 3.46875 -13.09375 
Q 3.46875 -11.28125 4 -9.296875 
Q 4.546875 -7.328125 6.0625 -5.03125 
L 14.890625 -0.09375 
Q 10.640625 1.21875 9.546875 2.515625 
Q 8.453125 3.8125 8.453125 5.609375 
Q 8.453125 7.46875 9.671875 10.015625 
L 17.53125 15.671875 
Q 10.59375 17.484375 8.171875 21.09375 
Q 5.765625 24.703125 5.765625 29 
Q 5.765625 32.953125 7.46875 36.546875 
Q 9.1875 40.140625 12.625 42.28125 
Q 16.0625 44.4375 20.328125 45.671875 
Q 24.609375 46.921875 28.125 46.921875 
Q 34.234375 46.921875 39.75 42.96875 
Q 48.578125 42.96875 53.859375 43.171875 
z
M 14.15625 31.84375 
Q 14.15625 28.859375 15.328125 25.4375 
Q 16.5 22.015625 19.109375 20.25 
Q 21.734375 18.5 25 18.5 
Q 29.34375 18.5 32.484375 21.328125 
Q 35.640625 24.171875 35.640625 30.171875 
Q 35.640625 35.25 32.765625 39.296875 
Q 29.890625 43.359375 24.609375 43.359375 
Q 20.171875 43.359375 17.15625 40.453125 
Q 14.15625 37.546875 14.15625 31.84375 
z
M 28.46875 -0.921875 
Q 20.609375 -0.921875 19.40625 -1.109375 
Q 18.21875 -1.3125 16.015625 -2.78125 
Q 13.8125 -4.25 12.421875 -6.765625 
Q 11.03125 -9.28125 11.03125 -12.40625 
Q 11.03125 -17.921875 15.125 -21.390625 
Q 19.234375 -24.859375 26.078125 -24.859375 
Q 31.203125 -24.859375 35.546875 -22.703125 
Q 39.890625 -20.5625 41.96875 -16.9375 
Q 44.046875 -13.328125 44.046875 -10.015625 
Q 44.046875 -6.6875 42.3125 -4.3125 
Q 40.578125 -1.953125 37.8125 -1.4375 
Q 35.0625 -0.921875 28.46875 -0.921875 
z
" id="PalatinoLinotype-Roman-103"/>
       <path d="M 16.609375 72.3125 
L 17.53125 71.734375 
Q 17 66.109375 17 49.21875 
L 17 37.15625 
Q 21.09375 40.53125 24.609375 43.84375 
Q 25.640625 44.78125 26.5625 45.21875 
Q 27.484375 45.65625 29.5625 46.140625 
Q 31.640625 46.625 33.84375 46.625 
Q 37.546875 46.625 41.03125 45.109375 
Q 44.53125 43.609375 46.3125 41.53125 
Q 48.09375 39.453125 48.78125 36.625 
Q 49.46875 33.796875 49.46875 29.640625 
L 49.46875 21.046875 
Q 49.46875 20.21875 49.703125 8.890625 
Q 49.859375 4.25 50.75 3.359375 
Q 51.65625 2.484375 56.78125 2.484375 
L 57.171875 2.09375 
L 57.171875 0 
L 56.78125 -0.390625 
Q 50.59375 0 48.390625 0 
Q 47.265625 0 41.265625 -0.390625 
L 40.671875 0.140625 
Q 41.3125 6.5 41.3125 16.703125 
L 41.3125 23.09375 
Q 41.3125 28.859375 41.03125 31.390625 
Q 40.765625 33.9375 39.390625 36.015625 
Q 38.03125 38.09375 35.765625 39.234375 
Q 33.5 40.375 30.28125 40.375 
Q 26.953125 40.375 24.734375 39.46875 
Q 22.515625 38.578125 20.21875 36.421875 
Q 17.921875 34.28125 17.453125 32.828125 
Q 17 31.390625 17 27.296875 
L 17 18.609375 
Q 17 17.53125 17.1875 11.6875 
Q 17.390625 5.859375 17.609375 4.875 
Q 17.828125 3.90625 18.265625 3.46875 
Q 18.703125 3.03125 19.328125 2.90625 
Q 19.96875 2.78125 24.609375 2.484375 
L 25.046875 2.09375 
L 25.046875 0.046875 
L 24.65625 -0.390625 
Q 18.5625 0 12.890625 0 
Q 7.28125 0 1.171875 -0.390625 
L 0.734375 0.046875 
L 0.734375 2.09375 
L 1.171875 2.484375 
Q 5.90625 2.78125 6.515625 2.921875 
Q 7.125 3.078125 7.59375 3.53125 
Q 8.0625 4 8.234375 4.953125 
Q 8.40625 5.90625 8.625 11.25 
Q 8.84375 16.609375 8.84375 19.34375 
L 8.84375 44.625 
L 8.640625 54.984375 
Q 8.5 60.40625 8.328125 62.5 
Q 8.15625 64.59375 7.859375 64.984375 
Q 7.5625 65.375 6.828125 65.5625 
Q 6.109375 65.765625 0.921875 65.765625 
L 0.484375 66.21875 
L 0.484375 68.265625 
L 0.875 68.703125 
Q 10.203125 69.78125 16.609375 72.3125 
z
" id="PalatinoLinotype-Roman-104"/>
       <path d="M 2.25 38.328125 
L 2.25 39.59375 
L 2.59375 40.09375 
Q 7.171875 41.796875 10.015625 43.265625 
Q 10.015625 56 9.71875 58.109375 
Q 14.75 59.859375 17.96875 61.859375 
L 19.140625 60.890625 
Q 18.65625 57.8125 17.96875 43.015625 
Q 20.40625 42.96875 23.25 42.96875 
Q 29 42.96875 31.5 43.265625 
L 31.84375 42.921875 
L 30.90625 38.8125 
L 30.515625 38.375 
Q 28.03125 38.421875 25 38.421875 
Q 22.265625 38.421875 17.96875 38.375 
L 17.671875 18.5 
Q 17.671875 11.625 17.984375 9.5 
Q 18.3125 7.375 19.75 6.171875 
Q 21.1875 4.984375 24.03125 4.984375 
Q 27.296875 4.984375 30.078125 6.6875 
L 31.25 4.9375 
Q 30.078125 4.109375 25.640625 0.046875 
Q 23.09375 -1.125 20.453125 -1.125 
Q 9.46875 -1.125 9.46875 9.515625 
Q 9.46875 13.421875 9.671875 16.15625 
Q 9.71875 17 9.71875 17.875 
L 9.71875 38.140625 
L 7.71875 38.140625 
Q 5.515625 38.140625 2.6875 37.9375 
z
" id="PalatinoLinotype-Roman-116"/>
      </defs>
      <g transform="translate(23.184674 326.405312)scale(0.15 -0.15)">
       <use xlink:href="#PalatinoLinotype-Roman-77"/>
       <use x="94.580078" xlink:href="#PalatinoLinotype-Roman-105"/>
       <use x="123.681641" xlink:href="#PalatinoLinotype-Roman-100"/>
       <use x="184.765625" xlink:href="#PalatinoLinotype-Roman-110"/>
       <use x="242.96875" xlink:href="#PalatinoLinotype-Roman-105"/>
       <use x="272.070312" xlink:href="#PalatinoLinotype-Roman-103"/>
       <use x="327.685547" xlink:href="#PalatinoLinotype-Roman-104"/>
       <use x="385.888672" xlink:href="#PalatinoLinotype-Roman-116"/>
      </g>
     </g>
    </g>
    <g id="xtick_2">
     <g id="line2d_3">
      <path clip-path="url(#p9582083e35)" d="M 127.565211 289.823437 
L 127.565211 12.623437 
" style="fill:none;stroke:#b0b0b0;stroke-linecap:square;stroke-opacity:0.5;stroke-width:0.8;"/>
     </g>
     <g id="line2d_4">
      <g>
       <use style="stroke:#000000;stroke-width:0.8;" x="127.565211" xlink:href="#m48309f99e4" y="289.823437"/>
      </g>
     </g>
     <g id="text_2">
      <!-- 4 -->
      <defs>
       <path d="M 16.0625 -0.390625 
L 15.671875 0 
L 15.671875 2.09375 
L 16.0625 2.484375 
Q 23.296875 2.6875 24.640625 2.921875 
Q 25.984375 3.171875 26.609375 3.953125 
Q 27.25 4.734375 27.5625 7.765625 
Q 27.875 10.796875 27.875 14.203125 
L 27.875 17.828125 
L 17.1875 17.828125 
Q 7.859375 17.828125 1.421875 17.53125 
L 0.59375 20.171875 
Q 9.078125 36.078125 28.953125 66.265625 
L 35.84375 69.046875 
L 37.0625 68.453125 
Q 36.53125 60.15625 36.53125 47.90625 
L 36.375 34.125 
L 36.375 24.03125 
Q 43.109375 24.078125 46.78125 24.3125 
L 47.21875 23.828125 
Q 47.125 21.96875 47.125 21.140625 
Q 47.171875 19.53125 47.265625 17.96875 
L 46.78125 17.53125 
Q 42.046875 17.828125 38.875 17.828125 
L 36.375 17.828125 
L 36.375 14.546875 
Q 36.375 9.078125 36.671875 6.78125 
Q 36.96875 4.5 37.59375 3.828125 
Q 38.234375 3.171875 40.15625 2.859375 
Q 42.09375 2.546875 46.828125 2.484375 
L 47.265625 2.09375 
L 47.265625 0 
L 46.875 -0.390625 
Q 38.28125 0 32.46875 0 
Q 23 0 16.0625 -0.390625 
z
M 7.03125 24.03125 
L 27.875 24.03125 
L 28.328125 58.734375 
Q 23.640625 52.046875 16.5 40.375 
Q 9.375 28.71875 7.03125 24.03125 
z
" id="PalatinoLinotype-Roman-52"/>
      </defs>
      <g transform="translate(123.815211 309.170312)scale(0.15 -0.15)">
       <use xlink:href="#PalatinoLinotype-Roman-52"/>
      </g>
     </g>
    </g>
    <g id="xtick_3">
     <g id="line2d_5">
      <path clip-path="url(#p9582083e35)" d="M 200.557076 289.823437 
L 200.557076 12.623437 
" style="fill:none;stroke:#b0b0b0;stroke-linecap:square;stroke-opacity:0.5;stroke-width:0.8;"/>
     </g>
     <g id="line2d_6">
      <g>
       <use style="stroke:#000000;stroke-width:0.8;" x="200.557076" xlink:href="#m48309f99e4" y="289.823437"/>
      </g>
     </g>
     <g id="text_3">
      <!-- 8 -->
      <defs>
       <path d="M 16.40625 34.625 
Q 10.984375 37.5 8.171875 41.234375 
Q 5.375 44.96875 5.375 50.296875 
Q 5.375 57.765625 10.890625 63.109375 
Q 16.40625 68.453125 25.921875 68.453125 
Q 30.765625 68.453125 34.890625 66.765625 
Q 39.015625 65.09375 41.25 61.75 
Q 43.5 58.40625 43.5 54.296875 
Q 43.5 50 40.859375 46.0625 
Q 38.234375 42.140625 31.546875 38.09375 
L 31.546875 37.640625 
Q 37.25 34.90625 40.015625 33 
Q 42.78125 31.109375 44.53125 27.859375 
Q 46.296875 24.609375 46.296875 20.359375 
Q 46.296875 14.546875 42.9375 9.203125 
Q 39.59375 3.859375 34.125 1.078125 
Q 28.65625 -1.703125 22.796875 -1.703125 
Q 14.265625 -1.703125 8.6875 3.078125 
Q 3.125 7.859375 3.125 15.828125 
Q 3.125 22.265625 6.953125 26.921875 
Q 10.796875 31.59375 16.40625 34.1875 
z
M 27.78125 39.3125 
Q 33.015625 42.578125 34.859375 45.875 
Q 36.71875 49.171875 36.71875 52.984375 
Q 36.71875 58.59375 33.5 61.859375 
Q 30.28125 65.140625 24.859375 65.140625 
Q 19.671875 65.140625 16.25 62.234375 
Q 12.84375 59.328125 12.84375 54.109375 
Q 12.84375 50.140625 15.0625 47.234375 
Q 17.28125 44.34375 27.78125 39.3125 
z
M 20.359375 32.859375 
Q 14.59375 29.4375 12.34375 25.5 
Q 10.109375 21.578125 10.109375 16.609375 
Q 10.109375 9.625 14.015625 5.640625 
Q 17.921875 1.65625 24.078125 1.65625 
Q 28.265625 1.65625 31.6875 3.609375 
Q 35.109375 5.5625 36.796875 8.953125 
Q 38.484375 12.359375 38.484375 16.359375 
Q 38.484375 22.125 34.453125 25.34375 
Q 30.421875 28.5625 20.359375 32.859375 
z
" id="PalatinoLinotype-Roman-56"/>
      </defs>
      <g transform="translate(196.807076 309.170312)scale(0.15 -0.15)">
       <use xlink:href="#PalatinoLinotype-Roman-56"/>
      </g>
     </g>
    </g>
    <g id="xtick_4">
     <g id="line2d_7">
      <path clip-path="url(#p9582083e35)" d="M 273.548941 289.823437 
L 273.548941 12.623437 
" style="fill:none;stroke:#b0b0b0;stroke-linecap:square;stroke-opacity:0.5;stroke-width:0.8;"/>
     </g>
     <g id="line2d_8">
      <g>
       <use style="stroke:#000000;stroke-width:0.8;" x="273.548941" xlink:href="#m48309f99e4" y="289.823437"/>
      </g>
     </g>
     <g id="text_4">
      <!-- 12 -->
      <defs>
       <path d="M 7.46875 55.171875 
L 6.59375 55.46875 
L 6.109375 59.46875 
L 6.59375 59.96875 
Q 11.46875 61.375 18.9375 64.5 
Q 26.421875 67.625 29.640625 69.28125 
L 30.90625 68.796875 
Q 30.125 47.40625 30.125 43.109375 
L 30.125 25 
Q 30.125 18.3125 30.265625 12.421875 
Q 30.421875 6.546875 30.703125 5.484375 
Q 31 4.4375 31.703125 3.84375 
Q 32.421875 3.265625 33.6875 3.09375 
Q 34.96875 2.9375 41.265625 2.59375 
L 41.609375 2.203125 
L 41.609375 0 
L 41.265625 -0.390625 
Q 30.5625 0 26.171875 0 
Q 22.859375 0 9.90625 -0.390625 
L 9.578125 0 
L 9.578125 2.203125 
L 9.96875 2.59375 
Q 17.28125 3.125 18.328125 3.359375 
Q 19.390625 3.609375 19.953125 4.21875 
Q 20.515625 4.828125 20.84375 6.53125 
Q 21.1875 8.25 21.40625 16.640625 
Q 21.625 25.046875 21.625 25.25 
L 21.625 44.484375 
Q 21.625 58.640625 21.546875 59.859375 
Q 21.484375 61.078125 20.703125 61.078125 
Q 20.515625 61.078125 20.171875 60.984375 
Q 19.828125 60.890625 18.015625 60.109375 
L 13.1875 57.953125 
Q 10.15625 56.640625 7.46875 55.171875 
z
" id="PalatinoLinotype-Roman-49"/>
       <path d="M 2.25 -0.484375 
L 1.65625 0 
L 1.65625 2.25 
L 18.015625 19.578125 
Q 28.125 30.28125 31.09375 36.140625 
Q 34.078125 42 34.078125 47.078125 
Q 34.078125 53.03125 30.46875 56.984375 
Q 26.859375 60.9375 20.703125 60.9375 
Q 16.75 60.9375 13.8125 59.71875 
Q 10.890625 58.5 9.890625 56.984375 
Q 8.890625 55.46875 6.984375 48.484375 
L 6.546875 48.09375 
L 4.546875 48.09375 
L 4.046875 48.53125 
Q 5.171875 55.125 5.609375 61.578125 
Q 10.203125 66.0625 14.1875 67.3125 
Q 18.171875 68.5625 22.515625 68.5625 
Q 27.6875 68.5625 32.421875 66.609375 
Q 37.15625 64.65625 40.03125 60.28125 
Q 42.921875 55.90625 42.921875 50.140625 
Q 42.921875 45.84375 41.234375 41.515625 
Q 39.546875 37.203125 36.296875 33.171875 
Q 33.0625 29.15625 27.4375 23.53125 
L 12.203125 8.015625 
L 31.5 8.015625 
Q 40.375 8.015625 46.296875 8.640625 
L 46.625 8.25 
Q 46.34375 6.59375 46.34375 3.90625 
Q 46.34375 1.46875 46.625 0.046875 
L 46.296875 -0.484375 
Q 42.78125 -0.296875 35.5 -0.140625 
Q 28.21875 0 25.875 0 
Q 21.140625 0 13.125 -0.125 
Q 5.125 -0.25 2.25 -0.484375 
z
" id="PalatinoLinotype-Roman-50"/>
      </defs>
      <g transform="translate(266.048941 309.170312)scale(0.15 -0.15)">
       <use xlink:href="#PalatinoLinotype-Roman-49"/>
       <use x="50" xlink:href="#PalatinoLinotype-Roman-50"/>
      </g>
      <!-- Noon -->
      <defs>
       <path d="M 3.21875 -0.34375 
L 2.78125 0.09375 
L 2.78125 2.34375 
L 3.21875 2.734375 
Q 6.203125 2.78125 7.984375 3.078125 
Q 9.765625 3.375 10.28125 4.046875 
Q 10.796875 4.734375 10.96875 6.25 
Q 11.140625 7.765625 11.296875 13.078125 
Q 11.46875 18.40625 11.46875 20.703125 
L 11.46875 60.15625 
Q 11.46875 62.640625 10.5625 63.84375 
Q 9.671875 65.046875 8.109375 65.359375 
Q 6.546875 65.671875 2.78125 65.71875 
L 2.390625 66.109375 
L 2.390625 68.40625 
L 2.78125 68.84375 
Q 9.515625 68.609375 11.625 68.609375 
Q 16.546875 68.609375 19.734375 68.84375 
L 35.296875 48.640625 
L 58.203125 19.921875 
Q 62.359375 14.703125 66.65625 10.015625 
L 66.65625 47.796875 
Q 66.65625 49.5625 66.484375 55.296875 
Q 66.3125 61.03125 66.0625 62.5625 
Q 65.828125 64.109375 65.203125 64.640625 
Q 64.59375 65.1875 62.90625 65.453125 
Q 61.234375 65.71875 58.34375 65.765625 
L 57.953125 66.15625 
L 57.953125 68.40625 
L 58.34375 68.84375 
Q 62.3125 68.609375 69.625 68.609375 
Q 76.3125 68.609375 79.34375 68.84375 
L 79.78125 68.40625 
L 79.78125 66.15625 
L 79.390625 65.765625 
Q 76.171875 65.71875 74.40625 65.40625 
Q 72.65625 65.09375 72.21875 64.359375 
Q 71.78125 63.625 71.609375 62.203125 
Q 71.4375 60.796875 71.265625 55.46875 
Q 71.09375 50.140625 71.09375 47.796875 
L 71.09375 24.609375 
L 71.140625 11.1875 
Q 71.234375 4.59375 71.34375 -2.046875 
Q 68.890625 -1.21875 62.890625 0 
L 59.421875 4.109375 
L 49.03125 16.796875 
L 15.921875 58.15625 
L 15.921875 20.703125 
Q 15.921875 18.453125 16.09375 12.6875 
Q 16.265625 6.9375 16.5 5.71875 
Q 16.75 4.5 17.140625 4.03125 
Q 17.53125 3.5625 18.828125 3.171875 
Q 20.125 2.78125 24.171875 2.734375 
L 24.5625 2.34375 
L 24.5625 0.046875 
L 24.171875 -0.34375 
Q 21.625 0 15.96875 0 
Q 8.6875 0 3.21875 -0.34375 
z
" id="PalatinoLinotype-Roman-78"/>
       <path d="M 3.328125 22.359375 
Q 3.328125 28.171875 5.71875 33.5625 
Q 8.109375 38.96875 14.03125 42.890625 
Q 19.96875 46.828125 28.125 46.828125 
Q 38.375 46.828125 44.8125 40.359375 
Q 51.265625 33.890625 51.265625 23.734375 
Q 51.265625 12.546875 43.859375 5.3125 
Q 36.46875 -1.90625 26.03125 -1.90625 
Q 19.1875 -1.90625 13.8125 1.78125 
Q 8.453125 5.46875 5.890625 10.78125 
Q 3.328125 16.109375 3.328125 22.359375 
z
M 12.546875 25.734375 
Q 12.546875 18.890625 14.296875 13.5 
Q 16.0625 8.109375 19.875 4.828125 
Q 23.6875 1.5625 28.5625 1.5625 
Q 34.328125 1.5625 38.078125 6.125 
Q 41.84375 10.6875 41.84375 19.875 
Q 41.84375 30.28125 37.765625 36.921875 
Q 33.6875 43.5625 26.03125 43.5625 
Q 19.671875 43.5625 16.109375 38.96875 
Q 12.546875 34.375 12.546875 25.734375 
z
M 27.34375 49.609375 
z
M 26.609375 -2.9375 
z
" id="PalatinoLinotype-Roman-111"/>
      </defs>
      <g transform="translate(254.761441 326.405312)scale(0.15 -0.15)">
       <use xlink:href="#PalatinoLinotype-Roman-78"/>
       <use x="83.105469" xlink:href="#PalatinoLinotype-Roman-111"/>
       <use x="137.695312" xlink:href="#PalatinoLinotype-Roman-111"/>
       <use x="192.285156" xlink:href="#PalatinoLinotype-Roman-110"/>
      </g>
     </g>
    </g>
    <g id="xtick_5">
     <g id="line2d_9">
      <path clip-path="url(#p9582083e35)" d="M 346.540807 289.823437 
L 346.540807 12.623437 
" style="fill:none;stroke:#b0b0b0;stroke-linecap:square;stroke-opacity:0.5;stroke-width:0.8;"/>
     </g>
     <g id="line2d_10">
      <g>
       <use style="stroke:#000000;stroke-width:0.8;" x="346.540807" xlink:href="#m48309f99e4" y="289.823437"/>
      </g>
     </g>
     <g id="text_5">
      <!-- 16 -->
      <defs>
       <path d="M 42.1875 67.53125 
L 42.1875 66.9375 
Q 36.859375 65.828125 30.046875 61.625 
Q 23.25 57.421875 18.609375 50.34375 
Q 13.96875 43.265625 13.234375 33.25 
Q 14.890625 34.421875 17.046875 36.078125 
Q 19.828125 38.1875 21.109375 38.96875 
Q 22.40625 39.75 24.578125 40.328125 
Q 26.765625 40.921875 29.59375 40.921875 
Q 34.625 40.921875 38.625 38.6875 
Q 42.625 36.46875 44.625 32.140625 
Q 46.625 27.828125 46.625 22.078125 
Q 46.625 13.921875 42.671875 8.421875 
Q 38.71875 2.9375 34.265625 0.5625 
Q 29.828125 -1.8125 24.078125 -1.8125 
Q 14.265625 -1.8125 8.84375 5.53125 
Q 3.421875 12.890625 3.421875 24.65625 
Q 3.421875 32.46875 5.6875 39.671875 
Q 7.953125 46.875 12.59375 52.703125 
Q 17.234375 58.546875 24.4375 63.078125 
Q 31.640625 67.625 38.625 69.234375 
z
M 12.3125 20.953125 
Q 12.3125 16.109375 13.703125 11.375 
Q 15.09375 6.640625 18.15625 4.046875 
Q 21.234375 1.46875 25.390625 1.46875 
Q 28.953125 1.46875 31.984375 3.46875 
Q 35.015625 5.46875 36.59375 9.734375 
Q 38.1875 14.015625 38.1875 18.75 
Q 38.1875 23.484375 36.625 27.21875 
Q 35.0625 30.953125 32.078125 33.03125 
Q 29.109375 35.109375 25.140625 35.109375 
Q 22.21875 35.109375 19.28125 33.6875 
Q 16.359375 32.28125 14.765625 30.46875 
Q 13.1875 28.65625 12.75 26.625 
Q 12.3125 24.609375 12.3125 20.953125 
z
" id="PalatinoLinotype-Roman-54"/>
      </defs>
      <g transform="translate(339.040807 309.170312)scale(0.15 -0.15)">
       <use xlink:href="#PalatinoLinotype-Roman-49"/>
       <use x="50" xlink:href="#PalatinoLinotype-Roman-54"/>
      </g>
     </g>
    </g>
    <g id="xtick_6">
     <g id="line2d_11">
      <path clip-path="url(#p9582083e35)" d="M 419.532672 289.823437 
L 419.532672 12.623437 
" style="fill:none;stroke:#b0b0b0;stroke-linecap:square;stroke-opacity:0.5;stroke-width:0.8;"/>
     </g>
     <g id="line2d_12">
      <g>
       <use style="stroke:#000000;stroke-width:0.8;" x="419.532672" xlink:href="#m48309f99e4" y="289.823437"/>
      </g>
     </g>
     <g id="text_6">
      <!-- 20 -->
      <g transform="translate(412.032672 309.170312)scale(0.15 -0.15)">
       <use xlink:href="#PalatinoLinotype-Roman-50"/>
       <use x="50" xlink:href="#PalatinoLinotype-Roman-48"/>
      </g>
     </g>
    </g>
    <g id="xtick_7">
     <g id="line2d_13">
      <path clip-path="url(#p9582083e35)" d="M 492.524537 289.823437 
L 492.524537 12.623437 
" style="fill:none;stroke:#b0b0b0;stroke-linecap:square;stroke-opacity:0.5;stroke-width:0.8;"/>
     </g>
     <g id="line2d_14">
      <g>
       <use style="stroke:#000000;stroke-width:0.8;" x="492.524537" xlink:href="#m48309f99e4" y="289.823437"/>
      </g>
     </g>
     <g id="text_7">
      <!-- 24 -->
      <g transform="translate(485.024537 309.170312)scale(0.15 -0.15)">
       <use xlink:href="#PalatinoLinotype-Roman-50"/>
       <use x="50" xlink:href="#PalatinoLinotype-Roman-52"/>
      </g>
      <!-- Midnight -->
      <g transform="translate(461.135865 326.405312)scale(0.15 -0.15)">
       <use xlink:href="#PalatinoLinotype-Roman-77"/>
       <use x="94.580078" xlink:href="#PalatinoLinotype-Roman-105"/>
       <use x="123.681641" xlink:href="#PalatinoLinotype-Roman-100"/>
       <use x="184.765625" xlink:href="#PalatinoLinotype-Roman-110"/>
       <use x="242.96875" xlink:href="#PalatinoLinotype-Roman-105"/>
       <use x="272.070312" xlink:href="#PalatinoLinotype-Roman-103"/>
       <use x="327.685547" xlink:href="#PalatinoLinotype-Roman-104"/>
       <use x="385.888672" xlink:href="#PalatinoLinotype-Roman-116"/>
      </g>
     </g>
    </g>
    <g id="text_8">
     <!-- Time of day -->
     <defs>
      <path d="M 64.703125 68.609375 
Q 64.109375 64.984375 64.0625 61.140625 
L 63.96875 52.984375 
L 63.484375 52.484375 
L 60.40625 52.484375 
L 59.859375 52.9375 
Q 59.625 59.1875 59.328125 60.25 
Q 58.734375 62.203125 56.203125 62.546875 
Q 55.21875 62.703125 47.015625 62.703125 
L 40.484375 62.703125 
Q 40.375 60.984375 40.375 49.125 
L 40.375 21.390625 
Q 40.375 9.765625 41.015625 6.25 
Q 41.265625 4.828125 42.671875 4.4375 
Q 43.40625 4.25 48.390625 3.953125 
L 48.875 3.46875 
L 48.875 0.203125 
L 48.390625 -0.296875 
Q 43.5625 0 33.34375 0 
Q 22.90625 0 18.3125 -0.296875 
L 17.875 0.140625 
L 17.875 3.46875 
L 18.359375 3.953125 
Q 23.34375 4.25 24.078125 4.4375 
Q 25.484375 4.828125 25.734375 6.25 
Q 26.375 9.765625 26.375 21.390625 
L 26.375 49.125 
Q 26.375 61.1875 26.21875 62.703125 
L 19.234375 62.703125 
Q 10.5 62.703125 9.03125 62.15625 
Q 8.25 61.859375 7.953125 61.421875 
Q 7.515625 60.640625 7.234375 58.296875 
Q 6.890625 55.71875 6.78125 52.984375 
L 6.296875 52.484375 
L 3.21875 52.484375 
L 2.6875 52.984375 
L 2.59375 61.328125 
Q 2.546875 64.84375 2 68.609375 
L 2.4375 69.09375 
Q 5.328125 68.609375 23.4375 68.609375 
L 43.21875 68.609375 
Q 59.90625 68.609375 64.203125 69.09375 
z
" id="PalatinoLinotype-Bold-84"/>
      <path d="M 23.78125 63.875 
Q 23.78125 60.75 21.578125 58.515625 
Q 19.390625 56.296875 16.3125 56.296875 
Q 13.1875 56.296875 10.984375 58.515625 
Q 8.796875 60.75 8.796875 63.875 
Q 8.796875 67.09375 11.015625 69.28125 
Q 13.234375 71.484375 16.3125 71.484375 
Q 19.34375 71.484375 21.5625 69.28125 
Q 23.78125 67.09375 23.78125 63.875 
z
M 30.515625 0.140625 
L 30.03125 -0.34375 
Q 25.390625 0 16.65625 0 
Q 7.90625 0 3.328125 -0.34375 
L 2.828125 0.140625 
L 2.828125 3.125 
L 3.328125 3.609375 
Q 8.015625 3.765625 9.125 4.34375 
Q 10.109375 4.78125 10.203125 6.6875 
Q 10.546875 13.03125 10.546875 20.3125 
L 10.546875 27.296875 
Q 10.546875 36.765625 9.8125 38.53125 
Q 9.421875 39.5 7.71875 39.75 
Q 7.125 39.84375 3.46875 39.984375 
L 2.984375 40.484375 
L 2.984375 43.21875 
L 3.46875 43.75 
Q 12.84375 44.578125 22.359375 47.796875 
L 23.390625 47.171875 
Q 22.75 38.28125 22.75 32.171875 
L 22.75 16.609375 
Q 22.75 13.03125 23.09375 6.6875 
Q 23.1875 4.78125 24.171875 4.34375 
Q 25.296875 3.765625 29.984375 3.609375 
L 30.515625 3.125 
z
M 16.65625 -3.8125 
z
" id="PalatinoLinotype-Bold-105"/>
      <path d="M 86.671875 0.25 
L 86.1875 -0.296875 
Q 83.34375 0 76.125 0 
Q 70.125 0 67.578125 -0.296875 
L 66.890625 0.640625 
Q 67.671875 12.796875 67.671875 18.359375 
L 67.671875 22.796875 
Q 67.671875 29.984375 67.234375 32.421875 
Q 66.703125 35.359375 64.796875 37.109375 
Q 62.890625 38.875 59.625 38.875 
Q 55.953125 38.875 53.515625 36.8125 
Q 51.078125 34.765625 51.078125 31.59375 
L 51.078125 17.046875 
L 51.265625 9.328125 
Q 51.375 6.203125 51.8125 5.21875 
Q 52.09375 4.59375 53.125 4.296875 
Q 54 4.046875 57.859375 3.65625 
L 58.40625 3.171875 
L 58.40625 0.25 
L 57.8125 -0.296875 
Q 51.90625 0 45.84375 0 
Q 38.328125 0 32.953125 -0.296875 
L 32.421875 0.25 
L 32.421875 3.125 
L 32.90625 3.71875 
Q 35.984375 4 37.15625 4.25 
Q 38.03125 4.4375 38.421875 5.71875 
Q 38.71875 6.640625 38.765625 11.140625 
L 38.875 26.90625 
Q 38.875 32.375 38.03125 34.71875 
Q 37.359375 36.578125 35.453125 37.796875 
Q 33.734375 38.921875 30.953125 38.921875 
Q 26.5625 38.921875 23.96875 35.984375 
Q 22.75 34.625 22.53125 33.78125 
Q 22.3125 32.953125 22.3125 30.125 
L 22.3125 19.53125 
Q 22.3125 16.40625 22.515625 11.421875 
Q 22.703125 6.296875 22.90625 5.46875 
Q 23.1875 4.4375 24.53125 4.078125 
Q 25.875 3.71875 28.609375 3.65625 
L 29.109375 3.171875 
L 29.109375 0.203125 
L 28.609375 -0.296875 
Q 24.46875 0 16.21875 0 
Q 7.46875 0 2.875 -0.34375 
L 2.390625 0.140625 
L 2.390625 3.125 
L 2.875 3.609375 
Q 7.5625 3.765625 8.6875 4.34375 
Q 9.671875 4.78125 9.765625 6.6875 
Q 10.109375 13.03125 10.109375 20.3125 
L 10.109375 27.296875 
Q 10.109375 37.0625 9.375 38.53125 
Q 8.890625 39.5 7.28125 39.75 
Q 6.6875 39.84375 3.03125 39.984375 
L 2.546875 40.484375 
L 2.546875 43.21875 
L 3.03125 43.75 
Q 11.8125 44.578125 21.53125 47.796875 
L 22.609375 47.171875 
L 22.515625 39.40625 
L 31.203125 46.4375 
Q 33.59375 47.515625 36.859375 47.515625 
Q 42.484375 47.515625 45.609375 45.671875 
Q 48.734375 43.84375 50.640625 39.265625 
L 59.515625 46.4375 
Q 61.921875 47.5625 65.328125 47.5625 
Q 74.75 47.5625 78.421875 40.71875 
Q 80.03125 37.703125 80.03125 31.453125 
Q 80.03125 28.859375 79.984375 27.59375 
L 79.9375 25.734375 
Q 79.828125 23.390625 79.828125 22.609375 
L 79.828125 16.265625 
Q 79.828125 8.890625 80.078125 6.859375 
Q 80.328125 4.828125 81.203125 4.296875 
Q 82.078125 3.765625 86.1875 3.65625 
L 86.671875 3.125 
z
" id="PalatinoLinotype-Bold-109"/>
      <path d="M 46.484375 27.390625 
Q 46.484375 26.5625 46.4375 24.90625 
L 45.90625 24.21875 
Q 39.453125 22.46875 28.8125 22.46875 
Q 26.90625 22.46875 23.046875 22.390625 
Q 19.1875 22.3125 17.234375 22.3125 
Q 17.53125 15.140625 21.6875 10.453125 
Q 26.03125 5.421875 33.015625 5.421875 
Q 37.703125 5.421875 44.140625 8.640625 
L 45.3125 7.234375 
L 43.171875 2.390625 
Q 36.03125 -2.15625 27.6875 -2.15625 
Q 16.703125 -2.15625 10.625 4.046875 
Q 4.546875 10.25 4.546875 21.734375 
Q 4.546875 35.359375 11.03125 40.375 
Q 20.015625 47.3125 28.078125 47.3125 
Q 36.8125 47.3125 41.609375 42.28125 
Q 46.484375 37.109375 46.484375 27.390625 
z
M 33.734375 28.65625 
Q 33.734375 41.84375 25.53125 41.84375 
Q 16.890625 41.84375 16.890625 28.765625 
L 16.890625 27.6875 
Q 19.734375 27.25 26.953125 27.25 
Q 30.71875 27.25 33.6875 27.6875 
Q 33.734375 28.375 33.734375 28.65625 
z
M 27.828125 -3.8125 
z
M 27.828125 49.703125 
z
" id="PalatinoLinotype-Bold-101"/>
      <path id="PalatinoLinotype-Bold-32"/>
      <path d="M 51.609375 24.21875 
Q 51.609375 6.9375 39.984375 0.828125 
Q 34.328125 -2.15625 27.046875 -2.15625 
Q 15.828125 -2.15625 9.9375 4.34375 
Q 4.046875 10.84375 4.046875 22.953125 
Q 4.046875 39.703125 15.484375 45.265625 
Q 21.09375 48 28.515625 48 
Q 44.09375 48 49.171875 37.203125 
Q 51.609375 32.03125 51.609375 24.21875 
z
M 38.09375 20.21875 
Q 38.09375 32.375 35.421875 37.625 
Q 32.765625 42.875 27.296875 42.875 
Q 17.578125 42.875 17.578125 25.34375 
Q 17.578125 2.828125 28.46875 2.828125 
Q 35.25 2.828125 37.109375 10.296875 
Q 38.09375 14.203125 38.09375 20.21875 
z
M 28.328125 -3.8125 
z
M 28.328125 49.703125 
z
" id="PalatinoLinotype-Bold-111"/>
      <path d="M 38.09375 72.3125 
L 37.890625 67.09375 
L 37.984375 62.203125 
L 36.46875 61.328125 
Q 34.125 63.765625 30.515625 63.765625 
Q 24.859375 63.765625 24.171875 59.421875 
Q 23.828125 57.234375 23.828125 50.640625 
L 23.828125 43.796875 
L 28.265625 43.796875 
Q 31.59375 43.796875 36.859375 44.1875 
L 37.546875 43.65625 
L 36.421875 38.09375 
L 35.9375 37.59375 
L 28.953125 37.640625 
Q 25.25 37.640625 23.828125 37.59375 
L 23.828125 28.90625 
Q 23.828125 6.734375 24.515625 5.21875 
Q 24.90625 4.34375 25.828125 4.109375 
Q 27.296875 3.765625 32.5625 3.609375 
L 33.0625 3.125 
L 33.0625 0.140625 
L 32.5625 -0.34375 
L 28.953125 -0.203125 
Q 23.78125 0 17.71875 0 
Q 8.984375 0 4.390625 -0.34375 
L 3.90625 0.140625 
L 3.90625 3.125 
L 4.390625 3.609375 
Q 9.078125 3.765625 10.203125 4.34375 
Q 11.1875 4.78125 11.28125 6.6875 
Q 11.625 13.03125 11.625 28.90625 
L 11.625 37.59375 
Q 10.546875 37.640625 10.296875 37.640625 
Q 9.765625 37.640625 7.46875 37.5 
Q 6.34375 37.453125 4.390625 37.359375 
L 3.90625 37.84375 
L 3.90625 39.359375 
L 4.34375 40.046875 
L 8.6875 42.28125 
Q 9.96875 42.875 11.375 43.703125 
Q 11.625 44 11.625 44.578125 
L 11.625 45.3125 
Q 11.625 52.828125 12.59375 55.5625 
Q 13.140625 57.03125 14.65625 58.890625 
Q 15.09375 59.421875 21 65.046875 
L 24.03125 67.921875 
Q 25.34375 69.234375 27.390625 71.046875 
Q 30.078125 73 33.9375 73 
Q 35.984375 73 38.09375 72.3125 
z
" id="PalatinoLinotype-Bold-102"/>
      <path d="M 58.59375 0.140625 
L 58.109375 -0.34375 
Q 53.328125 0 49.46875 0 
Q 45.796875 0 39.546875 -0.34375 
L 39.109375 0 
Q 39.3125 2.390625 39.3125 8.015625 
Q 37.546875 6.546875 34.28125 3.515625 
Q 30.21875 -0.25 29 -0.984375 
Q 27.4375 -1.703125 23.921875 -1.703125 
Q 15.578125 -1.703125 10.453125 4.59375 
Q 5.328125 10.890625 5.328125 20.90625 
Q 5.328125 30.609375 9.28125 36.03125 
Q 10.296875 37.453125 15.328125 41.0625 
Q 21.1875 45.265625 23.875 46.390625 
Q 26.21875 47.359375 29.828125 47.359375 
Q 34.90625 47.359375 39.3125 45.21875 
L 39.3125 47.953125 
Q 39.3125 60.796875 38.671875 63.09375 
Q 38.328125 64.359375 36.671875 64.65625 
Q 35.890625 64.796875 32.171875 64.9375 
L 31.6875 65.484375 
L 31.6875 68.171875 
L 32.171875 68.703125 
Q 41.546875 69.671875 51.078125 72.75 
L 52.15625 72.171875 
Q 52.15625 71.96875 51.953125 67.328125 
Q 51.515625 56.84375 51.515625 35.796875 
L 51.515625 20.015625 
Q 51.515625 6.296875 52.15625 4.9375 
Q 52.546875 4.109375 53.21875 3.90625 
Q 54.296875 3.5625 58.109375 3.265625 
L 58.59375 2.78125 
z
M 39.3125 25.640625 
L 39.3125 34.8125 
Q 35.796875 39.015625 32.5625 40.1875 
Q 30.375 40.96875 27.875 40.96875 
Q 21.140625 40.96875 19.1875 34.03125 
Q 18.109375 30.171875 18.109375 25.4375 
Q 18.109375 15.328125 22.859375 10.453125 
Q 25.34375 7.859375 29.546875 7.859375 
Q 33.015625 7.859375 35.984375 10.0625 
Q 38.671875 12.015625 39.15625 14.265625 
Q 39.3125 14.9375 39.3125 25.640625 
z
" id="PalatinoLinotype-Bold-100"/>
      <path d="M 47.703125 0.296875 
L 47.171875 -0.25 
Q 43.0625 0 37.75 0 
Q 33.59375 0 29.78125 -0.25 
L 29.34375 0.296875 
L 29.78125 6.84375 
L 20.3125 -0.390625 
Q 19.1875 -1.21875 17.09375 -1.421875 
Q 16.265625 -1.515625 15.140625 -1.515625 
Q 9.71875 -1.515625 6.8125 1.75 
Q 3.90625 5.03125 3.90625 10.796875 
Q 3.90625 18.40625 8.734375 21.578125 
Q 13.96875 25.046875 29.78125 27.828125 
Q 29.78125 35.59375 25.6875 38.234375 
Q 23.1875 39.84375 19.734375 39.84375 
Q 15.921875 39.84375 13.71875 38.28125 
L 11.859375 33.734375 
L 11.234375 33.40625 
L 8.734375 33.984375 
L 8.40625 34.671875 
L 8.640625 40.4375 
Q 16.703125 46.390625 20.75 47.171875 
Q 22.46875 47.515625 25.203125 47.515625 
Q 34.8125 47.515625 38.921875 42.484375 
Q 41.890625 38.8125 41.890625 31.25 
Q 41.890625 29.390625 41.75 25.296875 
Q 41.5 18.453125 41.5 16.15625 
Q 41.5 8.796875 41.75 6.765625 
Q 42 4.734375 42.890625 4.1875 
Q 43.796875 3.65625 47.21875 3.5625 
L 47.703125 3.03125 
z
M 29.78125 11.671875 
L 29.78125 23.6875 
Q 21.734375 21.921875 18.921875 19.890625 
Q 16.109375 17.875 16.109375 13.71875 
Q 16.109375 7.078125 21.921875 7.078125 
Q 26.859375 7.078125 29.78125 11.671875 
z
M 25.875 49.703125 
z
M 25.875 -3.8125 
z
" id="PalatinoLinotype-Bold-97"/>
      <path d="M 54.546875 42.625 
L 54.109375 42.1875 
Q 50.875 42.1875 49.703125 40.328125 
Q 49.078125 39.265625 46.234375 33.15625 
Q 39.84375 19.234375 35.640625 8.84375 
L 27.78125 -10.59375 
Q 24.125 -19.625 19.921875 -23.4375 
Q 15.96875 -27 10.25 -27 
Q 6.640625 -27 3.265625 -25.296875 
Q 4.109375 -21.828125 4.984375 -15.578125 
L 6.25 -15.328125 
Q 8.796875 -18.953125 13.140625 -18.953125 
Q 18.265625 -18.953125 22.5625 -8.9375 
L 24.5625 -4.25 
L 8.734375 36.859375 
Q 7.375 40.4375 6.21875 41.28125 
Q 5.078125 42.140625 1.703125 42.1875 
L 1.21875 42.671875 
L 1.21875 45.609375 
L 1.765625 46.09375 
Q 4.890625 45.953125 13.71875 45.953125 
Q 21.921875 45.953125 27.046875 46.09375 
L 27.546875 45.609375 
L 27.546875 42.671875 
L 27.046875 42.1875 
Q 21.484375 42.1875 21.484375 40.1875 
Q 21.484375 39.3125 21.96875 38.03125 
Q 22.75 35.796875 24.359375 31.34375 
L 31.5 12.5 
L 35.796875 22.796875 
Q 42.09375 37.890625 42.09375 40.4375 
Q 42.09375 42.1875 36.421875 42.1875 
L 35.9375 42.671875 
L 35.9375 45.609375 
L 36.46875 46.09375 
Q 39.3125 45.953125 46.046875 45.953125 
Q 49.859375 45.953125 54 46.09375 
L 54.546875 45.609375 
z
M 39.59375 -3.8125 
z
M 28.328125 49.703125 
z
" id="PalatinoLinotype-Bold-121"/>
     </defs>
     <g transform="translate(232.417578 345.574062)scale(0.15 -0.15)">
      <use xlink:href="#PalatinoLinotype-Bold-84"/>
      <use x="62.949219" xlink:href="#PalatinoLinotype-Bold-105"/>
      <use x="96.25" xlink:href="#PalatinoLinotype-Bold-109"/>
      <use x="185.166016" xlink:href="#PalatinoLinotype-Bold-101"/>
      <use x="235.166016" xlink:href="#PalatinoLinotype-Bold-32"/>
      <use x="260.166016" xlink:href="#PalatinoLinotype-Bold-111"/>
      <use x="315.78125" xlink:href="#PalatinoLinotype-Bold-102"/>
      <use x="354.697266" xlink:href="#PalatinoLinotype-Bold-32"/>
      <use x="379.697266" xlink:href="#PalatinoLinotype-Bold-100"/>
      <use x="440.78125" xlink:href="#PalatinoLinotype-Bold-97"/>
      <use x="490.78125" xlink:href="#PalatinoLinotype-Bold-121"/>
     </g>
    </g>
   </g>
   <g id="matplotlib.axis_2">
    <g id="ytick_1">
     <g id="line2d_15">
      <path clip-path="url(#p9582083e35)" d="M 50.196875 289.823437 
L 496.596875 289.823437 
" style="fill:none;stroke:#b0b0b0;stroke-linecap:square;stroke-opacity:0.5;stroke-width:0.8;"/>
     </g>
     <g id="line2d_16">
      <defs>
       <path d="M 0 0 
L -3.5 0 
" id="m72ddcdad65" style="stroke:#000000;stroke-width:0.8;"/>
      </defs>
      <g>
       <use style="stroke:#000000;stroke-width:0.8;" x="50.196875" xlink:href="#m72ddcdad65" y="289.823437"/>
      </g>
     </g>
     <g id="text_9">
      <!-- 0 -->
      <g transform="translate(33.596875 295.246875)scale(0.15 -0.15)">
       <use xlink:href="#PalatinoLinotype-Roman-48"/>
      </g>
     </g>
    </g>
    <g id="ytick_2">
     <g id="line2d_17">
      <path clip-path="url(#p9582083e35)" d="M 50.196875 234.383437 
L 496.596875 234.383437 
" style="fill:none;stroke:#b0b0b0;stroke-linecap:square;stroke-opacity:0.5;stroke-width:0.8;"/>
     </g>
     <g id="line2d_18">
      <g>
       <use style="stroke:#000000;stroke-width:0.8;" x="50.196875" xlink:href="#m72ddcdad65" y="234.383437"/>
      </g>
     </g>
     <g id="text_10">
      <!-- 2 -->
      <g transform="translate(33.596875 239.806875)scale(0.15 -0.15)">
       <use xlink:href="#PalatinoLinotype-Roman-50"/>
      </g>
     </g>
    </g>
    <g id="ytick_3">
     <g id="line2d_19">
      <path clip-path="url(#p9582083e35)" d="M 50.196875 178.943437 
L 496.596875 178.943437 
" style="fill:none;stroke:#b0b0b0;stroke-linecap:square;stroke-opacity:0.5;stroke-width:0.8;"/>
     </g>
     <g id="line2d_20">
      <g>
       <use style="stroke:#000000;stroke-width:0.8;" x="50.196875" xlink:href="#m72ddcdad65" y="178.943437"/>
      </g>
     </g>
     <g id="text_11">
      <!-- 4 -->
      <g transform="translate(33.596875 184.366875)scale(0.15 -0.15)">
       <use xlink:href="#PalatinoLinotype-Roman-52"/>
      </g>
     </g>
    </g>
    <g id="ytick_4">
     <g id="line2d_21">
      <path clip-path="url(#p9582083e35)" d="M 50.196875 123.503437 
L 496.596875 123.503437 
" style="fill:none;stroke:#b0b0b0;stroke-linecap:square;stroke-opacity:0.5;stroke-width:0.8;"/>
     </g>
     <g id="line2d_22">
      <g>
       <use style="stroke:#000000;stroke-width:0.8;" x="50.196875" xlink:href="#m72ddcdad65" y="123.503437"/>
      </g>
     </g>
     <g id="text_12">
      <!-- 6 -->
      <g transform="translate(33.596875 128.926875)scale(0.15 -0.15)">
       <use xlink:href="#PalatinoLinotype-Roman-54"/>
      </g>
     </g>
    </g>
    <g id="ytick_5">
     <g id="line2d_23">
      <path clip-path="url(#p9582083e35)" d="M 50.196875 68.063437 
L 496.596875 68.063437 
" style="fill:none;stroke:#b0b0b0;stroke-linecap:square;stroke-opacity:0.5;stroke-width:0.8;"/>
     </g>
     <g id="line2d_24">
      <g>
       <use style="stroke:#000000;stroke-width:0.8;" x="50.196875" xlink:href="#m72ddcdad65" y="68.063437"/>
      </g>
     </g>
     <g id="text_13">
      <!-- 8 -->
      <g transform="translate(33.596875 73.486875)scale(0.15 -0.15)">
       <use xlink:href="#PalatinoLinotype-Roman-56"/>
      </g>
     </g>
    </g>
    <g id="ytick_6">
     <g id="line2d_25">
      <path clip-path="url(#p9582083e35)" d="M 50.196875 12.623437 
L 496.596875 12.623437 
" style="fill:none;stroke:#b0b0b0;stroke-linecap:square;stroke-opacity:0.5;stroke-width:0.8;"/>
     </g>
     <g id="line2d_26">
      <g>
       <use style="stroke:#000000;stroke-width:0.8;" x="50.196875" xlink:href="#m72ddcdad65" y="12.623437"/>
      </g>
     </g>
     <g id="text_14">
      <!-- 10 -->
      <g transform="translate(26.096875 18.046875)scale(0.15 -0.15)">
       <use xlink:href="#PalatinoLinotype-Roman-49"/>
       <use x="50" xlink:href="#PalatinoLinotype-Roman-48"/>
      </g>
     </g>
    </g>
    <g id="text_15">
     <!-- Residence Time (h) -->
     <defs>
      <path d="M 69.96875 0.203125 
L 69.484375 -0.296875 
Q 69.140625 -0.296875 67.625 -0.25 
Q 60.9375 0 59.28125 0 
Q 56.78125 0 51.375 -0.296875 
Q 51.171875 0.875 49.515625 3.609375 
L 37.40625 23.828125 
L 31.984375 32.078125 
Q 30.953125 33.59375 29.109375 35.0625 
L 29.640625 36.71875 
Q 30.765625 36.671875 31.296875 36.671875 
Q 36.078125 36.671875 38.8125 38.1875 
Q 41.3125 39.546875 43.40625 42.96875 
Q 45.515625 46.390625 45.515625 51.125 
Q 45.515625 59.375 39.359375 62.25 
Q 36.421875 63.625 30.8125 63.625 
Q 28.375 63.625 26.125 63.234375 
Q 25.640625 58.453125 25.640625 46.921875 
L 25.640625 21.390625 
Q 25.640625 9.765625 26.265625 6.25 
Q 26.515625 4.828125 27.9375 4.4375 
Q 28.65625 4.25 33.640625 3.953125 
L 34.125 3.46875 
L 34.125 0.203125 
L 33.6875 -0.296875 
Q 28.8125 0 18.65625 0 
Q 8.15625 0 3.609375 -0.296875 
L 3.125 0.140625 
L 3.125 3.46875 
L 3.609375 3.953125 
Q 8.59375 4.25 9.328125 4.4375 
Q 10.75 4.828125 10.984375 6.25 
Q 11.625 9.765625 11.625 21.390625 
L 11.625 47.21875 
Q 11.625 58.84375 10.984375 62.359375 
Q 10.75 63.765625 9.328125 64.15625 
Q 8.59375 64.359375 3.609375 64.65625 
L 3.125 65.140625 
L 3.125 68.453125 
L 3.609375 68.890625 
Q 8.40625 68.609375 18.65625 68.609375 
Q 24.609375 68.609375 28.328125 68.75 
Q 35.6875 69.046875 39.359375 69.046875 
Q 47.796875 69.046875 51.765625 67.53125 
Q 57.078125 65.484375 58.890625 60.59375 
Q 59.765625 58.203125 59.765625 54.9375 
Q 59.765625 41.65625 44.828125 36.078125 
Q 47.265625 31.984375 50 27.78125 
L 57.515625 16.21875 
Q 64.15625 5.953125 66.359375 4.546875 
Q 67.484375 3.8125 69.484375 3.8125 
L 69.96875 3.328125 
z
" id="PalatinoLinotype-Bold-82"/>
      <path d="M 40.96875 15.328125 
Q 40.96875 7.46875 35.03125 2.65625 
Q 29.109375 -2.15625 19.53125 -2.15625 
Q 12.75 -2.15625 4.984375 0.78125 
L 4.4375 1.515625 
Q 4.890625 6 4.984375 8.5 
L 5.21875 14.65625 
L 5.71875 15.1875 
L 8.59375 15.1875 
L 9.1875 14.65625 
Q 9.375 9.1875 9.625 8.203125 
Q 13.765625 2.875 20.515625 2.875 
Q 24.8125 2.875 27.390625 4.96875 
Q 29.984375 7.078125 29.984375 10.59375 
Q 29.984375 15.046875 26.078125 16.5 
Q 24.421875 17.140625 19.484375 18.171875 
Q 11.421875 19.875 8.6875 22.078125 
Q 4.546875 25.390625 4.546875 31.890625 
Q 4.546875 38.96875 9.671875 43.265625 
Q 15.046875 47.75 24.21875 47.75 
Q 32.03125 47.75 37.203125 45.125 
L 37.640625 44.34375 
Q 37.109375 42.140625 36.8125 33.0625 
L 36.28125 32.5625 
L 33.5 32.5625 
L 32.953125 33.0625 
Q 32.765625 36.578125 32.28125 38.765625 
Q 29.203125 42.671875 23.34375 42.671875 
Q 19.53125 42.671875 17.09375 40.8125 
Q 14.65625 38.96875 14.65625 35.9375 
Q 14.65625 31.890625 18.796875 30.515625 
Q 20.65625 29.9375 26.03125 28.859375 
Q 34.234375 27.25 36.859375 25.140625 
Q 40.96875 21.875 40.96875 15.328125 
z
" id="PalatinoLinotype-Bold-115"/>
      <path d="M 58.984375 0.203125 
L 58.5 -0.34375 
Q 53.125 0 49.421875 0 
Q 46 0 39.453125 -0.34375 
L 38.96875 0.140625 
Q 39.84375 11.03125 39.84375 16.9375 
L 39.84375 26.515625 
Q 39.84375 38.421875 31.25 38.421875 
Q 26.765625 38.421875 24.21875 35.359375 
Q 22.078125 32.765625 22.078125 30.125 
L 22.078125 21 
Q 22.078125 8.34375 22.703125 5.46875 
Q 23.09375 3.765625 28.375 3.65625 
L 28.859375 3.171875 
L 28.859375 0.203125 
L 28.375 -0.296875 
Q 24.21875 0 15.96875 0 
Q 7.234375 0 2.640625 -0.34375 
L 2.15625 0.140625 
L 2.15625 3.125 
L 2.640625 3.609375 
Q 7.328125 3.765625 8.453125 4.34375 
Q 9.421875 4.78125 9.515625 6.6875 
Q 9.859375 13.03125 9.859375 20.3125 
L 9.859375 27.296875 
Q 9.859375 37.0625 9.125 38.53125 
Q 8.640625 39.5 7.03125 39.75 
Q 6.453125 39.84375 2.78125 39.984375 
L 2.296875 40.484375 
L 2.296875 43.21875 
L 2.78125 43.75 
Q 11.578125 44.578125 21.296875 47.796875 
L 22.359375 47.171875 
L 22.265625 38.96875 
L 30.671875 46 
Q 33.890625 47.3125 37.75 47.3125 
Q 45.515625 47.3125 49.359375 42.625 
Q 52.484375 38.8125 52.484375 31.453125 
Q 52.484375 30.609375 52.28125 24.65625 
Q 52.09375 18.703125 52.09375 16.15625 
Q 52.09375 8.796875 52.34375 6.765625 
Q 52.59375 4.734375 53.46875 4.1875 
Q 54.34375 3.65625 58.546875 3.5625 
L 58.984375 3.078125 
z
" id="PalatinoLinotype-Bold-110"/>
      <path d="M 42.046875 6.15625 
L 39.890625 1.3125 
Q 33.25 -2.15625 26.8125 -2.15625 
Q 15.921875 -2.15625 10.15625 4.09375 
Q 4.390625 10.359375 4.390625 21.234375 
Q 4.390625 31.296875 8.84375 36.53125 
Q 10.0625 37.984375 13.484375 40.375 
Q 20.515625 45.359375 22.875 46.328125 
Q 25.25 47.3125 30.125 47.3125 
Q 36.765625 47.3125 41.109375 45.3125 
L 41.609375 44.4375 
Q 41.546875 43.796875 40.921875 39.890625 
L 40.375 36.578125 
Q 40.234375 35.75 39.9375 30.03125 
L 39.453125 29.546875 
L 36.53125 29.546875 
L 36.03125 30.03125 
Q 35.75 34.375 35.359375 36.078125 
Q 33.203125 39.890625 27.09375 39.890625 
Q 16.75 39.890625 16.75 26.46875 
Q 16.75 16.703125 20.90625 11.078125 
Q 25.140625 5.28125 32.859375 5.28125 
Q 37.546875 5.28125 41.109375 7.28125 
z
" id="PalatinoLinotype-Bold-99"/>
      <path d="M 27.4375 -10.890625 
Q 22.265625 -7.859375 16.578125 -0.5 
Q 10.890625 6.84375 8.5625 13.984375 
Q 6.25 21.140625 6.25 30.46875 
Q 6.25 39.75 8.546875 46.96875 
Q 10.84375 54.203125 15.984375 61.234375 
Q 21.140625 68.265625 27.25 72.40625 
L 27.984375 72.40625 
L 29.890625 70.703125 
L 29.890625 69.96875 
Q 26.5625 65.921875 24.875 62.90625 
Q 23.1875 59.90625 22.015625 55.390625 
Q 20.84375 50.875 20.15625 44.203125 
Q 19.484375 37.546875 19.484375 29.734375 
Q 19.484375 14.890625 21.890625 6.484375 
Q 24.3125 -1.90625 29.890625 -8.203125 
L 29.890625 -8.890625 
L 28.171875 -10.796875 
z
" id="PalatinoLinotype-Bold-40"/>
      <path d="M 58.984375 0.203125 
L 58.5 -0.34375 
Q 53.125 0 49.421875 0 
Q 46 0 39.453125 -0.34375 
L 38.96875 0.140625 
Q 39.84375 11.03125 39.84375 16.9375 
L 39.84375 26.515625 
Q 39.84375 38.421875 31.25 38.421875 
Q 26.65625 38.421875 24.125 35.25 
Q 22.078125 32.71875 22.078125 28.71875 
L 22.078125 22.953125 
Q 22.078125 13.03125 22.40625 6.6875 
Q 22.515625 4.78125 23.484375 4.34375 
Q 24.609375 3.765625 29.296875 3.609375 
L 29.828125 3.125 
L 29.828125 0.140625 
L 29.34375 -0.34375 
Q 24.703125 0 15.96875 0 
Q 7.234375 0 2.640625 -0.34375 
L 2.15625 0.140625 
L 2.15625 3.125 
L 2.640625 3.609375 
Q 7.328125 3.765625 8.453125 4.34375 
Q 9.421875 4.78125 9.515625 6.6875 
Q 9.859375 13.03125 9.859375 28.90625 
L 9.859375 45.265625 
Q 9.859375 55.515625 9.515625 61.859375 
Q 9.421875 63.671875 8.4375 64.234375 
Q 7.46875 64.796875 2.78125 64.9375 
L 2.296875 65.484375 
L 2.296875 68.171875 
L 2.78125 68.703125 
Q 12.203125 69.734375 21.6875 72.75 
L 22.703125 72.171875 
Q 22.703125 70.84375 22.5625 67.328125 
Q 22.078125 55.671875 22.078125 41.5 
L 22.078125 38.765625 
L 30.671875 46 
Q 33.890625 47.3125 37.75 47.3125 
Q 45.515625 47.3125 49.359375 42.625 
Q 52.484375 38.8125 52.484375 31.453125 
Q 52.484375 30.609375 52.28125 25.484375 
Q 52.09375 20.359375 52.09375 16.15625 
Q 52.09375 8.796875 52.34375 6.765625 
Q 52.59375 4.734375 53.46875 4.1875 
Q 54.34375 3.65625 58.546875 3.5625 
L 58.984375 3.078125 
z
" id="PalatinoLinotype-Bold-104"/>
      <path d="M 5.328125 72.40625 
L 6.109375 72.40625 
Q 13.625 67.328125 20.328125 56.703125 
Q 27.046875 46.09375 27.046875 30.46875 
Q 27.046875 23.1875 25.75 17.46875 
Q 24.46875 11.765625 21.09375 5.875 
Q 17.71875 0 13.453125 -4.4375 
Q 9.1875 -8.890625 5.90625 -10.890625 
L 5.171875 -10.796875 
L 3.421875 -8.890625 
L 3.421875 -8.203125 
Q 8.546875 -2.59375 11.203125 5.703125 
Q 13.875 14.015625 13.875 29.734375 
Q 13.875 37.5 13.1875 44.1875 
Q 12.5 50.875 11.328125 55.34375 
Q 10.15625 59.8125 8.5 62.78125 
Q 6.84375 65.765625 3.46875 69.96875 
L 3.421875 70.703125 
z
" id="PalatinoLinotype-Bold-41"/>
     </defs>
     <g transform="translate(18.1125 217.108594)rotate(-90)scale(0.15 -0.15)">
      <use xlink:href="#PalatinoLinotype-Bold-82"/>
      <use x="71.386719" xlink:href="#PalatinoLinotype-Bold-101"/>
      <use x="121.386719" xlink:href="#PalatinoLinotype-Bold-115"/>
      <use x="165.771484" xlink:href="#PalatinoLinotype-Bold-105"/>
      <use x="199.072266" xlink:href="#PalatinoLinotype-Bold-100"/>
      <use x="260.15625" xlink:href="#PalatinoLinotype-Bold-101"/>
      <use x="310.15625" xlink:href="#PalatinoLinotype-Bold-110"/>
      <use x="371.240234" xlink:href="#PalatinoLinotype-Bold-99"/>
      <use x="415.625" xlink:href="#PalatinoLinotype-Bold-101"/>
      <use x="465.625" xlink:href="#PalatinoLinotype-Bold-32"/>
      <use x="490.625" xlink:href="#PalatinoLinotype-Bold-84"/>
      <use x="553.574219" xlink:href="#PalatinoLinotype-Bold-105"/>
      <use x="586.875" xlink:href="#PalatinoLinotype-Bold-109"/>
      <use x="675.791016" xlink:href="#PalatinoLinotype-Bold-101"/>
      <use x="725.791016" xlink:href="#PalatinoLinotype-Bold-32"/>
      <use x="750.791016" xlink:href="#PalatinoLinotype-Bold-40"/>
      <use x="784.091797" xlink:href="#PalatinoLinotype-Bold-104"/>
      <use x="845.175781" xlink:href="#PalatinoLinotype-Bold-41"/>
     </g>
    </g>
   </g>
   <g id="line2d_27">
    <path clip-path="url(#p9582083e35)" d="M 54.573346 220.523437 
L 112.358572 161.526037 
L 200.252943 68.063437 
L 236.748876 95.783437 
L 254.996842 206.663437 
L 273.244809 234.383437 
L 291.492775 234.383437 
L 309.740741 262.103437 
L 337.112691 262.103437 
L 355.66479 247.935437 
L 383.340872 220.061437 
L 419.228539 192.803437 
L 446.600489 192.803437 
L 465.760853 217.751437 
L 492.220404 220.523437 
L 492.220404 220.523437 
" style="fill:none;stroke:#000000;stroke-linecap:square;stroke-width:1.4;"/>
   </g>
   <g id="patch_21">
    <path d="M 50.196875 289.823437 
L 50.196875 12.623437 
" style="fill:none;stroke:#000000;stroke-linecap:square;stroke-linejoin:miter;stroke-width:0.8;"/>
   </g>
   <g id="patch_22">
    <path d="M 50.196875 289.823437 
L 496.596875 289.823437 
" style="fill:none;stroke:#000000;stroke-linecap:square;stroke-linejoin:miter;stroke-width:0.8;"/>
   </g>
   <g id="legend_1">
    <g id="patch_23">
     <path d="M 347.575469 64.137187 
L 489.496875 64.137187 
Q 492.096875 64.137187 492.096875 61.537187 
L 492.096875 23.723437 
Q 492.096875 21.123437 489.496875 21.123437 
L 347.575469 21.123437 
Q 344.975469 21.123437 344.975469 23.723437 
L 344.975469 61.537187 
Q 344.975469 64.137187 347.575469 64.137187 
z
" style="fill:#4c4c4c;opacity:0.5;stroke:#4c4c4c;stroke-linejoin:miter;stroke-width:0.24;"/>
    </g>
    <g id="patch_24">
     <path d="M 345.575469 62.137187 
L 487.496875 62.137187 
Q 490.096875 62.137187 490.096875 59.537187 
L 490.096875 21.723437 
Q 490.096875 19.123437 487.496875 19.123437 
L 345.575469 19.123437 
Q 342.975469 19.123437 342.975469 21.723437 
L 342.975469 59.537187 
Q 342.975469 62.137187 345.575469 62.137187 
z
" style="fill:#ffffff;stroke:#cccccc;stroke-linejoin:miter;stroke-width:0.24;"/>
    </g>
    <g id="line2d_28">
     <path d="M 348.175469 29.174063 
L 374.175469 29.174063 
" style="fill:none;stroke:#000000;stroke-linecap:square;stroke-width:1.4;"/>
    </g>
    <g id="line2d_29"/>
    <g id="text_16">
     <!-- HRT -->
     <defs>
      <path d="M 2.875 69 
Q 15.328125 68.609375 16.84375 68.609375 
Q 18.453125 68.609375 30.859375 69 
L 31.25 68.65625 
L 31.25 66.21875 
L 30.859375 65.875 
Q 27.484375 65.765625 25.65625 65.5625 
Q 23.828125 65.375 23 64.84375 
Q 22.171875 64.3125 21.890625 62.328125 
Q 21.625 60.359375 21.625 56.84375 
L 21.53125 45.609375 
L 21.53125 38.765625 
Q 32.234375 38.484375 41.796875 38.484375 
Q 54.890625 38.484375 61.71875 38.765625 
L 61.71875 45.609375 
L 61.625 55.125 
Q 61.578125 60.6875 61.328125 62.296875 
Q 61.078125 63.921875 60.640625 64.453125 
Q 60.203125 64.984375 58.875 65.328125 
Q 57.5625 65.671875 52.34375 65.875 
L 52 66.21875 
L 52 68.65625 
L 52.34375 69 
Q 64.84375 68.609375 66.359375 68.609375 
Q 68.015625 68.609375 80.375 69 
L 80.765625 68.65625 
L 80.765625 66.21875 
L 80.375 65.875 
Q 76.953125 65.765625 75.125 65.5625 
Q 73.296875 65.375 72.453125 64.84375 
Q 71.625 64.3125 71.375 62.328125 
Q 71.140625 60.359375 71.09375 56.84375 
L 71 45.609375 
L 71 23 
L 71.09375 13.484375 
Q 71.140625 7.953125 71.375 6.34375 
Q 71.625 4.734375 72.09375 4.1875 
Q 72.5625 3.65625 73.84375 3.296875 
Q 75.140625 2.9375 80.375 2.734375 
L 80.765625 2.4375 
L 80.765625 0 
L 80.375 -0.390625 
Q 67.875 0 66.359375 0 
Q 64.796875 0 52.34375 -0.390625 
L 52 0 
L 52 2.4375 
L 52.34375 2.734375 
Q 56.9375 2.9375 58.453125 3.21875 
Q 59.96875 3.515625 60.453125 3.96875 
Q 60.9375 4.4375 61.28125 5.953125 
Q 61.625 7.46875 61.625 12.703125 
L 61.71875 23 
L 61.71875 34.125 
Q 47.265625 34.421875 41.453125 34.421875 
Q 35.5 34.421875 21.53125 34.125 
L 21.53125 23 
L 21.578125 13.484375 
Q 21.625 7.953125 21.875 6.34375 
Q 22.125 4.734375 22.578125 4.1875 
Q 23.046875 3.65625 24.359375 3.296875 
Q 25.6875 2.9375 30.859375 2.734375 
L 31.25 2.4375 
L 31.25 0 
L 30.859375 -0.390625 
Q 18.40625 0 16.84375 0 
Q 15.328125 0 2.875 -0.390625 
L 2.484375 0 
L 2.484375 2.4375 
L 2.875 2.734375 
Q 7.421875 2.9375 8.9375 3.21875 
Q 10.453125 3.515625 10.953125 3.96875 
Q 11.46875 4.4375 11.78125 5.953125 
Q 12.109375 7.46875 12.15625 12.703125 
L 12.203125 23 
L 12.203125 45.609375 
L 12.109375 55.125 
Q 12.0625 60.6875 11.84375 62.296875 
Q 11.625 63.921875 11.15625 64.453125 
Q 10.6875 64.984375 9.375 65.328125 
Q 8.0625 65.671875 2.875 65.875 
L 2.484375 66.21875 
L 2.484375 68.65625 
z
" id="PalatinoLinotype-Roman-72"/>
      <path d="M 2.046875 68.65625 
L 2.4375 69 
Q 11.375 68.609375 16.359375 68.609375 
Q 21.875 68.609375 31.25 68.953125 
Q 34.71875 69.046875 36.28125 69.046875 
Q 48.640625 69.046875 53.03125 64.546875 
Q 57.421875 60.0625 57.421875 53.90625 
Q 57.421875 49.8125 55.265625 45.84375 
Q 53.125 41.890625 48.921875 39.078125 
Q 44.734375 36.28125 37.359375 34.859375 
Q 38.71875 32.953125 42.28125 28.265625 
L 49.21875 19.09375 
Q 52.59375 14.546875 56.4375 9.484375 
Q 60.296875 4.4375 61.421875 3.78125 
Q 62.546875 3.125 63.34375 2.96875 
Q 64.15625 2.828125 65.921875 2.828125 
L 66.3125 2.4375 
L 66.3125 0.140625 
L 65.875 -0.296875 
Q 63.53125 0 60.296875 0 
Q 56.84375 0 52.734375 -0.296875 
Q 49.359375 3.8125 42.140625 13.921875 
Q 33.734375 25.640625 24.953125 35.640625 
L 25.4375 37.15625 
Q 27.984375 37.015625 29.390625 37.015625 
Q 37.84375 37.015625 42.625 41.0625 
Q 47.40625 45.125 47.40625 52.296875 
Q 47.40625 58.734375 43.109375 62.03125 
Q 38.8125 65.328125 31.5 65.328125 
Q 26.375 65.328125 21.828125 63.921875 
Q 21.09375 62.84375 21.09375 45.609375 
L 21.09375 23 
L 21.140625 13.484375 
Q 21.1875 7.953125 21.4375 6.34375 
Q 21.6875 4.734375 22.140625 4.1875 
Q 22.609375 3.65625 23.921875 3.296875 
Q 25.25 2.9375 30.421875 2.734375 
L 30.8125 2.4375 
L 30.8125 0 
L 30.421875 -0.390625 
Q 30.171875 -0.390625 21.828125 -0.09375 
Q 18.359375 0 16.40625 0 
Q 14.890625 0 2.4375 -0.390625 
L 2.046875 0 
L 2.046875 2.4375 
L 2.4375 2.734375 
Q 6.984375 2.9375 8.5 3.21875 
Q 10.015625 3.515625 10.515625 3.96875 
Q 11.03125 4.4375 11.34375 5.953125 
Q 11.671875 7.46875 11.71875 12.703125 
L 11.765625 23 
L 11.765625 45.609375 
L 11.671875 55.125 
Q 11.625 60.6875 11.40625 62.296875 
Q 11.1875 63.921875 10.71875 64.453125 
Q 10.25 64.984375 8.9375 65.328125 
Q 7.625 65.671875 2.4375 65.875 
L 2.046875 66.21875 
z
" id="PalatinoLinotype-Roman-82"/>
      <path d="M 58.9375 69 
L 59.375 68.5625 
Q 58.9375 64.15625 58.9375 53.21875 
L 58.546875 52.828125 
L 56.25 52.828125 
L 55.859375 53.265625 
L 55.328125 57.765625 
Q 54.9375 61.375 54.71875 62.171875 
Q 54.5 62.984375 54 63.34375 
Q 53.515625 63.71875 50.828125 63.953125 
Q 48.140625 64.203125 44.828125 64.203125 
L 35.59375 64.203125 
Q 35.203125 53.171875 35.203125 51.46875 
L 35.203125 23 
L 35.296875 13.484375 
Q 35.359375 7.953125 35.578125 6.3125 
Q 35.796875 4.6875 36.25 4.171875 
Q 36.71875 3.65625 38.03125 3.296875 
Q 39.359375 2.9375 44.578125 2.734375 
L 44.921875 2.4375 
L 44.921875 0 
L 44.578125 -0.390625 
Q 32.078125 0 30.609375 0 
Q 29.046875 0 16.703125 -0.390625 
L 16.3125 0 
L 16.3125 2.4375 
L 16.703125 2.734375 
Q 21.296875 2.9375 22.78125 3.21875 
Q 24.265625 3.515625 24.78125 3.96875 
Q 25.296875 4.4375 25.640625 5.953125 
Q 25.984375 7.46875 25.984375 12.703125 
L 26.078125 23 
L 26.078125 51.46875 
Q 26.078125 52.25 25.6875 64.203125 
L 18.40625 64.203125 
Q 13.921875 64.203125 10.640625 64 
Q 7.375 63.8125 6.859375 63 
Q 6.34375 62.203125 5.90625 57.765625 
L 5.421875 53.265625 
L 4.984375 52.828125 
L 2.734375 52.828125 
L 2.34375 53.21875 
Q 2.25 64.984375 1.90625 68.5625 
L 2.34375 69 
Q 10.84375 68.609375 30.609375 68.609375 
Q 50.78125 68.609375 58.9375 69 
z
" id="PalatinoLinotype-Roman-84"/>
     </defs>
     <g transform="translate(384.575469 33.724063)scale(0.13 -0.13)">
      <use xlink:href="#PalatinoLinotype-Roman-72"/>
      <use x="83.203125" xlink:href="#PalatinoLinotype-Roman-82"/>
      <use x="150" xlink:href="#PalatinoLinotype-Roman-84"/>
     </g>
    </g>
    <g id="patch_25">
     <path d="M 348.175469 53.280937 
L 374.175469 53.280937 
L 374.175469 44.180937 
L 348.175469 44.180937 
z
" style="fill:#1abc9c;stroke:#1abc9c;stroke-linejoin:miter;stroke-width:0.24;"/>
    </g>
    <g id="text_17">
     <!-- Pumping periods -->
     <defs>
      <path d="M 2.875 69 
Q 15.1875 68.609375 18.5625 68.609375 
Q 23.140625 68.609375 28.859375 68.84375 
Q 34.90625 69.046875 36.328125 69.046875 
Q 43.171875 69.046875 47.625 67.625 
Q 52.09375 66.21875 55.015625 62.453125 
Q 57.953125 58.6875 57.953125 53.375 
Q 57.953125 48.96875 55.90625 44.859375 
Q 53.859375 40.765625 50.1875 37.890625 
Q 46.53125 35.015625 42.765625 33.765625 
Q 39.015625 32.515625 34.96875 32.515625 
Q 31.9375 32.515625 28.21875 33.203125 
L 27.390625 36.1875 
L 27.828125 36.671875 
Q 31.5 35.84375 33.796875 35.84375 
Q 40.1875 35.84375 44.0625 40.0625 
Q 47.953125 44.28125 47.953125 50.875 
Q 47.953125 57.515625 43.921875 61.46875 
Q 39.890625 65.4375 31.734375 65.4375 
Q 27.296875 65.4375 21.96875 63.765625 
Q 21.53125 60.015625 21.53125 45.609375 
L 21.53125 23 
L 21.578125 13.484375 
Q 21.625 7.953125 21.875 6.34375 
Q 22.125 4.734375 22.578125 4.1875 
Q 23.046875 3.65625 24.359375 3.296875 
Q 25.6875 2.9375 30.859375 2.734375 
L 31.25 2.4375 
L 31.25 0 
L 30.859375 -0.390625 
Q 18.40625 0 16.84375 0 
Q 15.1875 0 2.875 -0.390625 
L 2.484375 0 
L 2.484375 2.4375 
L 2.875 2.734375 
Q 7.421875 2.9375 8.9375 3.21875 
Q 10.453125 3.515625 10.953125 3.96875 
Q 11.46875 4.4375 11.78125 5.953125 
Q 12.109375 7.46875 12.15625 12.703125 
L 12.203125 23 
L 12.203125 45.609375 
L 12.109375 55.125 
Q 12.0625 60.6875 11.84375 62.296875 
Q 11.625 63.921875 11.15625 64.453125 
Q 10.6875 64.984375 9.375 65.328125 
Q 8.0625 65.671875 2.875 65.875 
L 2.484375 66.21875 
L 2.484375 68.65625 
z
" id="PalatinoLinotype-Roman-80"/>
      <path d="M 16.890625 46.53125 
L 17.828125 45.90625 
Q 17.28125 39.5 17.28125 29.640625 
L 17.28125 18.265625 
Q 17.28125 12.015625 18.234375 9.5625 
Q 19.1875 7.125 21.53125 5.828125 
Q 23.875 4.546875 27.09375 4.546875 
Q 30.671875 4.546875 33.59375 5.9375 
Q 36.53125 7.328125 38.5 9.859375 
Q 40.484375 12.40625 40.765625 13.28125 
Q 41.0625 14.15625 41.15625 18.21875 
L 41.3125 23.6875 
L 41.3125 28.953125 
Q 41.3125 30.90625 41.109375 34.265625 
Q 40.921875 37.640625 40.796875 38.421875 
Q 40.671875 39.203125 40.03125 39.5625 
Q 39.40625 39.9375 37.5 39.9375 
L 33.40625 39.984375 
L 32.953125 40.375 
L 32.953125 42.484375 
L 33.34375 42.875 
Q 42.671875 44 49.078125 46.53125 
L 50 45.90625 
Q 49.46875 39.5 49.46875 29.640625 
L 49.46875 21.046875 
Q 49.46875 20.3125 49.703125 9.078125 
Q 49.8125 4.9375 50.21875 4.03125 
Q 50.640625 3.125 51.359375 2.75 
Q 52.09375 2.390625 55.71875 2.390625 
L 57.078125 2.390625 
L 57.515625 2 
L 57.515625 0.046875 
L 57.125 -0.390625 
Q 50.25 0 47.90625 0 
Q 44.921875 0 41.015625 -0.34375 
L 40.578125 0.046875 
Q 40.875 5.03125 41.015625 8.5 
Q 37.9375 6.109375 33.984375 2.09375 
Q 32.46875 0.59375 29.640625 -0.4375 
Q 26.8125 -1.46875 23.1875 -1.46875 
Q 17.71875 -1.46875 14.671875 0.265625 
Q 11.625 2 10.34375 5.046875 
Q 9.078125 8.109375 9.078125 15.578125 
L 9.125 19.4375 
L 9.125 28.953125 
Q 9.125 30.90625 8.921875 34.265625 
Q 8.734375 37.640625 8.609375 38.421875 
Q 8.5 39.203125 7.859375 39.5625 
Q 7.234375 39.9375 5.328125 39.9375 
L 1.21875 39.984375 
L 0.78125 40.375 
L 0.78125 42.484375 
L 1.171875 42.875 
Q 10.5 44 16.890625 46.53125 
z
M 28.5625 49.609375 
z
M 29.046875 -2.9375 
z
" id="PalatinoLinotype-Roman-117"/>
      <path d="M 17.96875 46.53125 
L 18.890625 45.90625 
Q 18.609375 42.671875 18.5 38.1875 
L 23.140625 42.4375 
Q 25.09375 44.234375 25.734375 44.75 
Q 26.375 45.265625 28.71875 45.9375 
Q 31.0625 46.625 33.640625 46.625 
Q 38.53125 46.625 42.1875 44.203125 
Q 45.84375 41.796875 47.609375 37.546875 
Q 54.203125 43.796875 55.296875 44.484375 
Q 56.390625 45.171875 58.78125 45.875 
Q 61.1875 46.578125 63.578125 46.578125 
Q 67.4375 46.578125 70.65625 44.921875 
Q 73.875 43.265625 75.78125 40.578125 
Q 77.6875 37.890625 78 34.765625 
Q 78.328125 31.640625 78.328125 26.171875 
L 78.328125 21.046875 
Q 78.328125 20.21875 78.609375 8.890625 
Q 78.71875 4.25 79.640625 3.359375 
Q 80.5625 2.484375 85.640625 2.484375 
L 86.03125 2.09375 
L 86.03125 0 
L 85.640625 -0.390625 
Q 79.4375 0 77.25 0 
Q 76.03125 0 70.171875 -0.390625 
L 69.53125 0.140625 
Q 70.171875 6.5 70.171875 16.703125 
L 70.171875 22.5625 
Q 70.171875 30.328125 69.4375 33.421875 
Q 68.703125 36.53125 66.015625 38.5 
Q 63.328125 40.484375 59.625 40.484375 
Q 56.984375 40.484375 54.6875 39.421875 
Q 52.390625 38.375 50.5625 36.296875 
Q 48.734375 34.234375 48.53125 32.453125 
Q 48.34375 30.671875 48.34375 25.875 
L 48.34375 19.78125 
Q 48.34375 17.625 48.53125 11.71875 
Q 48.734375 5.8125 48.953125 4.828125 
Q 49.171875 3.859375 49.625 3.4375 
Q 50.09375 3.03125 50.703125 2.90625 
Q 51.3125 2.78125 55.953125 2.484375 
L 56.390625 2.09375 
L 56.390625 0.046875 
L 56 -0.390625 
Q 49.90625 0 44.234375 0 
Q 39.015625 0 32.515625 -0.390625 
L 32.078125 0.046875 
L 32.078125 2.09375 
L 32.515625 2.484375 
Q 37.25 2.78125 37.859375 2.921875 
Q 38.484375 3.078125 38.9375 3.53125 
Q 39.40625 4 39.578125 4.953125 
Q 39.75 5.90625 39.96875 11.25 
Q 40.1875 16.609375 40.1875 19.34375 
L 40.1875 24.90625 
Q 40.1875 30.421875 39.421875 33.390625 
Q 38.671875 36.375 36.171875 38.421875 
Q 33.6875 40.484375 29.9375 40.484375 
Q 27 40.484375 24.578125 39.328125 
Q 22.171875 38.1875 20.625 36.5 
Q 19.09375 34.8125 18.71875 33.34375 
Q 18.359375 31.890625 18.359375 27 
L 18.359375 19.78125 
Q 18.359375 17.625 18.546875 11.71875 
Q 18.75 5.8125 18.96875 4.828125 
Q 19.1875 3.859375 19.65625 3.4375 
Q 20.125 3.03125 20.734375 2.90625 
Q 21.34375 2.78125 25.984375 2.484375 
L 26.421875 2.09375 
L 26.421875 0.046875 
L 26.03125 -0.390625 
Q 19.921875 0 14.265625 0 
Q 8.640625 0 2.546875 -0.390625 
L 2.09375 0.046875 
L 2.09375 2.09375 
L 2.546875 2.484375 
Q 7.28125 2.78125 7.890625 2.921875 
Q 8.5 3.078125 8.953125 3.53125 
Q 9.421875 4 9.59375 4.953125 
Q 9.765625 5.90625 9.984375 11.25 
Q 10.203125 16.609375 10.203125 19.34375 
L 10.203125 28.953125 
Q 10.203125 30.90625 10 34.265625 
Q 9.8125 37.640625 9.6875 38.421875 
Q 9.578125 39.203125 8.9375 39.5625 
Q 8.296875 39.9375 6.390625 39.9375 
L 2.296875 39.984375 
L 1.859375 40.375 
L 1.859375 42.484375 
L 2.25 42.875 
Q 11.578125 44 17.96875 46.53125 
z
" id="PalatinoLinotype-Roman-109"/>
      <path d="M 18.0625 47.125 
L 19 46.53125 
Q 18.5 40.96875 18.453125 36.671875 
Q 25.09375 42.71875 27.703125 44.671875 
Q 30.328125 46.625 36.71875 46.625 
Q 40.71875 46.625 43.984375 45.53125 
Q 47.265625 44.4375 50.046875 41.921875 
Q 52.828125 39.40625 54.4375 35.625 
Q 56.0625 31.84375 56.0625 26.859375 
Q 56.0625 23.34375 54.9375 19.71875 
Q 53.8125 16.109375 51.96875 13.03125 
Q 50.140625 9.96875 49.046875 8.953125 
Q 47.953125 7.953125 44.53125 5.953125 
Q 41.453125 4.109375 38.421875 1.953125 
Q 36.328125 0.4375 35.5 0 
Q 34.671875 -0.4375 32.71875 -0.875 
Q 30.765625 -1.3125 28.5625 -1.3125 
Q 23.484375 -1.3125 18.453125 1.265625 
L 18.453125 -9.125 
Q 18.453125 -10.203125 18.640625 -16.03125 
Q 18.84375 -21.875 19.0625 -22.84375 
Q 19.28125 -23.828125 19.71875 -24.265625 
Q 20.171875 -24.703125 20.796875 -24.828125 
Q 21.4375 -24.953125 26.078125 -25.25 
L 26.515625 -25.640625 
L 26.515625 -27.6875 
L 26.125 -28.125 
Q 20.015625 -27.734375 14.40625 -27.734375 
Q 8.796875 -27.734375 2.6875 -28.125 
L 2.25 -27.6875 
L 2.25 -25.640625 
L 2.6875 -25.25 
Q 7.375 -24.953125 8 -24.796875 
Q 8.640625 -24.65625 9.109375 -24.1875 
Q 9.578125 -23.734375 9.734375 -22.703125 
Q 9.90625 -21.6875 10.125 -16.15625 
Q 10.359375 -10.640625 10.359375 -7.859375 
L 10.359375 29.546875 
Q 10.359375 32.078125 10.125 35.421875 
Q 9.90625 38.765625 9.765625 39.296875 
Q 9.625 39.84375 9.0625 40.1875 
Q 8.5 40.53125 6.546875 40.53125 
L 2.4375 40.578125 
L 2 40.96875 
L 2 43.0625 
L 2.390625 43.453125 
Q 11.71875 44.578125 18.0625 47.125 
z
M 18.453125 9.671875 
Q 20.703125 7.375 24.015625 5.6875 
Q 27.34375 4 31.34375 4 
Q 36.078125 4 39.71875 6.390625 
Q 43.359375 8.796875 45.359375 13.40625 
Q 47.359375 18.015625 47.359375 23.640625 
Q 47.359375 28.171875 45.578125 32.078125 
Q 43.796875 35.984375 40.0625 38.234375 
Q 36.328125 40.484375 32.125 40.484375 
Q 29.546875 40.484375 27.09375 39.578125 
Q 24.65625 38.671875 22.53125 36.90625 
Q 20.40625 35.15625 19.484375 33.5625 
Q 18.5625 31.984375 18.5 30.9375 
Q 18.453125 29.890625 18.453125 28.609375 
z
" id="PalatinoLinotype-Roman-112"/>
      <path id="PalatinoLinotype-Roman-32"/>
      <path d="M 43.171875 7.171875 
L 41.609375 3.65625 
Q 36.53125 0.390625 32.546875 -0.578125 
Q 28.5625 -1.5625 25.4375 -1.5625 
Q 19.578125 -1.5625 14.328125 0.734375 
Q 9.078125 3.03125 5.78125 8.5 
Q 2.484375 13.96875 2.484375 21.6875 
Q 2.484375 26.8125 3.75 30.9375 
Q 5.03125 35.0625 6.421875 37.0625 
Q 7.8125 39.0625 11.125 41.5 
Q 14.453125 43.953125 18.15625 45.40625 
Q 21.875 46.875 26.171875 46.875 
Q 32.03125 46.875 36.5 44.109375 
Q 40.96875 41.359375 42.765625 37.0625 
Q 44.578125 32.765625 44.578125 27.9375 
Q 44.578125 26.421875 44.4375 25 
L 43.890625 24.46875 
Q 40.578125 23.734375 34.953125 23.484375 
Q 29.34375 23.25 27.546875 23.25 
L 11.859375 23.25 
Q 11.96875 13.140625 16.9375 8.34375 
Q 21.921875 3.5625 29.15625 3.5625 
Q 32.5625 3.5625 35.71875 4.734375 
Q 38.875 5.90625 42.390625 8.015625 
z
M 11.859375 27.15625 
Q 12.75 27 18.625 26.796875 
Q 24.515625 26.609375 27.34375 26.609375 
Q 34.125 26.609375 35.59375 26.859375 
Q 35.640625 28.03125 35.640625 28.65625 
Q 35.640625 36.234375 32.5625 39.921875 
Q 29.5 43.609375 24.171875 43.609375 
Q 18.359375 43.609375 15.109375 39.453125 
Q 11.859375 35.296875 11.859375 27.15625 
z
M 25.484375 49.609375 
z
M 24.90625 -2.9375 
z
" id="PalatinoLinotype-Roman-101"/>
      <path d="M 18.75 46.53125 
L 19.671875 45.90625 
Q 19.390625 43.0625 19.234375 35.84375 
L 22.90625 40.484375 
Q 24.703125 42.78125 26.09375 44.015625 
Q 27.484375 45.265625 29.34375 45.9375 
Q 31.203125 46.625 33.15625 46.625 
Q 35.296875 46.625 37.203125 45.75 
L 37.546875 45.0625 
Q 36.765625 38.578125 36.671875 33.640625 
L 34.46875 33.640625 
Q 32.515625 38.140625 28.171875 38.140625 
Q 25.140625 38.140625 22.890625 36.203125 
Q 20.65625 34.28125 19.890625 31.375 
Q 19.140625 28.46875 19.140625 24.03125 
L 19.140625 18.609375 
Q 19.140625 17.140625 19.328125 11.421875 
Q 19.53125 5.71875 19.75 4.828125 
Q 19.96875 3.953125 20.4375 3.53125 
Q 20.90625 3.125 21.65625 2.96875 
Q 22.40625 2.828125 28.609375 2.484375 
L 29.046875 2.09375 
L 29.046875 0.046875 
L 28.609375 -0.390625 
Q 22.125 0 15.046875 0 
Q 9.421875 0 3.328125 -0.390625 
L 2.875 0.046875 
L 2.875 2.09375 
L 3.328125 2.484375 
Q 8.0625 2.78125 8.671875 2.921875 
Q 9.28125 3.078125 9.734375 3.53125 
Q 10.203125 4 10.375 4.953125 
Q 10.546875 5.90625 10.765625 11.25 
Q 10.984375 16.609375 10.984375 19.34375 
L 10.984375 28.953125 
Q 10.984375 30.90625 10.78125 34.265625 
Q 10.59375 37.640625 10.46875 38.421875 
Q 10.359375 39.203125 9.71875 39.5625 
Q 9.078125 39.9375 7.171875 39.9375 
L 3.078125 39.984375 
L 2.640625 40.375 
L 2.640625 42.484375 
L 3.03125 42.875 
Q 12.359375 44 18.75 46.53125 
z
" id="PalatinoLinotype-Roman-114"/>
      <path d="M 4.9375 14.359375 
L 7.03125 14.359375 
L 7.46875 13.921875 
Q 7.5625 9.8125 7.953125 6.890625 
Q 9.46875 4.59375 13.171875 3.140625 
Q 16.890625 1.703125 20.515625 1.703125 
Q 25.6875 1.703125 28.78125 4.484375 
Q 31.890625 7.28125 31.890625 11.140625 
Q 31.890625 13.234375 30.765625 14.765625 
Q 29.640625 16.3125 27.359375 17.3125 
Q 25.09375 18.3125 19.234375 19.671875 
Q 14.203125 20.84375 12.203125 21.5 
Q 10.203125 22.171875 8.34375 23.734375 
Q 6.5 25.296875 5.515625 27.5625 
Q 4.546875 29.828125 4.546875 32.5625 
Q 4.546875 39.109375 9.734375 43.03125 
Q 14.9375 46.96875 22.703125 46.96875 
Q 25.984375 46.96875 29.828125 46.0625 
Q 33.6875 45.171875 35.6875 44.34375 
L 36.140625 43.65625 
Q 35.75 41.703125 35.640625 33.40625 
L 35.203125 32.953125 
L 33.25 32.953125 
L 32.8125 33.40625 
Q 32.625 36.375 32.28125 37.5625 
Q 31.9375 38.765625 30.515625 40.15625 
Q 29.109375 41.546875 26.515625 42.5 
Q 23.921875 43.453125 21.046875 43.453125 
Q 18.0625 43.453125 16.03125 42.578125 
Q 14.015625 41.703125 12.765625 39.921875 
Q 11.53125 38.140625 11.53125 35.59375 
Q 11.53125 33.734375 12.28125 32.265625 
Q 13.03125 30.8125 14.59375 29.90625 
Q 16.15625 29 17.875 28.609375 
L 23.1875 27.25 
Q 30.03125 25.59375 32.984375 24.359375 
Q 35.9375 23.140625 37.546875 20.671875 
Q 39.15625 18.21875 39.15625 14.703125 
Q 39.15625 7.953125 33.59375 3.125 
Q 28.03125 -1.703125 19.28125 -1.703125 
Q 16.21875 -1.703125 11.640625 -1.015625 
Q 7.078125 -0.34375 3.859375 0.484375 
L 3.609375 1.125 
L 4.109375 4.390625 
Q 4.34375 5.90625 4.390625 7.4375 
Q 4.4375 8.984375 4.5 13.921875 
z
" id="PalatinoLinotype-Roman-115"/>
     </defs>
     <g transform="translate(384.575469 53.280937)scale(0.13 -0.13)">
      <use xlink:href="#PalatinoLinotype-Roman-80"/>
      <use x="60.400391" xlink:href="#PalatinoLinotype-Roman-117"/>
      <use x="120.703125" xlink:href="#PalatinoLinotype-Roman-109"/>
      <use x="208.984375" xlink:href="#PalatinoLinotype-Roman-112"/>
      <use x="269.091797" xlink:href="#PalatinoLinotype-Roman-105"/>
      <use x="298.193359" xlink:href="#PalatinoLinotype-Roman-110"/>
      <use x="356.396484" xlink:href="#PalatinoLinotype-Roman-103"/>
      <use x="412.011719" xlink:href="#PalatinoLinotype-Roman-32"/>
      <use x="437.011719" xlink:href="#PalatinoLinotype-Roman-112"/>
      <use x="497.119141" xlink:href="#PalatinoLinotype-Roman-101"/>
      <use x="545.019531" xlink:href="#PalatinoLinotype-Roman-114"/>
      <use x="584.521484" xlink:href="#PalatinoLinotype-Roman-105"/>
      <use x="613.623047" xlink:href="#PalatinoLinotype-Roman-111"/>
      <use x="668.212891" xlink:href="#PalatinoLinotype-Roman-100"/>
      <use x="729.296875" xlink:href="#PalatinoLinotype-Roman-115"/>
     </g>
    </g>
   </g>
  </g>
 </g>
 <defs>
  <clipPath id="p9582083e35">
   <rect height="277.2" width="446.4" x="50.196875" y="12.623437"/>
  </clipPath>
 </defs>
</svg>
