<?xml version="1.0" encoding="utf-8" standalone="no"?>
<!DOCTYPE svg PUBLIC "-//W3C//DTD SVG 1.1//EN"
  "http://www.w3.org/Graphics/SVG/1.1/DTD/svg11.dtd">
<!-- Created with matplotlib (https://matplotlib.org/) -->
<svg height="360pt" version="1.1" viewBox="0 0 576 360" width="576pt" xmlns="http://www.w3.org/2000/svg" xmlns:xlink="http://www.w3.org/1999/xlink">
 <defs>
  <style type="text/css">
*{stroke-linecap:butt;stroke-linejoin:round;}
  </style>
 </defs>
 <g id="figure_1">
  <g id="patch_1">
   <path d="M 0 360 
L 576 360 
L 576 0 
L 0 0 
z
" style="fill:#ffffff;"/>
  </g>
  <g id="axes_1">
   <g id="patch_2">
    <path d="M 85.770275 253.28 
L 559.8 253.28 
L 559.8 22.40125 
L 85.770275 22.40125 
z
" style="fill:#ffffff;"/>
   </g>
   <g id="patch_3">
    <path clip-path="url(#pa82bb75871)" d="M 107.317081 253.28 
L 124.653591 253.28 
L 124.653591 33.395476 
L 107.317081 33.395476 
z
" style="fill:#1a5276;"/>
   </g>
   <g id="patch_4">
    <path clip-path="url(#pa82bb75871)" d="M 156.849967 253.28 
L 174.186478 253.28 
L 174.186478 37.22187 
L 156.849967 37.22187 
z
" style="fill:#1a5276;"/>
   </g>
   <g id="patch_5">
    <path clip-path="url(#pa82bb75871)" d="M 206.382854 253.28 
L 223.719364 253.28 
L 223.719364 49.535119 
L 206.382854 49.535119 
z
" style="fill:#1a5276;"/>
   </g>
   <g id="patch_6">
    <path clip-path="url(#pa82bb75871)" d="M 255.915741 253.28 
L 273.252251 253.28 
L 273.252251 33.395476 
L 255.915741 33.395476 
z
" style="fill:#1a5276;"/>
   </g>
   <g id="patch_7">
    <path clip-path="url(#pa82bb75871)" d="M 305.448627 253.28 
L 322.785138 253.28 
L 322.785138 33.395476 
L 305.448627 33.395476 
z
" style="fill:#1a5276;"/>
   </g>
   <g id="patch_8">
    <path clip-path="url(#pa82bb75871)" d="M 354.981514 253.28 
L 372.318024 253.28 
L 372.318024 33.395476 
L 354.981514 33.395476 
z
" style="fill:#1a5276;"/>
   </g>
   <g id="patch_9">
    <path clip-path="url(#pa82bb75871)" d="M 404.5144 253.28 
L 421.850911 253.28 
L 421.850911 115.037839 
L 404.5144 115.037839 
z
" style="fill:#1a5276;"/>
   </g>
   <g id="patch_10">
    <path clip-path="url(#pa82bb75871)" d="M 454.047287 253.28 
L 471.383797 253.28 
L 471.383797 33.395476 
L 454.047287 33.395476 
z
" style="fill:#1a5276;"/>
   </g>
   <g id="patch_11">
    <path clip-path="url(#pa82bb75871)" d="M 503.580174 253.28 
L 520.916684 253.28 
L 520.916684 33.395476 
L 503.580174 33.395476 
z
" style="fill:#1a5276;"/>
   </g>
   <g id="patch_12">
    <path clip-path="url(#pa82bb75871)" d="M 124.653591 253.28 
L 141.990101 253.28 
L 141.990101 100.347215 
L 124.653591 100.347215 
z
" style="fill:#7f8c8d;"/>
   </g>
   <g id="patch_13">
    <path clip-path="url(#pa82bb75871)" d="M 174.186478 253.28 
L 191.522988 253.28 
L 191.522988 94.964307 
L 174.186478 94.964307 
z
" style="fill:#7f8c8d;"/>
   </g>
   <g id="patch_14">
    <path clip-path="url(#pa82bb75871)" d="M 223.719364 253.28 
L 241.055875 253.28 
L 241.055875 109.221739 
L 223.719364 109.221739 
z
" style="fill:#7f8c8d;"/>
   </g>
   <g id="patch_15">
    <path clip-path="url(#pa82bb75871)" d="M 273.252251 253.28 
L 290.588761 253.28 
L 290.588761 94.498758 
L 273.252251 94.498758 
z
" style="fill:#7f8c8d;"/>
   </g>
   <g id="patch_16">
    <path clip-path="url(#pa82bb75871)" d="M 322.785138 253.28 
L 340.121648 253.28 
L 340.121648 64.179891 
L 322.785138 64.179891 
z
" style="fill:#7f8c8d;"/>
   </g>
   <g id="patch_17">
    <path clip-path="url(#pa82bb75871)" d="M 372.318024 253.28 
L 389.654534 253.28 
L 389.654534 69.300928 
L 372.318024 69.300928 
z
" style="fill:#7f8c8d;"/>
   </g>
   <g id="patch_18">
    <path clip-path="url(#pa82bb75871)" d="M 421.850911 253.28 
L 439.187421 253.28 
L 439.187421 59.042385 
L 421.850911 59.042385 
z
" style="fill:#7f8c8d;"/>
   </g>
   <g id="patch_19">
    <path clip-path="url(#pa82bb75871)" d="M 471.383797 253.28 
L 488.720308 253.28 
L 488.720308 98.350882 
L 471.383797 98.350882 
z
" style="fill:#7f8c8d;"/>
   </g>
   <g id="patch_20">
    <path clip-path="url(#pa82bb75871)" d="M 520.916684 253.28 
L 538.253194 253.28 
L 538.253194 64.155004 
L 520.916684 64.155004 
z
" style="fill:#7f8c8d;"/>
   </g>
   <g id="matplotlib.axis_1">
    <g id="xtick_1">
     <g id="line2d_1">
      <defs>
       <path d="M 0 0 
L 0 3.5 
" id="m3f503f0957" style="stroke:#000000;stroke-width:0.8;"/>
      </defs>
      <g>
       <use style="stroke:#000000;stroke-width:0.8;" x="124.653591" xlink:href="#m3f503f0957" y="253.28"/>
      </g>
     </g>
     <g id="text_1">
      <!-- 1 -->
      <defs>
       <path d="M 7.46875 55.171875 
L 6.59375 55.46875 
L 6.109375 59.46875 
L 6.59375 59.96875 
Q 11.46875 61.375 18.9375 64.5 
Q 26.421875 67.625 29.640625 69.28125 
L 30.90625 68.796875 
Q 30.125 47.40625 30.125 43.109375 
L 30.125 25 
Q 30.125 18.3125 30.265625 12.421875 
Q 30.421875 6.546875 30.703125 5.484375 
Q 31 4.4375 31.703125 3.84375 
Q 32.421875 3.265625 33.6875 3.09375 
Q 34.96875 2.9375 41.265625 2.59375 
L 41.609375 2.203125 
L 41.609375 0 
L 41.265625 -0.390625 
Q 30.5625 0 26.171875 0 
Q 22.859375 0 9.90625 -0.390625 
L 9.578125 0 
L 9.578125 2.203125 
L 9.96875 2.59375 
Q 17.28125 3.125 18.328125 3.359375 
Q 19.390625 3.609375 19.953125 4.21875 
Q 20.515625 4.828125 20.84375 6.53125 
Q 21.1875 8.25 21.40625 16.640625 
Q 21.625 25.046875 21.625 25.25 
L 21.625 44.484375 
Q 21.625 58.640625 21.546875 59.859375 
Q 21.484375 61.078125 20.703125 61.078125 
Q 20.515625 61.078125 20.171875 60.984375 
Q 19.828125 60.890625 18.015625 60.109375 
L 13.1875 57.953125 
Q 10.15625 56.640625 7.46875 55.171875 
z
" id="PalatinoLinotype-Roman-49"/>
      </defs>
      <g transform="translate(120.903591 272.626875)scale(0.15 -0.15)">
       <use xlink:href="#PalatinoLinotype-Roman-49"/>
      </g>
     </g>
    </g>
    <g id="xtick_2">
     <g id="line2d_2">
      <g>
       <use style="stroke:#000000;stroke-width:0.8;" x="174.186478" xlink:href="#m3f503f0957" y="253.28"/>
      </g>
     </g>
     <g id="text_2">
      <!-- 2 -->
      <defs>
       <path d="M 2.25 -0.484375 
L 1.65625 0 
L 1.65625 2.25 
L 18.015625 19.578125 
Q 28.125 30.28125 31.09375 36.140625 
Q 34.078125 42 34.078125 47.078125 
Q 34.078125 53.03125 30.46875 56.984375 
Q 26.859375 60.9375 20.703125 60.9375 
Q 16.75 60.9375 13.8125 59.71875 
Q 10.890625 58.5 9.890625 56.984375 
Q 8.890625 55.46875 6.984375 48.484375 
L 6.546875 48.09375 
L 4.546875 48.09375 
L 4.046875 48.53125 
Q 5.171875 55.125 5.609375 61.578125 
Q 10.203125 66.0625 14.1875 67.3125 
Q 18.171875 68.5625 22.515625 68.5625 
Q 27.6875 68.5625 32.421875 66.609375 
Q 37.15625 64.65625 40.03125 60.28125 
Q 42.921875 55.90625 42.921875 50.140625 
Q 42.921875 45.84375 41.234375 41.515625 
Q 39.546875 37.203125 36.296875 33.171875 
Q 33.0625 29.15625 27.4375 23.53125 
L 12.203125 8.015625 
L 31.5 8.015625 
Q 40.375 8.015625 46.296875 8.640625 
L 46.625 8.25 
Q 46.34375 6.59375 46.34375 3.90625 
Q 46.34375 1.46875 46.625 0.046875 
L 46.296875 -0.484375 
Q 42.78125 -0.296875 35.5 -0.140625 
Q 28.21875 0 25.875 0 
Q 21.140625 0 13.125 -0.125 
Q 5.125 -0.25 2.25 -0.484375 
z
" id="PalatinoLinotype-Roman-50"/>
      </defs>
      <g transform="translate(170.436478 272.626875)scale(0.15 -0.15)">
       <use xlink:href="#PalatinoLinotype-Roman-50"/>
      </g>
     </g>
    </g>
    <g id="xtick_3">
     <g id="line2d_3">
      <g>
       <use style="stroke:#000000;stroke-width:0.8;" x="223.719364" xlink:href="#m3f503f0957" y="253.28"/>
      </g>
     </g>
     <g id="text_3">
      <!-- 3 -->
      <defs>
       <path d="M 5.078125 1.125 
Q 4.203125 6.890625 1.8125 14.984375 
L 2.046875 15.71875 
L 3.859375 16.40625 
L 4.546875 16.0625 
Q 6.25 11.578125 8.203125 8.640625 
Q 10.15625 5.71875 13.8125 4.15625 
Q 17.484375 2.59375 21.734375 2.59375 
Q 27.09375 2.59375 30.25 4.828125 
Q 33.40625 7.078125 35.109375 10.9375 
Q 36.8125 14.796875 36.8125 19.625 
Q 36.8125 26.125 33.421875 29.828125 
Q 30.03125 33.546875 24.03125 33.546875 
Q 21.96875 33.546875 20.359375 33.15625 
Q 18.75 32.765625 15.375 31.390625 
L 14.84375 31.890625 
L 15.921875 37.203125 
Q 19.875 36.96875 21.1875 36.96875 
Q 26.90625 36.96875 30.25 41.015625 
Q 33.59375 45.0625 33.59375 50.59375 
Q 33.59375 55.421875 30.09375 58.6875 
Q 26.609375 61.96875 21.484375 61.96875 
Q 18.109375 61.96875 15.109375 60.59375 
Q 12.109375 59.234375 10.15625 57.28125 
Q 9.328125 55.609375 7.515625 50.734375 
L 7.03125 50.296875 
L 4.828125 50.296875 
L 4.4375 50.734375 
L 7.375 62.0625 
Q 13.484375 68.953125 23.921875 68.953125 
Q 31.890625 68.953125 36.796875 64.71875 
Q 41.703125 60.5 41.703125 54.109375 
Q 41.703125 49.21875 38.8125 45.140625 
Q 35.9375 41.0625 30.8125 37.453125 
Q 39.265625 36.421875 42.703125 32.390625 
Q 46.140625 28.375 46.140625 22.65625 
Q 46.140625 13.28125 37.640625 5.78125 
Q 29.15625 -1.703125 18.015625 -1.703125 
Q 14.703125 -1.703125 11.8125 -1.140625 
Q 8.9375 -0.59375 5.078125 1.125 
z
" id="PalatinoLinotype-Roman-51"/>
      </defs>
      <g transform="translate(219.969364 272.626875)scale(0.15 -0.15)">
       <use xlink:href="#PalatinoLinotype-Roman-51"/>
      </g>
     </g>
    </g>
    <g id="xtick_4">
     <g id="line2d_4">
      <g>
       <use style="stroke:#000000;stroke-width:0.8;" x="273.252251" xlink:href="#m3f503f0957" y="253.28"/>
      </g>
     </g>
     <g id="text_4">
      <!-- 4 -->
      <defs>
       <path d="M 16.0625 -0.390625 
L 15.671875 0 
L 15.671875 2.09375 
L 16.0625 2.484375 
Q 23.296875 2.6875 24.640625 2.921875 
Q 25.984375 3.171875 26.609375 3.953125 
Q 27.25 4.734375 27.5625 7.765625 
Q 27.875 10.796875 27.875 14.203125 
L 27.875 17.828125 
L 17.1875 17.828125 
Q 7.859375 17.828125 1.421875 17.53125 
L 0.59375 20.171875 
Q 9.078125 36.078125 28.953125 66.265625 
L 35.84375 69.046875 
L 37.0625 68.453125 
Q 36.53125 60.15625 36.53125 47.90625 
L 36.375 34.125 
L 36.375 24.03125 
Q 43.109375 24.078125 46.78125 24.3125 
L 47.21875 23.828125 
Q 47.125 21.96875 47.125 21.140625 
Q 47.171875 19.53125 47.265625 17.96875 
L 46.78125 17.53125 
Q 42.046875 17.828125 38.875 17.828125 
L 36.375 17.828125 
L 36.375 14.546875 
Q 36.375 9.078125 36.671875 6.78125 
Q 36.96875 4.5 37.59375 3.828125 
Q 38.234375 3.171875 40.15625 2.859375 
Q 42.09375 2.546875 46.828125 2.484375 
L 47.265625 2.09375 
L 47.265625 0 
L 46.875 -0.390625 
Q 38.28125 0 32.46875 0 
Q 23 0 16.0625 -0.390625 
z
M 7.03125 24.03125 
L 27.875 24.03125 
L 28.328125 58.734375 
Q 23.640625 52.046875 16.5 40.375 
Q 9.375 28.71875 7.03125 24.03125 
z
" id="PalatinoLinotype-Roman-52"/>
      </defs>
      <g transform="translate(269.502251 272.626875)scale(0.15 -0.15)">
       <use xlink:href="#PalatinoLinotype-Roman-52"/>
      </g>
     </g>
    </g>
    <g id="xtick_5">
     <g id="line2d_5">
      <g>
       <use style="stroke:#000000;stroke-width:0.8;" x="322.785138" xlink:href="#m3f503f0957" y="253.28"/>
      </g>
     </g>
     <g id="text_5">
      <!-- 5 -->
      <defs>
       <path d="M 6.390625 0.6875 
Q 5.21875 4.5 1.5625 13.28125 
L 1.65625 13.921875 
L 3.375 14.890625 
L 3.953125 14.75 
Q 8.015625 7.375 9.015625 6.375 
Q 10.015625 5.375 13.578125 4.03125 
Q 17.140625 2.6875 21.09375 2.6875 
Q 26.03125 2.6875 29.828125 4.828125 
Q 33.640625 6.984375 35.5 11.171875 
Q 37.359375 15.375 37.359375 20.703125 
Q 37.359375 25.921875 35.515625 29.703125 
Q 33.6875 33.5 29.921875 35.453125 
Q 26.171875 37.40625 21.828125 37.40625 
Q 19.09375 37.40625 16.875 36.671875 
Q 14.65625 35.9375 13.15625 34.78125 
Q 11.671875 33.640625 9.625 31.390625 
L 7.625 31.984375 
L 8.15625 42.484375 
Q 8.34375 45.453125 8.34375 48.484375 
L 8.34375 57.171875 
Q 8.34375 61.078125 8.109375 64.65625 
Q 7.953125 66.84375 7.953125 67.4375 
L 8.59375 67.921875 
Q 16.0625 67.328125 25.640625 67.328125 
Q 32.90625 67.328125 43.0625 67.921875 
L 43.265625 67.4375 
Q 42.921875 65.046875 42.921875 62.984375 
Q 42.921875 61.96875 43.0625 59.578125 
L 42.578125 59.28125 
Q 37.015625 59.671875 27.640625 59.671875 
Q 14.890625 59.671875 12.84375 59.578125 
Q 12.109375 53.8125 11.8125 39.265625 
Q 15.828125 42.1875 19.046875 43.234375 
Q 22.265625 44.28125 26.03125 44.28125 
Q 31.34375 44.28125 36.21875 41.84375 
Q 41.109375 39.40625 43.53125 34.765625 
Q 45.953125 30.125 45.953125 24.75 
Q 45.953125 14.84375 37.765625 6.515625 
Q 29.59375 -1.8125 16.84375 -1.8125 
Q 13.421875 -1.8125 11.203125 -1.21875 
Q 8.984375 -0.640625 6.390625 0.6875 
z
" id="PalatinoLinotype-Roman-53"/>
      </defs>
      <g transform="translate(319.035138 272.626875)scale(0.15 -0.15)">
       <use xlink:href="#PalatinoLinotype-Roman-53"/>
      </g>
     </g>
    </g>
    <g id="xtick_6">
     <g id="line2d_6">
      <g>
       <use style="stroke:#000000;stroke-width:0.8;" x="372.318024" xlink:href="#m3f503f0957" y="253.28"/>
      </g>
     </g>
     <g id="text_6">
      <!-- 6 -->
      <defs>
       <path d="M 42.1875 67.53125 
L 42.1875 66.9375 
Q 36.859375 65.828125 30.046875 61.625 
Q 23.25 57.421875 18.609375 50.34375 
Q 13.96875 43.265625 13.234375 33.25 
Q 14.890625 34.421875 17.046875 36.078125 
Q 19.828125 38.1875 21.109375 38.96875 
Q 22.40625 39.75 24.578125 40.328125 
Q 26.765625 40.921875 29.59375 40.921875 
Q 34.625 40.921875 38.625 38.6875 
Q 42.625 36.46875 44.625 32.140625 
Q 46.625 27.828125 46.625 22.078125 
Q 46.625 13.921875 42.671875 8.421875 
Q 38.71875 2.9375 34.265625 0.5625 
Q 29.828125 -1.8125 24.078125 -1.8125 
Q 14.265625 -1.8125 8.84375 5.53125 
Q 3.421875 12.890625 3.421875 24.65625 
Q 3.421875 32.46875 5.6875 39.671875 
Q 7.953125 46.875 12.59375 52.703125 
Q 17.234375 58.546875 24.4375 63.078125 
Q 31.640625 67.625 38.625 69.234375 
z
M 12.3125 20.953125 
Q 12.3125 16.109375 13.703125 11.375 
Q 15.09375 6.640625 18.15625 4.046875 
Q 21.234375 1.46875 25.390625 1.46875 
Q 28.953125 1.46875 31.984375 3.46875 
Q 35.015625 5.46875 36.59375 9.734375 
Q 38.1875 14.015625 38.1875 18.75 
Q 38.1875 23.484375 36.625 27.21875 
Q 35.0625 30.953125 32.078125 33.03125 
Q 29.109375 35.109375 25.140625 35.109375 
Q 22.21875 35.109375 19.28125 33.6875 
Q 16.359375 32.28125 14.765625 30.46875 
Q 13.1875 28.65625 12.75 26.625 
Q 12.3125 24.609375 12.3125 20.953125 
z
" id="PalatinoLinotype-Roman-54"/>
      </defs>
      <g transform="translate(368.568024 272.626875)scale(0.15 -0.15)">
       <use xlink:href="#PalatinoLinotype-Roman-54"/>
      </g>
     </g>
    </g>
    <g id="xtick_7">
     <g id="line2d_7">
      <g>
       <use style="stroke:#000000;stroke-width:0.8;" x="421.850911" xlink:href="#m3f503f0957" y="253.28"/>
      </g>
     </g>
     <g id="text_7">
      <!-- 7 -->
      <defs>
       <path d="M 6.59375 -0.390625 
L 5.5625 0.640625 
Q 7.328125 3.265625 12.84375 11.96875 
L 21.78125 26.21875 
L 30.171875 39.9375 
L 37.5 52.546875 
Q 39.84375 56.640625 41.21875 59.1875 
L 40.71875 59.671875 
L 25.59375 59.671875 
Q 19.875 59.671875 15.421875 59.46875 
Q 10.984375 59.28125 10.203125 58.90625 
Q 9.421875 58.546875 9.109375 58 
Q 8.796875 57.46875 8.40625 54.296875 
L 7.515625 47.40625 
L 7.078125 47.015625 
L 5.03125 47.015625 
L 4.59375 47.40625 
L 4.828125 60.796875 
Q 4.828125 63.09375 4.59375 67.875 
L 5.5625 68.359375 
Q 8.25 68.0625 16.46875 67.71875 
Q 24.703125 67.390625 27.484375 67.390625 
Q 37.40625 67.390625 49.125 68.0625 
L 49.515625 67.671875 
L 49.515625 65.140625 
L 42.484375 52.6875 
Q 36.078125 41.265625 27.875 25.609375 
Q 19.671875 9.96875 15.921875 0 
L 15.4375 -0.390625 
Q 12.640625 -0.140625 11.234375 -0.140625 
Q 8.984375 -0.140625 6.59375 -0.390625 
z
" id="PalatinoLinotype-Roman-55"/>
      </defs>
      <g transform="translate(418.100911 272.626875)scale(0.15 -0.15)">
       <use xlink:href="#PalatinoLinotype-Roman-55"/>
      </g>
     </g>
    </g>
    <g id="xtick_8">
     <g id="line2d_8">
      <g>
       <use style="stroke:#000000;stroke-width:0.8;" x="471.383797" xlink:href="#m3f503f0957" y="253.28"/>
      </g>
     </g>
     <g id="text_8">
      <!-- 8 -->
      <defs>
       <path d="M 16.40625 34.625 
Q 10.984375 37.5 8.171875 41.234375 
Q 5.375 44.96875 5.375 50.296875 
Q 5.375 57.765625 10.890625 63.109375 
Q 16.40625 68.453125 25.921875 68.453125 
Q 30.765625 68.453125 34.890625 66.765625 
Q 39.015625 65.09375 41.25 61.75 
Q 43.5 58.40625 43.5 54.296875 
Q 43.5 50 40.859375 46.0625 
Q 38.234375 42.140625 31.546875 38.09375 
L 31.546875 37.640625 
Q 37.25 34.90625 40.015625 33 
Q 42.78125 31.109375 44.53125 27.859375 
Q 46.296875 24.609375 46.296875 20.359375 
Q 46.296875 14.546875 42.9375 9.203125 
Q 39.59375 3.859375 34.125 1.078125 
Q 28.65625 -1.703125 22.796875 -1.703125 
Q 14.265625 -1.703125 8.6875 3.078125 
Q 3.125 7.859375 3.125 15.828125 
Q 3.125 22.265625 6.953125 26.921875 
Q 10.796875 31.59375 16.40625 34.1875 
z
M 27.78125 39.3125 
Q 33.015625 42.578125 34.859375 45.875 
Q 36.71875 49.171875 36.71875 52.984375 
Q 36.71875 58.59375 33.5 61.859375 
Q 30.28125 65.140625 24.859375 65.140625 
Q 19.671875 65.140625 16.25 62.234375 
Q 12.84375 59.328125 12.84375 54.109375 
Q 12.84375 50.140625 15.0625 47.234375 
Q 17.28125 44.34375 27.78125 39.3125 
z
M 20.359375 32.859375 
Q 14.59375 29.4375 12.34375 25.5 
Q 10.109375 21.578125 10.109375 16.609375 
Q 10.109375 9.625 14.015625 5.640625 
Q 17.921875 1.65625 24.078125 1.65625 
Q 28.265625 1.65625 31.6875 3.609375 
Q 35.109375 5.5625 36.796875 8.953125 
Q 38.484375 12.359375 38.484375 16.359375 
Q 38.484375 22.125 34.453125 25.34375 
Q 30.421875 28.5625 20.359375 32.859375 
z
" id="PalatinoLinotype-Roman-56"/>
      </defs>
      <g transform="translate(467.633797 272.626875)scale(0.15 -0.15)">
       <use xlink:href="#PalatinoLinotype-Roman-56"/>
      </g>
     </g>
    </g>
    <g id="xtick_9">
     <g id="line2d_9">
      <g>
       <use style="stroke:#000000;stroke-width:0.8;" x="520.916684" xlink:href="#m3f503f0957" y="253.28"/>
      </g>
     </g>
     <g id="text_9">
      <!-- 9 -->
      <defs>
       <path d="M 6.5 -0.390625 
L 6.5 0.53125 
Q 20.0625 3.65625 27.828125 12.46875 
Q 35.59375 21.296875 36.578125 34.03125 
Q 29.390625 25.484375 20.515625 25.484375 
Q 14.890625 25.484375 10.71875 28.171875 
Q 6.546875 30.859375 4.546875 35.15625 
Q 2.546875 39.453125 2.546875 45.21875 
Q 2.546875 55.8125 8.90625 62.203125 
Q 15.28125 68.609375 24.703125 68.609375 
Q 34.234375 68.609375 40.109375 61.71875 
Q 46 54.828125 46 41.890625 
Q 46 36.1875 44.921875 30.9375 
Q 43.84375 25.6875 40.859375 20.171875 
Q 37.890625 14.65625 32.984375 9.90625 
Q 28.078125 5.171875 21.890625 2.015625 
Q 15.71875 -1.125 9.71875 -1.953125 
z
M 10.984375 48.390625 
Q 10.984375 44.140625 12.46875 40.0625 
Q 13.96875 35.984375 17.046875 33.765625 
Q 20.125 31.546875 24.265625 31.546875 
Q 30.03125 31.546875 33.546875 35.421875 
Q 37.0625 39.3125 37.0625 47.015625 
Q 37.0625 55.03125 33.59375 60.125 
Q 30.125 65.234375 24.078125 65.234375 
Q 18.265625 65.234375 14.625 60.9375 
Q 10.984375 56.640625 10.984375 48.390625 
z
" id="PalatinoLinotype-Roman-57"/>
      </defs>
      <g transform="translate(517.166684 272.626875)scale(0.15 -0.15)">
       <use xlink:href="#PalatinoLinotype-Roman-57"/>
      </g>
     </g>
    </g>
    <g id="text_10">
     <!-- Trial No. -->
     <defs>
      <path d="M 64.703125 68.609375 
Q 64.109375 64.984375 64.0625 61.140625 
L 63.96875 52.984375 
L 63.484375 52.484375 
L 60.40625 52.484375 
L 59.859375 52.9375 
Q 59.625 59.1875 59.328125 60.25 
Q 58.734375 62.203125 56.203125 62.546875 
Q 55.21875 62.703125 47.015625 62.703125 
L 40.484375 62.703125 
Q 40.375 60.984375 40.375 49.125 
L 40.375 21.390625 
Q 40.375 9.765625 41.015625 6.25 
Q 41.265625 4.828125 42.671875 4.4375 
Q 43.40625 4.25 48.390625 3.953125 
L 48.875 3.46875 
L 48.875 0.203125 
L 48.390625 -0.296875 
Q 43.5625 0 33.34375 0 
Q 22.90625 0 18.3125 -0.296875 
L 17.875 0.140625 
L 17.875 3.46875 
L 18.359375 3.953125 
Q 23.34375 4.25 24.078125 4.4375 
Q 25.484375 4.828125 25.734375 6.25 
Q 26.375 9.765625 26.375 21.390625 
L 26.375 49.125 
Q 26.375 61.1875 26.21875 62.703125 
L 19.234375 62.703125 
Q 10.5 62.703125 9.03125 62.15625 
Q 8.25 61.859375 7.953125 61.421875 
Q 7.515625 60.640625 7.234375 58.296875 
Q 6.890625 55.71875 6.78125 52.984375 
L 6.296875 52.484375 
L 3.21875 52.484375 
L 2.6875 52.984375 
L 2.59375 61.328125 
Q 2.546875 64.84375 2 68.609375 
L 2.4375 69.09375 
Q 5.328125 68.609375 23.4375 68.609375 
L 43.21875 68.609375 
Q 59.90625 68.609375 64.203125 69.09375 
z
" id="PalatinoLinotype-Bold-84"/>
      <path d="M 38.8125 47.171875 
L 38.484375 38.484375 
Q 38.421875 36.328125 38.28125 33.59375 
L 36.234375 32.953125 
Q 33.9375 36.28125 29.890625 36.28125 
Q 26.21875 36.28125 23.828125 33.34375 
Q 22.359375 31.546875 22.359375 28.03125 
L 22.359375 16.609375 
Q 22.359375 13.03125 22.703125 6.6875 
Q 22.796875 4.890625 23.71875 4.34375 
Q 24.65625 3.8125 30.515625 3.609375 
L 31 3.171875 
L 31 0.203125 
L 30.515625 -0.296875 
Q 23.34375 0 16.265625 0 
Q 7.515625 0 2.9375 -0.34375 
L 2.4375 0.140625 
L 2.4375 3.125 
L 2.9375 3.609375 
Q 7.625 3.765625 8.734375 4.34375 
Q 9.71875 4.78125 9.8125 6.6875 
Q 10.15625 13.03125 10.15625 20.3125 
L 10.15625 27.296875 
Q 10.15625 37.0625 9.421875 38.53125 
Q 8.9375 39.5 7.328125 39.75 
Q 6.734375 39.84375 3.078125 39.984375 
L 2.59375 40.484375 
L 2.59375 43.21875 
L 3.078125 43.75 
Q 11.859375 44.578125 21.578125 47.796875 
L 22.65625 47.171875 
L 22.5625 37.59375 
Q 25.59375 41.109375 29.890625 45.796875 
Q 31.890625 47.75 35.359375 47.75 
Q 37.40625 47.75 38.8125 47.171875 
z
" id="PalatinoLinotype-Bold-114"/>
      <path d="M 23.78125 63.875 
Q 23.78125 60.75 21.578125 58.515625 
Q 19.390625 56.296875 16.3125 56.296875 
Q 13.1875 56.296875 10.984375 58.515625 
Q 8.796875 60.75 8.796875 63.875 
Q 8.796875 67.09375 11.015625 69.28125 
Q 13.234375 71.484375 16.3125 71.484375 
Q 19.34375 71.484375 21.5625 69.28125 
Q 23.78125 67.09375 23.78125 63.875 
z
M 30.515625 0.140625 
L 30.03125 -0.34375 
Q 25.390625 0 16.65625 0 
Q 7.90625 0 3.328125 -0.34375 
L 2.828125 0.140625 
L 2.828125 3.125 
L 3.328125 3.609375 
Q 8.015625 3.765625 9.125 4.34375 
Q 10.109375 4.78125 10.203125 6.6875 
Q 10.546875 13.03125 10.546875 20.3125 
L 10.546875 27.296875 
Q 10.546875 36.765625 9.8125 38.53125 
Q 9.421875 39.5 7.71875 39.75 
Q 7.125 39.84375 3.46875 39.984375 
L 2.984375 40.484375 
L 2.984375 43.21875 
L 3.46875 43.75 
Q 12.84375 44.578125 22.359375 47.796875 
L 23.390625 47.171875 
Q 22.75 38.28125 22.75 32.171875 
L 22.75 16.609375 
Q 22.75 13.03125 23.09375 6.6875 
Q 23.1875 4.78125 24.171875 4.34375 
Q 25.296875 3.765625 29.984375 3.609375 
L 30.515625 3.125 
z
M 16.65625 -3.8125 
z
" id="PalatinoLinotype-Bold-105"/>
      <path d="M 47.703125 0.296875 
L 47.171875 -0.25 
Q 43.0625 0 37.75 0 
Q 33.59375 0 29.78125 -0.25 
L 29.34375 0.296875 
L 29.78125 6.84375 
L 20.3125 -0.390625 
Q 19.1875 -1.21875 17.09375 -1.421875 
Q 16.265625 -1.515625 15.140625 -1.515625 
Q 9.71875 -1.515625 6.8125 1.75 
Q 3.90625 5.03125 3.90625 10.796875 
Q 3.90625 18.40625 8.734375 21.578125 
Q 13.96875 25.046875 29.78125 27.828125 
Q 29.78125 35.59375 25.6875 38.234375 
Q 23.1875 39.84375 19.734375 39.84375 
Q 15.921875 39.84375 13.71875 38.28125 
L 11.859375 33.734375 
L 11.234375 33.40625 
L 8.734375 33.984375 
L 8.40625 34.671875 
L 8.640625 40.4375 
Q 16.703125 46.390625 20.75 47.171875 
Q 22.46875 47.515625 25.203125 47.515625 
Q 34.8125 47.515625 38.921875 42.484375 
Q 41.890625 38.8125 41.890625 31.25 
Q 41.890625 29.390625 41.75 25.296875 
Q 41.5 18.453125 41.5 16.15625 
Q 41.5 8.796875 41.75 6.765625 
Q 42 4.734375 42.890625 4.1875 
Q 43.796875 3.65625 47.21875 3.5625 
L 47.703125 3.03125 
z
M 29.78125 11.671875 
L 29.78125 23.6875 
Q 21.734375 21.921875 18.921875 19.890625 
Q 16.109375 17.875 16.109375 13.71875 
Q 16.109375 7.078125 21.921875 7.078125 
Q 26.859375 7.078125 29.78125 11.671875 
z
M 25.875 49.703125 
z
M 25.875 -3.8125 
z
" id="PalatinoLinotype-Bold-97"/>
      <path d="M 30.515625 0.140625 
L 30.03125 -0.34375 
Q 25.390625 0 16.65625 0 
Q 7.90625 0 3.328125 -0.34375 
L 2.828125 0.140625 
L 2.828125 3.125 
L 3.328125 3.609375 
Q 8.015625 3.765625 9.125 4.34375 
Q 10.109375 4.78125 10.203125 6.6875 
Q 10.546875 13.03125 10.546875 28.90625 
L 10.546875 45.265625 
Q 10.546875 55.515625 10.203125 61.859375 
Q 10.109375 63.671875 9.125 64.234375 
Q 8.15625 64.796875 3.46875 64.9375 
L 2.984375 65.484375 
L 2.984375 68.171875 
L 3.46875 68.703125 
Q 12.890625 69.734375 22.359375 72.75 
L 23.390625 72.171875 
Q 23.390625 70.84375 23.25 67.328125 
Q 22.75 55.671875 22.75 41.5 
L 22.75 28.90625 
Q 22.75 13.03125 23.09375 6.6875 
Q 23.1875 4.78125 24.171875 4.34375 
Q 25.296875 3.765625 29.984375 3.609375 
L 30.515625 3.125 
z
" id="PalatinoLinotype-Bold-108"/>
      <path id="PalatinoLinotype-Bold-32"/>
      <path d="M 80.078125 65.140625 
L 79.546875 64.65625 
Q 74.5625 64.359375 73.828125 64.15625 
Q 72.40625 63.765625 72.171875 62.359375 
Q 71.53125 58.84375 71.53125 47.21875 
L 71.53125 27.390625 
Q 71.53125 5.46875 72.171875 -1.171875 
L 71.53125 -1.609375 
Q 66.015625 -0.6875 63.1875 -0.296875 
Q 50.09375 14.40625 18.5 53.328125 
L 18.5 21.390625 
Q 18.5 9.765625 19.140625 6.25 
Q 19.390625 4.828125 20.796875 4.4375 
Q 21.53125 4.25 26.515625 3.953125 
L 27 3.46875 
L 27 0.140625 
L 26.515625 -0.296875 
Q 20.90625 0 16.0625 0 
Q 10.453125 0 4.78125 -0.296875 
L 4.296875 0.140625 
L 4.296875 3.46875 
L 4.78125 3.953125 
Q 9.765625 4.25 10.5 4.4375 
Q 11.921875 4.828125 12.15625 6.25 
Q 12.796875 9.765625 12.796875 21.390625 
L 12.796875 47.21875 
Q 12.796875 58.84375 12.15625 62.359375 
Q 11.921875 63.765625 10.5 64.15625 
Q 9.765625 64.359375 4.78125 64.65625 
L 4.296875 65.140625 
L 4.296875 68.453125 
L 4.78125 68.890625 
Q 9.421875 68.609375 13.625 68.609375 
Q 20.21875 68.609375 24.5625 68.890625 
Q 42.140625 45.453125 65.875 18.65625 
L 65.875 47.21875 
Q 65.875 58.84375 65.234375 62.359375 
Q 64.984375 63.765625 63.578125 64.15625 
Q 62.84375 64.359375 57.859375 64.65625 
L 57.375 65.140625 
L 57.375 68.453125 
L 57.859375 68.890625 
Q 63.328125 68.609375 68.265625 68.609375 
Q 74.5625 68.609375 79.59375 68.890625 
L 80.078125 68.453125 
z
" id="PalatinoLinotype-Bold-78"/>
      <path d="M 51.609375 24.21875 
Q 51.609375 6.9375 39.984375 0.828125 
Q 34.328125 -2.15625 27.046875 -2.15625 
Q 15.828125 -2.15625 9.9375 4.34375 
Q 4.046875 10.84375 4.046875 22.953125 
Q 4.046875 39.703125 15.484375 45.265625 
Q 21.09375 48 28.515625 48 
Q 44.09375 48 49.171875 37.203125 
Q 51.609375 32.03125 51.609375 24.21875 
z
M 38.09375 20.21875 
Q 38.09375 32.375 35.421875 37.625 
Q 32.765625 42.875 27.296875 42.875 
Q 17.578125 42.875 17.578125 25.34375 
Q 17.578125 2.828125 28.46875 2.828125 
Q 35.25 2.828125 37.109375 10.296875 
Q 38.09375 14.203125 38.09375 20.21875 
z
M 28.328125 -3.8125 
z
M 28.328125 49.703125 
z
" id="PalatinoLinotype-Bold-111"/>
      <path d="M 12.5 13.96875 
Q 15.625 13.96875 17.875 11.734375 
Q 20.125 9.515625 20.125 6.203125 
Q 20.125 2.984375 17.875 0.734375 
Q 15.625 -1.515625 12.5 -1.515625 
Q 9.375 -1.515625 7.09375 0.75 
Q 4.828125 3.03125 4.828125 6.203125 
Q 4.828125 9.421875 7.078125 11.6875 
Q 9.328125 13.96875 12.5 13.96875 
z
" id="PalatinoLinotype-Bold-46"/>
     </defs>
     <g transform="translate(292.503888 291.758125)scale(0.15 -0.15)">
      <use xlink:href="#PalatinoLinotype-Bold-84"/>
      <use x="59.324219" xlink:href="#PalatinoLinotype-Bold-114"/>
      <use x="98.240234" xlink:href="#PalatinoLinotype-Bold-105"/>
      <use x="131.541016" xlink:href="#PalatinoLinotype-Bold-97"/>
      <use x="181.541016" xlink:href="#PalatinoLinotype-Bold-108"/>
      <use x="214.841797" xlink:href="#PalatinoLinotype-Bold-32"/>
      <use x="239.841797" xlink:href="#PalatinoLinotype-Bold-78"/>
      <use x="323.142578" xlink:href="#PalatinoLinotype-Bold-111"/>
      <use x="378.757812" xlink:href="#PalatinoLinotype-Bold-46"/>
     </g>
    </g>
   </g>
   <g id="matplotlib.axis_2">
    <g id="ytick_1">
     <g id="line2d_10">
      <defs>
       <path d="M 0 0 
L -3.5 0 
" id="m3ca2fd4d35" style="stroke:#000000;stroke-width:0.8;"/>
      </defs>
      <g>
       <use style="stroke:#000000;stroke-width:0.8;" x="85.770275" xlink:href="#m3ca2fd4d35" y="253.28"/>
      </g>
     </g>
     <g id="text_11">
      <!-- 0 -->
      <defs>
       <path d="M 3.03125 29.828125 
Q 3.03125 38.53125 3.90625 45.484375 
Q 4.78125 52.4375 7.78125 57.875 
Q 10.796875 63.328125 15.3125 66.03125 
Q 19.828125 68.75 25.59375 68.75 
Q 32.125 68.75 37.078125 65.375 
Q 42.046875 62.015625 44.21875 55.03125 
Q 46.390625 48.046875 46.390625 36.03125 
Q 46.390625 16.5 40.40625 7.265625 
Q 34.421875 -1.953125 23.828125 -1.953125 
Q 18.5 -1.953125 14.421875 0.34375 
Q 10.359375 2.640625 7.734375 6.984375 
Q 5.125 11.328125 4.078125 17.234375 
Q 3.03125 23.140625 3.03125 29.828125 
z
M 11.421875 32.671875 
Q 11.421875 23.390625 12.8125 15.765625 
Q 14.203125 8.15625 17.453125 4.8125 
Q 20.703125 1.46875 25.203125 1.46875 
Q 29.546875 1.46875 32.453125 4.4375 
Q 35.359375 7.421875 36.6875 14.640625 
Q 38.03125 21.875 38.03125 32.515625 
Q 38.03125 49.21875 34.859375 57.21875 
Q 31.6875 65.234375 24.359375 65.234375 
Q 17.96875 65.234375 14.6875 59.03125 
Q 11.421875 52.828125 11.421875 32.671875 
z
" id="PalatinoLinotype-Roman-48"/>
      </defs>
      <g transform="translate(69.170275 258.703438)scale(0.15 -0.15)">
       <use xlink:href="#PalatinoLinotype-Roman-48"/>
      </g>
     </g>
    </g>
    <g id="ytick_2">
     <g id="line2d_11">
      <g>
       <use style="stroke:#000000;stroke-width:0.8;" x="85.770275" xlink:href="#m3ca2fd4d35" y="209.303095"/>
      </g>
     </g>
     <g id="text_12">
      <!-- 20 -->
      <g transform="translate(61.670275 214.726533)scale(0.15 -0.15)">
       <use xlink:href="#PalatinoLinotype-Roman-50"/>
       <use x="50" xlink:href="#PalatinoLinotype-Roman-48"/>
      </g>
     </g>
    </g>
    <g id="ytick_3">
     <g id="line2d_12">
      <g>
       <use style="stroke:#000000;stroke-width:0.8;" x="85.770275" xlink:href="#m3ca2fd4d35" y="165.32619"/>
      </g>
     </g>
     <g id="text_13">
      <!-- 40 -->
      <g transform="translate(61.670275 170.749628)scale(0.15 -0.15)">
       <use xlink:href="#PalatinoLinotype-Roman-52"/>
       <use x="50" xlink:href="#PalatinoLinotype-Roman-48"/>
      </g>
     </g>
    </g>
    <g id="ytick_4">
     <g id="line2d_13">
      <g>
       <use style="stroke:#000000;stroke-width:0.8;" x="85.770275" xlink:href="#m3ca2fd4d35" y="121.349286"/>
      </g>
     </g>
     <g id="text_14">
      <!-- 60 -->
      <g transform="translate(61.670275 126.772723)scale(0.15 -0.15)">
       <use xlink:href="#PalatinoLinotype-Roman-54"/>
       <use x="50" xlink:href="#PalatinoLinotype-Roman-48"/>
      </g>
     </g>
    </g>
    <g id="ytick_5">
     <g id="line2d_14">
      <g>
       <use style="stroke:#000000;stroke-width:0.8;" x="85.770275" xlink:href="#m3ca2fd4d35" y="77.372381"/>
      </g>
     </g>
     <g id="text_15">
      <!-- 80 -->
      <g transform="translate(61.670275 82.795818)scale(0.15 -0.15)">
       <use xlink:href="#PalatinoLinotype-Roman-56"/>
       <use x="50" xlink:href="#PalatinoLinotype-Roman-48"/>
      </g>
     </g>
    </g>
    <g id="ytick_6">
     <g id="line2d_15">
      <g>
       <use style="stroke:#000000;stroke-width:0.8;" x="85.770275" xlink:href="#m3ca2fd4d35" y="33.395476"/>
      </g>
     </g>
     <g id="text_16">
      <!-- 100 -->
      <g transform="translate(54.170275 38.818914)scale(0.15 -0.15)">
       <use xlink:href="#PalatinoLinotype-Roman-49"/>
       <use x="50" xlink:href="#PalatinoLinotype-Roman-48"/>
       <use x="100" xlink:href="#PalatinoLinotype-Roman-48"/>
      </g>
     </g>
    </g>
    <g id="text_17">
     <!-- Reduction (%) -->
     <defs>
      <path d="M 69.96875 0.203125 
L 69.484375 -0.296875 
Q 69.140625 -0.296875 67.625 -0.25 
Q 60.9375 0 59.28125 0 
Q 56.78125 0 51.375 -0.296875 
Q 51.171875 0.875 49.515625 3.609375 
L 37.40625 23.828125 
L 31.984375 32.078125 
Q 30.953125 33.59375 29.109375 35.0625 
L 29.640625 36.71875 
Q 30.765625 36.671875 31.296875 36.671875 
Q 36.078125 36.671875 38.8125 38.1875 
Q 41.3125 39.546875 43.40625 42.96875 
Q 45.515625 46.390625 45.515625 51.125 
Q 45.515625 59.375 39.359375 62.25 
Q 36.421875 63.625 30.8125 63.625 
Q 28.375 63.625 26.125 63.234375 
Q 25.640625 58.453125 25.640625 46.921875 
L 25.640625 21.390625 
Q 25.640625 9.765625 26.265625 6.25 
Q 26.515625 4.828125 27.9375 4.4375 
Q 28.65625 4.25 33.640625 3.953125 
L 34.125 3.46875 
L 34.125 0.203125 
L 33.6875 -0.296875 
Q 28.8125 0 18.65625 0 
Q 8.15625 0 3.609375 -0.296875 
L 3.125 0.140625 
L 3.125 3.46875 
L 3.609375 3.953125 
Q 8.59375 4.25 9.328125 4.4375 
Q 10.75 4.828125 10.984375 6.25 
Q 11.625 9.765625 11.625 21.390625 
L 11.625 47.21875 
Q 11.625 58.84375 10.984375 62.359375 
Q 10.75 63.765625 9.328125 64.15625 
Q 8.59375 64.359375 3.609375 64.65625 
L 3.125 65.140625 
L 3.125 68.453125 
L 3.609375 68.890625 
Q 8.40625 68.609375 18.65625 68.609375 
Q 24.609375 68.609375 28.328125 68.75 
Q 35.6875 69.046875 39.359375 69.046875 
Q 47.796875 69.046875 51.765625 67.53125 
Q 57.078125 65.484375 58.890625 60.59375 
Q 59.765625 58.203125 59.765625 54.9375 
Q 59.765625 41.65625 44.828125 36.078125 
Q 47.265625 31.984375 50 27.78125 
L 57.515625 16.21875 
Q 64.15625 5.953125 66.359375 4.546875 
Q 67.484375 3.8125 69.484375 3.8125 
L 69.96875 3.328125 
z
" id="PalatinoLinotype-Bold-82"/>
      <path d="M 46.484375 27.390625 
Q 46.484375 26.5625 46.4375 24.90625 
L 45.90625 24.21875 
Q 39.453125 22.46875 28.8125 22.46875 
Q 26.90625 22.46875 23.046875 22.390625 
Q 19.1875 22.3125 17.234375 22.3125 
Q 17.53125 15.140625 21.6875 10.453125 
Q 26.03125 5.421875 33.015625 5.421875 
Q 37.703125 5.421875 44.140625 8.640625 
L 45.3125 7.234375 
L 43.171875 2.390625 
Q 36.03125 -2.15625 27.6875 -2.15625 
Q 16.703125 -2.15625 10.625 4.046875 
Q 4.546875 10.25 4.546875 21.734375 
Q 4.546875 35.359375 11.03125 40.375 
Q 20.015625 47.3125 28.078125 47.3125 
Q 36.8125 47.3125 41.609375 42.28125 
Q 46.484375 37.109375 46.484375 27.390625 
z
M 33.734375 28.65625 
Q 33.734375 41.84375 25.53125 41.84375 
Q 16.890625 41.84375 16.890625 28.765625 
L 16.890625 27.6875 
Q 19.734375 27.25 26.953125 27.25 
Q 30.71875 27.25 33.6875 27.6875 
Q 33.734375 28.375 33.734375 28.65625 
z
M 27.828125 -3.8125 
z
M 27.828125 49.703125 
z
" id="PalatinoLinotype-Bold-101"/>
      <path d="M 58.59375 0.140625 
L 58.109375 -0.34375 
Q 53.328125 0 49.46875 0 
Q 45.796875 0 39.546875 -0.34375 
L 39.109375 0 
Q 39.3125 2.390625 39.3125 8.015625 
Q 37.546875 6.546875 34.28125 3.515625 
Q 30.21875 -0.25 29 -0.984375 
Q 27.4375 -1.703125 23.921875 -1.703125 
Q 15.578125 -1.703125 10.453125 4.59375 
Q 5.328125 10.890625 5.328125 20.90625 
Q 5.328125 30.609375 9.28125 36.03125 
Q 10.296875 37.453125 15.328125 41.0625 
Q 21.1875 45.265625 23.875 46.390625 
Q 26.21875 47.359375 29.828125 47.359375 
Q 34.90625 47.359375 39.3125 45.21875 
L 39.3125 47.953125 
Q 39.3125 60.796875 38.671875 63.09375 
Q 38.328125 64.359375 36.671875 64.65625 
Q 35.890625 64.796875 32.171875 64.9375 
L 31.6875 65.484375 
L 31.6875 68.171875 
L 32.171875 68.703125 
Q 41.546875 69.671875 51.078125 72.75 
L 52.15625 72.171875 
Q 52.15625 71.96875 51.953125 67.328125 
Q 51.515625 56.84375 51.515625 35.796875 
L 51.515625 20.015625 
Q 51.515625 6.296875 52.15625 4.9375 
Q 52.546875 4.109375 53.21875 3.90625 
Q 54.296875 3.5625 58.109375 3.265625 
L 58.59375 2.78125 
z
M 39.3125 25.640625 
L 39.3125 34.8125 
Q 35.796875 39.015625 32.5625 40.1875 
Q 30.375 40.96875 27.875 40.96875 
Q 21.140625 40.96875 19.1875 34.03125 
Q 18.109375 30.171875 18.109375 25.4375 
Q 18.109375 15.328125 22.859375 10.453125 
Q 25.34375 7.859375 29.546875 7.859375 
Q 33.015625 7.859375 35.984375 10.0625 
Q 38.671875 12.015625 39.15625 14.265625 
Q 39.3125 14.9375 39.3125 25.640625 
z
" id="PalatinoLinotype-Bold-100"/>
      <path d="M 58.640625 0.25 
L 58.15625 -0.25 
Q 50.828125 0 48.921875 0 
Q 47.3125 0 44.140625 -0.125 
Q 40.96875 -0.25 39.40625 -0.25 
L 39.015625 0.140625 
Q 39.40625 4.15625 39.40625 7.765625 
Q 36.859375 5.859375 30.515625 -0.34375 
Q 27.34375 -1.5625 23.734375 -1.5625 
Q 17.140625 -1.5625 13.328125 2.015625 
Q 9.515625 5.609375 9.515625 12.359375 
Q 9.515625 13.1875 9.609375 15.875 
Q 9.71875 18.5625 9.71875 21.046875 
L 9.71875 27.296875 
Q 9.71875 36.96875 8.984375 38.53125 
Q 8.5 39.5 6.890625 39.75 
Q 6.296875 39.84375 2.59375 39.984375 
L 2.09375 40.484375 
L 2.09375 43.21875 
L 2.59375 43.75 
Q 11.921875 44.578125 21.484375 47.796875 
L 22.5625 47.171875 
Q 21.921875 39.0625 21.921875 32.171875 
L 21.921875 22.65625 
Q 21.921875 15.96875 22.359375 13.53125 
Q 22.859375 10.59375 24.6875 9.078125 
Q 26.515625 7.5625 29.59375 7.5625 
Q 33.40625 7.5625 36.28125 10.015625 
Q 39.015625 12.453125 39.15625 15.578125 
Q 39.265625 17.96875 39.265625 18.5625 
L 39.265625 27.296875 
Q 39.265625 36.859375 38.53125 38.53125 
Q 38.09375 39.5 36.46875 39.75 
Q 35.890625 39.84375 32.171875 39.984375 
L 31.640625 40.484375 
L 31.640625 43.21875 
L 32.171875 43.75 
Q 41.453125 44.578125 51.078125 47.796875 
L 52.09375 47.171875 
Q 51.46875 39.84375 51.46875 32.171875 
L 51.46875 16.84375 
Q 51.46875 6.546875 52.046875 5.171875 
Q 52.34375 4.5 53.03125 4.296875 
Q 54.203125 3.953125 58.109375 3.71875 
L 58.640625 3.21875 
z
M 30.328125 49.703125 
z
M 30.328125 -3.8125 
z
" id="PalatinoLinotype-Bold-117"/>
      <path d="M 42.046875 6.15625 
L 39.890625 1.3125 
Q 33.25 -2.15625 26.8125 -2.15625 
Q 15.921875 -2.15625 10.15625 4.09375 
Q 4.390625 10.359375 4.390625 21.234375 
Q 4.390625 31.296875 8.84375 36.53125 
Q 10.0625 37.984375 13.484375 40.375 
Q 20.515625 45.359375 22.875 46.328125 
Q 25.25 47.3125 30.125 47.3125 
Q 36.765625 47.3125 41.109375 45.3125 
L 41.609375 44.4375 
Q 41.546875 43.796875 40.921875 39.890625 
L 40.375 36.578125 
Q 40.234375 35.75 39.9375 30.03125 
L 39.453125 29.546875 
L 36.53125 29.546875 
L 36.03125 30.03125 
Q 35.75 34.375 35.359375 36.078125 
Q 33.203125 39.890625 27.09375 39.890625 
Q 16.75 39.890625 16.75 26.46875 
Q 16.75 16.703125 20.90625 11.078125 
Q 25.140625 5.28125 32.859375 5.28125 
Q 37.546875 5.28125 41.109375 7.28125 
z
" id="PalatinoLinotype-Bold-99"/>
      <path d="M 32.515625 6.390625 
Q 32.171875 6 30.421875 4.34375 
Q 27.546875 1.609375 25.484375 -0.640625 
Q 23.09375 -1.421875 20.65625 -1.421875 
Q 13.875 -1.421875 10.75 2.546875 
Q 9.421875 4.25 8.984375 6.5 
Q 8.5 9.1875 8.546875 13.53125 
L 8.6875 25.203125 
L 8.6875 37.40625 
L 7.375 37.40625 
L 4.78125 37.3125 
L 2.78125 37.3125 
L 2.25 37.75 
L 2.25 39.015625 
L 2.640625 39.75 
Q 3.515625 40.328125 5.375 41.5 
Q 7.5625 42.875 8.6875 43.796875 
L 8.6875 50.4375 
Q 8.6875 54.59375 8.296875 59.234375 
Q 11.96875 60.40625 14.234375 61.296875 
Q 16.5 62.203125 20.65625 64.265625 
L 21.921875 63.28125 
Q 21.34375 57.234375 21.09375 52.4375 
L 20.65625 44 
L 22.265625 44 
Q 27.59375 44 31.453125 44.34375 
L 31.984375 43.796875 
L 31.296875 38.09375 
L 30.8125 37.59375 
L 20.65625 37.59375 
L 20.65625 21.046875 
Q 20.65625 13.09375 20.84375 11.671875 
Q 21.09375 9.625 22.578125 8.34375 
Q 24.078125 7.078125 26.609375 7.078125 
Q 28.609375 7.078125 31.453125 8.15625 
z
" id="PalatinoLinotype-Bold-116"/>
      <path d="M 58.984375 0.203125 
L 58.5 -0.34375 
Q 53.125 0 49.421875 0 
Q 46 0 39.453125 -0.34375 
L 38.96875 0.140625 
Q 39.84375 11.03125 39.84375 16.9375 
L 39.84375 26.515625 
Q 39.84375 38.421875 31.25 38.421875 
Q 26.765625 38.421875 24.21875 35.359375 
Q 22.078125 32.765625 22.078125 30.125 
L 22.078125 21 
Q 22.078125 8.34375 22.703125 5.46875 
Q 23.09375 3.765625 28.375 3.65625 
L 28.859375 3.171875 
L 28.859375 0.203125 
L 28.375 -0.296875 
Q 24.21875 0 15.96875 0 
Q 7.234375 0 2.640625 -0.34375 
L 2.15625 0.140625 
L 2.15625 3.125 
L 2.640625 3.609375 
Q 7.328125 3.765625 8.453125 4.34375 
Q 9.421875 4.78125 9.515625 6.6875 
Q 9.859375 13.03125 9.859375 20.3125 
L 9.859375 27.296875 
Q 9.859375 37.0625 9.125 38.53125 
Q 8.640625 39.5 7.03125 39.75 
Q 6.453125 39.84375 2.78125 39.984375 
L 2.296875 40.484375 
L 2.296875 43.21875 
L 2.78125 43.75 
Q 11.578125 44.578125 21.296875 47.796875 
L 22.359375 47.171875 
L 22.265625 38.96875 
L 30.671875 46 
Q 33.890625 47.3125 37.75 47.3125 
Q 45.515625 47.3125 49.359375 42.625 
Q 52.484375 38.8125 52.484375 31.453125 
Q 52.484375 30.609375 52.28125 24.65625 
Q 52.09375 18.703125 52.09375 16.15625 
Q 52.09375 8.796875 52.34375 6.765625 
Q 52.59375 4.734375 53.46875 4.1875 
Q 54.34375 3.65625 58.546875 3.5625 
L 58.984375 3.078125 
z
" id="PalatinoLinotype-Bold-110"/>
      <path d="M 27.4375 -10.890625 
Q 22.265625 -7.859375 16.578125 -0.5 
Q 10.890625 6.84375 8.5625 13.984375 
Q 6.25 21.140625 6.25 30.46875 
Q 6.25 39.75 8.546875 46.96875 
Q 10.84375 54.203125 15.984375 61.234375 
Q 21.140625 68.265625 27.25 72.40625 
L 27.984375 72.40625 
L 29.890625 70.703125 
L 29.890625 69.96875 
Q 26.5625 65.921875 24.875 62.90625 
Q 23.1875 59.90625 22.015625 55.390625 
Q 20.84375 50.875 20.15625 44.203125 
Q 19.484375 37.546875 19.484375 29.734375 
Q 19.484375 14.890625 21.890625 6.484375 
Q 24.3125 -1.90625 29.890625 -8.203125 
L 29.890625 -8.890625 
L 28.171875 -10.796875 
z
" id="PalatinoLinotype-Bold-40"/>
      <path d="M 85.0625 16.453125 
Q 85.0625 8.546875 80.296875 3.5625 
Q 75.53125 -1.421875 67.671875 -1.421875 
Q 60.109375 -1.421875 55.34375 3.359375 
Q 50.59375 8.15625 50.59375 15.71875 
Q 50.59375 23.53125 55.390625 28.46875 
Q 60.203125 33.40625 67.96875 33.40625 
Q 74.8125 33.40625 79.78125 29.25 
Q 85.0625 24.859375 85.0625 16.453125 
z
M 64.15625 72.359375 
L 27.59375 -3.71875 
L 24.265625 -3.71875 
L 23.96875 -2.984375 
L 60.5 73.046875 
L 63.8125 73.046875 
z
M 38.421875 53.90625 
Q 38.421875 46 33.640625 40.984375 
Q 28.859375 35.984375 21 35.984375 
Q 10.6875 35.984375 5.953125 44.53125 
Q 3.90625 48.25 3.90625 53.125 
Q 3.90625 60.9375 8.71875 65.859375 
Q 13.53125 70.796875 21.296875 70.796875 
Q 28.90625 70.796875 33.65625 66.15625 
Q 38.421875 61.53125 38.421875 53.90625 
z
M 74.75 16.546875 
Q 74.75 30.03125 67.921875 30.03125 
Q 60.9375 30.03125 60.9375 15.71875 
Q 60.9375 1.90625 67.578125 1.90625 
Q 72.65625 1.90625 74.125 8.59375 
Q 74.75 11.46875 74.75 16.546875 
z
M 28.078125 53.953125 
Q 28.078125 67.484375 21.234375 67.484375 
Q 14.265625 67.484375 14.265625 53.171875 
Q 14.265625 39.359375 20.90625 39.359375 
Q 25.734375 39.359375 27.34375 45.515625 
Q 28.078125 48.34375 28.078125 53.953125 
z
" id="PalatinoLinotype-Bold-37"/>
      <path d="M 5.328125 72.40625 
L 6.109375 72.40625 
Q 13.625 67.328125 20.328125 56.703125 
Q 27.046875 46.09375 27.046875 30.46875 
Q 27.046875 23.1875 25.75 17.46875 
Q 24.46875 11.765625 21.09375 5.875 
Q 17.71875 0 13.453125 -4.4375 
Q 9.1875 -8.890625 5.90625 -10.890625 
L 5.171875 -10.796875 
L 3.421875 -8.890625 
L 3.421875 -8.203125 
Q 8.546875 -2.59375 11.203125 5.703125 
Q 13.875 14.015625 13.875 29.734375 
Q 13.875 37.5 13.1875 44.1875 
Q 12.5 50.875 11.328125 55.34375 
Q 10.15625 59.8125 8.5 62.78125 
Q 6.84375 65.765625 3.46875 69.96875 
L 3.421875 70.703125 
z
" id="PalatinoLinotype-Bold-41"/>
     </defs>
     <g transform="translate(28.6659 186.720703)rotate(-90)scale(0.15 -0.15)">
      <use xlink:href="#PalatinoLinotype-Bold-82"/>
      <use x="71.386719" xlink:href="#PalatinoLinotype-Bold-101"/>
      <use x="121.386719" xlink:href="#PalatinoLinotype-Bold-100"/>
      <use x="182.470703" xlink:href="#PalatinoLinotype-Bold-117"/>
      <use x="243.554688" xlink:href="#PalatinoLinotype-Bold-99"/>
      <use x="287.939453" xlink:href="#PalatinoLinotype-Bold-116"/>
      <use x="321.240234" xlink:href="#PalatinoLinotype-Bold-105"/>
      <use x="354.541016" xlink:href="#PalatinoLinotype-Bold-111"/>
      <use x="410.15625" xlink:href="#PalatinoLinotype-Bold-110"/>
      <use x="471.240234" xlink:href="#PalatinoLinotype-Bold-32"/>
      <use x="496.240234" xlink:href="#PalatinoLinotype-Bold-40"/>
      <use x="529.541016" xlink:href="#PalatinoLinotype-Bold-37"/>
      <use x="618.457031" xlink:href="#PalatinoLinotype-Bold-41"/>
     </g>
     <!-- DS$_t$ / H$_2$S$_g$  -->
     <defs>
      <path d="M 78.515625 38.375 
Q 78.515625 21.828125 67.71875 10.9375 
Q 62.453125 5.609375 54.9375 2.6875 
Q 46.875 -0.484375 36.140625 -0.296875 
L 18.890625 0 
Q 11.859375 0.09375 7.28125 -0.296875 
L 6.78125 0.203125 
L 6.78125 1.5625 
L 7.03125 2.15625 
Q 10.640625 4.4375 10.9375 5.03125 
Q 11.375 5.90625 11.46875 11.53125 
L 11.625 22.46875 
L 11.625 47.21875 
Q 11.625 58.84375 10.984375 62.359375 
Q 10.75 63.765625 9.328125 64.15625 
Q 8.59375 64.359375 3.609375 64.65625 
L 3.125 65.140625 
L 3.125 68.453125 
L 3.609375 68.890625 
Q 8.796875 68.609375 13.484375 68.609375 
Q 24.859375 68.609375 33.984375 68.890625 
Q 38.53125 69.046875 43.109375 69.046875 
Q 55.8125 69.046875 62.59375 66.15625 
Q 70.015625 62.984375 74.21875 56.203125 
Q 78.515625 49.21875 78.515625 38.375 
z
M 63.53125 36.03125 
Q 63.53125 49.5625 56.984375 56.84375 
Q 53.5625 60.640625 48.4375 62.203125 
Q 43.5625 63.671875 34.8125 63.671875 
Q 30.28125 63.671875 26.125 63.03125 
Q 25.640625 57.5625 25.640625 36.578125 
L 25.734375 15.234375 
Q 25.78125 8.109375 26.125 5.765625 
Q 30.421875 5.078125 34.90625 5.078125 
Q 44.625 5.078125 50.25 7.90625 
Q 56.296875 10.984375 59.859375 18.359375 
Q 63.53125 25.984375 63.53125 36.03125 
z
" id="PalatinoLinotype-Bold-68"/>
      <path d="M 55.859375 22.5625 
Q 55.859375 14.5 51.265625 8.34375 
Q 47.265625 2.9375 40.765625 0.296875 
Q 34.8125 -2.15625 26.5625 -2.15625 
Q 16.3125 -2.15625 6.453125 2.546875 
L 5.859375 3.609375 
Q 7.234375 9.234375 7.234375 19.578125 
L 7.71875 20.0625 
L 10.84375 20.0625 
L 11.28125 19.578125 
L 11.28125 18.453125 
Q 11.28125 15.71875 11.859375 11.234375 
Q 13.625 8.109375 18.171875 5.859375 
Q 22.90625 3.515625 28.03125 3.515625 
Q 37.703125 3.515625 41.40625 10.25 
Q 43.3125 13.71875 43.3125 17.4375 
Q 43.3125 23.6875 38.09375 26.375 
Q 35.5 27.6875 29.734375 28.5625 
Q 16.703125 30.5625 12.59375 33.59375 
Q 6.390625 38.1875 6.390625 47.796875 
Q 6.390625 57.8125 13.140625 63.765625 
Q 20.265625 70.015625 32.953125 70.015625 
Q 44.390625 70.015625 51.421875 66.359375 
L 51.765625 65.1875 
Q 50.59375 59.375 50.34375 51.21875 
L 49.8125 50.734375 
L 46.734375 50.734375 
L 46.234375 51.21875 
Q 46.09375 57.078125 45.75 58.84375 
Q 44.234375 61.140625 40.484375 62.75 
Q 36.46875 64.40625 32.125 64.40625 
Q 25.59375 64.40625 21.78125 60.9375 
Q 18.21875 57.671875 18.21875 52.484375 
Q 18.21875 46.875 22.265625 44.234375 
Q 24.90625 42.53125 34.71875 40.96875 
Q 35.75 40.828125 40.4375 39.984375 
Q 43.3125 39.5 45.75 38.578125 
Q 50.6875 36.71875 53.171875 32.90625 
Q 55.859375 28.765625 55.859375 22.5625 
z
" id="PalatinoLinotype-Bold-83"/>
      <path d="M 29.59375 42.796875 
L 29.09375 39.59375 
L 20.703125 39.59375 
L 12 6.796875 
Q 11.796875 6 11.796875 5.40625 
Q 11.796875 3.796875 13.296875 3.796875 
Q 14.5 3.796875 16.09375 5.34375 
Q 17.703125 6.90625 21.40625 11.703125 
L 22.703125 11 
Q 18.09375 4 15.140625 1.453125 
Q 12.203125 -1.09375 8.40625 -1.09375 
Q 3.796875 -1.09375 3.796875 2.59375 
Q 3.796875 3.59375 5.40625 10 
L 13.203125 39.59375 
L 5.703125 39.59375 
L 5.59375 40.203125 
Q 5.59375 42 8.90625 42.703125 
Q 11.40625 43.296875 15.5 46.546875 
Q 19.59375 49.796875 22.203125 53.703125 
Q 22.796875 54.59375 23.59375 54.59375 
Q 24.5 54.59375 24.5 53.796875 
Q 24.5 53.296875 24.40625 53.09375 
L 21.59375 42.796875 
z
" id="STIXGeneral-Italic-116"/>
      <path d="M -0.6875 -2.484375 
L 23.046875 73.1875 
L 23.734375 73.640625 
L 30.28125 73.640625 
L 30.609375 72.953125 
L 6.890625 -2.78125 
L 6.25 -3.171875 
L -0.34375 -3.171875 
z
" id="PalatinoLinotype-Bold-47"/>
      <path d="M 80.171875 0.203125 
L 79.6875 -0.296875 
Q 74.859375 0 64.65625 0 
Q 54.203125 0 49.609375 -0.296875 
L 49.125 0.140625 
L 49.125 3.46875 
L 49.65625 3.953125 
Q 54.640625 4.25 55.375 4.4375 
Q 56.78125 4.828125 57.03125 6.25 
Q 57.671875 9.765625 57.671875 21.390625 
L 57.671875 33.15625 
Q 55.171875 33.40625 41.84375 33.40625 
Q 29.546875 33.40625 25.640625 33.15625 
L 25.640625 21.390625 
Q 25.640625 9.765625 26.265625 6.25 
Q 26.515625 4.828125 27.9375 4.4375 
Q 28.65625 4.25 33.640625 3.953125 
L 34.125 3.46875 
L 34.125 0.203125 
L 33.6875 -0.296875 
Q 28.8125 0 18.65625 0 
Q 8.15625 0 3.609375 -0.296875 
L 3.125 0.140625 
L 3.125 3.46875 
L 3.609375 3.953125 
Q 8.59375 4.25 9.328125 4.4375 
Q 10.75 4.828125 10.984375 6.25 
Q 11.625 9.765625 11.625 21.390625 
L 11.625 47.21875 
Q 11.625 58.84375 10.984375 62.359375 
Q 10.75 63.765625 9.328125 64.15625 
Q 8.59375 64.359375 3.609375 64.65625 
L 3.125 65.140625 
L 3.125 68.453125 
L 3.609375 68.890625 
Q 8.296875 68.609375 18.65625 68.609375 
Q 29.25 68.609375 33.6875 68.890625 
L 34.125 68.453125 
L 34.125 65.09375 
L 33.640625 64.65625 
Q 28.65625 64.359375 27.9375 64.15625 
Q 26.515625 63.765625 26.265625 62.359375 
Q 25.640625 58.84375 25.640625 47.21875 
L 25.640625 39.15625 
Q 30.8125 38.921875 39.890625 38.921875 
Q 54.15625 38.921875 57.671875 39.15625 
L 57.671875 47.21875 
Q 57.671875 58.84375 57.03125 62.359375 
Q 56.78125 63.765625 55.375 64.15625 
Q 54.640625 64.359375 49.65625 64.65625 
L 49.125 65.140625 
L 49.125 68.453125 
L 49.609375 68.890625 
Q 54.34375 68.609375 64.65625 68.609375 
Q 75.296875 68.609375 79.6875 68.890625 
L 80.171875 68.453125 
L 80.171875 65.09375 
L 79.734375 64.65625 
Q 74.65625 64.359375 73.96875 64.15625 
Q 72.5625 63.765625 72.3125 62.359375 
Q 71.6875 58.84375 71.6875 47.21875 
L 71.6875 21.390625 
Q 71.6875 9.765625 72.3125 6.25 
Q 72.5625 4.828125 73.96875 4.4375 
Q 74.703125 4.25 79.6875 3.953125 
L 80.171875 3.46875 
z
" id="PalatinoLinotype-Bold-72"/>
      <path d="M 47.40625 13.703125 
L 42 0 
L 2.90625 0 
L 2.90625 1.203125 
L 20.703125 20.09375 
Q 27.703125 27.40625 30.703125 33.5 
Q 33.703125 39.59375 33.703125 46.09375 
Q 33.703125 52.796875 30 56.5 
Q 26.296875 60.203125 19.796875 60.203125 
Q 14.40625 60.203125 11.25 57.390625 
Q 8.09375 54.59375 5.09375 47.203125 
L 3 47.703125 
Q 4.703125 57 9.84375 62.296875 
Q 15 67.59375 23.796875 67.59375 
Q 32.09375 67.59375 37.1875 62.59375 
Q 42.296875 57.59375 42.296875 50 
Q 42.296875 38.703125 29.5 25.203125 
L 13 7.59375 
L 36.40625 7.59375 
Q 39.703125 7.59375 41.640625 8.890625 
Q 43.59375 10.203125 46 14.296875 
z
" id="STIXGeneral-Regular-50"/>
      <path d="M 47.09375 36.59375 
L 42.203125 36.59375 
Q 43.09375 34.796875 43.09375 31.5 
Q 43.09375 25.203125 37.34375 20.140625 
Q 31.59375 15.09375 24.59375 15.09375 
Q 22.796875 15.09375 21.5 15.40625 
Q 21.203125 15.5 20.796875 15.5 
Q 19.5 15.5 18.34375 14.203125 
Q 17.203125 12.90625 17.203125 11.40625 
Q 17.203125 9 24.296875 7.203125 
Q 38.5 3.796875 38.5 -5.5 
Q 38.5 -12.203125 32.890625 -16.390625 
Q 27.296875 -20.59375 17.5 -20.59375 
Q 9.703125 -20.59375 5.25 -17.84375 
Q 0.796875 -15.09375 0.796875 -9.796875 
Q 0.796875 -5.90625 3.046875 -3.15625 
Q 5.296875 -0.40625 12.5 3.90625 
Q 9.796875 5.5 9.796875 7.796875 
Q 9.796875 12.59375 17.5 16.203125 
Q 9.59375 19 9.59375 27 
Q 9.59375 34.40625 15.6875 39.25 
Q 21.796875 44.09375 29.703125 44.09375 
Q 35.5 44.09375 39.5 41.296875 
Q 40.59375 40.5 41.09375 40.5 
L 47.09375 40.5 
z
M 35.203125 34.796875 
Q 35.203125 38.703125 33.84375 40.296875 
Q 32.5 41.90625 29.59375 41.90625 
Q 24.796875 41.90625 21.09375 36.90625 
Q 17.40625 31.90625 17.40625 24.703125 
Q 17.40625 21.203125 19 19.203125 
Q 20.59375 17.203125 23.40625 17.203125 
Q 28.40625 17.203125 31.90625 23.09375 
Q 35.203125 28.703125 35.203125 34.796875 
z
M 32.5 -9 
Q 32.5 -5.5 29.34375 -3.140625 
Q 26.203125 -0.796875 18.203125 1.703125 
Q 15.796875 2.40625 14.796875 2.796875 
Q 14.09375 2.796875 11.75 0.890625 
Q 9.40625 -1 8.296875 -2.40625 
Q 6.296875 -4.90625 6.296875 -8.203125 
Q 6.296875 -18.40625 19 -18.40625 
Q 24.90625 -18.40625 28.703125 -15.65625 
Q 32.5 -12.90625 32.5 -9 
z
" id="STIXGeneral-Italic-103"/>
     </defs>
     <g transform="translate(45.970275 175.415625)rotate(-90)scale(0.15 -0.15)">
      <use transform="translate(0 0.359375)" xlink:href="#PalatinoLinotype-Bold-68"/>
      <use transform="translate(83.105469 0.359375)" xlink:href="#PalatinoLinotype-Bold-83"/>
      <use transform="translate(145.732734 -12.86875)scale(0.7)" xlink:href="#STIXGeneral-Italic-116"/>
      <use transform="translate(169.602101 0.359375)" xlink:href="#PalatinoLinotype-Bold-32"/>
      <use transform="translate(194.602101 0.359375)" xlink:href="#PalatinoLinotype-Bold-47"/>
      <use transform="translate(224.191945 0.359375)" xlink:href="#PalatinoLinotype-Bold-32"/>
      <use transform="translate(249.191945 0.359375)" xlink:href="#PalatinoLinotype-Bold-72"/>
      <use transform="translate(334.036007 -12.86875)scale(0.7)" xlink:href="#STIXGeneral-Regular-50"/>
      <use transform="translate(373.445371 0.359375)" xlink:href="#PalatinoLinotype-Bold-83"/>
      <use transform="translate(436.072637 -12.86875)scale(0.7)" xlink:href="#STIXGeneral-Italic-103"/>
      <use transform="translate(475.482001 0.359375)" xlink:href="#PalatinoLinotype-Bold-32"/>
     </g>
    </g>
   </g>
   <g id="patch_21">
    <path d="M 85.770275 253.28 
L 85.770275 22.40125 
" style="fill:none;stroke:#000000;stroke-linecap:square;stroke-linejoin:miter;stroke-width:0.8;"/>
   </g>
   <g id="patch_22">
    <path d="M 85.770275 253.28 
L 559.8 253.28 
" style="fill:none;stroke:#000000;stroke-linecap:square;stroke-linejoin:miter;stroke-width:0.8;"/>
   </g>
   <g id="text_18">
    <!-- 100 -->
    <g transform="translate(104.735336 25.176726)scale(0.15 -0.15)">
     <use xlink:href="#PalatinoLinotype-Roman-49"/>
     <use x="50" xlink:href="#PalatinoLinotype-Roman-48"/>
     <use x="100" xlink:href="#PalatinoLinotype-Roman-48"/>
    </g>
   </g>
   <g id="text_19">
    <!-- 98 -->
    <g transform="translate(158.018222 29.00312)scale(0.15 -0.15)">
     <use xlink:href="#PalatinoLinotype-Roman-57"/>
     <use x="50" xlink:href="#PalatinoLinotype-Roman-56"/>
    </g>
   </g>
   <g id="text_20">
    <!-- 93 -->
    <g transform="translate(207.551109 41.316369)scale(0.15 -0.15)">
     <use xlink:href="#PalatinoLinotype-Roman-57"/>
     <use x="50" xlink:href="#PalatinoLinotype-Roman-51"/>
    </g>
   </g>
   <g id="text_21">
    <!-- 100 -->
    <g transform="translate(253.333996 25.176726)scale(0.15 -0.15)">
     <use xlink:href="#PalatinoLinotype-Roman-49"/>
     <use x="50" xlink:href="#PalatinoLinotype-Roman-48"/>
     <use x="100" xlink:href="#PalatinoLinotype-Roman-48"/>
    </g>
   </g>
   <g id="text_22">
    <!-- 100 -->
    <g transform="translate(302.866882 25.176726)scale(0.15 -0.15)">
     <use xlink:href="#PalatinoLinotype-Roman-49"/>
     <use x="50" xlink:href="#PalatinoLinotype-Roman-48"/>
     <use x="100" xlink:href="#PalatinoLinotype-Roman-48"/>
    </g>
   </g>
   <g id="text_23">
    <!-- 100 -->
    <g transform="translate(352.399769 25.176726)scale(0.15 -0.15)">
     <use xlink:href="#PalatinoLinotype-Roman-49"/>
     <use x="50" xlink:href="#PalatinoLinotype-Roman-48"/>
     <use x="100" xlink:href="#PalatinoLinotype-Roman-48"/>
    </g>
   </g>
   <g id="text_24">
    <!-- 63 -->
    <g transform="translate(405.682656 106.819089)scale(0.15 -0.15)">
     <use xlink:href="#PalatinoLinotype-Roman-54"/>
     <use x="50" xlink:href="#PalatinoLinotype-Roman-51"/>
    </g>
   </g>
   <g id="text_25">
    <!-- 100 -->
    <g transform="translate(451.465542 25.176726)scale(0.15 -0.15)">
     <use xlink:href="#PalatinoLinotype-Roman-49"/>
     <use x="50" xlink:href="#PalatinoLinotype-Roman-48"/>
     <use x="100" xlink:href="#PalatinoLinotype-Roman-48"/>
    </g>
   </g>
   <g id="text_26">
    <!-- 100 -->
    <g transform="translate(500.998429 25.176726)scale(0.15 -0.15)">
     <use xlink:href="#PalatinoLinotype-Roman-49"/>
     <use x="50" xlink:href="#PalatinoLinotype-Roman-48"/>
     <use x="100" xlink:href="#PalatinoLinotype-Roman-48"/>
    </g>
   </g>
   <g id="text_27">
    <!-- 70 -->
    <g transform="translate(125.821846 92.128465)scale(0.15 -0.15)">
     <use xlink:href="#PalatinoLinotype-Roman-55"/>
     <use x="50" xlink:href="#PalatinoLinotype-Roman-48"/>
    </g>
   </g>
   <g id="text_28">
    <!-- 72 -->
    <g transform="translate(175.354733 86.745557)scale(0.15 -0.15)">
     <use xlink:href="#PalatinoLinotype-Roman-55"/>
     <use x="50" xlink:href="#PalatinoLinotype-Roman-50"/>
    </g>
   </g>
   <g id="text_29">
    <!-- 66 -->
    <g transform="translate(224.887619 101.002989)scale(0.15 -0.15)">
     <use xlink:href="#PalatinoLinotype-Roman-54"/>
     <use x="50" xlink:href="#PalatinoLinotype-Roman-54"/>
    </g>
   </g>
   <g id="text_30">
    <!-- 72 -->
    <g transform="translate(274.420506 86.280008)scale(0.15 -0.15)">
     <use xlink:href="#PalatinoLinotype-Roman-55"/>
     <use x="50" xlink:href="#PalatinoLinotype-Roman-50"/>
    </g>
   </g>
   <g id="text_31">
    <!-- 86 -->
    <g transform="translate(323.953393 55.961141)scale(0.15 -0.15)">
     <use xlink:href="#PalatinoLinotype-Roman-56"/>
     <use x="50" xlink:href="#PalatinoLinotype-Roman-54"/>
    </g>
   </g>
   <g id="text_32">
    <!-- 84 -->
    <g transform="translate(373.486279 61.082178)scale(0.15 -0.15)">
     <use xlink:href="#PalatinoLinotype-Roman-56"/>
     <use x="50" xlink:href="#PalatinoLinotype-Roman-52"/>
    </g>
   </g>
   <g id="text_33">
    <!-- 88 -->
    <g transform="translate(423.019166 50.823635)scale(0.15 -0.15)">
     <use xlink:href="#PalatinoLinotype-Roman-56"/>
     <use x="50" xlink:href="#PalatinoLinotype-Roman-56"/>
    </g>
   </g>
   <g id="text_34">
    <!-- 70 -->
    <g transform="translate(472.552053 90.132132)scale(0.15 -0.15)">
     <use xlink:href="#PalatinoLinotype-Roman-55"/>
     <use x="50" xlink:href="#PalatinoLinotype-Roman-48"/>
    </g>
   </g>
   <g id="text_35">
    <!-- 86 -->
    <g transform="translate(522.084939 55.936254)scale(0.15 -0.15)">
     <use xlink:href="#PalatinoLinotype-Roman-56"/>
     <use x="50" xlink:href="#PalatinoLinotype-Roman-54"/>
    </g>
   </g>
   <g id="legend_1">
    <g id="patch_23">
     <path d="M 191.67622 329.587562 
L 425.93622 329.587562 
Q 428.53622 329.587562 428.53622 326.987563 
L 428.53622 308.527563 
Q 428.53622 305.927563 425.93622 305.927563 
L 191.67622 305.927563 
Q 189.07622 305.927563 189.07622 308.527563 
L 189.07622 326.987563 
Q 189.07622 329.587562 191.67622 329.587562 
z
" style="fill:#4c4c4c;opacity:0.5;stroke:#4c4c4c;stroke-linejoin:miter;stroke-width:0.24;"/>
    </g>
    <g id="patch_24">
     <path d="M 189.67622 327.587562 
L 423.93622 327.587562 
Q 426.53622 327.587562 426.53622 324.987563 
L 426.53622 306.527563 
Q 426.53622 303.927563 423.93622 303.927563 
L 189.67622 303.927563 
Q 187.07622 303.927563 187.07622 306.527563 
L 187.07622 324.987563 
Q 187.07622 327.587562 189.67622 327.587562 
z
" style="fill:#ffffff;stroke:#cccccc;stroke-linejoin:miter;stroke-width:0.24;"/>
    </g>
    <g id="patch_25">
     <path d="M 192.27622 318.617563 
L 218.27622 318.617563 
L 218.27622 309.517562 
L 192.27622 309.517562 
z
" style="fill:#1a5276;"/>
    </g>
    <g id="text_36">
     <!-- DS$_t$ [mg/L] -->
     <defs>
      <path d="M 1.46875 68.65625 
L 1.859375 69 
Q 10.296875 68.609375 13.375 68.609375 
L 36.234375 69.09375 
Q 46 69.09375 52.25 67.265625 
Q 58.5 65.4375 63.359375 60.90625 
Q 68.21875 56.390625 70.734375 50.40625 
Q 73.25 44.4375 73.25 37.640625 
Q 73.25 31.0625 70.953125 24.609375 
Q 68.65625 18.171875 64.421875 13.0625 
Q 60.203125 7.953125 54.8125 4.828125 
Q 49.421875 1.703125 44 0.65625 
Q 38.578125 -0.390625 32.90625 -0.390625 
Q 29.109375 -0.390625 18.5625 -0.09375 
Q 15.09375 0 13.96875 0 
Q 10.59375 0 5.8125 -0.390625 
L 5.421875 0 
L 5.421875 1.609375 
L 5.8125 2.09375 
Q 8.6875 3.5625 9.09375 3.921875 
Q 9.515625 4.296875 9.78125 12.46875 
Q 10.0625 20.65625 10.0625 24.953125 
L 10.0625 42.875 
L 10.015625 53.953125 
Q 10.015625 57.5625 9.90625 59.828125 
Q 9.8125 62.109375 9.5625 63.078125 
Q 9.328125 64.0625 9 64.453125 
Q 8.6875 64.84375 7.984375 65.109375 
Q 7.28125 65.375 5.5625 65.578125 
L 1.859375 65.875 
L 1.46875 66.21875 
z
M 19.53125 4.9375 
Q 24.515625 3.953125 31 3.953125 
Q 42.390625 3.953125 49.1875 7.765625 
Q 56 11.578125 59.375 19.046875 
Q 62.75 26.515625 62.75 35.890625 
Q 62.75 49.703125 55.375 57.3125 
Q 48 64.9375 32.125 64.9375 
Q 25.59375 64.9375 19.53125 63.96875 
Q 19.140625 55.953125 19.140625 45.90625 
L 19.140625 30.5625 
L 19.234375 16.21875 
Q 19.234375 12.015625 19.53125 4.9375 
z
" id="PalatinoLinotype-Roman-68"/>
      <path d="M 3.859375 16.796875 
L 4.25 17.1875 
L 6.640625 17.1875 
L 7.03125 16.796875 
Q 7.28125 10.546875 7.6875 9.15625 
Q 8.109375 7.765625 10.328125 6.21875 
Q 12.546875 4.6875 16.234375 3.703125 
Q 19.921875 2.734375 23.6875 2.734375 
Q 28.859375 2.734375 32.984375 4.640625 
Q 37.109375 6.546875 39.40625 10.234375 
Q 41.703125 13.921875 41.703125 18.5 
Q 41.703125 21.734375 40.59375 24.125 
Q 39.5 26.515625 37.515625 27.953125 
Q 35.546875 29.390625 33 30.09375 
Q 30.46875 30.8125 25.4375 31.640625 
Q 20.5625 32.421875 17.796875 33.046875 
Q 15.046875 33.6875 12.3125 35 
Q 9.578125 36.328125 7.734375 38.34375 
Q 5.90625 40.375 4.8125 43.328125 
Q 3.71875 46.296875 3.71875 49.65625 
Q 3.71875 58.796875 10.0625 64.625 
Q 16.40625 70.453125 27.09375 70.453125 
Q 31.34375 70.453125 36.34375 69.40625 
Q 41.359375 68.359375 45.453125 66.3125 
L 45.796875 65.71875 
Q 44.734375 61.234375 44.484375 52.9375 
L 44.046875 52.546875 
L 41.5 52.546875 
L 41.109375 52.875 
Q 41.015625 58.734375 40.8125 60.25 
Q 40.625 61.765625 36.375 64.015625 
Q 32.125 66.265625 27.15625 66.265625 
Q 23 66.265625 19.375 64.59375 
Q 15.765625 62.9375 13.90625 59.375 
Q 12.0625 55.8125 12.0625 52.09375 
Q 12.0625 49.21875 13.1875 47 
Q 14.3125 44.78125 16.09375 43.484375 
Q 17.875 42.1875 20.234375 41.546875 
Q 22.609375 40.921875 28.90625 39.984375 
Q 37.546875 38.765625 41.46875 37.03125 
Q 45.40625 35.296875 47.765625 31.53125 
Q 50.140625 27.78125 50.140625 22.46875 
Q 50.140625 12.0625 41.671875 5.125 
Q 33.203125 -1.8125 21.140625 -1.8125 
Q 11.03125 -1.8125 3.421875 1.8125 
L 3.125 2.4375 
Q 3.609375 5.515625 3.859375 16.796875 
z
" id="PalatinoLinotype-Roman-83"/>
      <path id="PalatinoLinotype-Roman-32"/>
      <path d="M 28.65625 -17.875 
L 28.65625 -20.40625 
L 28.21875 -20.90625 
Q 28.171875 -20.90625 26.171875 -20.84375 
Q 21 -20.65625 19.140625 -20.65625 
Q 15.046875 -20.65625 9.234375 -20.90625 
L 8.203125 -20.015625 
Q 8.796875 -10.890625 8.796875 3.765625 
Q 8.796875 46.96875 8.71875 54.40625 
Q 8.640625 61.859375 8.203125 67.875 
L 9.078125 69 
Q 14.75 68.75 18.359375 68.75 
Q 21.734375 68.75 28.21875 69 
L 28.65625 68.65625 
L 28.65625 65.875 
L 28.421875 65.53125 
Q 27.390625 65.4375 25.59375 65.328125 
Q 20.0625 65.046875 19.203125 64.703125 
Q 18.359375 64.359375 17.890625 63.59375 
Q 17.4375 62.84375 17.15625 58.8125 
Q 16.890625 54.78125 16.8125 43.765625 
Q 16.75 32.765625 16.75 25.6875 
L 16.75 5.421875 
L 16.890625 -6.109375 
Q 17.046875 -13.375 17.671875 -15.28125 
Q 17.875 -15.921875 18.375 -16.359375 
Q 18.890625 -16.796875 20.265625 -17.09375 
Q 20.953125 -17.234375 28.21875 -17.390625 
z
" id="PalatinoLinotype-Roman-91"/>
      <path d="M 17.96875 46.53125 
L 18.890625 45.90625 
Q 18.609375 42.671875 18.5 38.1875 
L 23.140625 42.4375 
Q 25.09375 44.234375 25.734375 44.75 
Q 26.375 45.265625 28.71875 45.9375 
Q 31.0625 46.625 33.640625 46.625 
Q 38.53125 46.625 42.1875 44.203125 
Q 45.84375 41.796875 47.609375 37.546875 
Q 54.203125 43.796875 55.296875 44.484375 
Q 56.390625 45.171875 58.78125 45.875 
Q 61.1875 46.578125 63.578125 46.578125 
Q 67.4375 46.578125 70.65625 44.921875 
Q 73.875 43.265625 75.78125 40.578125 
Q 77.6875 37.890625 78 34.765625 
Q 78.328125 31.640625 78.328125 26.171875 
L 78.328125 21.046875 
Q 78.328125 20.21875 78.609375 8.890625 
Q 78.71875 4.25 79.640625 3.359375 
Q 80.5625 2.484375 85.640625 2.484375 
L 86.03125 2.09375 
L 86.03125 0 
L 85.640625 -0.390625 
Q 79.4375 0 77.25 0 
Q 76.03125 0 70.171875 -0.390625 
L 69.53125 0.140625 
Q 70.171875 6.5 70.171875 16.703125 
L 70.171875 22.5625 
Q 70.171875 30.328125 69.4375 33.421875 
Q 68.703125 36.53125 66.015625 38.5 
Q 63.328125 40.484375 59.625 40.484375 
Q 56.984375 40.484375 54.6875 39.421875 
Q 52.390625 38.375 50.5625 36.296875 
Q 48.734375 34.234375 48.53125 32.453125 
Q 48.34375 30.671875 48.34375 25.875 
L 48.34375 19.78125 
Q 48.34375 17.625 48.53125 11.71875 
Q 48.734375 5.8125 48.953125 4.828125 
Q 49.171875 3.859375 49.625 3.4375 
Q 50.09375 3.03125 50.703125 2.90625 
Q 51.3125 2.78125 55.953125 2.484375 
L 56.390625 2.09375 
L 56.390625 0.046875 
L 56 -0.390625 
Q 49.90625 0 44.234375 0 
Q 39.015625 0 32.515625 -0.390625 
L 32.078125 0.046875 
L 32.078125 2.09375 
L 32.515625 2.484375 
Q 37.25 2.78125 37.859375 2.921875 
Q 38.484375 3.078125 38.9375 3.53125 
Q 39.40625 4 39.578125 4.953125 
Q 39.75 5.90625 39.96875 11.25 
Q 40.1875 16.609375 40.1875 19.34375 
L 40.1875 24.90625 
Q 40.1875 30.421875 39.421875 33.390625 
Q 38.671875 36.375 36.171875 38.421875 
Q 33.6875 40.484375 29.9375 40.484375 
Q 27 40.484375 24.578125 39.328125 
Q 22.171875 38.1875 20.625 36.5 
Q 19.09375 34.8125 18.71875 33.34375 
Q 18.359375 31.890625 18.359375 27 
L 18.359375 19.78125 
Q 18.359375 17.625 18.546875 11.71875 
Q 18.75 5.8125 18.96875 4.828125 
Q 19.1875 3.859375 19.65625 3.4375 
Q 20.125 3.03125 20.734375 2.90625 
Q 21.34375 2.78125 25.984375 2.484375 
L 26.421875 2.09375 
L 26.421875 0.046875 
L 26.03125 -0.390625 
Q 19.921875 0 14.265625 0 
Q 8.640625 0 2.546875 -0.390625 
L 2.09375 0.046875 
L 2.09375 2.09375 
L 2.546875 2.484375 
Q 7.28125 2.78125 7.890625 2.921875 
Q 8.5 3.078125 8.953125 3.53125 
Q 9.421875 4 9.59375 4.953125 
Q 9.765625 5.90625 9.984375 11.25 
Q 10.203125 16.609375 10.203125 19.34375 
L 10.203125 28.953125 
Q 10.203125 30.90625 10 34.265625 
Q 9.8125 37.640625 9.6875 38.421875 
Q 9.578125 39.203125 8.9375 39.5625 
Q 8.296875 39.9375 6.390625 39.9375 
L 2.296875 39.984375 
L 1.859375 40.375 
L 1.859375 42.484375 
L 2.25 42.875 
Q 11.578125 44 17.96875 46.53125 
z
" id="PalatinoLinotype-Roman-109"/>
      <path d="M 53.859375 43.171875 
L 54.25 42.28125 
Q 52.25 39.203125 51.765625 38.28125 
L 42.671875 38.28125 
Q 44.046875 35.59375 44.046875 32.671875 
Q 44.046875 29.203125 42.453125 25.921875 
Q 40.875 22.65625 38.03125 20.359375 
Q 35.203125 18.0625 31.609375 16.6875 
Q 28.03125 15.328125 23.4375 15.328125 
L 21.1875 15.328125 
Q 18.3125 13.03125 17.484375 11.90625 
Q 16.65625 10.796875 16.65625 9.625 
Q 16.65625 7.46875 18.625 6.59375 
Q 20.609375 5.71875 26.8125 5.71875 
L 37.75 5.859375 
Q 42.921875 5.859375 45.671875 4.640625 
Q 48.4375 3.421875 50.140625 0.265625 
Q 51.859375 -2.875 51.859375 -6.390625 
Q 51.859375 -11.765625 48.359375 -17.109375 
Q 44.875 -22.46875 38.28125 -25.25 
Q 31.6875 -28.03125 24.21875 -28.03125 
Q 19.96875 -28.03125 16.234375 -27.09375 
Q 12.5 -26.171875 9.6875 -24.28125 
Q 6.890625 -22.40625 5.171875 -19.375 
Q 3.46875 -16.359375 3.46875 -13.09375 
Q 3.46875 -11.28125 4 -9.296875 
Q 4.546875 -7.328125 6.0625 -5.03125 
L 14.890625 -0.09375 
Q 10.640625 1.21875 9.546875 2.515625 
Q 8.453125 3.8125 8.453125 5.609375 
Q 8.453125 7.46875 9.671875 10.015625 
L 17.53125 15.671875 
Q 10.59375 17.484375 8.171875 21.09375 
Q 5.765625 24.703125 5.765625 29 
Q 5.765625 32.953125 7.46875 36.546875 
Q 9.1875 40.140625 12.625 42.28125 
Q 16.0625 44.4375 20.328125 45.671875 
Q 24.609375 46.921875 28.125 46.921875 
Q 34.234375 46.921875 39.75 42.96875 
Q 48.578125 42.96875 53.859375 43.171875 
z
M 14.15625 31.84375 
Q 14.15625 28.859375 15.328125 25.4375 
Q 16.5 22.015625 19.109375 20.25 
Q 21.734375 18.5 25 18.5 
Q 29.34375 18.5 32.484375 21.328125 
Q 35.640625 24.171875 35.640625 30.171875 
Q 35.640625 35.25 32.765625 39.296875 
Q 29.890625 43.359375 24.609375 43.359375 
Q 20.171875 43.359375 17.15625 40.453125 
Q 14.15625 37.546875 14.15625 31.84375 
z
M 28.46875 -0.921875 
Q 20.609375 -0.921875 19.40625 -1.109375 
Q 18.21875 -1.3125 16.015625 -2.78125 
Q 13.8125 -4.25 12.421875 -6.765625 
Q 11.03125 -9.28125 11.03125 -12.40625 
Q 11.03125 -17.921875 15.125 -21.390625 
Q 19.234375 -24.859375 26.078125 -24.859375 
Q 31.203125 -24.859375 35.546875 -22.703125 
Q 39.890625 -20.5625 41.96875 -16.9375 
Q 44.046875 -13.328125 44.046875 -10.015625 
Q 44.046875 -6.6875 42.3125 -4.3125 
Q 40.578125 -1.953125 37.8125 -1.4375 
Q 35.0625 -0.921875 28.46875 -0.921875 
z
" id="PalatinoLinotype-Roman-103"/>
      <path d="M 0 -11.53125 
L 26.375 72.3125 
L 26.859375 72.703125 
L 31.734375 72.703125 
L 32.03125 72.21875 
L 5.671875 -11.578125 
L 5.125 -12.015625 
L 0.34375 -12.015625 
z
" id="PalatinoLinotype-Roman-47"/>
      <path d="M 1.8125 68.65625 
L 2.203125 69 
Q 14.3125 68.609375 16.15625 68.609375 
Q 17.828125 68.609375 30.171875 69 
L 30.5625 68.65625 
L 30.5625 66.21875 
L 30.171875 65.875 
Q 26.8125 65.765625 24.96875 65.5625 
Q 23.140625 65.375 22.3125 64.84375 
Q 21.484375 64.3125 21.21875 62.328125 
Q 20.953125 60.359375 20.953125 56.84375 
L 20.84375 45.609375 
L 20.84375 24.03125 
Q 20.84375 15.921875 20.953125 12.703125 
L 21.1875 4.25 
L 31.15625 4.25 
Q 43.0625 4.25 46.015625 4.53125 
Q 48.96875 4.828125 51.703125 5.953125 
Q 52.25 7.171875 53.25 11.5625 
Q 54.25 15.96875 54.296875 16.65625 
L 54.734375 17.046875 
L 57.125 17.046875 
L 57.46875 16.65625 
Q 57.078125 14.703125 56.65625 9.078125 
Q 56.25 3.46875 56.25 0 
L 55.859375 -0.390625 
Q 46.578125 -0.09375 31.5 -0.09375 
L 17.234375 0 
Q 12.359375 0 7.28125 -0.390625 
L 6.890625 0 
L 6.890625 1.609375 
L 7.28125 2.09375 
Q 10.296875 3.65625 10.59375 4 
Q 10.890625 4.34375 11.203125 10.296875 
Q 11.53125 16.265625 11.53125 24.65625 
L 11.53125 45.609375 
L 11.421875 55.125 
Q 11.375 60.6875 11.15625 62.296875 
Q 10.9375 63.921875 10.46875 64.453125 
Q 10.015625 64.984375 8.6875 65.328125 
Q 7.375 65.671875 2.203125 65.875 
L 1.8125 66.21875 
z
" id="PalatinoLinotype-Roman-76"/>
      <path d="M 4.15625 -20.40625 
L 4.15625 -17.875 
L 4.59375 -17.390625 
L 10.984375 -17.234375 
Q 12.640625 -17.1875 13.765625 -16.71875 
Q 14.890625 -16.265625 15.1875 -15.203125 
Q 15.484375 -14.15625 15.65625 -11.890625 
Q 15.828125 -9.625 15.9375 -0.828125 
Q 16.0625 7.953125 16.0625 15.875 
L 16.015625 32.765625 
L 15.921875 49.359375 
Q 15.828125 57.859375 15.5 60.546875 
Q 15.1875 63.234375 14.796875 63.796875 
Q 14.40625 64.359375 13.59375 64.703125 
Q 12.796875 65.046875 7.234375 65.328125 
Q 5.375 65.4375 4.390625 65.53125 
L 4.15625 65.875 
L 4.15625 68.65625 
L 4.59375 69 
Q 11.140625 68.75 14.453125 68.75 
Q 18.109375 68.75 23.734375 69 
L 24.609375 67.875 
Q 24.078125 62.640625 24.03125 25.6875 
Q 24.03125 -1.078125 24.09375 -7.046875 
Q 24.171875 -13.03125 24.609375 -20.015625 
L 23.578125 -20.90625 
Q 17.71875 -20.65625 13.671875 -20.65625 
Q 11.8125 -20.65625 4.59375 -20.90625 
z
" id="PalatinoLinotype-Roman-93"/>
     </defs>
     <g transform="translate(228.67622 318.617563)scale(0.13 -0.13)">
      <use transform="translate(0 0.296875)" xlink:href="#PalatinoLinotype-Roman-68"/>
      <use transform="translate(77.392578 0.296875)" xlink:href="#PalatinoLinotype-Roman-83"/>
      <use transform="translate(131.426094 -12.93125)scale(0.7)" xlink:href="#STIXGeneral-Italic-116"/>
      <use transform="translate(155.29546 0.296875)" xlink:href="#PalatinoLinotype-Roman-32"/>
      <use transform="translate(180.29546 0.296875)" xlink:href="#PalatinoLinotype-Roman-91"/>
      <use transform="translate(213.596241 0.296875)" xlink:href="#PalatinoLinotype-Roman-109"/>
      <use transform="translate(301.877491 0.296875)" xlink:href="#PalatinoLinotype-Roman-103"/>
      <use transform="translate(357.492726 0.296875)" xlink:href="#PalatinoLinotype-Roman-47"/>
      <use transform="translate(389.523976 0.296875)" xlink:href="#PalatinoLinotype-Roman-76"/>
      <use transform="translate(450.60796 0.296875)" xlink:href="#PalatinoLinotype-Roman-93"/>
     </g>
    </g>
    <g id="patch_26">
     <path d="M 317.59622 318.617563 
L 343.59622 318.617563 
L 343.59622 309.517562 
L 317.59622 309.517562 
z
" style="fill:#7f8c8d;"/>
    </g>
    <g id="text_37">
     <!-- H$_2$S$_g$ [ppm] -->
     <defs>
      <path d="M 2.875 69 
Q 15.328125 68.609375 16.84375 68.609375 
Q 18.453125 68.609375 30.859375 69 
L 31.25 68.65625 
L 31.25 66.21875 
L 30.859375 65.875 
Q 27.484375 65.765625 25.65625 65.5625 
Q 23.828125 65.375 23 64.84375 
Q 22.171875 64.3125 21.890625 62.328125 
Q 21.625 60.359375 21.625 56.84375 
L 21.53125 45.609375 
L 21.53125 38.765625 
Q 32.234375 38.484375 41.796875 38.484375 
Q 54.890625 38.484375 61.71875 38.765625 
L 61.71875 45.609375 
L 61.625 55.125 
Q 61.578125 60.6875 61.328125 62.296875 
Q 61.078125 63.921875 60.640625 64.453125 
Q 60.203125 64.984375 58.875 65.328125 
Q 57.5625 65.671875 52.34375 65.875 
L 52 66.21875 
L 52 68.65625 
L 52.34375 69 
Q 64.84375 68.609375 66.359375 68.609375 
Q 68.015625 68.609375 80.375 69 
L 80.765625 68.65625 
L 80.765625 66.21875 
L 80.375 65.875 
Q 76.953125 65.765625 75.125 65.5625 
Q 73.296875 65.375 72.453125 64.84375 
Q 71.625 64.3125 71.375 62.328125 
Q 71.140625 60.359375 71.09375 56.84375 
L 71 45.609375 
L 71 23 
L 71.09375 13.484375 
Q 71.140625 7.953125 71.375 6.34375 
Q 71.625 4.734375 72.09375 4.1875 
Q 72.5625 3.65625 73.84375 3.296875 
Q 75.140625 2.9375 80.375 2.734375 
L 80.765625 2.4375 
L 80.765625 0 
L 80.375 -0.390625 
Q 67.875 0 66.359375 0 
Q 64.796875 0 52.34375 -0.390625 
L 52 0 
L 52 2.4375 
L 52.34375 2.734375 
Q 56.9375 2.9375 58.453125 3.21875 
Q 59.96875 3.515625 60.453125 3.96875 
Q 60.9375 4.4375 61.28125 5.953125 
Q 61.625 7.46875 61.625 12.703125 
L 61.71875 23 
L 61.71875 34.125 
Q 47.265625 34.421875 41.453125 34.421875 
Q 35.5 34.421875 21.53125 34.125 
L 21.53125 23 
L 21.578125 13.484375 
Q 21.625 7.953125 21.875 6.34375 
Q 22.125 4.734375 22.578125 4.1875 
Q 23.046875 3.65625 24.359375 3.296875 
Q 25.6875 2.9375 30.859375 2.734375 
L 31.25 2.4375 
L 31.25 0 
L 30.859375 -0.390625 
Q 18.40625 0 16.84375 0 
Q 15.328125 0 2.875 -0.390625 
L 2.484375 0 
L 2.484375 2.4375 
L 2.875 2.734375 
Q 7.421875 2.9375 8.9375 3.21875 
Q 10.453125 3.515625 10.953125 3.96875 
Q 11.46875 4.4375 11.78125 5.953125 
Q 12.109375 7.46875 12.15625 12.703125 
L 12.203125 23 
L 12.203125 45.609375 
L 12.109375 55.125 
Q 12.0625 60.6875 11.84375 62.296875 
Q 11.625 63.921875 11.15625 64.453125 
Q 10.6875 64.984375 9.375 65.328125 
Q 8.0625 65.671875 2.875 65.875 
L 2.484375 66.21875 
L 2.484375 68.65625 
z
" id="PalatinoLinotype-Roman-72"/>
      <path d="M 18.0625 47.125 
L 19 46.53125 
Q 18.5 40.96875 18.453125 36.671875 
Q 25.09375 42.71875 27.703125 44.671875 
Q 30.328125 46.625 36.71875 46.625 
Q 40.71875 46.625 43.984375 45.53125 
Q 47.265625 44.4375 50.046875 41.921875 
Q 52.828125 39.40625 54.4375 35.625 
Q 56.0625 31.84375 56.0625 26.859375 
Q 56.0625 23.34375 54.9375 19.71875 
Q 53.8125 16.109375 51.96875 13.03125 
Q 50.140625 9.96875 49.046875 8.953125 
Q 47.953125 7.953125 44.53125 5.953125 
Q 41.453125 4.109375 38.421875 1.953125 
Q 36.328125 0.4375 35.5 0 
Q 34.671875 -0.4375 32.71875 -0.875 
Q 30.765625 -1.3125 28.5625 -1.3125 
Q 23.484375 -1.3125 18.453125 1.265625 
L 18.453125 -9.125 
Q 18.453125 -10.203125 18.640625 -16.03125 
Q 18.84375 -21.875 19.0625 -22.84375 
Q 19.28125 -23.828125 19.71875 -24.265625 
Q 20.171875 -24.703125 20.796875 -24.828125 
Q 21.4375 -24.953125 26.078125 -25.25 
L 26.515625 -25.640625 
L 26.515625 -27.6875 
L 26.125 -28.125 
Q 20.015625 -27.734375 14.40625 -27.734375 
Q 8.796875 -27.734375 2.6875 -28.125 
L 2.25 -27.6875 
L 2.25 -25.640625 
L 2.6875 -25.25 
Q 7.375 -24.953125 8 -24.796875 
Q 8.640625 -24.65625 9.109375 -24.1875 
Q 9.578125 -23.734375 9.734375 -22.703125 
Q 9.90625 -21.6875 10.125 -16.15625 
Q 10.359375 -10.640625 10.359375 -7.859375 
L 10.359375 29.546875 
Q 10.359375 32.078125 10.125 35.421875 
Q 9.90625 38.765625 9.765625 39.296875 
Q 9.625 39.84375 9.0625 40.1875 
Q 8.5 40.53125 6.546875 40.53125 
L 2.4375 40.578125 
L 2 40.96875 
L 2 43.0625 
L 2.390625 43.453125 
Q 11.71875 44.578125 18.0625 47.125 
z
M 18.453125 9.671875 
Q 20.703125 7.375 24.015625 5.6875 
Q 27.34375 4 31.34375 4 
Q 36.078125 4 39.71875 6.390625 
Q 43.359375 8.796875 45.359375 13.40625 
Q 47.359375 18.015625 47.359375 23.640625 
Q 47.359375 28.171875 45.578125 32.078125 
Q 43.796875 35.984375 40.0625 38.234375 
Q 36.328125 40.484375 32.125 40.484375 
Q 29.546875 40.484375 27.09375 39.578125 
Q 24.65625 38.671875 22.53125 36.90625 
Q 20.40625 35.15625 19.484375 33.5625 
Q 18.5625 31.984375 18.5 30.9375 
Q 18.453125 29.890625 18.453125 28.609375 
z
" id="PalatinoLinotype-Roman-112"/>
     </defs>
     <g transform="translate(353.99622 318.617563)scale(0.13 -0.13)">
      <use transform="translate(0 0.546875)" xlink:href="#PalatinoLinotype-Roman-72"/>
      <use transform="translate(84.746406 -12.68125)scale(0.7)" xlink:href="#STIXGeneral-Regular-50"/>
      <use transform="translate(124.155771 0.546875)" xlink:href="#PalatinoLinotype-Roman-83"/>
      <use transform="translate(178.189286 -12.68125)scale(0.7)" xlink:href="#STIXGeneral-Italic-103"/>
      <use transform="translate(217.598651 0.546875)" xlink:href="#PalatinoLinotype-Roman-32"/>
      <use transform="translate(242.598651 0.546875)" xlink:href="#PalatinoLinotype-Roman-91"/>
      <use transform="translate(275.899432 0.546875)" xlink:href="#PalatinoLinotype-Roman-112"/>
      <use transform="translate(336.006854 0.546875)" xlink:href="#PalatinoLinotype-Roman-112"/>
      <use transform="translate(396.114276 0.546875)" xlink:href="#PalatinoLinotype-Roman-109"/>
      <use transform="translate(484.395526 0.546875)" xlink:href="#PalatinoLinotype-Roman-93"/>
     </g>
    </g>
   </g>
  </g>
 </g>
 <defs>
  <clipPath id="pa82bb75871">
   <rect height="230.87875" width="474.029725" x="85.770275" y="22.40125"/>
  </clipPath>
 </defs>
</svg>
