<?xml version="1.0" encoding="utf-8" standalone="no"?>
<!DOCTYPE svg PUBLIC "-//W3C//DTD SVG 1.1//EN"
  "http://www.w3.org/Graphics/SVG/1.1/DTD/svg11.dtd">
<!-- Created with matplotlib (https://matplotlib.org/) -->
<svg height="338.939687pt" version="1.1" viewBox="0 0 513.146875 338.939687" width="513.146875pt" xmlns="http://www.w3.org/2000/svg" xmlns:xlink="http://www.w3.org/1999/xlink">
 <defs>
  <style type="text/css">
*{stroke-linecap:butt;stroke-linejoin:round;}
  </style>
 </defs>
 <g id="figure_1">
  <g id="patch_1">
   <path d="M 0 338.939687 
L 513.146875 338.939687 
L 513.146875 0 
L 0 0 
z
" style="fill:#ffffff;"/>
  </g>
  <g id="axes_1">
   <g id="patch_2">
    <path d="M 51.546875 289.86375 
L 497.946875 289.86375 
L 497.946875 12.66375 
L 51.546875 12.66375 
z
" style="fill:#ffffff;"/>
   </g>
   <g id="patch_3">
    <path clip-path="url(#p0d11a3d869)" d="M 51.546875 251.086895 
L 51.546875 192.811138 
L 55.564475 213.72615 
L 59.135675 200.27271 
L 62.409275 191.49735 
L 65.534075 175.742642 
L 68.361275 169.55895 
L 71.188475 142.17159 
L 76.694075 123.54375 
L 79.670075 101.09055 
L 83.241275 116.89095 
L 93.657275 11.55495 
L 98.865275 110.23815 
L 101.692475 173.183873 
L 104.668475 178.66695 
z
" style="fill:#ffa500;opacity:0.5;"/>
   </g>
   <g id="patch_4">
    <path clip-path="url(#p0d11a3d869)" d="M 51.546875 251.086895 
L 60.474875 178.66695 
z
" style="fill:#ffa500;opacity:0.5;"/>
   </g>
   <g id="patch_5">
    <path clip-path="url(#p0d11a3d869)" d="M 51.546875 276.320067 
L 51.546875 251.086895 
L 104.668475 178.66695 
L 107.644475 193.39815 
L 110.322875 187.22055 
L 113.150075 190.51527 
L 116.126075 195.06135 
L 119.250875 197.55615 
L 122.673275 196.333209 
L 126.244475 203.37735 
L 130.113275 210.03015 
L 134.130875 209.69751 
L 138.594875 218.129211 
L 143.356475 219.45495 
L 148.415675 225.464646 
L 153.772475 231.17655 
L 158.385275 238.36615 
L 163.593275 237.97191 
L 169.098875 237.714382 
L 174.753275 245.71335 
L 180.705275 248.80647 
L 186.954875 251.025782 
z
" style="fill:#0000ff;opacity:0.5;"/>
   </g>
   <g id="patch_6">
    <path clip-path="url(#p0d11a3d869)" d="M 51.546875 276.320067 
L 60.474875 251.025782 
z
" style="fill:#0000ff;opacity:0.5;"/>
   </g>
   <g id="patch_7">
    <path clip-path="url(#p0d11a3d869)" d="M 51.546875 289.86375 
L 51.546875 276.320067 
L 186.954875 251.025782 
L 193.353275 248.148896 
L 199.751675 251.46759 
L 206.298875 248.896508 
L 212.697275 246.171036 
L 218.946875 251.025782 
L 225.047675 245.250856 
L 231.148475 246.033538 
L 237.100475 238.30455 
L 242.606075 243.91785 
L 247.814075 238.935419 
L 252.575675 226.918027 
L 257.188475 227.32743 
L 261.503675 224.203507 
L 265.670075 228.831541 
L 269.687675 218.707715 
L 273.854075 218.79975 
L 277.871675 216.98535 
L 281.740475 227.096028 
L 286.204475 230.277802 
L 291.114875 225.382765 
L 295.281275 235.31079 
L 299.596475 232.117446 
L 303.762875 227.21655 
L 308.078075 232.383558 
L 311.202875 210.39975 
L 315.369275 230.54295 
L 319.684475 230.254662 
L 323.702075 233.03775 
L 327.719675 226.806776 
L 331.737275 215.77575 
L 335.903675 228.04815 
L 340.070075 228.924102 
L 344.236475 230.82015 
L 348.402875 232.117446 
L 353.164475 232.69895 
L 357.628475 223.33575 
L 361.794875 231.37455 
L 365.663675 225.15015 
L 369.532475 226.66215 
L 373.550075 231.37455 
L 377.418875 228.542289 
L 381.436475 230.26575 
L 385.751675 231.052998 
L 390.364475 228.965042 
L 395.274875 235.953129 
L 400.482875 243.08625 
L 405.839675 246.92295 
L 411.642875 246.52551 
L 417.743675 249.94695 
L 423.844475 250.845977 
L 430.094075 248.688312 
L 436.790075 255.405658 
L 443.932475 254.279006 
L 451.074875 255.39015 
L 458.068475 250.271477 
L 465.657275 255.87662 
L 473.543675 257.29275 
L 479.793275 252.16455 
L 479.793275 289.86375 
z
" style="fill:#a9a9a9;opacity:0.5;"/>
   </g>
   <g id="matplotlib.axis_1">
    <g id="xtick_1">
     <g id="line2d_1">
      <defs>
       <path d="M 0 0 
L 0 3.5 
" id="m859b48ff39" style="stroke:#000000;stroke-width:0.8;"/>
      </defs>
      <g>
       <use style="stroke:#000000;stroke-width:0.8;" x="51.546875" xlink:href="#m859b48ff39" y="289.86375"/>
      </g>
     </g>
     <g id="text_1">
      <!-- 0 -->
      <defs>
       <path d="M 47.59375 33 
Q 47.59375 26.296875 46.296875 20.34375 
Q 45 14.40625 42.453125 9.40625 
Q 39.90625 4.40625 35.40625 1.5 
Q 30.90625 -1.40625 25 -1.40625 
Q 18.90625 -1.40625 14.296875 1.6875 
Q 9.703125 4.796875 7.203125 10 
Q 4.703125 15.203125 3.546875 21.09375 
Q 2.40625 27 2.40625 33.59375 
Q 2.40625 42.90625 4.703125 50.34375 
Q 7 57.796875 12.34375 62.6875 
Q 17.703125 67.59375 25.40625 67.59375 
Q 35.203125 67.59375 41.390625 58 
Q 47.59375 48.40625 47.59375 33 
z
M 38 32.5 
Q 38 48.296875 34.640625 56.640625 
Q 31.296875 65 24.796875 65 
Q 18.59375 65 15.296875 56.59375 
Q 12 48.203125 12 32.90625 
Q 12 17.5 15.296875 9.34375 
Q 18.59375 1.203125 25 1.203125 
Q 31.296875 1.203125 34.640625 9.34375 
Q 38 17.5 38 32.5 
z
" id="STIXGeneral-Regular-48"/>
      </defs>
      <g transform="translate(47.546875 309.29125)scale(0.16 -0.16)">
       <use xlink:href="#STIXGeneral-Regular-48"/>
      </g>
     </g>
    </g>
    <g id="xtick_2">
     <g id="line2d_2">
      <g>
       <use style="stroke:#000000;stroke-width:0.8;" x="140.826875" xlink:href="#m859b48ff39" y="289.86375"/>
      </g>
     </g>
     <g id="text_2">
      <!-- 10 -->
      <defs>
       <path d="M 39.40625 0 
L 11.796875 0 
L 11.796875 1.5 
Q 17.296875 1.796875 19.296875 3.546875 
Q 21.296875 5.296875 21.296875 9.5 
L 21.296875 54.40625 
Q 21.296875 59.296875 18.296875 59.296875 
Q 16.90625 59.296875 13.796875 58.09375 
L 11.09375 57.09375 
L 11.09375 58.5 
L 29 67.59375 
L 29.90625 67.296875 
L 29.90625 7.59375 
Q 29.90625 4.296875 31.90625 2.890625 
Q 33.90625 1.5 39.40625 1.5 
z
" id="STIXGeneral-Regular-49"/>
      </defs>
      <g transform="translate(132.826875 309.29125)scale(0.16 -0.16)">
       <use xlink:href="#STIXGeneral-Regular-49"/>
       <use x="49.999985" xlink:href="#STIXGeneral-Regular-48"/>
      </g>
     </g>
    </g>
    <g id="xtick_3">
     <g id="line2d_3">
      <g>
       <use style="stroke:#000000;stroke-width:0.8;" x="230.106875" xlink:href="#m859b48ff39" y="289.86375"/>
      </g>
     </g>
     <g id="text_3">
      <!-- 20 -->
      <defs>
       <path d="M 47.40625 13.703125 
L 42 0 
L 2.90625 0 
L 2.90625 1.203125 
L 20.703125 20.09375 
Q 27.703125 27.40625 30.703125 33.5 
Q 33.703125 39.59375 33.703125 46.09375 
Q 33.703125 52.796875 30 56.5 
Q 26.296875 60.203125 19.796875 60.203125 
Q 14.40625 60.203125 11.25 57.390625 
Q 8.09375 54.59375 5.09375 47.203125 
L 3 47.703125 
Q 4.703125 57 9.84375 62.296875 
Q 15 67.59375 23.796875 67.59375 
Q 32.09375 67.59375 37.1875 62.59375 
Q 42.296875 57.59375 42.296875 50 
Q 42.296875 38.703125 29.5 25.203125 
L 13 7.59375 
L 36.40625 7.59375 
Q 39.703125 7.59375 41.640625 8.890625 
Q 43.59375 10.203125 46 14.296875 
z
" id="STIXGeneral-Regular-50"/>
      </defs>
      <g transform="translate(222.106875 309.29125)scale(0.16 -0.16)">
       <use xlink:href="#STIXGeneral-Regular-50"/>
       <use x="49.999985" xlink:href="#STIXGeneral-Regular-48"/>
      </g>
     </g>
    </g>
    <g id="xtick_4">
     <g id="line2d_4">
      <g>
       <use style="stroke:#000000;stroke-width:0.8;" x="319.386875" xlink:href="#m859b48ff39" y="289.86375"/>
      </g>
     </g>
     <g id="text_4">
      <!-- 30 -->
      <defs>
       <path d="M 6.09375 51 
L 4.5 51.40625 
Q 6.796875 58.90625 11.6875 63.25 
Q 16.59375 67.59375 24.09375 67.59375 
Q 31.09375 67.59375 35.390625 63.796875 
Q 39.703125 60 39.703125 53.90625 
Q 39.703125 45.703125 30.40625 40.09375 
Q 35.90625 37.703125 38.703125 34.796875 
Q 43.09375 29.90625 43.09375 21.90625 
Q 43.09375 13.90625 38.5 7.90625 
Q 35.09375 3.296875 28.75 0.9375 
Q 22.40625 -1.40625 15.296875 -1.40625 
Q 4.09375 -1.40625 4.09375 4.296875 
Q 4.09375 5.90625 5.296875 6.90625 
Q 6.5 7.90625 8.203125 7.90625 
Q 10.703125 7.90625 14.296875 5.296875 
Q 18.703125 2.203125 22.90625 2.203125 
Q 28.40625 2.203125 32.15625 6.640625 
Q 35.90625 11.09375 35.90625 17.5 
Q 35.90625 29 25.5 32 
Q 22.40625 33 15.296875 33 
L 15.296875 34.40625 
Q 20.90625 36.296875 23.703125 38 
Q 31.796875 42.59375 31.796875 51.40625 
Q 31.796875 56.40625 28.9375 59 
Q 26.09375 61.59375 21 61.59375 
Q 12 61.59375 6.09375 51 
z
" id="STIXGeneral-Regular-51"/>
      </defs>
      <g transform="translate(311.386875 309.29125)scale(0.16 -0.16)">
       <use xlink:href="#STIXGeneral-Regular-51"/>
       <use x="49.999985" xlink:href="#STIXGeneral-Regular-48"/>
      </g>
     </g>
    </g>
    <g id="xtick_5">
     <g id="line2d_5">
      <g>
       <use style="stroke:#000000;stroke-width:0.8;" x="408.666875" xlink:href="#m859b48ff39" y="289.86375"/>
      </g>
     </g>
     <g id="text_5">
      <!-- 40 -->
      <defs>
       <path d="M 47.296875 16.703125 
L 37 16.703125 
L 37 0 
L 29.203125 0 
L 29.203125 16.703125 
L 1.203125 16.703125 
L 1.203125 23.09375 
L 32.59375 67.59375 
L 37 67.59375 
L 37 23.09375 
L 47.296875 23.09375 
z
M 29.203125 23.09375 
L 29.203125 57.40625 
L 5.203125 23.09375 
z
" id="STIXGeneral-Regular-52"/>
      </defs>
      <g transform="translate(400.666875 309.29125)scale(0.16 -0.16)">
       <use xlink:href="#STIXGeneral-Regular-52"/>
       <use x="49.999985" xlink:href="#STIXGeneral-Regular-48"/>
      </g>
     </g>
    </g>
    <g id="xtick_6">
     <g id="line2d_6">
      <g>
       <use style="stroke:#000000;stroke-width:0.8;" x="497.946875" xlink:href="#m859b48ff39" y="289.86375"/>
      </g>
     </g>
     <g id="text_6">
      <!-- 50 -->
      <defs>
       <path d="M 43.796875 68.09375 
L 40.203125 59.59375 
Q 39.59375 58.296875 37.5 58.296875 
L 18.09375 58.296875 
L 14.09375 49.796875 
Q 25.09375 47.703125 30 45.25 
Q 34.90625 42.796875 39.09375 37 
Q 42.59375 32.203125 42.59375 24.296875 
Q 42.59375 17.09375 40.25 12.1875 
Q 37.90625 7.296875 32.796875 3.5 
Q 26 -1.40625 15.796875 -1.40625 
Q 10.09375 -1.40625 6.59375 0.296875 
Q 3.09375 2 3.09375 4.796875 
Q 3.09375 8.59375 7.59375 8.59375 
Q 11.203125 8.59375 15 5.5 
Q 18.90625 2.296875 22.09375 2.296875 
Q 27.296875 2.296875 31.4375 7.5 
Q 35.59375 12.703125 35.59375 19.203125 
Q 35.59375 28.796875 28.90625 34.203125 
Q 20.203125 41.203125 7.59375 41.203125 
Q 6.40625 41.203125 6.40625 42 
L 6.5 42.5 
L 17.40625 66.203125 
L 38.09375 66.203125 
Q 39.796875 66.203125 40.75 66.703125 
Q 41.703125 67.203125 42.90625 68.796875 
z
" id="STIXGeneral-Regular-53"/>
      </defs>
      <g transform="translate(489.946875 309.29125)scale(0.16 -0.16)">
       <use xlink:href="#STIXGeneral-Regular-53"/>
       <use x="49.999985" xlink:href="#STIXGeneral-Regular-48"/>
      </g>
     </g>
    </g>
    <g id="text_7">
     <!-- Time[h] -->
     <defs>
      <path d="M 63.59375 47.5 
L 60.703125 47.5 
Q 59.40625 56.40625 55.046875 60.25 
Q 50.703125 64.09375 41.5 64.40625 
L 41.5 11.703125 
Q 41.5 6 43.140625 4.5 
Q 44.796875 3 51.296875 2.5 
L 51.296875 0 
L 15.59375 0 
L 15.59375 2.5 
Q 22 3 23.640625 4.546875 
Q 25.296875 6.09375 25.296875 11.703125 
L 25.296875 64.40625 
Q 16 64.09375 11.640625 60.25 
Q 7.296875 56.40625 6 47.5 
L 3.09375 47.5 
L 3.40625 67.59375 
L 63.40625 67.59375 
z
" id="STIXGeneral-Bold-84"/>
      <path d="M 21.5 61.296875 
Q 21.5 58 19.25 55.796875 
Q 17 53.59375 13.703125 53.59375 
Q 10.40625 53.59375 8.203125 55.796875 
Q 6 58 6 61.296875 
Q 6 64.59375 8.25 66.84375 
Q 10.5 69.09375 13.90625 69.09375 
Q 17 69.09375 19.25 66.796875 
Q 21.5 64.5 21.5 61.296875 
z
M 25.59375 0 
L 1.59375 0 
L 1.59375 2.40625 
Q 5.09375 3.203125 6 4.296875 
Q 6.90625 5.40625 6.90625 8.796875 
L 6.90625 37.296875 
Q 6.90625 40.59375 5.84375 41.796875 
Q 4.796875 43 1.5 43.703125 
L 1.5 46.09375 
L 20.796875 46.09375 
L 20.796875 8.5 
Q 20.796875 5.296875 21.84375 4.046875 
Q 22.90625 2.796875 25.59375 2.40625 
z
" id="STIXGeneral-Bold-105"/>
      <path d="M 81.40625 0 
L 57.703125 0 
L 57.703125 2.40625 
Q 60.5 2.59375 61.5 3.84375 
Q 62.5 5.09375 62.5 8.296875 
L 62.5 31.09375 
Q 62.5 40.59375 57.203125 40.59375 
Q 54.296875 40.59375 51.40625 38.09375 
Q 50.5 37.40625 49.59375 36.296875 
Q 48.703125 35.203125 48.703125 34.796875 
L 48.703125 8.296875 
Q 48.703125 5.40625 49.703125 4.046875 
Q 50.703125 2.703125 53.296875 2.40625 
L 53.296875 0 
L 30.09375 0 
L 30.09375 2.40625 
Q 32.796875 2.59375 33.796875 3.890625 
Q 34.796875 5.203125 34.796875 8.296875 
L 34.796875 32.296875 
Q 34.796875 36.796875 33.546875 38.6875 
Q 32.296875 40.59375 29.40625 40.59375 
Q 27.5 40.59375 24.25 38.34375 
Q 21 36.09375 21 34.40625 
L 21 8.296875 
Q 21 5.40625 21.953125 4.09375 
Q 22.90625 2.796875 25.5 2.40625 
L 25.5 0 
L 1.59375 0 
L 1.59375 2.40625 
Q 4.90625 3 6 4.25 
Q 7.09375 5.5 7.09375 8.59375 
L 7.09375 37.296875 
Q 7.09375 40.796875 6 42 
Q 4.90625 43.203125 1.5 43.703125 
L 1.5 46.09375 
L 20.703125 46.09375 
L 20.703125 38.59375 
L 21 38.59375 
Q 23.90625 43.203125 27.25 45.25 
Q 30.59375 47.296875 35.40625 47.296875 
Q 40.09375 47.296875 43 45.296875 
Q 45.90625 43.296875 48.203125 38.59375 
Q 52.09375 43.40625 55.34375 45.34375 
Q 58.59375 47.296875 62.90625 47.296875 
Q 69.09375 47.296875 72.75 43.5 
Q 76.40625 39.703125 76.40625 33.09375 
L 76.40625 8.296875 
Q 76.40625 5.09375 77.453125 3.796875 
Q 78.5 2.5 81.40625 2.40625 
z
" id="STIXGeneral-Bold-109"/>
      <path d="M 40.296875 12.59375 
L 42.703125 11.203125 
Q 38.296875 4.203125 33.84375 1.390625 
Q 29.40625 -1.40625 22.90625 -1.40625 
Q 13.90625 -1.40625 8.203125 5.34375 
Q 2.5 12.09375 2.5 22.40625 
Q 2.5 33.59375 8.25 40.4375 
Q 14 47.296875 23.40625 47.296875 
Q 31.703125 47.296875 36.203125 42.296875 
Q 41.5 36.5 42.09375 24.5 
L 16.90625 24.5 
Q 17.203125 20.296875 17.703125 17.4375 
Q 18.203125 14.59375 19.390625 11.6875 
Q 20.59375 8.796875 22.9375 7.296875 
Q 25.296875 5.796875 28.796875 5.796875 
Q 32 5.796875 34.59375 7.34375 
Q 37.203125 8.90625 40.296875 12.59375 
z
M 29.796875 28.203125 
L 29.796875 30.296875 
Q 29.796875 37.59375 28.90625 39.5 
Q 27.703125 42 26.546875 43.09375 
Q 25.40625 44.203125 23.40625 44.203125 
Q 19.796875 44.203125 18.09375 40.546875 
Q 16.40625 36.90625 16.40625 28.203125 
z
" id="STIXGeneral-Bold-101"/>
      <path d="M 30.09375 -14.90625 
L 6.703125 -14.90625 
L 6.703125 67.796875 
L 30.09375 67.796875 
L 30.09375 64.5 
L 23.796875 64.5 
Q 19.59375 64.5 18.34375 63.203125 
Q 17.09375 61.90625 17.09375 57.5 
L 17.09375 -6.296875 
Q 17.09375 -9.5 18.046875 -10.546875 
Q 19 -11.59375 22.09375 -11.59375 
L 30.09375 -11.59375 
z
" id="STIXGeneral-Bold-91"/>
      <path d="M 53.40625 0 
L 30 0 
L 30 2.40625 
Q 32.5 2.703125 33.546875 4.046875 
Q 34.59375 5.40625 34.59375 8.5 
L 34.59375 30.90625 
Q 34.59375 36.296875 33.5 38.4375 
Q 32.40625 40.59375 29.5 40.59375 
Q 25.90625 40.59375 22.5 37.203125 
Q 20.796875 35.5 20.796875 34.796875 
L 20.796875 8.5 
Q 20.796875 5.40625 21.796875 4.09375 
Q 22.796875 2.796875 25.59375 2.40625 
L 25.59375 0 
L 1.59375 0 
L 1.59375 2.40625 
Q 5.203125 3.09375 6.046875 4 
Q 6.90625 4.90625 6.90625 8.90625 
L 6.90625 59.09375 
Q 6.90625 62.59375 6 63.546875 
Q 5.09375 64.5 1.5 65.203125 
L 1.5 67.59375 
L 20.796875 67.59375 
L 20.796875 39.59375 
Q 27.296875 47.296875 35.5 47.296875 
Q 41.5 47.296875 45 43.5 
Q 48.5 39.703125 48.5 33.703125 
L 48.5 8.703125 
Q 48.5 5.296875 49.640625 3.84375 
Q 50.796875 2.40625 53.40625 2.40625 
z
" id="STIXGeneral-Bold-104"/>
      <path d="M 26.59375 -14.90625 
L 3.203125 -14.90625 
L 3.203125 -11.59375 
L 11.203125 -11.59375 
Q 14.296875 -11.59375 15.25 -10.59375 
Q 16.203125 -9.59375 16.203125 -6.296875 
L 16.203125 57.5 
Q 16.203125 61.90625 14.953125 63.203125 
Q 13.703125 64.5 9.5 64.5 
L 3.203125 64.5 
L 3.203125 67.796875 
L 26.59375 67.796875 
z
" id="STIXGeneral-Bold-93"/>
     </defs>
     <g transform="translate(245.473672 328.254687)scale(0.17 -0.17)">
      <use xlink:href="#STIXGeneral-Bold-84"/>
      <use x="66.699997" xlink:href="#STIXGeneral-Bold-105"/>
      <use x="94.499985" xlink:href="#STIXGeneral-Bold-109"/>
      <use x="177.799973" xlink:href="#STIXGeneral-Bold-101"/>
      <use x="222.199966" xlink:href="#STIXGeneral-Bold-91"/>
      <use x="255.499954" xlink:href="#STIXGeneral-Bold-104"/>
      <use x="311.099945" xlink:href="#STIXGeneral-Bold-93"/>
     </g>
    </g>
   </g>
   <g id="matplotlib.axis_2">
    <g id="ytick_1">
     <g id="line2d_7">
      <defs>
       <path d="M 0 0 
L -3.5 0 
" id="m6715a32d0e" style="stroke:#000000;stroke-width:0.8;"/>
      </defs>
      <g>
       <use style="stroke:#000000;stroke-width:0.8;" x="51.546875" xlink:href="#m6715a32d0e" y="289.86375"/>
      </g>
     </g>
     <g id="text_8">
      <!-- 0 -->
      <g transform="translate(34.446875 295.3275)scale(0.16 -0.16)">
       <use xlink:href="#STIXGeneral-Regular-48"/>
      </g>
     </g>
    </g>
    <g id="ytick_2">
     <g id="line2d_8">
      <g>
       <use style="stroke:#000000;stroke-width:0.8;" x="51.546875" xlink:href="#m6715a32d0e" y="234.42375"/>
      </g>
     </g>
     <g id="text_9">
      <!-- 5 -->
      <g transform="translate(34.446875 239.8875)scale(0.16 -0.16)">
       <use xlink:href="#STIXGeneral-Regular-53"/>
      </g>
     </g>
    </g>
    <g id="ytick_3">
     <g id="line2d_9">
      <g>
       <use style="stroke:#000000;stroke-width:0.8;" x="51.546875" xlink:href="#m6715a32d0e" y="178.98375"/>
      </g>
     </g>
     <g id="text_10">
      <!-- 10 -->
      <g transform="translate(26.446875 184.4475)scale(0.16 -0.16)">
       <use xlink:href="#STIXGeneral-Regular-49"/>
       <use x="49.999985" xlink:href="#STIXGeneral-Regular-48"/>
      </g>
     </g>
    </g>
    <g id="ytick_4">
     <g id="line2d_10">
      <g>
       <use style="stroke:#000000;stroke-width:0.8;" x="51.546875" xlink:href="#m6715a32d0e" y="123.54375"/>
      </g>
     </g>
     <g id="text_11">
      <!-- 15 -->
      <g transform="translate(26.446875 129.0075)scale(0.16 -0.16)">
       <use xlink:href="#STIXGeneral-Regular-49"/>
       <use x="49.999985" xlink:href="#STIXGeneral-Regular-53"/>
      </g>
     </g>
    </g>
    <g id="ytick_5">
     <g id="line2d_11">
      <g>
       <use style="stroke:#000000;stroke-width:0.8;" x="51.546875" xlink:href="#m6715a32d0e" y="68.10375"/>
      </g>
     </g>
     <g id="text_12">
      <!-- 20 -->
      <g transform="translate(26.446875 73.5675)scale(0.16 -0.16)">
       <use xlink:href="#STIXGeneral-Regular-50"/>
       <use x="49.999985" xlink:href="#STIXGeneral-Regular-48"/>
      </g>
     </g>
    </g>
    <g id="ytick_6">
     <g id="line2d_12">
      <g>
       <use style="stroke:#000000;stroke-width:0.8;" x="51.546875" xlink:href="#m6715a32d0e" y="12.66375"/>
      </g>
     </g>
     <g id="text_13">
      <!-- 25 -->
      <g transform="translate(26.446875 18.1275)scale(0.16 -0.16)">
       <use xlink:href="#STIXGeneral-Regular-50"/>
       <use x="49.999985" xlink:href="#STIXGeneral-Regular-53"/>
      </g>
     </g>
    </g>
    <g id="text_14">
     <!-- OUR [g O2/m3 h] -->
     <defs>
      <path d="M 74.296875 33.5 
Q 74.296875 17.90625 64.34375 8 
Q 54.40625 -1.90625 38.796875 -1.90625 
Q 23.296875 -1.90625 13.390625 8 
Q 3.5 17.90625 3.5 33.40625 
Q 3.5 49.296875 13.59375 59.1875 
Q 23.703125 69.09375 39.40625 69.09375 
Q 54.5 69.09375 64.390625 59.046875 
Q 74.296875 49 74.296875 33.5 
z
M 56.59375 32.796875 
Q 56.59375 48.796875 51.9375 57.296875 
Q 47.296875 65.796875 38.5 65.796875 
Q 30.203125 65.796875 25.703125 57.25 
Q 21.203125 48.703125 21.203125 33 
Q 21.203125 17.296875 25.796875 9.34375 
Q 30.40625 1.40625 39 1.40625 
Q 47.59375 1.40625 52.09375 9.40625 
Q 56.59375 17.40625 56.59375 32.796875 
z
" id="STIXGeneral-Bold-79"/>
      <path d="M 70.09375 67.59375 
L 70.09375 65.09375 
Q 65.296875 64.40625 63.796875 62.703125 
Q 62.296875 61 62.296875 56.59375 
L 62.296875 25.203125 
Q 62.296875 9.59375 54.703125 3.59375 
Q 47.90625 -1.90625 36.296875 -1.90625 
Q 24.703125 -1.90625 17.796875 3.5 
Q 13.5 6.90625 11.640625 11.40625 
Q 9.796875 15.90625 9.796875 23.09375 
L 9.796875 55.5 
Q 9.796875 61.40625 8.390625 63 
Q 7 64.59375 1.59375 65.09375 
L 1.59375 67.59375 
L 35.203125 67.59375 
L 35.203125 65.09375 
Q 29.203125 64.59375 27.453125 62.796875 
Q 25.703125 61 25.703125 55 
L 25.703125 23.203125 
Q 25.703125 3 40.296875 3 
Q 57.90625 3 57.90625 25.203125 
L 57.90625 55.203125 
Q 57.90625 60.59375 55.84375 62.59375 
Q 53.796875 64.59375 48.203125 65.09375 
L 48.203125 67.59375 
z
" id="STIXGeneral-Bold-85"/>
      <path d="M 71.59375 0 
L 51.09375 0 
L 30.40625 31.296875 
L 27.59375 31.296875 
L 27.59375 11.703125 
Q 27.59375 6.296875 29.046875 4.796875 
Q 30.5 3.296875 36.40625 2.5 
L 36.40625 0 
L 2.59375 0 
L 2.59375 2.5 
Q 8.5 3.203125 9.953125 4.703125 
Q 11.40625 6.203125 11.40625 12 
L 11.40625 55.09375 
Q 11.40625 61 9.75 62.84375 
Q 8.09375 64.703125 2.59375 65.09375 
L 2.59375 67.59375 
L 33.40625 67.59375 
Q 63 67.59375 63 50.40625 
Q 63 42.796875 58.5 38.59375 
Q 54.296875 34.796875 47.296875 32.90625 
L 67.203125 4.703125 
Q 68.703125 2.5 71.59375 2.5 
z
M 27.59375 59.703125 
L 27.59375 34.5 
Q 37.90625 34.59375 41.90625 37.59375 
Q 45.90625 40.59375 45.90625 49.40625 
Q 45.90625 57.296875 42.90625 60.75 
Q 39.90625 64.203125 32.90625 64.203125 
Q 30 64.203125 28.796875 63.203125 
Q 27.59375 62.203125 27.59375 59.703125 
z
" id="STIXGeneral-Bold-82"/>
      <path id="STIXGeneral-Bold-32"/>
      <path d="M 25.40625 6.796875 
L 30.59375 6.796875 
Q 38.703125 6.796875 43.5 3.546875 
Q 48.296875 0.296875 48.296875 -5.203125 
Q 48.296875 -12.296875 41.4375 -16.4375 
Q 34.59375 -20.59375 22.203125 -20.59375 
Q 2.796875 -20.59375 2.796875 -11.40625 
Q 2.796875 -5.296875 12.40625 -3.90625 
Q 7.703125 -2.203125 5.953125 -0.390625 
Q 4.203125 1.40625 4.203125 4.296875 
Q 4.203125 8.703125 7.09375 11.453125 
Q 10 14.203125 16.09375 16 
Q 10.59375 17.5 7.140625 21.59375 
Q 3.703125 25.703125 3.703125 31.203125 
Q 3.703125 38.5 9.34375 42.890625 
Q 15 47.296875 24 47.296875 
Q 29.203125 47.296875 35.203125 45.09375 
L 48.09375 45.09375 
L 48.09375 39.796875 
L 40.09375 39.796875 
Q 44.09375 36.203125 44.09375 30 
Q 44.09375 20.59375 34.90625 16.796875 
Q 32.5 15.796875 30.796875 15.59375 
Q 29.09375 15.40625 22.203125 15.40625 
Q 19.203125 15.40625 17.25 14.046875 
Q 15.296875 12.703125 15.296875 10.5 
Q 15.296875 8.40625 17.390625 7.59375 
Q 19.5 6.796875 25.40625 6.796875 
z
M 30.59375 31.203125 
Q 30.59375 38.203125 29.046875 41.203125 
Q 27.5 44.203125 23.890625 44.203125 
Q 20.296875 44.203125 18.84375 41.296875 
Q 17.40625 38.40625 17.40625 31.09375 
Q 17.40625 24.09375 18.90625 21.140625 
Q 20.40625 18.203125 24 18.203125 
Q 27.59375 18.203125 29.09375 21.140625 
Q 30.59375 24.09375 30.59375 31.203125 
z
M 31.5 -5.203125 
L 15.09375 -5.203125 
Q 13 -6.90625 12.296875 -8 
Q 11.59375 -9.09375 11.59375 -10.703125 
Q 11.59375 -17.40625 25 -17.40625 
Q 32.203125 -17.40625 36.296875 -15.546875 
Q 40.40625 -13.703125 40.40625 -10.796875 
Q 40.40625 -5.203125 31.5 -5.203125 
z
" id="STIXGeneral-Bold-103"/>
      <path d="M 47.796875 21.09375 
L 43.203125 0 
L 1.703125 0 
L 1.703125 2.296875 
Q 12.59375 13.90625 16.84375 18.953125 
Q 21.09375 24 24.90625 29.90625 
Q 30 37.703125 30 44.703125 
Q 30 50.09375 26.890625 53.75 
Q 23.796875 57.40625 18.09375 57.40625 
Q 10.40625 57.40625 5.90625 48.40625 
L 3.09375 48.40625 
Q 9.90625 68.796875 25.40625 68.796875 
Q 33.59375 68.796875 38.59375 63.84375 
Q 43.59375 58.90625 43.59375 50.5 
Q 43.59375 39.5 32.203125 28.703125 
L 16 13.296875 
L 30 13.296875 
Q 38.09375 13.296875 40.75 14.59375 
Q 43.40625 15.90625 45.296875 21.09375 
z
" id="STIXGeneral-Bold-50"/>
      <path d="M 30.203125 69.09375 
L 6.59375 -1.90625 
L -2.40625 -1.90625 
L 21.203125 69.09375 
z
" id="STIXGeneral-Bold-47"/>
      <path d="M 5.796875 52.40625 
L 3.703125 53.59375 
Q 11.59375 68.796875 26.59375 68.796875 
Q 34 68.796875 38.5 64.75 
Q 43 60.703125 43 55.09375 
Q 43 51.296875 40.953125 47.796875 
Q 38.90625 44.296875 34.59375 42.40625 
Q 40.296875 40.40625 43.546875 35.546875 
Q 46.796875 30.703125 46.796875 24.59375 
Q 46.796875 13.59375 38.25 6.09375 
Q 29.703125 -1.40625 16.796875 -1.40625 
Q 9.90625 -1.40625 5.75 1.046875 
Q 1.59375 3.5 1.59375 7.59375 
Q 1.59375 10.203125 3.4375 11.890625 
Q 5.296875 13.59375 8.09375 13.59375 
Q 12.59375 13.59375 17.703125 7.90625 
Q 21.59375 3.59375 25.59375 3.59375 
Q 30.09375 3.59375 32.75 7 
Q 35.40625 10.40625 35.40625 15.796875 
Q 35.40625 23.296875 30.5 27.90625 
Q 27.90625 30.296875 24.90625 31.796875 
Q 21.90625 33.296875 15.203125 35.59375 
L 15.203125 37.296875 
Q 22.203125 39.5 25.25 42.703125 
Q 28.296875 45.90625 28.296875 50.40625 
Q 28.296875 60.703125 18.40625 60.703125 
Q 14.40625 60.703125 11.5 58.84375 
Q 8.59375 57 5.796875 52.40625 
z
" id="STIXGeneral-Bold-51"/>
     </defs>
     <g transform="translate(18.945938 215.717656)rotate(-90)scale(0.17 -0.17)">
      <use xlink:href="#STIXGeneral-Bold-79"/>
      <use x="77.799988" xlink:href="#STIXGeneral-Bold-85"/>
      <use x="149.999969" xlink:href="#STIXGeneral-Bold-82"/>
      <use x="222.199951" xlink:href="#STIXGeneral-Bold-32"/>
      <use x="247.199936" xlink:href="#STIXGeneral-Bold-91"/>
      <use x="280.499924" xlink:href="#STIXGeneral-Bold-103"/>
      <use x="330.499908" xlink:href="#STIXGeneral-Bold-32"/>
      <use x="355.499893" xlink:href="#STIXGeneral-Bold-79"/>
      <use x="433.299881" xlink:href="#STIXGeneral-Bold-50"/>
      <use x="483.299866" xlink:href="#STIXGeneral-Bold-47"/>
      <use x="511.099854" xlink:href="#STIXGeneral-Bold-109"/>
      <use x="594.399841" xlink:href="#STIXGeneral-Bold-51"/>
      <use x="644.399826" xlink:href="#STIXGeneral-Bold-32"/>
      <use x="669.399811" xlink:href="#STIXGeneral-Bold-104"/>
      <use x="724.999802" xlink:href="#STIXGeneral-Bold-93"/>
     </g>
    </g>
   </g>
   <g id="line2d_13">
    <path clip-path="url(#p0d11a3d869)" d="M 51.546875 192.811138 
L 55.564475 213.72615 
L 59.135675 200.27271 
L 62.409275 191.49735 
L 65.534075 175.742642 
L 68.361275 169.55895 
L 71.188475 142.17159 
L 76.694075 123.54375 
L 79.670075 101.09055 
L 83.241275 116.89095 
L 93.657275 11.55495 
L 98.865275 110.23815 
L 101.692475 173.183873 
L 104.668475 178.66695 
L 107.644475 193.39815 
L 110.322875 187.22055 
L 113.150075 190.51527 
L 116.126075 195.06135 
L 119.250875 197.55615 
L 122.673275 196.333209 
L 126.244475 203.37735 
L 130.113275 210.03015 
L 134.130875 209.69751 
L 138.594875 218.129211 
L 143.356475 219.45495 
L 148.415675 225.464646 
L 153.772475 231.17655 
L 158.385275 238.36615 
L 163.593275 237.97191 
L 169.098875 237.714382 
L 174.753275 245.71335 
L 180.705275 248.80647 
L 186.954875 251.025782 
L 193.353275 248.148896 
L 199.751675 251.46759 
L 206.298875 248.896508 
L 212.697275 246.171036 
L 218.946875 251.025782 
L 225.047675 245.250856 
L 231.148475 246.033538 
L 237.100475 238.30455 
L 242.606075 243.91785 
L 247.814075 238.935419 
L 252.575675 226.918027 
L 257.188475 227.32743 
L 261.503675 224.203507 
L 265.670075 228.831541 
L 269.687675 218.707715 
L 273.854075 218.79975 
L 277.871675 216.98535 
L 281.740475 227.096028 
L 286.204475 230.277802 
L 291.114875 225.382765 
L 295.281275 235.31079 
L 299.596475 232.117446 
L 303.762875 227.21655 
L 308.078075 232.383558 
L 311.202875 210.39975 
L 315.369275 230.54295 
L 319.684475 230.254662 
L 323.702075 233.03775 
L 327.719675 226.806776 
L 331.737275 215.77575 
L 335.903675 228.04815 
L 340.070075 228.924102 
L 344.236475 230.82015 
L 348.402875 232.117446 
L 353.164475 232.69895 
L 357.628475 223.33575 
L 361.794875 231.37455 
L 365.663675 225.15015 
L 369.532475 226.66215 
L 373.550075 231.37455 
L 377.418875 228.542289 
L 381.436475 230.26575 
L 385.751675 231.052998 
L 390.364475 228.965042 
L 395.274875 235.953129 
L 400.482875 243.08625 
L 405.839675 246.92295 
L 411.642875 246.52551 
L 417.743675 249.94695 
L 423.844475 250.845977 
L 430.094075 248.688312 
L 436.790075 255.405658 
L 443.932475 254.279006 
L 451.074875 255.39015 
L 458.068475 250.271477 
L 465.657275 255.87662 
L 473.543675 257.29275 
L 479.793275 252.16455 
" style="fill:none;stroke:#000000;stroke-linecap:square;stroke-width:1.4;"/>
   </g>
   <g id="line2d_14">
    <path clip-path="url(#p0d11a3d869)" d="M 51.546875 251.086895 
L 104.668475 178.66695 
" style="fill:none;stroke:#000000;stroke-dasharray:5.18,2.24;stroke-dashoffset:0;stroke-width:1.4;"/>
   </g>
   <g id="line2d_15">
    <path clip-path="url(#p0d11a3d869)" d="M 51.546875 276.320067 
L 186.954875 251.025782 
" style="fill:none;stroke:#000000;stroke-dasharray:5.18,2.24;stroke-dashoffset:0;stroke-width:1.4;"/>
   </g>
   <g id="patch_8">
    <path d="M 51.546875 289.86375 
L 51.546875 12.66375 
" style="fill:none;stroke:#000000;stroke-linecap:square;stroke-linejoin:miter;stroke-width:0.8;"/>
   </g>
   <g id="patch_9">
    <path d="M 497.946875 289.86375 
L 497.946875 12.66375 
" style="fill:none;stroke:#000000;stroke-linecap:square;stroke-linejoin:miter;stroke-width:0.8;"/>
   </g>
   <g id="patch_10">
    <path d="M 51.546875 289.86375 
L 497.946875 289.86375 
" style="fill:none;stroke:#000000;stroke-linecap:square;stroke-linejoin:miter;stroke-width:0.8;"/>
   </g>
   <g id="patch_11">
    <path d="M 51.546875 12.66375 
L 497.946875 12.66375 
" style="fill:none;stroke:#000000;stroke-linecap:square;stroke-linejoin:miter;stroke-width:0.8;"/>
   </g>
   <g id="patch_12">
    <path d="M 118.991014 114.316607 
L 93.70341 117.732237 
" style="fill:none;stroke:#000000;stroke-linecap:round;stroke-width:0.24;"/>
   </g>
   <g id="text_15">
    <!-- Oxygen uptake $\Delta$S$_{O1}$, -->
    <defs>
     <path d="M 68.796875 33.09375 
Q 68.796875 17.703125 59.6875 8.140625 
Q 50.59375 -1.40625 36.09375 -1.40625 
Q 21.5 -1.40625 12.453125 8.1875 
Q 3.40625 17.796875 3.40625 33.40625 
Q 3.40625 48.59375 12.453125 58.09375 
Q 21.5 67.59375 36.09375 67.59375 
Q 50.703125 67.59375 59.75 57.84375 
Q 68.796875 48.09375 68.796875 33.09375 
z
M 57.40625 33.703125 
Q 57.40625 42.203125 55 48.953125 
Q 52.59375 55.703125 48.296875 59.296875 
Q 42.703125 64 36 64 
Q 27.5 64 21.703125 57.296875 
Q 18.5 53.703125 16.640625 47.046875 
Q 14.796875 40.40625 14.796875 33.203125 
Q 14.796875 15 23.796875 6.703125 
Q 28.703125 2.203125 36.203125 2.203125 
Q 44 2.203125 49.09375 7 
Q 57.40625 15 57.40625 33.703125 
z
" id="STIXGeneral-Regular-79"/>
     <path d="M 47.90625 0 
L 27.796875 0 
L 27.796875 1.5 
Q 30.296875 1.703125 31.046875 2.140625 
Q 31.796875 2.59375 31.796875 3.90625 
Q 31.796875 4.796875 31.203125 5.703125 
L 22.09375 19.703125 
L 14.203125 7.40625 
Q 12.203125 4.296875 12.203125 3.296875 
Q 12.203125 1.5 16.203125 1.5 
L 16.203125 0 
L 1.703125 0 
L 1.703125 1.5 
Q 4.203125 1.703125 5.546875 2.640625 
Q 6.90625 3.59375 9 6.59375 
L 20.40625 23.09375 
L 11 37.5 
Q 8.703125 41 7.09375 42.25 
Q 5.5 43.5 3.296875 43.5 
L 2.40625 43.5 
L 2.40625 45 
L 23.09375 45 
L 23.09375 43.5 
Q 18.796875 43.40625 18.796875 41.296875 
Q 18.796875 39.203125 23.40625 32.40625 
Q 24.703125 30.59375 24.796875 30.40625 
Q 25.296875 31.09375 27.796875 34.796875 
Q 28.296875 35.703125 29 36.703125 
Q 29.703125 37.703125 30.046875 38.296875 
Q 30.40625 38.90625 30.796875 39.5 
Q 31.203125 40.09375 31.34375 40.546875 
Q 31.5 41 31.5 41.296875 
Q 31.5 43.203125 27.5 43.5 
L 27.5 45 
L 43.296875 45 
L 43.296875 43.5 
Q 38.203125 43.296875 35.203125 39.09375 
L 26.90625 27.09375 
L 39.703125 7.5 
Q 43.59375 1.5 47.90625 1.5 
z
" id="STIXGeneral-Regular-120"/>
     <path d="M 47.5 45 
L 47.5 43.5 
Q 45.703125 43.296875 44.59375 42.1875 
Q 43.5 41.09375 42.5 38.40625 
L 27.5 -2.5 
Q 23.59375 -13.09375 19.640625 -17.4375 
Q 15.703125 -21.796875 10 -21.796875 
Q 6.796875 -21.796875 4.890625 -20.140625 
Q 3 -18.5 3 -16 
Q 3 -14.09375 4.25 -12.75 
Q 5.5 -11.40625 7.296875 -11.40625 
Q 10.203125 -11.40625 12.5 -12.703125 
Q 13.796875 -13.40625 15.09375 -13.40625 
Q 17.203125 -13.40625 20.09375 -9 
Q 21.5 -7 22.796875 -3.296875 
Q 24.09375 0.40625 24.09375 1.796875 
Q 24.09375 3.09375 19.90625 11.90625 
L 6.703125 40.09375 
Q 5.40625 43 1.40625 43.59375 
L 1.40625 45 
L 21.90625 45 
L 21.90625 43.5 
Q 18.703125 43.40625 17.453125 42.796875 
Q 16.203125 42.203125 16.203125 40.796875 
Q 16.203125 39.703125 17.5 36.703125 
L 28.703125 11.703125 
L 38.40625 39.296875 
Q 38.796875 40.203125 38.796875 41.09375 
Q 38.796875 43.5 34.203125 43.5 
L 34.203125 45 
z
" id="STIXGeneral-Regular-121"/>
     <path d="M 47 38.796875 
L 38.703125 38.796875 
Q 40.59375 34.5 40.59375 30.40625 
Q 40.59375 22.703125 35.390625 18.796875 
Q 30.203125 14.90625 25 14.90625 
Q 23.90625 14.90625 21.203125 15.203125 
L 19.296875 15.40625 
Q 17.296875 14.796875 15.296875 12.6875 
Q 13.296875 10.59375 13.296875 9.09375 
Q 13.296875 6.796875 21.09375 6.40625 
L 34 5.796875 
Q 39.5 5.59375 42.796875 2.6875 
Q 46.09375 -0.203125 46.09375 -4.90625 
Q 46.09375 -10.703125 40.09375 -15.40625 
Q 31.796875 -21.796875 20.09375 -21.796875 
Q 12.90625 -21.796875 7.84375 -18.9375 
Q 2.796875 -16.09375 2.796875 -12.09375 
Q 2.796875 -9.296875 5 -6.546875 
Q 7.203125 -3.796875 12.59375 0.09375 
Q 9.40625 1.59375 8.34375 2.6875 
Q 7.296875 3.796875 7.296875 5.40625 
Q 7.296875 8.296875 11.90625 12.296875 
Q 14.203125 14.296875 16.203125 16.296875 
Q 11.203125 18.796875 9.046875 21.890625 
Q 6.90625 25 6.90625 29.703125 
Q 6.90625 36.5 11.75 41.25 
Q 16.59375 46 23.59375 46 
Q 27.59375 46 31.59375 44.5 
L 33.796875 43.703125 
Q 36.703125 42.703125 39.296875 42.703125 
L 47 42.703125 
z
M 15.203125 33.796875 
L 15.203125 33.5 
Q 15.203125 26.296875 18.046875 21.84375 
Q 20.90625 17.40625 25.5 17.40625 
Q 28.90625 17.40625 30.90625 19.84375 
Q 32.90625 22.296875 32.90625 26.40625 
Q 32.90625 33 29.90625 38.5 
Q 27.40625 43.203125 22.59375 43.203125 
Q 19.09375 43.203125 17.140625 40.703125 
Q 15.203125 38.203125 15.203125 33.796875 
z
M 43.296875 -6.40625 
Q 43.296875 -3.59375 40.546875 -2.546875 
Q 37.796875 -1.5 30.90625 -1.5 
Q 21 -1.5 14.703125 -0.203125 
Q 11.703125 -3.796875 10.75 -5.4375 
Q 9.796875 -7.09375 9.796875 -8.796875 
Q 9.796875 -12.09375 13.75 -14.09375 
Q 17.703125 -16.09375 24.296875 -16.09375 
Q 32.796875 -16.09375 38.046875 -13.4375 
Q 43.296875 -10.796875 43.296875 -6.40625 
z
" id="STIXGeneral-Regular-103"/>
     <path d="M 40.796875 16.40625 
L 42.40625 15.703125 
Q 36.40625 -1 21.5 -1 
Q 12.703125 -1 7.59375 5.140625 
Q 2.5 11.296875 2.5 21.703125 
Q 2.5 32.40625 8.203125 39.203125 
Q 13.90625 46 23.203125 46 
Q 32.203125 46 37.09375 39.09375 
Q 40 35.09375 40.5 27.703125 
L 9.703125 27.703125 
Q 10.09375 21.40625 10.9375 18.09375 
Q 11.796875 14.796875 14.296875 11.40625 
Q 18.5 5.90625 25.40625 5.90625 
Q 30.296875 5.90625 33.640625 8.296875 
Q 37 10.703125 40.796875 16.40625 
z
M 9.90625 30.90625 
L 30.296875 30.90625 
Q 29.40625 37.203125 27.34375 39.796875 
Q 25.296875 42.40625 20.5 42.40625 
Q 16.296875 42.40625 13.5 39.453125 
Q 10.703125 36.5 9.90625 30.90625 
z
" id="STIXGeneral-Regular-101"/>
     <path d="M 48.5 0 
L 27.703125 0 
L 27.796875 1.5 
Q 31.5 1.796875 32.75 3.640625 
Q 34 5.5 34 10.5 
L 34 30.40625 
Q 34 40.5 26.703125 40.5 
Q 24.203125 40.5 22 39.296875 
Q 19.796875 38.09375 16.40625 34.796875 
L 16.40625 7.203125 
Q 16.40625 4.203125 17.75 3 
Q 19.09375 1.796875 22.90625 1.5 
L 22.90625 0 
L 1.796875 0 
L 1.796875 1.5 
Q 5.59375 1.796875 6.796875 3.34375 
Q 8 4.90625 8 9.40625 
L 8 33.703125 
Q 8 37.40625 7.296875 38.796875 
Q 6.59375 40.203125 4.5 40.203125 
Q 2.5 40.203125 1.59375 39.796875 
L 1.59375 41.5 
Q 8.59375 43.5 15.296875 46 
L 16.09375 45.703125 
L 16.09375 37.90625 
L 16.203125 37.90625 
Q 23.296875 46 30.59375 46 
Q 36.296875 46 39.34375 42 
Q 42.40625 38 42.40625 30.59375 
L 42.40625 8.5 
Q 42.40625 4.5 43.59375 3.203125 
Q 44.796875 1.90625 48.5 1.5 
z
" id="STIXGeneral-Regular-110"/>
     <path id="STIXGeneral-Regular-32"/>
     <path d="M 48 5 
L 48 3.59375 
Q 40.203125 1.5 34.296875 -0.90625 
L 33.796875 -0.59375 
L 33.796875 7.59375 
L 33.59375 7.59375 
Q 27.296875 -1 19.296875 -1 
Q 13.59375 -1 10.34375 2.5 
Q 7.09375 6 7.09375 11.796875 
L 7.09375 36.90625 
Q 7.09375 40.59375 5.796875 42 
Q 4.5 43.40625 0.90625 43.59375 
L 0.90625 45 
L 15.5 45 
L 15.5 12.703125 
Q 15.5 9.296875 17.546875 7.046875 
Q 19.59375 4.796875 22.59375 4.796875 
Q 27.5 4.796875 31 7.90625 
Q 32.296875 9.09375 32.796875 10.140625 
Q 33.296875 11.203125 33.296875 13.703125 
L 33.296875 36.796875 
Q 33.296875 40.703125 31.890625 41.84375 
Q 30.5 43 25.90625 43.296875 
L 25.90625 45 
L 41.703125 45 
L 41.703125 10.703125 
Q 41.703125 7.203125 42.84375 6.09375 
Q 44 5 47.40625 5 
z
" id="STIXGeneral-Regular-117"/>
     <path d="M 15.90625 45.796875 
L 15.90625 38.09375 
Q 22.203125 46 30.296875 46 
Q 37.59375 46 42.296875 40 
Q 47 34 47 24.703125 
Q 47 13.796875 40.953125 6.390625 
Q 34.90625 -1 26 -1 
Q 22.90625 -1 20.75 -0.09375 
Q 18.59375 0.796875 15.90625 3.296875 
L 15.90625 -12.40625 
Q 15.90625 -17.09375 17.5 -18.4375 
Q 19.09375 -19.796875 24.703125 -19.90625 
L 24.703125 -21.703125 
L 0.5 -21.703125 
L 0.5 -20 
Q 4.90625 -19.59375 6.203125 -18.296875 
Q 7.5 -17 7.5 -13.09375 
L 7.5 33.703125 
Q 7.5 37.203125 6.703125 38.296875 
Q 5.90625 39.40625 3.40625 39.40625 
Q 1.796875 39.40625 0.90625 39.296875 
L 0.90625 40.90625 
Q 7.90625 43 15.296875 46 
z
M 15.90625 33.40625 
L 15.90625 8.796875 
Q 15.90625 6.59375 19.34375 4.390625 
Q 22.796875 2.203125 26.296875 2.203125 
Q 31.703125 2.203125 35.046875 7.296875 
Q 38.40625 12.40625 38.40625 20.703125 
Q 38.40625 29.5 35.046875 34.75 
Q 31.703125 40 26.09375 40 
Q 22.59375 40 19.25 37.796875 
Q 15.90625 35.59375 15.90625 33.40625 
z
" id="STIXGeneral-Regular-112"/>
     <path d="M 26.59375 7.703125 
L 27.90625 6.59375 
Q 23.09375 -1 15.796875 -1 
Q 7 -1 7 11.703125 
L 7 41.796875 
L 1.703125 41.796875 
Q 1.296875 42.09375 1.296875 42.5 
Q 1.296875 43.296875 3 44.40625 
Q 6.796875 46.59375 12.703125 55.09375 
Q 12.90625 55.40625 13.65625 56.34375 
Q 14.40625 57.296875 14.703125 57.90625 
Q 15.40625 57.90625 15.40625 56.59375 
L 15.40625 45 
L 25.5 45 
L 25.5 41.796875 
L 15.40625 41.796875 
L 15.40625 13.203125 
Q 15.40625 8.40625 16.59375 6.296875 
Q 17.796875 4.203125 20.59375 4.203125 
Q 23.59375 4.203125 26.59375 7.703125 
z
" id="STIXGeneral-Regular-116"/>
     <path d="M 44.203125 6.59375 
L 44.203125 3.796875 
Q 40.40625 -1 35.203125 -1 
Q 29.5 -1 28.796875 6.296875 
L 28.703125 6.296875 
Q 22.296875 -1 14.203125 -1 
Q 9.5 -1 6.59375 1.75 
Q 3.703125 4.5 3.703125 9.40625 
Q 3.703125 16.40625 10.703125 21.09375 
Q 15.5 24.296875 28.703125 29.203125 
L 28.703125 34.59375 
Q 28.703125 39.09375 26.546875 41.34375 
Q 24.40625 43.59375 20.90625 43.59375 
Q 17.90625 43.59375 15.90625 42.140625 
Q 13.90625 40.703125 13.90625 38.703125 
Q 13.90625 37.796875 14.203125 36.6875 
Q 14.5 35.59375 14.5 34.5 
Q 14.5 33 13.140625 31.703125 
Q 11.796875 30.40625 9.90625 30.40625 
Q 8.203125 30.40625 6.890625 31.703125 
Q 5.59375 33 5.59375 35 
Q 5.59375 39.796875 10.703125 43 
Q 15.40625 46 22.203125 46 
Q 30.296875 46 34 41.5 
Q 35.796875 39.40625 36.296875 37.25 
Q 36.796875 35.09375 36.796875 30.40625 
L 36.796875 11.296875 
Q 36.796875 4.703125 39.90625 4.703125 
Q 41.90625 4.703125 44.203125 6.59375 
z
M 28.703125 12.703125 
L 28.703125 26.796875 
Q 19.5 23.59375 15.90625 20.203125 
Q 12.5 17.09375 12.5 12.5 
Q 12.5 8.703125 14.390625 6.75 
Q 16.296875 4.796875 19.40625 4.796875 
Q 22.703125 4.796875 25.203125 6.40625 
Q 27.296875 7.90625 28 9.203125 
Q 28.703125 10.5 28.703125 12.703125 
z
" id="STIXGeneral-Regular-97"/>
     <path d="M 50.5 0 
L 28.703125 0 
L 28.703125 1.5 
L 30.59375 1.5 
Q 32.703125 1.5 32.703125 3 
Q 32.703125 3.90625 31.59375 5.296875 
L 16.59375 25.09375 
L 16.59375 6.703125 
Q 16.59375 4.09375 17.84375 2.890625 
Q 19.09375 1.703125 22.09375 1.59375 
L 24.09375 1.5 
L 24.09375 0 
L 0.703125 0 
L 0.703125 1.5 
Q 6.09375 2.40625 7.140625 3.34375 
Q 8.203125 4.296875 8.203125 8.203125 
L 8.203125 56.40625 
Q 8.203125 60 7.296875 61.25 
Q 6.40625 62.5 3.90625 62.5 
Q 3.296875 62.5 0.703125 62.296875 
L 0.703125 63.90625 
L 3.703125 64.703125 
Q 9.703125 66.296875 16.203125 68.296875 
L 16.59375 68.09375 
L 16.59375 26.09375 
L 30.296875 38.296875 
Q 32.59375 40.40625 32.59375 41.796875 
Q 32.59375 42.796875 31.546875 43.140625 
Q 30.5 43.5 27.59375 43.59375 
L 27.59375 45 
L 48 45 
L 48 43.5 
Q 43 43.5 39.140625 41.34375 
Q 35.296875 39.203125 26.40625 30.90625 
L 23.5 28.203125 
L 38.796875 8.796875 
Q 44.203125 1.90625 50.5 1.5 
z
" id="STIXGeneral-Regular-107"/>
     <path d="M 67.5 0 
L 4.796875 0 
L 34.703125 67.40625 
L 36.703125 67.40625 
z
M 52.40625 9.203125 
L 33.09375 53.203125 
L 13.59375 9.203125 
z
" id="STIXGeneral-Regular-916"/>
     <path d="M 46.90625 46.296875 
L 44.40625 46.296875 
Q 42.703125 52.5 40.296875 55.703125 
Q 34.203125 63.5 25.796875 63.5 
Q 21.203125 63.5 18.453125 60.84375 
Q 15.703125 58.203125 15.703125 54 
Q 15.703125 52 16.703125 50.09375 
Q 17.703125 48.203125 18.84375 46.84375 
Q 20 45.5 22.890625 43.5 
Q 25.796875 41.5 27.59375 40.453125 
Q 29.40625 39.40625 33.59375 36.90625 
Q 41.703125 32.203125 45.390625 27.546875 
Q 49.09375 22.90625 49.09375 17.296875 
Q 49.09375 9 43.296875 3.796875 
Q 37.5 -1.40625 28.703125 -1.40625 
Q 22.203125 -1.40625 16.90625 0.90625 
Q 14.296875 2 12.203125 2 
Q 11 2 10.203125 1.09375 
Q 9.40625 0.203125 9.40625 -1.296875 
L 7.203125 -1.296875 
L 4.296875 19.90625 
L 6.5 19.90625 
Q 13.203125 2.203125 27.09375 2.203125 
Q 32.40625 2.203125 35.703125 5.34375 
Q 39 8.5 39 13.40625 
Q 39 18.09375 36.09375 21.296875 
Q 31.296875 26.5 19.296875 32.90625 
Q 7.09375 39.40625 7.09375 50.09375 
Q 7.09375 58.09375 12 62.84375 
Q 16.90625 67.59375 24.5 67.59375 
Q 29.796875 67.59375 35 65.40625 
Q 37.703125 64.203125 39.40625 64.203125 
Q 42 64.203125 42.59375 67.59375 
L 44.703125 67.59375 
z
" id="STIXGeneral-Regular-83"/>
     <path d="M 69.90625 41.796875 
Q 69.90625 31.09375 64.15625 21.296875 
Q 58.40625 11.5 49.203125 5.296875 
Q 38.703125 -1.796875 27.796875 -1.796875 
Q 17.90625 -1.796875 11.953125 4.390625 
Q 6 10.59375 6 21.59375 
Q 6 30.703125 10.890625 40.34375 
Q 15.796875 50 23.703125 56.90625 
Q 34.90625 66.59375 47.40625 66.59375 
Q 58.09375 66.703125 64 60 
Q 69.90625 53.296875 69.90625 41.796875 
z
M 59.40625 48.09375 
Q 59.40625 55.203125 55.953125 59.25 
Q 52.5 63.296875 46.5 63.296875 
Q 36.59375 63.296875 27.90625 51.59375 
Q 22.59375 44.40625 19.546875 35.296875 
Q 16.5 26.203125 16.5 18.40625 
Q 16.5 10.203125 19.84375 5.84375 
Q 23.203125 1.5 29.5 1.5 
Q 38.703125 1.5 46.5 11 
Q 52.40625 18.40625 55.90625 29.09375 
Q 59.40625 39.796875 59.40625 48.09375 
z
" id="STIXGeneral-Italic-79"/>
     <path d="M 8.296875 -14.09375 
L 7.296875 -12.203125 
Q 15.59375 -6.59375 15.59375 -1.5 
Q 15.59375 -0.203125 14.203125 -0.203125 
Q 13.796875 -0.203125 12.84375 -0.390625 
Q 11.90625 -0.59375 11.296875 -0.59375 
Q 5.5 -0.59375 5.5 4.5 
Q 5.5 7.09375 7.140625 8.640625 
Q 8.796875 10.203125 11.5 10.203125 
Q 14.90625 10.203125 17.203125 7.75 
Q 19.5 5.296875 19.5 1.5 
Q 19.5 -3.09375 16.453125 -7.390625 
Q 13.40625 -11.703125 8.296875 -14.09375 
z
" id="STIXGeneral-Regular-44"/>
    </defs>
    <g transform="translate(122.970875 96.862313)scale(0.15 -0.15)">
     <use transform="translate(0 0.703125)" xlink:href="#STIXGeneral-Regular-79"/>
     <use transform="translate(72.199982 0.703125)" xlink:href="#STIXGeneral-Regular-120"/>
     <use transform="translate(122.199966 0.703125)" xlink:href="#STIXGeneral-Regular-121"/>
     <use transform="translate(172.199951 0.703125)" xlink:href="#STIXGeneral-Regular-103"/>
     <use transform="translate(222.199936 0.703125)" xlink:href="#STIXGeneral-Regular-101"/>
     <use transform="translate(266.59993 0.703125)" xlink:href="#STIXGeneral-Regular-110"/>
     <use transform="translate(316.599915 0.703125)" xlink:href="#STIXGeneral-Regular-32"/>
     <use transform="translate(341.599899 0.703125)" xlink:href="#STIXGeneral-Regular-117"/>
     <use transform="translate(391.599884 0.703125)" xlink:href="#STIXGeneral-Regular-112"/>
     <use transform="translate(441.599869 0.703125)" xlink:href="#STIXGeneral-Regular-116"/>
     <use transform="translate(469.399857 0.703125)" xlink:href="#STIXGeneral-Regular-97"/>
     <use transform="translate(513.79985 0.703125)" xlink:href="#STIXGeneral-Regular-107"/>
     <use transform="translate(563.799835 0.703125)" xlink:href="#STIXGeneral-Regular-101"/>
     <use transform="translate(608.199829 0.703125)" xlink:href="#STIXGeneral-Regular-32"/>
     <use transform="translate(633.199814 0.703125)" xlink:href="#STIXGeneral-Regular-916"/>
     <use transform="translate(705.399796 0.703125)" xlink:href="#STIXGeneral-Regular-83"/>
     <use transform="translate(762.543068 -12.525)scale(0.7)" xlink:href="#STIXGeneral-Italic-79"/>
     <use transform="translate(813.083055 -12.525)scale(0.7)" xlink:href="#STIXGeneral-Regular-49"/>
     <use transform="translate(852.492419 0.703125)" xlink:href="#STIXGeneral-Regular-44"/>
    </g>
    <!-- readily biodegradable substrate -->
    <defs>
     <path d="M 16 45.796875 
L 16 36.59375 
Q 19.796875 42 22.34375 44 
Q 24.90625 46 28 46 
Q 30.59375 46 32.046875 44.59375 
Q 33.5 43.203125 33.5 40.703125 
Q 33.5 38.59375 32.453125 37.390625 
Q 31.40625 36.203125 29.59375 36.203125 
Q 27.703125 36.203125 25.59375 38.203125 
Q 24 39.703125 23 39.703125 
Q 20.90625 39.703125 18.453125 36.796875 
Q 16 33.90625 16 31.5 
L 16 9 
Q 16 4.703125 17.703125 3.203125 
Q 19.40625 1.703125 24.5 1.5 
L 24.5 0 
L 0.5 0 
L 0.5 1.5 
Q 5.296875 2.40625 6.4375 3.5 
Q 7.59375 4.59375 7.59375 8.40625 
L 7.59375 33.40625 
Q 7.59375 36.703125 6.84375 38.046875 
Q 6.09375 39.40625 4.203125 39.40625 
Q 2.59375 39.40625 0.703125 39 
L 0.703125 40.59375 
Q 7 42.59375 15.5 46 
z
" id="STIXGeneral-Regular-114"/>
     <path d="M 49.09375 4.203125 
L 34.40625 -1 
L 34 -0.703125 
L 34 5.703125 
Q 29.203125 -1 21.203125 -1 
Q 12.90625 -1 7.796875 4.953125 
Q 2.703125 10.90625 2.703125 20.5 
Q 2.703125 31.09375 8.796875 38.546875 
Q 14.90625 46 23.5 46 
Q 28.90625 46 34 41.703125 
L 34 57.296875 
Q 34 60.40625 33.09375 61.40625 
Q 32.203125 62.40625 29.40625 62.40625 
Q 28 62.40625 27.203125 62.296875 
L 27.203125 63.90625 
Q 36.296875 66.296875 41.90625 68.296875 
L 42.40625 68.09375 
L 42.40625 11.40625 
Q 42.40625 7.90625 43.25 6.796875 
Q 44.09375 5.703125 46.796875 5.703125 
Q 47.40625 5.703125 49.09375 5.796875 
z
M 34 10.203125 
L 34 33.203125 
Q 34 37.203125 30.953125 40.203125 
Q 27.90625 43.203125 23.796875 43.203125 
Q 18.09375 43.203125 14.6875 38.09375 
Q 11.296875 33 11.296875 24.5 
Q 11.296875 15.296875 15.046875 9.75 
Q 18.796875 4.203125 25.09375 4.203125 
Q 29.796875 4.203125 32.5 7.40625 
Q 34 9.09375 34 10.203125 
z
" id="STIXGeneral-Regular-100"/>
     <path d="M 18 63.203125 
Q 18 61 16.5 59.546875 
Q 15 58.09375 12.796875 58.09375 
Q 10.703125 58.09375 9.25 59.546875 
Q 7.796875 61 7.796875 63.203125 
Q 7.796875 65.296875 9.296875 66.796875 
Q 10.796875 68.296875 12.90625 68.296875 
Q 15.09375 68.296875 16.546875 66.796875 
Q 18 65.296875 18 63.203125 
z
M 25.296875 0 
L 1.59375 0 
L 1.59375 1.5 
Q 6.796875 1.796875 8.140625 3.296875 
Q 9.5 4.796875 9.5 10.40625 
L 9.5 33.09375 
Q 9.5 36.59375 8.796875 38 
Q 8.09375 39.40625 6.203125 39.40625 
Q 3.796875 39.40625 2 38.90625 
L 2 40.5 
L 17.5 46 
L 17.90625 45.59375 
L 17.90625 10.5 
Q 17.90625 4.90625 19.15625 3.40625 
Q 20.40625 1.90625 25.296875 1.5 
z
" id="STIXGeneral-Regular-105"/>
     <path d="M 25.703125 0 
L 2.09375 0 
L 2.09375 1.5 
Q 6.796875 1.90625 8.296875 3.453125 
Q 9.796875 5 9.796875 9.203125 
L 9.796875 56.09375 
Q 9.796875 59.703125 8.890625 61.09375 
Q 8 62.5 5.59375 62.5 
Q 3.5 62.5 1.90625 62.296875 
L 1.90625 63.90625 
Q 11.40625 66.203125 17.703125 68.296875 
L 18.203125 67.90625 
L 18.203125 8.703125 
Q 18.203125 4.5 19.59375 3.140625 
Q 21 1.796875 25.703125 1.5 
z
" id="STIXGeneral-Regular-108"/>
     <path d="M 15.296875 68.09375 
L 15.296875 37.59375 
Q 16.90625 41.40625 20.546875 43.703125 
Q 24.203125 46 28.796875 46 
Q 36.703125 46 41.75 39.703125 
Q 46.796875 33.40625 46.796875 24 
Q 46.796875 13 40.09375 6 
Q 33.40625 -1 23.40625 -1 
Q 17.296875 -1 12.09375 1.046875 
Q 6.90625 3.09375 6.90625 5.59375 
L 6.90625 56.59375 
Q 6.90625 60.296875 6 61.34375 
Q 5.09375 62.40625 2 62.40625 
Q 1.296875 62.40625 0.296875 62.203125 
L 0.296875 63.90625 
L 3.296875 64.796875 
Q 13.5 67.90625 14.796875 68.296875 
z
M 15.296875 31.796875 
L 15.296875 7.40625 
Q 15.296875 5.09375 18.140625 3.640625 
Q 21 2.203125 25 2.203125 
Q 30.90625 2.203125 34.296875 6.5 
Q 38 11.09375 38 19.703125 
Q 38 29.5 34.09375 35 
Q 30.796875 39.703125 25.203125 39.703125 
Q 21.203125 39.703125 18.25 37.34375 
Q 15.296875 35 15.296875 31.796875 
z
" id="STIXGeneral-Regular-98"/>
     <path d="M 47 23.09375 
Q 47 12.59375 40.75 5.796875 
Q 34.5 -1 24.5 -1 
Q 15.296875 -1 9.09375 5.75 
Q 2.90625 12.5 2.90625 22.796875 
Q 2.90625 33.203125 9.09375 39.59375 
Q 15.296875 46 25.40625 46 
Q 34.703125 46 40.84375 39.640625 
Q 47 33.296875 47 23.09375 
z
M 38 20.40625 
Q 38 31.796875 33 38.203125 
Q 29 43.203125 23.5 43.203125 
Q 18.296875 43.203125 15.09375 38.953125 
Q 11.90625 34.703125 11.90625 27.296875 
Q 11.90625 14.5 17.203125 6.796875 
Q 20.59375 1.796875 26.203125 1.796875 
Q 31.703125 1.796875 34.84375 6.75 
Q 38 11.703125 38 20.40625 
z
" id="STIXGeneral-Regular-111"/>
     <path d="M 15.59375 30.09375 
L 26 23.796875 
Q 31 20.796875 32.890625 18.1875 
Q 34.796875 15.59375 34.796875 11.5 
Q 34.796875 6.5 30.640625 2.75 
Q 26.5 -1 20.796875 -1 
Q 16.09375 -1 13.5 -0.09375 
Q 10.796875 0.796875 8.90625 0.796875 
Q 7.203125 0.796875 6.5 -0.40625 
L 5.203125 -0.40625 
L 5.203125 15.296875 
L 6.796875 15.296875 
Q 8.40625 8 11.40625 4.59375 
Q 14.40625 1.203125 19.5 1.203125 
Q 23.203125 1.203125 25.5 3.296875 
Q 27.796875 5.40625 27.796875 8.59375 
Q 27.796875 13.203125 22.5 16.09375 
L 17.09375 19.09375 
Q 5.09375 25.796875 5.09375 33.59375 
Q 5.09375 39.40625 8.84375 42.65625 
Q 12.59375 45.90625 18.90625 45.90625 
Q 23.296875 45.90625 25.59375 44.796875 
Q 27.40625 44 28.40625 44 
Q 29.09375 44 30 45 
L 31.09375 45 
L 31.59375 31.40625 
L 30.09375 31.40625 
Q 28.40625 38.203125 25.84375 40.953125 
Q 23.296875 43.703125 18.796875 43.703125 
Q 15.40625 43.703125 13.34375 42 
Q 11.296875 40.296875 11.296875 36.90625 
Q 11.296875 35.203125 12.4375 33.25 
Q 13.59375 31.296875 15.59375 30.09375 
z
" id="STIXGeneral-Regular-115"/>
    </defs>
    <g transform="translate(122.970875 112.45575)scale(0.15 -0.15)">
     <use xlink:href="#STIXGeneral-Regular-114"/>
     <use x="33.299988" xlink:href="#STIXGeneral-Regular-101"/>
     <use x="77.699982" xlink:href="#STIXGeneral-Regular-97"/>
     <use x="122.099976" xlink:href="#STIXGeneral-Regular-100"/>
     <use x="172.09996" xlink:href="#STIXGeneral-Regular-105"/>
     <use x="199.899948" xlink:href="#STIXGeneral-Regular-108"/>
     <use x="227.699936" xlink:href="#STIXGeneral-Regular-121"/>
     <use x="277.699921" xlink:href="#STIXGeneral-Regular-32"/>
     <use x="302.699905" xlink:href="#STIXGeneral-Regular-98"/>
     <use x="352.69989" xlink:href="#STIXGeneral-Regular-105"/>
     <use x="380.499878" xlink:href="#STIXGeneral-Regular-111"/>
     <use x="430.499863" xlink:href="#STIXGeneral-Regular-100"/>
     <use x="480.499847" xlink:href="#STIXGeneral-Regular-101"/>
     <use x="524.899841" xlink:href="#STIXGeneral-Regular-103"/>
     <use x="574.899826" xlink:href="#STIXGeneral-Regular-114"/>
     <use x="608.199814" xlink:href="#STIXGeneral-Regular-97"/>
     <use x="652.599808" xlink:href="#STIXGeneral-Regular-100"/>
     <use x="702.599792" xlink:href="#STIXGeneral-Regular-97"/>
     <use x="746.999786" xlink:href="#STIXGeneral-Regular-98"/>
     <use x="796.999771" xlink:href="#STIXGeneral-Regular-108"/>
     <use x="824.799759" xlink:href="#STIXGeneral-Regular-101"/>
     <use x="869.199753" xlink:href="#STIXGeneral-Regular-32"/>
     <use x="894.199738" xlink:href="#STIXGeneral-Regular-115"/>
     <use x="933.099731" xlink:href="#STIXGeneral-Regular-117"/>
     <use x="983.099716" xlink:href="#STIXGeneral-Regular-98"/>
     <use x="1033.099701" xlink:href="#STIXGeneral-Regular-115"/>
     <use x="1071.999695" xlink:href="#STIXGeneral-Regular-116"/>
     <use x="1099.799683" xlink:href="#STIXGeneral-Regular-114"/>
     <use x="1133.09967" xlink:href="#STIXGeneral-Regular-97"/>
     <use x="1177.499664" xlink:href="#STIXGeneral-Regular-116"/>
     <use x="1205.299652" xlink:href="#STIXGeneral-Regular-101"/>
    </g>
   </g>
   <g id="patch_13">
    <path d="M 183.078049 180.781931 
L 93.476488 230.131518 
" style="fill:none;stroke:#000000;stroke-linecap:round;stroke-width:0.24;"/>
   </g>
   <g id="text_16">
    <!-- Oxygen uptake $\Delta$S$_{O2}$, -->
    <g transform="translate(134.577275 158.955113)scale(0.15 -0.15)">
     <use transform="translate(0 0.703125)" xlink:href="#STIXGeneral-Regular-79"/>
     <use transform="translate(72.199982 0.703125)" xlink:href="#STIXGeneral-Regular-120"/>
     <use transform="translate(122.199966 0.703125)" xlink:href="#STIXGeneral-Regular-121"/>
     <use transform="translate(172.199951 0.703125)" xlink:href="#STIXGeneral-Regular-103"/>
     <use transform="translate(222.199936 0.703125)" xlink:href="#STIXGeneral-Regular-101"/>
     <use transform="translate(266.59993 0.703125)" xlink:href="#STIXGeneral-Regular-110"/>
     <use transform="translate(316.599915 0.703125)" xlink:href="#STIXGeneral-Regular-32"/>
     <use transform="translate(341.599899 0.703125)" xlink:href="#STIXGeneral-Regular-117"/>
     <use transform="translate(391.599884 0.703125)" xlink:href="#STIXGeneral-Regular-112"/>
     <use transform="translate(441.599869 0.703125)" xlink:href="#STIXGeneral-Regular-116"/>
     <use transform="translate(469.399857 0.703125)" xlink:href="#STIXGeneral-Regular-97"/>
     <use transform="translate(513.79985 0.703125)" xlink:href="#STIXGeneral-Regular-107"/>
     <use transform="translate(563.799835 0.703125)" xlink:href="#STIXGeneral-Regular-101"/>
     <use transform="translate(608.199829 0.703125)" xlink:href="#STIXGeneral-Regular-32"/>
     <use transform="translate(633.199814 0.703125)" xlink:href="#STIXGeneral-Regular-916"/>
     <use transform="translate(705.399796 0.703125)" xlink:href="#STIXGeneral-Regular-83"/>
     <use transform="translate(762.543068 -12.525)scale(0.7)" xlink:href="#STIXGeneral-Italic-79"/>
     <use transform="translate(813.083055 -12.525)scale(0.7)" xlink:href="#STIXGeneral-Regular-50"/>
     <use transform="translate(852.492419 0.703125)" xlink:href="#STIXGeneral-Regular-44"/>
    </g>
    <!-- fast hydrolyzable substrate -->
    <defs>
     <path d="M 2.09375 45 
L 10.296875 45 
Q 10.40625 51 11.09375 54.34375 
Q 11.796875 57.703125 13.796875 61.09375 
Q 18 68.296875 27.90625 68.296875 
Q 32.40625 68.296875 35.34375 66.546875 
Q 38.296875 64.796875 38.296875 62.09375 
Q 38.296875 60.40625 37.09375 59.203125 
Q 35.90625 58 34.09375 58 
Q 31.703125 58 29.59375 61.59375 
Q 27.203125 65.5 24.296875 65.5 
Q 18.703125 65.5 18.703125 56.59375 
L 18.703125 45 
L 30.90625 45 
L 30.90625 41.796875 
L 18.703125 41.796875 
L 18.703125 10.40625 
Q 18.703125 4.796875 20.296875 3.25 
Q 21.90625 1.703125 28 1.5 
L 28 0 
L 2 0 
L 2 1.5 
Q 7.40625 1.796875 8.84375 3.34375 
Q 10.296875 4.90625 10.296875 10.40625 
L 10.296875 41.796875 
L 2.09375 41.796875 
z
" id="STIXGeneral-Regular-102"/>
     <path d="M 48.703125 0 
L 27.5 0 
L 27.5 1.5 
Q 31.90625 2 33.09375 3.5 
Q 34.296875 5 34.296875 10.203125 
L 34.296875 30 
Q 34.296875 40.59375 26.90625 40.59375 
Q 23.90625 40.59375 21.40625 39.1875 
Q 18.90625 37.796875 15.703125 34.296875 
L 15.703125 10.203125 
Q 15.703125 5 16.890625 3.5 
Q 18.09375 2 22.5 1.5 
L 22.5 0 
L 0.90625 0 
L 0.90625 1.5 
Q 5.203125 2.09375 6.25 3.5 
Q 7.296875 4.90625 7.296875 10.203125 
L 7.296875 57.296875 
Q 7.296875 60.5 6.34375 61.453125 
Q 5.40625 62.40625 2.203125 62.40625 
Q 1.296875 62.40625 1 62.296875 
L 1 63.90625 
L 3.703125 64.703125 
Q 11.40625 67 15.203125 68.296875 
L 15.703125 68 
L 15.703125 37.59375 
Q 19.203125 42.09375 22.59375 44.046875 
Q 26 46 30.40625 46 
Q 42.703125 46 42.703125 30.09375 
L 42.703125 10.203125 
Q 42.703125 5 43.640625 3.640625 
Q 44.59375 2.296875 48.703125 1.5 
z
" id="STIXGeneral-Regular-104"/>
     <path d="M 41.796875 13.59375 
L 40.296875 0 
L 2.703125 0 
L 2.703125 1.5 
L 29.296875 42 
L 15.796875 42 
Q 11.09375 42 9.4375 40.34375 
Q 7.796875 38.703125 7.09375 33.203125 
L 5.296875 33.203125 
L 5.703125 45 
L 40.296875 45 
L 40.296875 43.5 
L 13.40625 3 
L 26.703125 3 
Q 35.09375 3 37.296875 5.703125 
Q 38.703125 7.40625 40 14 
z
" id="STIXGeneral-Regular-122"/>
    </defs>
    <g transform="translate(134.577275 174.54855)scale(0.15 -0.15)">
     <use xlink:href="#STIXGeneral-Regular-102"/>
     <use x="33.299988" xlink:href="#STIXGeneral-Regular-97"/>
     <use x="77.699982" xlink:href="#STIXGeneral-Regular-115"/>
     <use x="116.599976" xlink:href="#STIXGeneral-Regular-116"/>
     <use x="144.399963" xlink:href="#STIXGeneral-Regular-32"/>
     <use x="169.399948" xlink:href="#STIXGeneral-Regular-104"/>
     <use x="219.399933" xlink:href="#STIXGeneral-Regular-121"/>
     <use x="269.399918" xlink:href="#STIXGeneral-Regular-100"/>
     <use x="319.399902" xlink:href="#STIXGeneral-Regular-114"/>
     <use x="352.69989" xlink:href="#STIXGeneral-Regular-111"/>
     <use x="402.699875" xlink:href="#STIXGeneral-Regular-108"/>
     <use x="430.499863" xlink:href="#STIXGeneral-Regular-121"/>
     <use x="480.499847" xlink:href="#STIXGeneral-Regular-122"/>
     <use x="524.899841" xlink:href="#STIXGeneral-Regular-97"/>
     <use x="569.299835" xlink:href="#STIXGeneral-Regular-98"/>
     <use x="619.29982" xlink:href="#STIXGeneral-Regular-108"/>
     <use x="647.099808" xlink:href="#STIXGeneral-Regular-101"/>
     <use x="691.499802" xlink:href="#STIXGeneral-Regular-32"/>
     <use x="716.499786" xlink:href="#STIXGeneral-Regular-115"/>
     <use x="755.39978" xlink:href="#STIXGeneral-Regular-117"/>
     <use x="805.399765" xlink:href="#STIXGeneral-Regular-98"/>
     <use x="855.39975" xlink:href="#STIXGeneral-Regular-115"/>
     <use x="894.299744" xlink:href="#STIXGeneral-Regular-116"/>
     <use x="922.099731" xlink:href="#STIXGeneral-Regular-114"/>
     <use x="955.399719" xlink:href="#STIXGeneral-Regular-97"/>
     <use x="999.799713" xlink:href="#STIXGeneral-Regular-116"/>
     <use x="1027.599701" xlink:href="#STIXGeneral-Regular-101"/>
    </g>
   </g>
   <g id="patch_14">
    <path d="M 373.933578 176.505785 
L 267.471874 248.824086 
" style="fill:none;stroke:#000000;stroke-linecap:round;stroke-width:0.24;"/>
   </g>
   <g id="text_17">
    <!-- Oxygen uptake $\Delta$S$_{O3}$, -->
    <g transform="translate(310.458875 154.519913)scale(0.15 -0.15)">
     <use transform="translate(0 0.703125)" xlink:href="#STIXGeneral-Regular-79"/>
     <use transform="translate(72.199982 0.703125)" xlink:href="#STIXGeneral-Regular-120"/>
     <use transform="translate(122.199966 0.703125)" xlink:href="#STIXGeneral-Regular-121"/>
     <use transform="translate(172.199951 0.703125)" xlink:href="#STIXGeneral-Regular-103"/>
     <use transform="translate(222.199936 0.703125)" xlink:href="#STIXGeneral-Regular-101"/>
     <use transform="translate(266.59993 0.703125)" xlink:href="#STIXGeneral-Regular-110"/>
     <use transform="translate(316.599915 0.703125)" xlink:href="#STIXGeneral-Regular-32"/>
     <use transform="translate(341.599899 0.703125)" xlink:href="#STIXGeneral-Regular-117"/>
     <use transform="translate(391.599884 0.703125)" xlink:href="#STIXGeneral-Regular-112"/>
     <use transform="translate(441.599869 0.703125)" xlink:href="#STIXGeneral-Regular-116"/>
     <use transform="translate(469.399857 0.703125)" xlink:href="#STIXGeneral-Regular-97"/>
     <use transform="translate(513.79985 0.703125)" xlink:href="#STIXGeneral-Regular-107"/>
     <use transform="translate(563.799835 0.703125)" xlink:href="#STIXGeneral-Regular-101"/>
     <use transform="translate(608.199829 0.703125)" xlink:href="#STIXGeneral-Regular-32"/>
     <use transform="translate(633.199814 0.703125)" xlink:href="#STIXGeneral-Regular-916"/>
     <use transform="translate(705.399796 0.703125)" xlink:href="#STIXGeneral-Regular-83"/>
     <use transform="translate(762.543068 -12.525)scale(0.7)" xlink:href="#STIXGeneral-Italic-79"/>
     <use transform="translate(813.083055 -12.525)scale(0.7)" xlink:href="#STIXGeneral-Regular-51"/>
     <use transform="translate(852.492419 0.703125)" xlink:href="#STIXGeneral-Regular-44"/>
    </g>
    <!-- slowly hydrolyzable substrate -->
    <defs>
     <path d="M 69.40625 45 
L 69.40625 43.5 
Q 67.90625 43 67.203125 42.046875 
Q 66.5 41.09375 65.296875 38.09375 
L 51.5 3.5 
Q 49.5 -1.40625 48.703125 -1.40625 
Q 48.203125 -1.40625 47.84375 -0.75 
Q 47.5 -0.09375 46.296875 2.90625 
L 37.203125 26.5 
L 26 2.5 
Q 24.203125 -1.40625 23.5 -1.40625 
Q 22.59375 -1.40625 20.90625 3 
L 7.40625 37.203125 
Q 5.90625 41.09375 4.90625 42.1875 
Q 3.90625 43.296875 2.09375 43.5 
L 2.09375 45 
L 20.09375 45 
L 20.09375 43.5 
Q 17.5 43.203125 16.5 42.5 
Q 15.5 41.796875 15.5 40.203125 
Q 15.5 38.703125 16.09375 37.203125 
L 26 11.09375 
L 35.09375 31 
L 33.09375 36.59375 
Q 31.703125 40.59375 30.34375 41.890625 
Q 29 43.203125 26.203125 43.5 
L 26.203125 45 
L 46.5 45 
L 46.5 43.5 
Q 43 43 41.84375 42.296875 
Q 40.703125 41.59375 40.703125 40 
Q 40.703125 38.40625 42.40625 34 
L 50.796875 11.59375 
L 59.796875 33.796875 
Q 61.5 38 61.5 40.5 
Q 61.5 41.703125 60.546875 42.34375 
Q 59.59375 43 57.09375 43.5 
L 57.09375 45 
z
" id="STIXGeneral-Regular-119"/>
    </defs>
    <g transform="translate(310.458875 170.11335)scale(0.15 -0.15)">
     <use xlink:href="#STIXGeneral-Regular-115"/>
     <use x="38.899994" xlink:href="#STIXGeneral-Regular-108"/>
     <use x="66.699982" xlink:href="#STIXGeneral-Regular-111"/>
     <use x="116.699966" xlink:href="#STIXGeneral-Regular-119"/>
     <use x="188.899948" xlink:href="#STIXGeneral-Regular-108"/>
     <use x="216.699936" xlink:href="#STIXGeneral-Regular-121"/>
     <use x="266.699921" xlink:href="#STIXGeneral-Regular-32"/>
     <use x="291.699905" xlink:href="#STIXGeneral-Regular-104"/>
     <use x="341.69989" xlink:href="#STIXGeneral-Regular-121"/>
     <use x="391.699875" xlink:href="#STIXGeneral-Regular-100"/>
     <use x="441.69986" xlink:href="#STIXGeneral-Regular-114"/>
     <use x="474.999847" xlink:href="#STIXGeneral-Regular-111"/>
     <use x="524.999832" xlink:href="#STIXGeneral-Regular-108"/>
     <use x="552.79982" xlink:href="#STIXGeneral-Regular-121"/>
     <use x="602.799805" xlink:href="#STIXGeneral-Regular-122"/>
     <use x="647.199799" xlink:href="#STIXGeneral-Regular-97"/>
     <use x="691.599792" xlink:href="#STIXGeneral-Regular-98"/>
     <use x="741.599777" xlink:href="#STIXGeneral-Regular-108"/>
     <use x="769.399765" xlink:href="#STIXGeneral-Regular-101"/>
     <use x="813.799759" xlink:href="#STIXGeneral-Regular-32"/>
     <use x="838.799744" xlink:href="#STIXGeneral-Regular-115"/>
     <use x="877.699738" xlink:href="#STIXGeneral-Regular-117"/>
     <use x="927.699722" xlink:href="#STIXGeneral-Regular-98"/>
     <use x="977.699707" xlink:href="#STIXGeneral-Regular-115"/>
     <use x="1016.599701" xlink:href="#STIXGeneral-Regular-116"/>
     <use x="1044.399689" xlink:href="#STIXGeneral-Regular-114"/>
     <use x="1077.699677" xlink:href="#STIXGeneral-Regular-97"/>
     <use x="1122.09967" xlink:href="#STIXGeneral-Regular-116"/>
     <use x="1149.899658" xlink:href="#STIXGeneral-Regular-101"/>
    </g>
   </g>
   <g id="text_18">
    <!-- S$_s$ = 108.96 [gCOD/m$^3$] -->
    <defs>
     <path d="M 36.59375 44.203125 
L 34.59375 30.203125 
L 33 30.203125 
Q 31.59375 41.796875 24.09375 41.796875 
Q 21.40625 41.796875 19.796875 40.296875 
Q 18.203125 38.796875 18.203125 36.09375 
Q 18.203125 32.296875 23.59375 25.90625 
Q 30.40625 18 30.40625 12.296875 
Q 30.40625 6.203125 26.34375 2.546875 
Q 22.296875 -1.09375 16 -1.09375 
Q 13.09375 -1.09375 10.5 -0.09375 
Q 8.40625 0.796875 6.09375 0.796875 
Q 4.09375 0.796875 3.203125 -1.296875 
L 1.59375 -1.296875 
L 3.59375 14.59375 
L 5.203125 14.59375 
Q 7.203125 1 15.203125 1 
Q 18.796875 1 20.796875 3 
Q 22.796875 5 22.796875 8.703125 
Q 22.796875 13.203125 17.203125 20.203125 
Q 10.90625 28.09375 10.90625 33.296875 
Q 10.90625 38.296875 14.203125 41.1875 
Q 17.5 44.09375 23 44.09375 
Q 25 44.09375 28.59375 43.09375 
Q 30.796875 42.40625 32.203125 42.40625 
Q 34.203125 42.40625 35.203125 44.203125 
z
" id="STIXGeneral-Italic-115"/>
     <path d="M 63.703125 32 
L 4.796875 32 
L 4.796875 38.59375 
L 63.703125 38.59375 
z
M 63.703125 12 
L 4.796875 12 
L 4.796875 18.59375 
L 63.703125 18.59375 
z
" id="STIXGeneral-Regular-61"/>
     <path d="M 44.5 15.5 
Q 44.5 7.796875 39.140625 3.1875 
Q 33.796875 -1.40625 24.796875 -1.40625 
Q 16.40625 -1.40625 11 3.1875 
Q 5.59375 7.796875 5.59375 14.90625 
Q 5.59375 20.203125 8.1875 23.953125 
Q 10.796875 27.703125 18.59375 33.203125 
Q 11.09375 39.40625 8.640625 43.203125 
Q 6.203125 47 6.203125 52 
Q 6.203125 59.09375 11.640625 63.34375 
Q 17.09375 67.59375 25.59375 67.59375 
Q 32.90625 67.59375 37.65625 63.4375 
Q 42.40625 59.296875 42.40625 53.296875 
Q 42.40625 47.796875 39.546875 44.5 
Q 36.703125 41.203125 29 37.09375 
Q 38 31.09375 41.25 26.390625 
Q 44.5 21.703125 44.5 15.5 
z
M 35.5 53.296875 
Q 35.5 58.5 32.59375 61.640625 
Q 29.703125 64.796875 24.59375 64.796875 
Q 19.5 64.796875 16.546875 62.140625 
Q 13.59375 59.5 13.59375 54.890625 
Q 13.59375 50.296875 16.546875 46.546875 
Q 19.5 42.796875 26.09375 38.90625 
Q 31.203125 41.90625 33.34375 45.25 
Q 35.5 48.59375 35.5 53.296875 
z
M 27.09375 27.203125 
L 21.203125 31.203125 
Q 16.796875 27.59375 15 24.140625 
Q 13.203125 20.703125 13.203125 15.796875 
Q 13.203125 9 16.640625 5.203125 
Q 20.09375 1.40625 25.90625 1.40625 
Q 30.796875 1.40625 33.84375 4.453125 
Q 36.90625 7.5 36.90625 12.40625 
Q 36.90625 16.90625 34.59375 20.296875 
Q 32.296875 23.703125 27.09375 27.203125 
z
" id="STIXGeneral-Regular-56"/>
     <path d="M 18.09375 4.296875 
Q 18.09375 2.09375 16.4375 0.5 
Q 14.796875 -1.09375 12.5 -1.09375 
Q 10.203125 -1.09375 8.59375 0.5 
Q 7 2.09375 7 4.390625 
Q 7 6.703125 8.640625 8.34375 
Q 10.296875 10 12.59375 10 
Q 14.796875 10 16.4375 8.296875 
Q 18.09375 6.59375 18.09375 4.296875 
z
" id="STIXGeneral-Regular-46"/>
     <path d="M 5.90625 -2.203125 
L 5.59375 -0.203125 
Q 17.09375 1.796875 25.046875 9.5 
Q 33 17.203125 36 29.40625 
Q 30.203125 23.703125 21 23.703125 
Q 12.90625 23.703125 7.953125 29.296875 
Q 3 34.90625 3 44 
Q 3 54.09375 8.953125 60.84375 
Q 14.90625 67.59375 23.796875 67.59375 
Q 33.296875 67.59375 39.5 60 
Q 45.90625 52 45.90625 39.40625 
Q 45.90625 30.59375 42.84375 22.84375 
Q 39.796875 15.09375 33.90625 9.703125 
Q 27.703125 4.09375 21.796875 1.640625 
Q 15.90625 -0.796875 5.90625 -2.203125 
z
M 36.203125 35.5 
L 36.203125 39.40625 
Q 36.203125 64.796875 23 64.796875 
Q 18.296875 64.796875 15.703125 61.40625 
Q 14.203125 59.40625 13.203125 55.40625 
Q 12.203125 51.40625 12.203125 47.40625 
Q 12.203125 38.5 15.546875 33.25 
Q 18.90625 28 24.5 28 
Q 28.5 28 32.34375 29.953125 
Q 36.203125 31.90625 36.203125 35.5 
z
" id="STIXGeneral-Regular-57"/>
     <path d="M 44.59375 68.40625 
L 44.796875 66.796875 
Q 33 64.90625 25.09375 57.25 
Q 17.203125 49.59375 15.203125 38.296875 
Q 21 42.796875 27.90625 42.796875 
Q 36.703125 42.796875 41.75 37.1875 
Q 46.796875 31.59375 46.796875 21.90625 
Q 46.796875 12.09375 41.703125 5.90625 
Q 35.796875 -1.40625 25.796875 -1.40625 
Q 13.59375 -1.40625 8.09375 8.703125 
Q 3.40625 17.296875 3.40625 27.90625 
Q 3.40625 44.296875 14.296875 55.5 
Q 20.5 61.90625 27.046875 64.546875 
Q 33.59375 67.203125 44.59375 68.40625 
z
M 37.796875 18.796875 
Q 37.796875 38.203125 24.296875 38.203125 
Q 19.296875 38.203125 16 35.546875 
Q 12.703125 32.90625 12.703125 26.59375 
Q 12.703125 14.90625 16.34375 8.15625 
Q 20 1.40625 26.90625 1.40625 
Q 32.203125 1.40625 35 6.15625 
Q 37.796875 10.90625 37.796875 18.796875 
z
" id="STIXGeneral-Regular-54"/>
     <path d="M 29.90625 -15.59375 
L 8.796875 -15.59375 
L 8.796875 66.203125 
L 29.90625 66.203125 
L 29.90625 63.703125 
L 21.59375 63.703125 
Q 19 63.703125 17.703125 62.59375 
Q 16.40625 61.5 16.40625 58.90625 
L 16.40625 -7.703125 
Q 16.40625 -13.09375 21.59375 -13.09375 
L 29.90625 -13.09375 
z
" id="STIXGeneral-Regular-91"/>
     <path d="M 61.40625 13.09375 
L 63.296875 11.296875 
Q 54.40625 -1.40625 36 -1.40625 
Q 21.5 -1.40625 12.40625 7.5 
Q 2.796875 16.90625 2.796875 32.5 
Q 2.796875 47.09375 11.796875 57.203125 
Q 21.203125 67.59375 36.09375 67.59375 
Q 42.5 67.59375 48 66.09375 
Q 54.296875 64.296875 54.90625 64.296875 
Q 58.203125 64.296875 59.09375 67.59375 
L 61.09375 67.59375 
L 62 44.90625 
L 59.703125 44.90625 
Q 58.09375 52.09375 54.5 56 
Q 47.40625 63.59375 38.40625 63.59375 
Q 27.296875 63.59375 20.84375 55.4375 
Q 14.40625 47.296875 14.40625 34.09375 
Q 14.40625 18 21.59375 10.203125 
Q 28.296875 3 39.40625 3 
Q 46 3 50.796875 5.296875 
Q 55.59375 7.59375 61.40625 13.09375 
z
" id="STIXGeneral-Regular-67"/>
     <path d="M 1.59375 66.203125 
L 28.59375 66.203125 
Q 48.09375 66.203125 58.59375 57.09375 
Q 68.5 48.59375 68.5 33.40625 
Q 68.5 15.09375 54.90625 6.40625 
Q 45 0 29.703125 0 
L 1.59375 0 
L 1.59375 1.90625 
Q 7.40625 2.296875 8.90625 3.9375 
Q 10.40625 5.59375 10.40625 11.5 
L 10.40625 55 
Q 10.40625 60.796875 8.90625 62.34375 
Q 7.40625 63.90625 1.59375 64.296875 
z
M 20.59375 58.296875 
L 20.59375 8.40625 
Q 20.59375 5.703125 21.546875 4.703125 
Q 22.5 3.703125 25.40625 3.703125 
Q 33.203125 3.703125 38 4.796875 
Q 42.796875 5.90625 47.203125 8.90625 
Q 57.59375 15.90625 57.59375 32.796875 
Q 57.59375 47.296875 48.09375 55.59375 
Q 43.796875 59.40625 38.6875 60.953125 
Q 33.59375 62.5 25.90625 62.5 
Q 23 62.5 21.796875 61.59375 
Q 20.59375 60.703125 20.59375 58.296875 
z
" id="STIXGeneral-Regular-68"/>
     <path d="M 28.703125 67.59375 
L 5.90625 -1.40625 
L -0.90625 -1.40625 
L 22 67.59375 
z
" id="STIXGeneral-Regular-47"/>
     <path d="M 77.5 0 
L 55.703125 0 
L 55.703125 1.5 
Q 59.90625 1.90625 61.046875 3.25 
Q 62.203125 4.59375 62.203125 9 
L 62.203125 29.59375 
Q 62.203125 35.59375 60.453125 38.1875 
Q 58.703125 40.796875 54.5 40.796875 
Q 51 40.796875 48.546875 39.390625 
Q 46.09375 38 43.796875 34.703125 
L 43.796875 9.5 
Q 43.796875 4.703125 45.25 3.140625 
Q 46.703125 1.59375 51 1.5 
L 51 0 
L 28.59375 0 
L 28.59375 1.5 
Q 33 1.796875 34.203125 2.9375 
Q 35.40625 4.09375 35.40625 8.59375 
L 35.40625 29.703125 
Q 35.40625 40.796875 28.90625 40.796875 
Q 26.09375 40.796875 22.9375 39.546875 
Q 19.796875 38.296875 18.296875 36.5 
Q 17 35 17 34.796875 
L 17 7 
Q 17 3.796875 18.390625 2.75 
Q 19.796875 1.703125 23.796875 1.5 
L 23.796875 0 
L 1.59375 0 
L 1.59375 1.5 
Q 5.796875 1.59375 7.1875 3.046875 
Q 8.59375 4.5 8.59375 8.796875 
L 8.59375 33.59375 
Q 8.59375 37.296875 7.796875 38.75 
Q 7 40.203125 5.09375 40.203125 
Q 3.59375 40.203125 1.90625 39.796875 
L 1.90625 41.5 
Q 8.703125 43.40625 15.796875 46 
L 16.59375 45.703125 
L 16.59375 38.296875 
L 16.796875 38.296875 
Q 21.296875 43 24.75 44.5 
Q 28.203125 46 32.09375 46 
Q 40 46 42.703125 37.59375 
Q 50.5 46 59 46 
Q 70.59375 46 70.59375 28 
L 70.59375 7.703125 
Q 70.59375 4.40625 71.59375 3.15625 
Q 72.59375 1.90625 74.90625 1.703125 
L 77.5 1.5 
z
" id="STIXGeneral-Regular-109"/>
     <path d="M 24.5 -15.59375 
L 3.40625 -15.59375 
L 3.40625 -13.09375 
L 12.203125 -13.09375 
Q 14.796875 -13.09375 15.84375 -12 
Q 16.90625 -10.90625 16.90625 -8.5 
L 16.90625 58.296875 
Q 16.90625 63.703125 11.796875 63.703125 
L 3.40625 63.703125 
L 3.40625 66.203125 
L 24.5 66.203125 
z
" id="STIXGeneral-Regular-93"/>
    </defs>
    <g transform="translate(328.314875 34.83975)scale(0.15 -0.15)">
     <use transform="translate(0 0.409375)" xlink:href="#STIXGeneral-Regular-83"/>
     <use transform="translate(57.143272 -12.81875)scale(0.7)" xlink:href="#STIXGeneral-Italic-115"/>
     <use transform="translate(88.782643 0.409375)" xlink:href="#STIXGeneral-Regular-32"/>
     <use transform="translate(113.782628 0.409375)" xlink:href="#STIXGeneral-Regular-61"/>
     <use transform="translate(182.282612 0.409375)" xlink:href="#STIXGeneral-Regular-32"/>
     <use transform="translate(207.282597 0.409375)" xlink:href="#STIXGeneral-Regular-49"/>
     <use transform="translate(257.282582 0.409375)" xlink:href="#STIXGeneral-Regular-48"/>
     <use transform="translate(307.282567 0.409375)" xlink:href="#STIXGeneral-Regular-56"/>
     <use transform="translate(357.282551 0.409375)" xlink:href="#STIXGeneral-Regular-46"/>
     <use transform="translate(382.282536 0.409375)" xlink:href="#STIXGeneral-Regular-57"/>
     <use transform="translate(432.282521 0.409375)" xlink:href="#STIXGeneral-Regular-54"/>
     <use transform="translate(482.282505 0.409375)" xlink:href="#STIXGeneral-Regular-32"/>
     <use transform="translate(507.28249 0.409375)" xlink:href="#STIXGeneral-Regular-91"/>
     <use transform="translate(540.582478 0.409375)" xlink:href="#STIXGeneral-Regular-103"/>
     <use transform="translate(590.582463 0.409375)" xlink:href="#STIXGeneral-Regular-67"/>
     <use transform="translate(657.28246 0.409375)" xlink:href="#STIXGeneral-Regular-79"/>
     <use transform="translate(729.482441 0.409375)" xlink:href="#STIXGeneral-Regular-68"/>
     <use transform="translate(801.682423 0.409375)" xlink:href="#STIXGeneral-Regular-47"/>
     <use transform="translate(829.482411 0.409375)" xlink:href="#STIXGeneral-Regular-109"/>
     <use transform="translate(908.82568 35.684375)scale(0.7)" xlink:href="#STIXGeneral-Regular-51"/>
     <use transform="translate(948.235044 0.409375)" xlink:href="#STIXGeneral-Regular-93"/>
    </g>
   </g>
   <g id="text_19">
    <!-- X$_{Hw}$ = 17.81 [gCOD/m$^3$] -->
    <defs>
     <path d="M 70.40625 0 
L 40.796875 0 
L 40.796875 1.90625 
L 43.40625 2.09375 
Q 48.40625 2.40625 48.40625 5 
Q 48.40625 7.203125 43.296875 14.796875 
L 33.796875 28.90625 
L 21.90625 14 
Q 16.59375 7.40625 16.59375 5.09375 
Q 16.59375 3.59375 18.25 2.890625 
Q 19.90625 2.203125 24.203125 1.90625 
L 24.203125 0 
L 1 0 
L 1 1.90625 
Q 4.90625 2.296875 7.34375 4.1875 
Q 9.796875 6.09375 15.5 13.296875 
L 31.09375 32.796875 
L 20.5 48.296875 
Q 13.5 58.5 10.390625 61.140625 
Q 7.296875 63.796875 2.203125 64.296875 
L 2.203125 66.203125 
L 32.296875 66.203125 
L 32.296875 64.296875 
L 29.40625 64.203125 
Q 27.09375 64.09375 25.9375 63.5 
Q 24.796875 62.90625 24.796875 61.296875 
Q 24.796875 60.703125 24.9375 60.046875 
Q 25.09375 59.40625 25.546875 58.5 
Q 26 57.59375 26.390625 56.84375 
Q 26.796875 56.09375 27.640625 54.796875 
Q 28.5 53.5 29.09375 52.59375 
Q 29.703125 51.703125 31 49.84375 
Q 32.296875 48 33.09375 46.796875 
L 37.5 40.40625 
L 48.703125 54.40625 
Q 52.703125 59.296875 52.703125 61.09375 
Q 52.703125 62.796875 51.296875 63.5 
Q 49.90625 64.203125 45.90625 64.296875 
L 45.90625 66.203125 
L 69.59375 66.203125 
L 69.59375 64.296875 
Q 64.796875 64 62 62.140625 
Q 59.203125 60.296875 54.40625 54.40625 
L 40.09375 36.703125 
L 59.296875 9.296875 
Q 62.203125 5.09375 64.296875 3.75 
Q 66.40625 2.40625 70.40625 1.90625 
z
" id="STIXGeneral-Regular-88"/>
     <path d="M 76.90625 65.296875 
L 76.90625 63.703125 
Q 72.5 62.90625 71.09375 61.703125 
Q 69.703125 60.5 68.5 56.296875 
L 55.296875 8.203125 
Q 55 7 55 5.796875 
Q 55 3.703125 56.5 2.890625 
Q 58 2.09375 62.90625 1.59375 
L 62.90625 0 
L 35.5 0 
L 35.5 1.59375 
Q 40.59375 2 42.640625 3.703125 
Q 44.703125 5.40625 45.703125 9.296875 
L 52.09375 32.59375 
L 23.59375 32.59375 
L 17 8.203125 
Q 16.703125 7.203125 16.703125 6 
Q 16.703125 3.796875 17.953125 3 
Q 19.203125 2.203125 23.703125 1.59375 
L 23.703125 0 
L -0.796875 0 
L -0.796875 1.59375 
Q 3.296875 2 4.84375 3.59375 
Q 6.40625 5.203125 7.796875 10.203125 
L 19.59375 53.203125 
Q 20.796875 57.796875 20.796875 59.59375 
Q 20.796875 61.703125 19.34375 62.453125 
Q 17.90625 63.203125 13.09375 63.703125 
L 13.09375 65.296875 
L 40.203125 65.296875 
L 40.203125 63.703125 
Q 35.703125 63.40625 33.453125 61.796875 
Q 31.203125 60.203125 30.203125 56.59375 
L 24.796875 36.796875 
L 53.296875 36.796875 
L 57.90625 53.203125 
Q 59.296875 58.40625 59.296875 59.5 
Q 59.296875 61.40625 57.6875 62.40625 
Q 56.09375 63.40625 52.09375 63.703125 
L 52.09375 65.296875 
z
" id="STIXGeneral-Italic-72"/>
     <path d="M 40.296875 42.59375 
L 43.5 7.40625 
Q 53.40625 19.703125 56.703125 24.953125 
Q 60 30.203125 60 33.40625 
Q 60 34.796875 57.796875 36.90625 
Q 55.703125 38.90625 55.703125 41 
Q 55.703125 42.203125 56.84375 43.140625 
Q 58 44.09375 59.59375 44.09375 
Q 61.796875 44.09375 63.296875 42.5 
Q 64.796875 40.90625 64.796875 38.5 
Q 64.796875 29.40625 43.59375 3.59375 
L 42.703125 2.5 
Q 39.203125 -1.796875 38.203125 -1.796875 
Q 37.40625 -1.796875 37.09375 1.703125 
L 34.203125 32.703125 
L 25.296875 17.5 
Q 23 13.703125 19.796875 7.59375 
Q 14.90625 -1.796875 13.40625 -1.796875 
Q 12.703125 -1.796875 12.5 -0.890625 
Q 12.296875 0 12.09375 2.90625 
L 11.703125 12 
Q 10.90625 28.40625 9 36.203125 
Q 8.296875 38.90625 7.4375 39.65625 
Q 6.59375 40.40625 4.296875 40.40625 
L 1.5 40.40625 
L 1.5 41.703125 
Q 9.40625 43 11 43.40625 
Q 11.5 43.5 12.140625 43.703125 
Q 12.796875 43.90625 13.1875 44 
Q 13.59375 44.09375 13.90625 44.09375 
Q 14.703125 44.09375 15 43.59375 
Q 15.296875 43.09375 15.796875 40.703125 
Q 18.296875 28.703125 19 12.59375 
L 38.203125 43 
Q 38.796875 44 39.5 44 
Q 40.296875 44 40.296875 42.59375 
z
" id="STIXGeneral-Italic-119"/>
     <path d="M 44.90625 64.59375 
L 23.703125 -0.796875 
L 17.203125 -0.796875 
L 37 58.796875 
L 15.5 58.796875 
Q 11.203125 58.796875 9.09375 57.296875 
Q 7 55.796875 3.796875 50.59375 
L 2 51.5 
L 8 66.203125 
L 44.90625 66.203125 
z
" id="STIXGeneral-Regular-55"/>
    </defs>
    <g transform="translate(328.314875 57.01575)scale(0.15 -0.15)">
     <use transform="translate(0 0.409375)" xlink:href="#STIXGeneral-Regular-88"/>
     <use transform="translate(73.743263 -12.81875)scale(0.7)" xlink:href="#STIXGeneral-Italic-72"/>
     <use transform="translate(124.28325 -12.81875)scale(0.7)" xlink:href="#STIXGeneral-Italic-119"/>
     <use transform="translate(175.382623 0.409375)" xlink:href="#STIXGeneral-Regular-32"/>
     <use transform="translate(200.382608 0.409375)" xlink:href="#STIXGeneral-Regular-61"/>
     <use transform="translate(268.882592 0.409375)" xlink:href="#STIXGeneral-Regular-32"/>
     <use transform="translate(293.882577 0.409375)" xlink:href="#STIXGeneral-Regular-49"/>
     <use transform="translate(343.882562 0.409375)" xlink:href="#STIXGeneral-Regular-55"/>
     <use transform="translate(393.882547 0.409375)" xlink:href="#STIXGeneral-Regular-46"/>
     <use transform="translate(418.882531 0.409375)" xlink:href="#STIXGeneral-Regular-56"/>
     <use transform="translate(468.882516 0.409375)" xlink:href="#STIXGeneral-Regular-49"/>
     <use transform="translate(518.882501 0.409375)" xlink:href="#STIXGeneral-Regular-32"/>
     <use transform="translate(543.882486 0.409375)" xlink:href="#STIXGeneral-Regular-91"/>
     <use transform="translate(577.182473 0.409375)" xlink:href="#STIXGeneral-Regular-103"/>
     <use transform="translate(627.182458 0.409375)" xlink:href="#STIXGeneral-Regular-67"/>
     <use transform="translate(693.882455 0.409375)" xlink:href="#STIXGeneral-Regular-79"/>
     <use transform="translate(766.082437 0.409375)" xlink:href="#STIXGeneral-Regular-68"/>
     <use transform="translate(838.282419 0.409375)" xlink:href="#STIXGeneral-Regular-47"/>
     <use transform="translate(866.082406 0.409375)" xlink:href="#STIXGeneral-Regular-109"/>
     <use transform="translate(945.425675 35.684375)scale(0.7)" xlink:href="#STIXGeneral-Regular-51"/>
     <use transform="translate(984.83504 0.409375)" xlink:href="#STIXGeneral-Regular-93"/>
    </g>
   </g>
   <g id="text_20">
    <!-- X$_{s,fast}$ = 224.75 [gCOD/m$^3$] -->
    <defs>
     <path d="M 4.09375 42.796875 
L 13.40625 42.796875 
Q 17.296875 55.40625 20.59375 60.09375 
Q 26 67.796875 33.796875 67.796875 
Q 37.5 67.796875 39.953125 66.046875 
Q 42.40625 64.296875 42.40625 61.59375 
Q 42.40625 59.90625 41.15625 58.59375 
Q 39.90625 57.296875 38.203125 57.296875 
Q 36.796875 57.296875 35.640625 58.390625 
Q 34.5 59.5 34.5 61.203125 
Q 34.5 62.203125 35 63.09375 
Q 35.5 64 35.5 64.296875 
Q 35.5 65.59375 33.296875 65.59375 
Q 29.09375 65.59375 26.1875 60.140625 
Q 23.296875 54.703125 21.09375 42.796875 
L 31.796875 42.796875 
L 31.203125 39.59375 
L 20.40625 39.59375 
L 13.203125 7.59375 
Q 6.796875 -20.703125 -6.796875 -20.703125 
Q -10.203125 -20.703125 -12.453125 -18.953125 
Q -14.703125 -17.203125 -14.703125 -14.59375 
Q -14.703125 -12.90625 -13.59375 -11.65625 
Q -12.5 -10.40625 -10.90625 -10.40625 
Q -9.203125 -10.40625 -8.140625 -11.453125 
Q -7.09375 -12.5 -7.09375 -14.09375 
Q -7.09375 -14.796875 -7.546875 -15.640625 
Q -8 -16.5 -8 -17 
Q -8 -18.59375 -6 -18.59375 
Q 0.203125 -18.59375 3.703125 -2.40625 
L 12.5 39.59375 
L 3.40625 39.59375 
z
" id="STIXGeneral-Italic-102"/>
     <path d="M 46.296875 11.09375 
L 47.59375 10 
Q 42 3.203125 39.34375 1.09375 
Q 36.703125 -1 33.703125 -1 
Q 29.703125 -1 29.703125 3.09375 
Q 29.703125 5.59375 32 14.59375 
Q 26.40625 6.203125 21.703125 2.546875 
Q 17 -1.09375 11.703125 -1.09375 
Q 7.296875 -1.09375 4.5 1.953125 
Q 1.703125 5 1.703125 10.5 
Q 1.703125 18.09375 6.046875 26 
Q 10.40625 33.90625 17.09375 39 
Q 23.796875 44.09375 30.296875 44.09375 
Q 37 44.09375 38.296875 38.296875 
L 39.40625 43.09375 
L 39.703125 43.40625 
L 45.796875 44.09375 
L 46.5 43.796875 
Q 46.40625 43.40625 45.90625 41.703125 
Q 37 9.296875 37 5.40625 
Q 37 4.09375 38.40625 4.09375 
Q 39.90625 4.09375 43.59375 8.203125 
z
M 36.5 36.09375 
Q 36.5 38.703125 35 40.296875 
Q 33.5 41.90625 30.90625 41.90625 
Q 24.09375 41.90625 17.796875 32.703125 
Q 14.5 27.796875 12.296875 21.796875 
Q 10.09375 15.796875 10.09375 11.203125 
Q 10.09375 3.796875 16.09375 3.796875 
Q 22 3.796875 28.796875 13.59375 
Q 36.5 24.703125 36.5 36.09375 
z
" id="STIXGeneral-Italic-97"/>
     <path d="M 29.59375 42.796875 
L 29.09375 39.59375 
L 20.703125 39.59375 
L 12 6.796875 
Q 11.796875 6 11.796875 5.40625 
Q 11.796875 3.796875 13.296875 3.796875 
Q 14.5 3.796875 16.09375 5.34375 
Q 17.703125 6.90625 21.40625 11.703125 
L 22.703125 11 
Q 18.09375 4 15.140625 1.453125 
Q 12.203125 -1.09375 8.40625 -1.09375 
Q 3.796875 -1.09375 3.796875 2.59375 
Q 3.796875 3.59375 5.40625 10 
L 13.203125 39.59375 
L 5.703125 39.59375 
L 5.59375 40.203125 
Q 5.59375 42 8.90625 42.703125 
Q 11.40625 43.296875 15.5 46.546875 
Q 19.59375 49.796875 22.203125 53.703125 
Q 22.796875 54.59375 23.59375 54.59375 
Q 24.5 54.59375 24.5 53.796875 
Q 24.5 53.296875 24.40625 53.09375 
L 21.59375 42.796875 
z
" id="STIXGeneral-Italic-116"/>
    </defs>
    <g transform="translate(328.314875 79.19175)scale(0.15 -0.15)">
     <use transform="translate(0 0.409375)" xlink:href="#STIXGeneral-Regular-88"/>
     <use transform="translate(73.743263 -12.81875)scale(0.7)" xlink:href="#STIXGeneral-Italic-115"/>
     <use transform="translate(100.973259 -12.81875)scale(0.7)" xlink:href="#STIXGeneral-Regular-44"/>
     <use transform="translate(128.581245 -12.81875)scale(0.7)" xlink:href="#STIXGeneral-Italic-102"/>
     <use transform="translate(148.041237 -12.81875)scale(0.7)" xlink:href="#STIXGeneral-Italic-97"/>
     <use transform="translate(183.11123 -12.81875)scale(0.7)" xlink:href="#STIXGeneral-Italic-115"/>
     <use transform="translate(210.341226 -12.81875)scale(0.7)" xlink:href="#STIXGeneral-Italic-116"/>
     <use transform="translate(234.210593 0.409375)" xlink:href="#STIXGeneral-Regular-32"/>
     <use transform="translate(259.210577 0.409375)" xlink:href="#STIXGeneral-Regular-61"/>
     <use transform="translate(327.710562 0.409375)" xlink:href="#STIXGeneral-Regular-32"/>
     <use transform="translate(352.710547 0.409375)" xlink:href="#STIXGeneral-Regular-50"/>
     <use transform="translate(402.710532 0.409375)" xlink:href="#STIXGeneral-Regular-50"/>
     <use transform="translate(452.710516 0.409375)" xlink:href="#STIXGeneral-Regular-52"/>
     <use transform="translate(502.710501 0.409375)" xlink:href="#STIXGeneral-Regular-46"/>
     <use transform="translate(527.710486 0.409375)" xlink:href="#STIXGeneral-Regular-55"/>
     <use transform="translate(577.710471 0.409375)" xlink:href="#STIXGeneral-Regular-53"/>
     <use transform="translate(627.710455 0.409375)" xlink:href="#STIXGeneral-Regular-32"/>
     <use transform="translate(652.71044 0.409375)" xlink:href="#STIXGeneral-Regular-91"/>
     <use transform="translate(686.010428 0.409375)" xlink:href="#STIXGeneral-Regular-103"/>
     <use transform="translate(736.010413 0.409375)" xlink:href="#STIXGeneral-Regular-67"/>
     <use transform="translate(802.71041 0.409375)" xlink:href="#STIXGeneral-Regular-79"/>
     <use transform="translate(874.910391 0.409375)" xlink:href="#STIXGeneral-Regular-68"/>
     <use transform="translate(947.110373 0.409375)" xlink:href="#STIXGeneral-Regular-47"/>
     <use transform="translate(974.910361 0.409375)" xlink:href="#STIXGeneral-Regular-109"/>
     <use transform="translate(1054.25363 35.684375)scale(0.7)" xlink:href="#STIXGeneral-Regular-51"/>
     <use transform="translate(1093.662994 0.409375)" xlink:href="#STIXGeneral-Regular-93"/>
    </g>
   </g>
  </g>
 </g>
 <defs>
  <clipPath id="p0d11a3d869">
   <rect height="277.2" width="446.4" x="51.546875" y="12.66375"/>
  </clipPath>
 </defs>
</svg>
